<svg width="107" height="75" viewBox="0 0 107 75" fill="none" xmlns="http://www.w3.org/2000/svg">
<path d="M52.4586 7.79327C55.7247 0.220953 68.3733 1.72955 76.3729 3.9475C84.3724 6.16545 91.2407 12.6336 93.0732 20.6663C94.0824 25.1109 93.6207 29.9623 95.7574 33.999C97.9284 38.1145 102.414 40.6428 104.576 44.764C107.258 49.8687 105.626 56.4278 101.857 60.8104C98.0875 65.193 92.5834 67.7378 87.0362 69.4624C83.609 70.5295 80.0872 71.3383 76.5098 71.6657C63.925 72.8167 51.2081 68.0177 38.7514 70.142C33.338 71.0649 28.0123 73.29 22.5523 72.6946C19.1754 72.3286 16.0138 70.8995 13.0134 69.3205C8.2794 66.8274 3.25948 63.0799 3.04971 57.7693C2.78171 50.9246 10.5708 46.2664 11.9137 39.5458C12.4464 36.8865 11.908 34.1509 11.6518 31.4516C11.1383 26.0711 11.8048 20.4517 14.4424 15.7188C17.0801 10.986 21.8793 7.2686 27.3064 6.74516C32.2582 6.26761 37.0428 8.36413 41.9264 9.28758C46.8101 10.211 51.7973 9.32841 52.4586 7.79327Z" fill="#EBEBEB"/>
<path d="M18.0502 49.2251C18.2603 45.2165 18.4895 41.1325 19.9229 37.3778C21.1643 38.1911 22.7264 38.3354 24.2231 38.4477C38.3966 39.5058 52.6302 39.5289 66.8087 38.5169C68.211 38.3292 69.3159 37.2022 69.7173 35.9682C70.1186 34.7341 69.9989 33.4114 69.9625 32.1054C69.8297 27.164 70.9921 22.2719 73.3363 17.9064C74.3887 15.9559 75.9131 13.9651 78.1146 13.6097C79.8874 13.3221 81.6862 14.2118 82.9277 15.4961C83.6607 16.2863 84.2819 17.1716 84.7744 18.1277C85.3336 20.4097 85.9001 22.6895 86.4209 24.973C87.3366 28.9994 88.1226 33.0418 88.7012 37.1305C88.9982 39.2318 89.3061 41.3291 89.6907 43.4179C89.7375 43.6761 89.7953 43.932 89.8476 44.19C90.0736 45.6486 90.314 47.1012 90.5544 48.5519C91.0135 51.3251 91.4708 54.1912 90.7921 56.9198C90.39 57.8386 89.7443 58.6324 88.9236 59.2169C87.6566 60.1429 86.1008 60.5821 84.5876 60.985C80.4732 62.0807 76.1469 63.063 71.9918 62.1364C61.857 63.0442 51.8222 63.4571 41.7834 63.5356C36.2783 63.5693 30.77 63.5214 25.2855 63.1924C22.9156 62.9488 20.9762 61.3737 19.894 59.4704C18.8118 57.5671 18.4245 55.3638 18.0557 53.209C17.9078 51.9637 17.9787 50.5862 18.0502 49.2251Z" fill="white"/>
<path d="M86.5947 19.9222C89.2268 19.5482 91.8657 20.9887 93.555 23.0209C95.2443 25.0532 96.1447 27.6091 96.8824 30.1387C97.3905 31.8626 97.876 33.6692 99.0705 35.019C99.1867 35.1273 99.2698 35.2658 99.3101 35.4187C99.3135 35.5711 99.2708 35.7209 99.1875 35.8491L98.0495 38.052C97.7194 38.7528 97.3146 39.4166 96.8422 40.0322C95.9568 41.0943 94.7079 41.776 93.48 42.4332C92.5613 42.9256 91.6315 43.4148 90.6257 43.696C89.8859 43.8887 89.1238 43.9839 88.359 43.9793C85.7408 43.9919 83.1929 43.1451 81.113 41.5712C79.0331 39.9972 77.5384 37.7848 76.8623 35.2794C77.4681 35.3739 78.0465 34.9112 78.2946 34.3578C78.5428 33.8044 78.5513 33.1785 78.579 32.5719C78.6959 29.9741 79.2952 27.4196 80.347 25.0364C80.8951 23.8003 81.5784 22.5952 82.5661 21.6637C83.5539 20.7322 84.9027 20.163 86.5947 19.9222Z" fill="white"/>
<path d="M90.3675 43.9801C91.0433 46.8624 91.4714 49.7966 91.6471 52.7509C91.7117 53.8394 91.7415 54.9292 91.4692 55.9891C90.8955 58.2136 88.8842 60.0053 86.523 60.5469C84.5178 61.1503 82.4869 61.6583 80.4302 62.071C78.2305 62.5208 75.9708 62.8421 73.7428 62.5674C71.5148 62.2928 69.2902 61.3544 67.7159 59.4467C66.6983 56.8954 65.6502 54.2707 65.6456 51.5269C65.6623 50.6251 65.7362 49.7252 65.8668 48.8325C66.0632 47.2392 66.2614 45.6458 66.3193 43.9834C68.1945 45.4665 70.5101 46.2905 72.8219 46.9237C75.3767 47.6237 78.0414 48.1267 80.6714 47.7928C83.3014 47.4589 85.9113 46.1911 87.3282 43.9845C88.3403 43.9226 89.3553 43.9211 90.3675 43.9801Z" fill="#C7E3E5"/>
<path d="M77.5972 13.4062C76.0916 14.0962 74.8954 15.3304 74.0199 16.7357C73.1443 18.1411 72.5606 19.6859 72.0175 21.2383C71.5469 22.5805 71.1006 23.9326 70.76 25.3116C70.176 27.769 69.856 30.2805 69.8052 32.8043C69.7597 34.3608 69.7334 36.0802 68.6828 37.2323C67.5372 38.4919 65.6166 38.6144 63.9122 38.6811C61.4033 38.7793 58.8952 38.9448 56.0619 39.1958C45.756 39.5775 35.4376 39.125 25.1357 38.6719C22.955 38.5755 20.4407 38.3012 19.0406 36.2012C17.8195 33.2492 17.5428 29.9963 18.2481 26.8822C18.6622 25.0821 19.3954 23.3714 20.1648 21.692C20.7362 20.4404 21.3404 19.1839 22.2279 18.1309C23.5331 16.5869 25.364 15.5805 27.6787 14.5989C39.3166 14.9578 50.966 14.7111 62.5787 13.8597C64.4382 13.7233 66.2953 13.5706 68.1558 13.4595C71.2992 13.256 74.4519 13.2382 77.5972 13.4062Z" fill="#C7E3E5"/>
<path d="M92.3196 21.4506C95.4337 24.3854 96.1608 28.9374 97.782 32.8871C98.212 33.9322 98.7832 35.0208 99.8049 35.5191C100.718 35.9634 101.856 35.8243 102.722 35.2939C104.394 34.2647 104.943 32.0121 104.538 30.1059C104.133 28.1998 102.958 26.5511 101.816 24.9628L100.302 22.8583C99.7063 22.0306 99.0989 21.1907 98.2873 20.5733C97.4757 19.9559 96.4127 19.5738 95.4158 19.802C94.2952 20.0586 93.4809 21.0142 92.3196 21.4506Z" fill="#31C781"/>
<path d="M82.8593 21.541C80.1397 24.6478 79.2242 28.8768 78.485 32.9225C78.3232 33.8053 78.1236 34.7551 77.4326 35.3422C76.3396 36.2578 74.5892 35.7117 73.5985 34.6922C72.0914 33.1402 71.7114 30.7475 72.2112 28.6514C72.7109 26.5552 73.9807 24.7162 75.4207 23.1015C76.3542 22.0521 77.4161 21.0468 78.7491 20.5873C79.4538 20.3324 80.2181 20.2869 80.9483 20.4563C81.6785 20.6257 82.3426 21.0027 82.8593 21.541Z" fill="#31C781"/>
<path d="M101.108 36.119C101.723 36.084 102.315 35.8801 102.819 35.5301C104.478 34.4396 105.542 32.0868 105.098 30.4931C104.214 27.3146 102.112 24.5439 100.205 22.1965C99.4338 21.252 98.5727 20.3075 97.4233 19.7815C96.3317 19.2787 94.7591 19.1967 93.7037 20.1326C93.6723 20.1604 93.6468 20.1939 93.6286 20.2314C93.6103 20.2689 93.5997 20.3096 93.5973 20.3511C93.5949 20.3927 93.6008 20.4343 93.6147 20.4736C93.6285 20.5128 93.6501 20.549 93.678 20.58C93.706 20.6111 93.7399 20.6363 93.7777 20.6544C93.8155 20.6724 93.8566 20.6829 93.8985 20.6852C93.9405 20.6875 93.9825 20.6817 94.0221 20.6679C94.0618 20.6542 94.0983 20.6328 94.1296 20.6051C94.9686 19.8594 96.2531 19.9437 97.1557 20.3557C98.1857 20.8299 98.9891 21.7077 99.7064 22.5888C101.571 24.8797 103.63 27.5957 104.483 30.659C104.854 31.9919 103.894 34.0606 102.466 35.0002C101.751 35.4737 100.638 35.8392 99.4283 34.8937C98.7674 34.3741 98.4154 33.5423 98.1386 32.8003C97.7939 31.8737 97.4919 30.9091 97.202 29.9749C96.7234 28.4407 96.23 26.8544 95.5148 25.3714C94.7159 23.7188 92.9063 20.8166 89.7506 19.9601C88.7896 19.7157 87.7928 19.6391 86.805 19.7336C85.3778 19.8476 83.3891 20.2928 82.0224 21.7665C81.4944 22.3709 81.0601 23.0498 80.7339 23.7808C79.2054 26.9319 78.5072 30.4778 78.0263 33.5242C77.9585 33.9487 77.8895 34.3896 77.6618 34.7149C77.2726 35.2757 76.4925 35.4172 75.892 35.3607C74.304 35.2137 72.8414 33.8127 72.4178 32.0418C71.9634 30.1412 72.6126 28.2047 73.234 26.9184C74.4224 24.4552 77.044 21.3759 79.2036 20.6986C79.811 20.5075 80.3331 20.5289 80.7534 20.7633C80.7904 20.7836 80.831 20.7965 80.873 20.8012C80.9149 20.8059 80.9575 20.8024 80.9981 20.7909C81.0387 20.7793 81.0766 20.76 81.1097 20.7339C81.1428 20.7078 81.1704 20.6755 81.1909 20.6389C81.2114 20.6023 81.2244 20.562 81.2292 20.5205C81.234 20.4789 81.2305 20.4367 81.2189 20.3965C81.2072 20.3563 81.1877 20.3187 81.1614 20.2859C81.1351 20.2532 81.1026 20.2259 81.0656 20.2056C80.4858 19.881 79.7941 19.8426 79.0108 20.0878C76.6536 20.8257 73.9328 23.998 72.6596 26.639C71.7039 28.6221 71.4045 30.5395 71.7975 32.1861C72.2829 34.2219 73.9811 35.8264 75.8344 35.9994C76.6154 36.0706 77.6445 35.8685 78.1846 35.0818C78.4939 34.6369 78.5793 34.1008 78.6526 33.6288C79.1281 30.6316 79.8141 27.1499 81.3068 24.0693C81.6068 23.3934 82.0058 22.765 82.4911 22.2045C83.7151 20.8838 85.5439 20.4794 86.8522 20.3754C87.7639 20.2876 88.6839 20.3574 89.5712 20.5817C92.4841 21.3769 94.1784 24.0999 94.9294 25.6561C95.6246 27.0963 96.1117 28.6611 96.5747 30.174C96.8685 31.1153 97.1728 32.089 97.5236 33.0317C97.8537 33.9152 98.2636 34.8211 99.0168 35.4008C99.6015 35.8856 100.346 36.1411 101.108 36.119Z" fill="black"/>
<path d="M88.6445 44.3754C93.2518 44.195 97.5658 41.1167 99.1784 36.8313C99.1945 36.7921 99.2025 36.7501 99.2019 36.7078C99.2013 36.6655 99.1921 36.6237 99.175 36.585C99.1578 36.5463 99.1329 36.5114 99.1019 36.4823C99.0709 36.4533 99.0342 36.4308 98.9942 36.416C98.9542 36.4013 98.9116 36.3946 98.8689 36.3965C98.8263 36.3984 98.7844 36.4087 98.7458 36.4269C98.7073 36.4451 98.6728 36.4707 98.6444 36.5024C98.616 36.534 98.5943 36.5709 98.5806 36.611C97.0308 40.7194 92.8542 43.6505 88.4327 43.7491C84.0113 43.8476 79.7147 41.0883 77.9945 37.0479C77.9782 37.0097 77.9544 36.9749 77.9245 36.9458C77.8947 36.9166 77.8593 36.8936 77.8204 36.8779C77.7815 36.8623 77.7399 36.8544 77.698 36.8548C77.656 36.8551 77.6145 36.8636 77.5759 36.8798C77.5372 36.896 77.5021 36.9196 77.4727 36.9492C77.4432 36.9788 77.4199 37.0139 77.4041 37.0524C77.3883 37.0909 77.3804 37.1321 77.3806 37.1737C77.3809 37.2153 77.3895 37.2564 77.4058 37.2946C79.225 41.5657 83.7644 44.481 88.4447 44.3814L88.6445 44.3754Z" fill="black"/>
<path d="M56.4226 39.5577C59.8148 39.4249 63.1994 39.1905 66.5686 38.7968C67.0821 38.7385 67.7217 38.6661 68.2771 38.3662C69.8184 37.5567 70.0646 35.6414 70.1132 33.6938C70.2411 27.1645 71.4419 21.8769 73.7863 17.5301C74.967 15.34 76.2647 14.1218 77.7537 13.8035C79.0278 13.5299 80.5429 13.9725 81.7976 14.9853C82.9539 15.9201 83.7922 17.1729 84.618 18.4825C84.6379 18.522 84.666 18.5569 84.7003 18.585C84.7347 18.613 84.7746 18.6337 84.8175 18.6455C84.8604 18.6574 84.9054 18.6602 84.9495 18.6539C84.9936 18.6475 85.0358 18.632 85.0735 18.6085C85.1112 18.5849 85.1436 18.5538 85.1684 18.5171C85.1933 18.4805 85.2101 18.4391 85.2178 18.3956C85.2255 18.3521 85.224 18.3075 85.2132 18.2647C85.2025 18.2218 85.1829 18.1817 85.1555 18.1469C84.3003 16.7911 83.4306 15.4868 82.1969 14.495C80.7942 13.3607 79.0809 12.8714 77.6157 13.1852C75.9319 13.5439 74.4933 14.8676 73.2203 17.2322C70.8244 21.6683 69.5997 27.0496 69.4703 33.6808C69.4362 35.4369 69.2388 37.1448 67.9799 37.8069C67.5627 38.0268 67.0734 38.0951 66.496 38.1613C55.7295 39.3885 44.7158 39.0869 34.0642 38.7966L28.4586 38.6524C26.5072 38.5979 24.4915 38.5441 22.5656 38.1558C21.8016 38.0039 20.8369 37.7416 20.167 37.1332C19.4971 36.5249 19.1415 35.5532 18.9104 34.7131C17.2878 28.8069 19.0186 22.1493 23.3213 17.7513C24.4314 16.6168 25.4513 15.8987 26.5147 15.4915C28.0591 14.9019 29.7975 14.9557 31.4863 15.0059L31.5651 15.0028C45.7519 15.4347 60.1389 14.4659 74.0497 13.5212C74.0915 13.5184 74.1324 13.5074 74.1699 13.4889C74.2075 13.4705 74.241 13.4448 74.2686 13.4135C74.2962 13.3822 74.3173 13.3459 74.3307 13.3065C74.3441 13.2671 74.3495 13.2255 74.3467 13.1841C74.3443 13.1424 74.3336 13.1017 74.3152 13.0643C74.2967 13.0268 74.2709 12.9934 74.2392 12.966C74.2075 12.9386 74.1706 12.9178 74.1307 12.9048C74.0907 12.8917 74.0485 12.8867 74.0066 12.8901C60.1101 13.8251 45.7413 14.7914 31.5862 14.3692L31.5055 14.3724C29.7579 14.319 27.9497 14.2643 26.2859 14.8986C25.143 15.3361 24.023 16.1237 22.8635 17.3092C18.4073 21.8642 16.6124 28.7606 18.2947 34.879C18.5344 35.7516 18.9226 36.8547 19.7354 37.5956C20.5196 38.3105 21.5901 38.6013 22.4356 38.7737C24.4229 39.1814 26.468 39.2377 28.445 39.2912L34.0525 39.4353C41.3971 39.6442 48.9196 39.8515 56.4226 39.5577Z" fill="black"/>
<path d="M75.5083 62.9093C76.5976 62.8562 77.6828 62.7391 78.7581 62.5584C80.7518 62.2403 82.7571 61.8436 84.7176 61.3813C86.5072 60.9585 88.5334 60.3918 89.9324 58.9951C91.3881 57.5452 92.099 55.2171 91.9317 52.4434C91.841 51.2991 91.6904 50.1603 91.4805 49.0316C91.2755 47.9347 91.128 46.8279 91.0387 45.7158C91.0334 45.6321 90.9949 45.5539 90.9314 45.4984C90.9 45.4709 90.8634 45.4499 90.8238 45.4364C90.7842 45.4229 90.7422 45.4173 90.7004 45.4199C90.6585 45.4225 90.6176 45.4332 90.5799 45.4515C90.5423 45.4698 90.5086 45.4952 90.4809 45.5263C90.4531 45.5575 90.4318 45.5937 90.4182 45.633C90.4046 45.6723 90.3989 45.7139 90.4015 45.7553C90.4918 46.8893 90.642 48.0178 90.8514 49.1362C91.0577 50.2427 91.2056 51.3592 91.2944 52.481C91.3844 53.9831 91.2787 56.7676 89.4801 58.5527C88.1994 59.8303 86.3529 60.3463 84.5706 60.767C82.6247 61.2269 80.6339 61.6194 78.6566 61.935C75.7526 62.3979 72.4444 62.6619 69.9603 61.0954C68.3043 60.0547 67.0651 58.2212 66.469 55.9352C65.9141 53.8094 65.9549 51.5712 66.0801 49.4697C66.2666 46.3691 66.6553 43.2835 67.2437 40.2323C67.2597 40.1499 67.242 40.0646 67.1945 39.9952C67.147 39.9258 67.0737 39.8779 66.9906 39.8621C66.9074 39.8463 66.8213 39.8639 66.7512 39.911C66.6811 39.9581 66.6328 40.0308 66.6168 40.1132C66.0234 43.1916 65.6315 46.3046 65.4436 49.4328C65.3149 51.5854 65.2746 53.8835 65.8511 56.0921C66.4865 58.5366 67.8244 60.5026 69.6177 61.6289C71.3603 62.7244 73.4356 62.9905 75.5083 62.9093Z" fill="black"/>
<path d="M53.4626 63.6764C58.219 63.4902 62.9583 63.1961 67.6805 62.7942C67.7223 62.7907 67.763 62.779 67.8003 62.7599C67.8376 62.7408 67.8707 62.7146 67.8978 62.6828C67.9248 62.651 67.9453 62.6143 67.958 62.5746C67.9707 62.535 67.9754 62.4933 67.9718 62.4519C67.9638 62.3686 67.9231 62.2917 67.8585 62.2378C67.794 62.1839 67.7106 62.1572 67.6264 62.1635C54.4191 63.2822 41.1535 63.5586 27.9117 62.9912C25.9831 62.9103 24.267 62.7702 22.7999 62.0076C20.1765 60.6356 18.7109 57.4709 18.4156 52.6019C18.1454 48.145 18.4921 43.672 19.4461 39.3074C19.4549 39.2668 19.4557 39.2249 19.4482 39.1841C19.4408 39.1432 19.4253 39.1042 19.4026 39.0693C19.3799 39.0344 19.3505 39.0042 19.3161 38.9806C19.2817 38.957 19.2429 38.9403 19.2019 38.9315C19.1609 38.9227 19.1186 38.922 19.0774 38.9294C19.0361 38.9368 18.9968 38.9522 18.9615 38.9747C18.9263 38.9972 18.8958 39.0263 18.8719 39.0605C18.848 39.0946 18.8312 39.1331 18.8223 39.1737C17.8556 43.5951 17.5044 48.1264 17.7784 52.6414C18.0884 57.7443 19.6765 61.0843 22.5006 62.5666C24.086 63.3992 25.8774 63.5382 27.8834 63.6287C36.374 63.9945 44.9334 64.0104 53.4626 63.6764Z" fill="black"/>
<path d="M79.0934 48.1115C82.7221 47.9694 86.0095 46.6133 88.1709 44.3412C88.227 44.2799 88.2567 44.1993 88.2536 44.1167C88.2505 44.0341 88.2148 43.956 88.1543 43.8991C88.0937 43.8423 88.013 43.8112 87.9296 43.8126C87.8461 43.814 87.7665 43.8477 87.7078 43.9065C85.525 46.1922 82.1401 47.4976 78.4212 47.4905C75.4328 47.4838 72.1686 46.6697 68.4397 45.001C68.3624 44.9664 68.2744 44.9637 68.195 44.9934C68.1156 45.0231 68.0513 45.0828 68.0164 45.1594C67.9814 45.236 67.9786 45.3232 68.0085 45.4018C68.0384 45.4805 68.0987 45.5441 68.176 45.5787C71.9889 47.2841 75.3401 48.1166 78.4184 48.1234C78.6442 48.1236 78.8643 48.1205 79.0934 48.1115Z" fill="black"/>
<path d="M88.1022 38.8973C88.144 38.8948 88.1848 38.884 88.2224 38.8658C88.26 38.8475 88.2935 38.822 88.3211 38.7909C88.3487 38.7597 88.3699 38.7235 88.3833 38.6842C88.3967 38.6449 88.4021 38.6034 88.3993 38.5621L88.1369 34.4846C88.1307 34.4009 88.0916 34.323 88.028 34.2677C87.9643 34.2123 87.8813 34.184 87.7967 34.1888C87.7146 34.1967 87.6387 34.2358 87.585 34.2979C87.5313 34.36 87.504 34.4403 87.5088 34.5219L87.7711 38.5975C87.7758 38.6805 87.8131 38.7583 87.875 38.8143C87.9368 38.8704 88.0184 38.9002 88.1022 38.8973Z" fill="black"/>
<path d="M87.0232 58.1308C87.1001 58.128 87.1735 58.0976 87.2295 58.0452C87.2855 57.9928 87.3205 57.922 87.3277 57.8461C87.6215 54.9255 87.6666 51.9858 87.4627 49.058C87.4604 49.0164 87.4497 48.9757 87.4312 48.9383C87.4127 48.9008 87.3869 48.8674 87.3552 48.84C87.3235 48.8126 87.2866 48.7918 87.2467 48.7787C87.2067 48.7657 87.1646 48.7607 87.1226 48.764C87.0806 48.7669 87.0396 48.7779 87.0019 48.7965C86.9642 48.8151 86.9306 48.8408 86.903 48.8724C86.8754 48.9039 86.8544 48.9405 86.8411 48.98C86.8278 49.0196 86.8226 49.0614 86.8257 49.103C87.027 51.9949 86.9829 54.8986 86.6939 57.7836C86.6885 57.8255 86.6917 57.868 86.7032 57.9085C86.7148 57.9491 86.7345 57.987 86.7611 58.0199C86.7877 58.0528 86.8208 58.08 86.8583 58.1C86.8958 58.12 86.9369 58.1322 86.9793 58.1361L87.0232 58.1308Z" fill="white"/>
<path d="M83.1135 59.2002C83.1934 59.1965 83.269 59.1634 83.3255 59.1073C83.382 59.0513 83.4155 58.9764 83.4192 58.8973C83.5469 56.0647 83.5629 53.1911 83.4704 50.3599C83.4671 50.2761 83.4304 50.197 83.3682 50.1401C83.3061 50.0832 83.2237 50.0531 83.1391 50.0564C83.0546 50.0597 82.9747 50.0962 82.9173 50.1578C82.8598 50.2194 82.8293 50.301 82.8326 50.3848C82.9245 53.2015 82.9079 56.0589 82.7814 58.875C82.7795 58.9165 82.7859 58.958 82.8002 58.997C82.8145 59.0361 82.8364 59.072 82.8647 59.1026C82.893 59.1332 82.9272 59.158 82.9652 59.1756C83.0032 59.1932 83.0443 59.2031 83.0862 59.2049L83.1135 59.2002Z" fill="white"/>
<path d="M79.0684 59.8246C79.1103 59.8222 79.1514 59.8117 79.1891 59.7935C79.2269 59.7753 79.2607 59.7499 79.2885 59.7187C79.3163 59.6875 79.3376 59.6512 79.3511 59.6118C79.3646 59.5724 79.3701 59.5307 79.3673 59.4892C79.1921 56.6516 79.2106 53.8052 79.4228 50.9698C79.426 50.9283 79.421 50.8867 79.4079 50.8472C79.3949 50.8077 79.3741 50.7712 79.3468 50.7396C79.3195 50.7081 79.2861 50.6823 79.2487 50.6635C79.2113 50.6448 79.1705 50.6335 79.1287 50.6303C79.0869 50.6272 79.0448 50.6323 79.005 50.6452C78.9651 50.6582 78.9282 50.6788 78.8964 50.7059C78.8645 50.7329 78.8384 50.766 78.8194 50.803C78.8005 50.8401 78.7891 50.8805 78.7859 50.922C78.5705 53.7865 78.5525 56.662 78.7319 59.5286C78.7371 59.612 78.7754 59.69 78.8385 59.7454C78.9015 59.8009 78.9842 59.8293 79.0684 59.8246Z" fill="white"/>
<path d="M74.8452 60.0172L74.8672 60.0164C74.9514 60.007 75.0285 59.965 75.0817 59.8996C75.1348 59.8341 75.1597 59.7506 75.1509 59.6671C74.8194 56.6362 74.8463 53.5772 75.2308 50.552C75.2414 50.4687 75.2182 50.3846 75.1662 50.3182C75.1142 50.2519 75.0377 50.2088 74.9536 50.1983C74.8694 50.1879 74.7845 50.211 74.7175 50.2625C74.6505 50.3141 74.6069 50.3899 74.5963 50.4732C74.2064 53.5474 74.1796 56.6558 74.5167 59.7355C74.5249 59.8151 74.5635 59.8886 74.6245 59.9409C74.6856 59.9933 74.7645 60.0206 74.8452 60.0172Z" fill="white"/>
<path d="M70.6211 59.2824L70.6504 59.2813C70.7342 59.2706 70.8102 59.2275 70.862 59.1614C70.9138 59.0953 70.937 59.0116 70.9266 58.9286C70.5373 55.8665 70.5877 52.765 71.0762 49.7163C71.0893 49.6333 71.0685 49.5486 71.0185 49.4808C70.9685 49.4131 70.8934 49.3677 70.8097 49.3549C70.7259 49.342 70.6404 49.3626 70.572 49.4122C70.5035 49.4618 70.4577 49.5362 70.4447 49.6192C69.947 52.7263 69.8959 55.8873 70.2928 59.0079C70.3032 59.086 70.3426 59.1574 70.4033 59.2082C70.464 59.2589 70.5417 59.2854 70.6211 59.2824Z" fill="white"/>
<path d="M100.799 54.4422C101.297 54.4126 101.766 54.1997 102.114 53.8452C102.395 53.5711 102.613 53.2405 102.753 52.8758C102.894 52.5111 102.954 52.1208 102.929 51.7313C102.816 50.3465 101.806 49.2495 101.057 48.5442C100.937 48.4307 100.817 48.3209 100.693 48.213C101.282 47.0789 102.155 45.9737 103.346 44.8651C103.38 44.8375 103.407 44.8034 103.427 44.7649C103.447 44.7264 103.459 44.6843 103.461 44.6412C103.464 44.5981 103.458 44.5549 103.443 44.5143C103.428 44.4737 103.405 44.4365 103.375 44.405C103.345 44.3736 103.309 44.3486 103.269 44.3315C103.229 44.3144 103.186 44.3056 103.142 44.3057C103.099 44.3058 103.056 44.3147 103.016 44.3319C102.976 44.3491 102.94 44.3743 102.91 44.4058C101.826 45.3785 100.91 46.5199 100.197 47.7851C99.1908 46.9604 98.0908 46.2547 96.9193 45.6823C96.8817 45.6639 96.8409 45.6531 96.799 45.6504C96.7572 45.6477 96.7152 45.6532 96.6755 45.6666C96.6358 45.68 96.5992 45.7009 96.5677 45.7283C96.5361 45.7557 96.5104 45.789 96.4918 45.8263C96.4733 45.8636 96.4623 45.9041 96.4596 45.9455C96.4568 45.987 96.4623 46.0285 96.4758 46.0678C96.4893 46.1072 96.5104 46.1435 96.5381 46.1747C96.5657 46.2059 96.5993 46.2314 96.6369 46.2497C97.8097 46.8219 98.9075 47.5337 99.9062 48.3692L99.881 48.4266C99.1267 50.1163 98.9634 51.9011 99.4242 53.4505C99.4787 53.6742 99.5849 53.8823 99.7344 54.0584C99.9482 54.2721 100.233 54.4018 100.536 54.4234C100.623 54.4361 100.711 54.4423 100.799 54.4422ZM100.41 48.8205C100.479 48.8833 100.549 48.946 100.616 49.0106C101.687 50.0161 102.221 50.9007 102.292 51.7889C102.309 52.0859 102.262 52.3831 102.155 52.6609C102.048 52.9388 101.882 53.1909 101.669 53.4008C101.533 53.5427 101.368 53.6527 101.184 53.7228C100.999 53.793 100.802 53.8214 100.606 53.8061C100.456 53.7999 100.314 53.741 100.204 53.64C100.124 53.5342 100.067 53.4124 100.038 53.2828C99.6302 51.9132 99.7629 50.3333 100.41 48.8187L100.41 48.8205Z" fill="black"/>
<path d="M4.84792 46.1975C4.88603 46.1956 4.92356 46.1873 4.95894 46.1732C5.03633 46.14 5.09737 46.0779 5.12872 46.0003C5.16007 45.9228 5.1592 45.8361 5.12628 45.7593C4.88496 45.1638 4.81062 44.5146 4.91115 43.8804C5.01168 43.2462 5.28334 42.6506 5.69738 42.1565C5.91683 41.9033 6.17297 41.6837 6.45744 41.5049C6.81073 42.5095 7.42282 43.4051 8.23312 44.1029C8.86339 44.6365 9.44542 44.8755 10.0181 44.8295C10.2681 44.806 10.5097 44.7274 10.7251 44.5994C10.9405 44.4714 11.1243 44.2973 11.263 44.0897C11.4393 43.8428 11.5601 43.5612 11.6171 43.2641C11.6742 42.967 11.6663 42.6612 11.5938 42.3675C11.3449 41.4481 10.4632 40.6807 9.34969 40.4152C8.51808 40.2231 7.64685 40.2883 6.85343 40.602C6.55955 39.2843 6.74758 37.8986 7.47311 36.8337C8.16729 35.8119 9.46426 35.1374 10.8454 35.0651L11.0048 35.0589C10.665 36.3651 10.7655 37.4322 11.3045 38.2602C11.5379 38.5892 11.8508 38.855 12.2146 39.0332C12.5785 39.2115 12.9817 39.2965 13.3874 39.2806L13.3984 39.2802C13.6993 39.2797 13.9948 39.1997 14.2544 39.0486C14.5139 38.8975 14.7283 38.6807 14.8753 38.4204C15.3491 37.5363 14.9139 36.4987 14.3977 35.8789C13.7498 35.1209 12.8434 34.6252 11.8505 34.4857C11.9316 34.2589 12.0164 34.0337 12.1048 33.8066C12.4297 32.9629 12.7626 32.0898 12.8067 31.1534C12.8085 31.1119 12.8021 31.0704 12.7878 31.0314C12.7735 30.9923 12.7516 30.9565 12.7233 30.9258C12.695 30.8952 12.6609 30.8704 12.6229 30.8528C12.5849 30.8353 12.5438 30.8253 12.5019 30.8235C12.46 30.8216 12.4182 30.828 12.3788 30.8422C12.3393 30.8564 12.3031 30.8782 12.2722 30.9062C12.2412 30.9343 12.2162 30.9681 12.1984 31.0057C12.1807 31.0434 12.1705 31.0841 12.1687 31.1256C12.1298 31.96 11.8284 32.7482 11.5087 33.5826C11.4003 33.8633 11.2939 34.1457 11.1967 34.4277C11.0699 34.4235 10.9433 34.4267 10.8169 34.4316C9.23764 34.5062 7.75362 35.2789 6.94488 36.4689C6.09239 37.7133 5.89557 39.343 6.26924 40.8704C5.86944 41.0978 5.51161 41.391 5.21109 41.7373C4.72202 42.321 4.40119 43.0246 4.28254 43.7738C4.1639 44.523 4.25184 45.2898 4.53708 45.9933C4.56069 46.0553 4.60341 46.1085 4.6592 46.1451C4.71498 46.1818 4.78101 46.2001 4.84792 46.1975ZM8.28367 40.9406C8.59348 40.9281 8.90351 40.9581 9.20491 41.03C10.0943 41.2425 10.7928 41.8315 10.9836 42.5332C11.0319 42.737 11.0358 42.9486 10.9951 43.154C10.9544 43.3593 10.87 43.5538 10.7476 43.7244C10.6625 43.8553 10.5489 43.9658 10.4153 44.0478C10.2816 44.1298 10.1313 44.1812 9.97506 44.1984C9.57625 44.2322 9.15058 44.0488 8.65476 43.6209C7.90516 42.9764 7.34394 42.1444 7.02963 41.2115C7.42847 41.0492 7.85293 40.9575 8.28367 40.9406ZM11.6656 35.1058C12.5395 35.2052 13.3429 35.6284 13.9145 36.2906C14.3001 36.7628 14.6479 37.5347 14.3207 38.133C14.2244 38.2949 14.0866 38.4286 13.9213 38.5206C13.7559 38.6127 13.569 38.6598 13.3795 38.6572C13.0843 38.6683 12.791 38.6072 12.5254 38.4793C12.2599 38.3514 12.0302 38.1607 11.8567 37.924C11.3013 37.0984 11.4142 35.9975 11.6583 35.106L11.6656 35.1058Z" fill="black"/>
<path d="M92.4211 29.0925C92.5845 29.0324 92.7627 29.0243 92.9309 29.0692C93.0991 29.1141 93.249 29.2098 93.3597 29.3431C93.4603 29.4822 93.5036 29.6541 93.481 29.8238C93.4583 29.9936 93.3713 30.1485 93.2376 30.2571C93.1436 30.316 93.0381 30.3547 92.9281 30.3706C92.818 30.3865 92.7058 30.3792 92.5988 30.3493C92.4539 30.3192 92.3201 30.2505 92.2117 30.1506C92.1033 30.0508 92.0245 29.9235 91.9838 29.7825C91.9669 29.6354 92.001 29.487 92.0805 29.3616C92.1599 29.2363 92.2801 29.1414 92.4211 29.0925Z" fill="black"/>
<path d="M83.4961 29.4423C83.3282 29.395 83.1496 29.4008 82.9851 29.4587C82.8206 29.5166 82.6784 29.6239 82.5782 29.7655C82.489 29.9123 82.4595 30.0872 82.4957 30.2546C82.5319 30.4221 82.6311 30.5696 82.7732 30.6671C82.8711 30.7186 82.979 30.7489 83.0897 30.7562C83.2003 30.7635 83.3113 30.7475 83.4154 30.7092C83.5578 30.6682 83.6863 30.5893 83.7868 30.4812C83.8874 30.3731 83.9563 30.2399 83.9861 30.0959C83.9914 29.948 83.9458 29.8027 83.8567 29.684C83.7677 29.5652 83.6405 29.48 83.4961 29.4423Z" fill="black"/>
<path d="M88.2824 35.5137L89.6002 34.5275C89.9711 34.286 90.289 33.973 90.5351 33.6071C90.7555 33.2348 90.7973 32.7095 90.5161 32.3714C90.2349 32.0333 89.7427 31.978 89.3028 31.9479C88.3459 31.8854 87.3659 31.8419 86.4435 32.0981C86.0623 32.2057 85.6623 32.3978 85.5058 32.7585C85.4534 32.9074 85.4353 33.0659 85.4529 33.2226C85.4705 33.3792 85.5232 33.5299 85.6073 33.6637C85.7813 33.9304 85.9976 34.1675 86.2478 34.366C86.6153 34.6874 86.9874 35.0025 87.3641 35.3115C87.5749 35.4923 87.9257 35.7786 88.2824 35.5137Z" fill="black"/>
<path d="M59.0229 24.6544C59.7425 24.2807 60.6239 25.0863 61.0601 25.7747C61.4964 26.4632 61.6425 27.2885 61.7602 28.0912C62.3425 32.0764 62.3607 36.123 61.8143 40.114C61.576 41.8563 61.2177 43.6287 60.2646 45.1152C59.3115 46.6018 57.6609 47.1519 55.682 47.5204C51.0518 48.3817 41.879 48.4518 34.9716 48.2967C33.0041 48.2537 29.541 47.4692 28.3169 43.2058C27.3772 39.9277 26.4278 33.5387 27.7305 28.2308C27.9951 27.1585 29.196 24.7803 30.8856 25.7906C32.1311 26.6147 30.8897 30.1146 30.6871 32.8155C30.5338 34.8545 30.4888 39.1876 31.1613 41.1288C31.8338 43.0699 33.1162 44.5071 35.3612 44.7938C39.2928 45.3109 43.9802 45.02 47.9444 44.8685C50.5981 44.7646 53.2976 44.6588 55.9281 43.6812C57.4583 43.1503 57.9916 41.3002 58.2027 39.7063C58.612 36.606 58.6334 33.4677 58.2663 30.3628C58.0323 28.3699 57.3011 25.5401 59.0229 24.6544Z" fill="black"/>
<path d="M87.5514 44.4688C86.5983 45.4408 85.7799 46.1038 85.4114 46.0673C84.4348 45.9692 79.5278 44.732 77.2131 41.5387C75.5968 39.309 74.9307 37.9058 74.9788 35.4783C75.8241 35.6452 76.7461 35.7527 77.4188 35.4482C77.5059 37.9068 78.9352 40.1911 80.8765 41.7226C82.8179 43.254 85.2353 44.1012 87.5514 44.4688Z" fill="black"/>
</svg>
