<svg width="153" height="156" viewBox="0 0 153 156" fill="none" xmlns="http://www.w3.org/2000/svg">
<g opacity="0.5">
<path d="M36.5011 64.035L71.1165 46.0924C92.5063 34.9902 117.884 51.2223 116.795 75.2975L115.039 114.236C113.95 138.312 87.2108 152.183 66.9178 139.195L34.0583 118.198C13.7576 105.225 15.1189 75.1214 36.5011 64.035Z" fill="url(#paint0_linear_1_1486)"/>
<g style="mix-blend-mode:hard-light">
<path d="M24.1178 62.1616L51.6245 29.1465C68.6244 8.7451 101.331 14.3996 110.508 39.3339L125.338 79.6443C134.515 104.579 113.253 130.075 87.0924 125.549L44.7471 118.231C18.5863 113.705 7.11781 82.563 24.1178 62.1616Z" fill="url(#paint1_linear_1_1486)" style="mix-blend-mode:screen"/>
</g>
</g>
<defs>
<linearGradient id="paint0_linear_1_1486" x1="118.018" y1="91.1881" x2="19.9091" y2="97.5256" gradientUnits="userSpaceOnUse">
<stop stop-color="#1DD6A4"/>
<stop offset="1" stop-color="#FFB500"/>
</linearGradient>
<linearGradient id="paint1_linear_1_1486" x1="102.605" y1="24.7705" x2="53.9965" y2="124.326" gradientUnits="userSpaceOnUse">
<stop stop-color="#1DD6A4"/>
<stop offset="1" stop-color="#FF8600"/>
</linearGradient>
</defs>
</svg>
