<svg width="95" height="91" viewBox="0 0 95 91" fill="none" xmlns="http://www.w3.org/2000/svg">
<g clip-path="url(#clip0_1_1562)">
<path d="M52.9581 9.87969C47.8921 9.74464 44.71 3.86362 39.7454 4.43326C34.7809 5.0029 30.204 7.54954 26.0412 10.4642C21.4679 13.6631 17.0611 17.5845 14.8596 22.8518C11.846 30.051 13.3897 38.7066 9.90329 45.6742C8.20584 49.0645 5.39861 51.8586 4.28931 55.4992C2.87718 60.1389 4.53783 65.1527 6.72462 69.4065C7.70685 71.3087 8.83385 73.1898 10.4635 74.5219C13.2645 76.8125 17.1177 77.149 20.683 76.806C24.2484 76.4631 27.7862 75.5368 31.3539 75.6678C41.9325 76.0543 50.2687 85.354 60.6176 87.5771C67.8605 89.1339 75.7986 86.8849 81.3482 81.6975C84.5683 78.6877 87.0507 74.5594 87.2799 70.0777C87.6815 62.2209 81.3928 55.9236 75.1666 51.5593C71.0537 48.6749 66.344 45.5638 65.325 40.487C64.693 37.3491 65.6507 34.1153 65.9715 30.9073C67.0461 20.212 66.3419 10.2381 52.9581 9.87969Z" fill="#EBEBEB"/>
<path d="M25.9748 42.2459C24.276 40.3213 22.5081 38.2797 21.981 35.7182C21.4041 32.9494 22.3884 30.1036 23.3474 27.4384C24.2965 24.8073 25.2448 22.1767 26.1925 19.5467C26.8035 17.854 27.4127 16.1611 28.1247 14.5118C28.8263 12.8875 29.6257 11.3082 30.5183 9.78279C32.182 12.0818 33.3908 14.559 34.3912 17.4204C38.4798 17.6123 42.473 18.716 46.0863 20.6529C46.563 20.5648 46.9611 20.2316 47.3467 19.9233C49.023 18.5742 50.8934 17.4941 52.8923 16.7211C53.3125 18.5905 53.1793 20.5628 52.7699 22.4445C52.3606 24.3261 51.6827 26.1314 51.0707 27.9907C51.9172 31.7214 51.9046 35.6025 51.0338 39.3335C52.6371 41.0431 53.8772 43.0903 54.9474 45.2085C57.0456 49.3523 58.5505 53.8496 59.1412 58.5092C59.7318 63.1689 59.3891 67.9941 57.9446 72.4497C61.6173 72.3175 65.1383 70.9122 67.9192 68.4685C70.7311 65.9691 72.6517 62.6006 73.3821 58.8874C74.0538 55.4518 73.7273 51.7131 75.3735 48.6478C75.9811 47.5174 76.8281 46.5449 77.7202 45.6426C78.4788 44.8766 79.2971 44.141 80.2711 43.7192C81.7001 43.1022 83.3244 43.2305 84.8153 43.6106C85.4541 43.7727 86.1142 44.0019 86.5491 44.5128C87.0086 45.0496 87.1402 45.8113 87.1834 46.533C87.3348 49.0366 86.6607 51.5359 85.6915 53.8454C84.7223 56.155 83.458 58.3185 82.3412 60.5559C80.1572 64.9349 78.4899 69.6838 75.3957 73.4262C72.8999 76.4424 69.4833 78.6879 65.7394 79.4152C61.9954 80.1424 57.9493 79.2732 54.8836 76.7173C53.1106 78.1311 51.1737 79.3949 49.0371 80.0208C46.9005 80.6468 44.5011 80.5719 42.4627 79.3083C41.9062 79.967 41.2464 80.5285 40.51 80.9698C40.0467 81.2823 39.5104 81.4653 38.9557 81.5004C38.408 81.5017 37.8347 81.223 37.604 80.7082C37.3504 80.1393 37.5577 79.4744 37.6455 78.8529C37.8384 77.489 37.4372 76.1241 37.0045 74.8291C36.7773 74.1423 36.3646 73.3292 35.6681 73.3681C35.1296 73.399 34.7465 73.9634 34.627 74.5126C34.4045 75.526 34.7734 76.5627 34.8247 77.5981C34.8671 78.4664 34.6858 79.3317 34.2986 80.1089C34.1331 80.498 33.8479 80.8228 33.4857 81.0347C32.7231 81.4118 31.8529 80.8561 31.3255 80.2802C30.9946 80.2374 30.7493 79.9519 30.5349 79.6873C30.0414 79.0798 29.5501 78.4707 29.0048 77.7295C28.5951 78.2678 27.8972 78.549 27.0176 78.3123C23.3197 73.917 21.285 68.3294 21.2754 62.5436C21.2723 59.2104 21.938 55.8934 22.9774 52.7213C24.1443 49.1849 25.8003 45.6964 25.9748 42.2459Z" fill="white"/>
<path d="M34.1054 17.4001C33.9343 18.7971 34.5827 20.1731 35.4698 21.2198C36.7818 22.7686 38.721 23.8016 40.712 23.71C42.7031 23.6185 44.6768 22.2856 45.3366 20.3169C42.0418 19.0918 38.6513 18.1469 35.1999 17.4921C34.7511 17.4076 34.2695 17.3303 34.1054 17.4001Z" fill="#C7E3E5"/>
<path d="M53.7802 44.0042C51.3478 46.2839 49.4675 49.2811 48.7748 52.6041C48.0822 55.9271 48.6601 59.5714 50.607 62.267C52.5539 64.9626 55.9219 66.5533 59.1374 66.0098C60.0178 58.1069 58.0054 49.927 53.7802 44.0042Z" fill="#C7E3E5"/>
<path d="M74.0556 55.0143C73.7264 50.197 76.7912 45.3065 81.1688 43.6663C82.1803 43.2873 83.3016 43.0702 84.3201 43.3893C85.5128 43.7631 86.4216 44.8449 86.8353 46.0692C87.2491 47.2936 87.2239 48.647 86.9946 49.9304C86.4012 53.2378 84.5525 56.1348 82.9324 59.0557C81.1506 62.2678 79.606 65.6086 78.3113 69.0506C77.0904 67.6651 77.7611 65.569 78.0949 63.7079C78.4286 61.8468 78.3134 59.6852 77.2998 58.1275C76.3545 56.6772 74.1275 56.0638 74.0556 55.0143Z" fill="#31C781"/>
<path d="M29.4137 25.9441C29.2439 25.8326 29.0424 25.7806 28.8402 25.7963C28.6381 25.8119 28.4463 25.8943 28.2943 26.0307C28.1432 26.1808 28.0502 26.3808 28.0323 26.5941C28.0143 26.8075 28.0726 27.0199 28.1965 27.1928C28.2845 27.2873 28.3926 27.3602 28.5127 27.4059C28.6327 27.4516 28.7616 27.469 28.8895 27.4566C29.065 27.4509 29.2357 27.3965 29.3831 27.2992C29.5304 27.202 29.6487 27.0657 29.7251 26.9052C29.7858 26.7323 29.7881 26.5441 29.7318 26.3701C29.6754 26.1962 29.5635 26.0463 29.4137 25.9441Z" fill="black"/>
<path d="M41.0912 28.9372C40.9221 28.8243 40.7207 28.7715 40.5184 28.7872C40.3161 28.803 40.1245 28.8862 39.9736 29.024C39.8223 29.1739 39.729 29.3737 39.7107 29.587C39.6924 29.8002 39.7504 30.0128 39.874 30.1859C39.9623 30.2799 40.0704 30.3525 40.1904 30.3982C40.3104 30.4438 40.4391 30.4615 40.5669 30.4497C40.7424 30.444 40.9132 30.3895 41.0605 30.2923C41.2079 30.195 41.3262 30.0587 41.4025 29.8982C41.4636 29.7254 41.4661 29.5371 41.4097 29.363C41.3533 29.189 41.2412 29.0391 41.0912 28.9372Z" fill="black"/>
<path d="M27.3012 78.843C27.2226 78.8329 27.1505 78.7939 27.0985 78.7335C21.6366 72.344 19.8929 62.2567 22.6551 53.0526C22.9402 52.1041 23.275 51.147 23.5928 50.2198C24.4894 47.6185 25.429 44.93 25.3769 42.1929C23.126 40.4471 21.7649 37.253 21.815 33.8111C21.8565 30.5954 23.0106 27.4476 24.0223 24.6641L26.9195 16.7014C27.844 14.1587 28.8001 11.531 30.3422 9.24239C30.373 9.19428 30.4157 9.15517 30.466 9.12896C30.5163 9.10275 30.5725 9.09037 30.6289 9.09305C30.6853 9.09573 30.74 9.11338 30.7875 9.14424C30.835 9.1751 30.8736 9.21808 30.8994 9.26888C32.2575 11.8086 33.4278 14.4474 34.4009 17.1636C38.5289 17.5468 42.5592 18.644 46.3168 20.4076C48.2839 18.6432 50.4954 17.1808 52.8803 16.0674C52.9258 16.0464 52.9756 16.0364 53.0255 16.0381C53.0755 16.0398 53.1243 16.0532 53.1683 16.0772C53.2122 16.1012 53.25 16.1352 53.2788 16.1765C53.3076 16.2179 53.3265 16.2654 53.3341 16.3155C53.8273 20.2975 53.1829 24.1003 51.3624 27.937C52.4058 31.6377 52.4058 35.5313 51.363 39.5102C58.7399 48.1194 61.5111 60.8726 58.4768 72.1694C65.1062 71.9208 71.4147 66.5738 72.9675 59.8169C73.26 58.3857 73.4694 56.9386 73.5945 55.4831C73.9301 52.2902 74.2764 48.987 76.362 46.5563C77.5808 45.1354 79.2459 44.2533 80.5581 43.6441C82.8502 42.5815 84.5645 42.5054 85.8024 43.4118C86.9755 44.27 87.3383 45.8024 87.4348 46.9365C87.7768 50.9596 85.7672 54.5824 83.8227 58.0905C83.1768 59.2576 82.509 60.4635 81.9459 61.6546C81.4731 62.6527 81.0518 63.701 80.6452 64.7077C80.1947 65.8224 79.7319 66.9752 79.1953 68.0769C77.0181 72.5477 73.6764 76.08 69.7616 78.0148C65.4466 80.1538 60.5001 80.2654 56.5341 78.3132C56.4572 78.2754 56.3983 78.2081 56.3705 78.1262C56.3427 78.0442 56.3483 77.9544 56.3858 77.8763C56.4234 77.7982 56.49 77.7384 56.571 77.7099C56.6519 77.6815 56.7406 77.6868 56.8175 77.7246C60.6079 79.5896 65.3413 79.479 69.4786 77.4269C73.2583 75.5542 76.5038 72.1308 78.6156 67.7898C79.1422 66.7077 79.6018 65.5658 80.0471 64.4618C80.4595 63.4389 80.8763 62.3824 81.3643 61.3673C81.9377 60.1548 82.6122 58.9402 83.2612 57.7641C85.1571 54.3426 87.1164 50.8061 86.7927 46.9881C86.7227 46.17 86.4525 44.6875 85.4248 43.9334C84.3971 43.1792 82.8931 43.2767 80.8261 44.2319C79.5718 44.8127 77.9872 45.6502 76.8477 46.9771C74.8989 49.2455 74.5774 52.2999 74.2368 55.5452C74.1107 57.0271 73.8967 58.5003 73.5961 59.9568C71.9571 67.1346 65.1313 72.7976 58.061 72.8281C58.0109 72.8282 57.9615 72.8166 57.9168 72.794C57.872 72.7715 57.8331 72.7386 57.803 72.6982C57.7727 72.6582 57.7521 72.6116 57.7429 72.562C57.7337 72.5124 57.7362 72.4613 57.7502 72.4128C60.9263 61.1609 58.1871 48.3625 50.7754 39.8056C50.7399 39.7655 50.715 39.7169 50.7028 39.6644C50.6907 39.6118 50.6917 39.557 50.7059 39.5049C51.7781 35.5431 51.7774 31.6702 50.7175 27.9959C50.6987 27.9172 50.7095 27.8342 50.7476 27.7629C52.4834 24.1483 53.1434 20.571 52.7631 16.8443C50.5249 17.9339 48.4494 19.3392 46.5987 21.0181C46.5517 21.0609 46.4934 21.0888 46.431 21.0982C46.3686 21.1077 46.305 21.0984 46.2479 21.0713C42.4409 19.2604 38.3453 18.1478 34.1506 17.7849C34.0893 17.7797 34.0308 17.7568 33.982 17.7189C33.9333 17.6811 33.8963 17.6298 33.8754 17.5713C32.9573 14.9896 31.8623 12.4765 30.5985 10.0504C29.2692 12.1676 28.3935 14.5783 27.5423 16.9145L24.6451 24.8772C23.6019 27.7456 22.5236 30.7119 22.4771 33.8075C22.425 37.1052 23.7438 40.1498 25.9049 41.7514C25.9442 41.7804 25.9764 41.8182 25.999 41.8618C26.0215 41.9055 26.0339 41.9538 26.035 42.0032C26.1316 44.9165 25.1589 47.7164 24.2187 50.4238C23.9 51.3432 23.5696 52.2953 23.2954 53.2319C20.5976 62.2265 22.2915 72.0629 27.6113 78.2938C27.6665 78.3597 27.6938 78.445 27.6876 78.5313C27.6813 78.6177 27.6419 78.6982 27.5778 78.7556C27.5412 78.7905 27.4973 78.8165 27.4494 78.8317C27.4014 78.8468 27.3507 78.8507 27.3012 78.843Z" fill="black"/>
<path d="M44.1152 80.554L43.8377 80.5181C43.7956 80.5122 43.7552 80.4979 43.7188 80.476C43.6823 80.4541 43.6505 80.4251 43.6252 80.3907C43.6 80.3562 43.5817 80.317 43.5715 80.2753C43.5613 80.2336 43.5594 80.1902 43.5659 80.1477C43.5811 80.0628 43.6278 79.9869 43.6962 79.9356C43.7647 79.8842 43.8498 79.8612 43.9343 79.8712C47.2818 80.3559 50.6914 79.5532 53.4928 77.6212C54.6007 76.8567 55.3591 76.0641 55.8085 75.2032C55.8487 75.1264 55.9172 75.0689 55.999 75.0432C56.0809 75.0175 56.1693 75.0258 56.2449 75.0662C56.3204 75.1067 56.377 75.1759 56.402 75.2587C56.4271 75.3415 56.4186 75.4312 56.3785 75.5079C55.8808 76.4668 55.0512 77.3336 53.8546 78.1624C50.9967 80.1269 47.5362 80.9767 44.1152 80.554Z" fill="black"/>
<path d="M32.6213 81.3943C32.3394 81.3586 32.0647 81.2791 31.807 81.1584C30.9266 80.7397 30.3049 79.9678 29.7644 79.1894C28.1076 76.8106 26.9073 74.1362 26.2261 71.3051C26.2138 71.2627 26.2101 71.2183 26.2152 71.1744C26.2203 71.1305 26.2342 71.0881 26.2559 71.0497C26.2776 71.0113 26.3068 70.9778 26.3417 70.9511C26.3765 70.9244 26.4163 70.9051 26.4587 70.8945C26.501 70.8838 26.545 70.8819 26.588 70.8889C26.631 70.896 26.6722 70.9118 26.709 70.9354C26.7457 70.959 26.7774 70.99 26.8019 71.0264C26.8265 71.0628 26.8436 71.1039 26.852 71.1472C27.5142 73.8984 28.6812 76.4973 30.292 78.8085C30.7829 79.5085 31.3395 80.2056 32.083 80.5555C32.7292 80.8626 33.6509 80.8603 34.1626 80.2556C34.7325 79.5903 34.57 78.5481 34.4212 77.5436C34.3883 77.3499 34.3594 77.1396 34.3361 76.9433C34.2308 76.1076 34.2564 75.2598 34.412 74.4312C34.5569 73.656 34.849 73.1746 35.3067 72.959C35.4506 72.8903 35.6069 72.8525 35.7657 72.8479C35.9245 72.8433 36.0825 72.8721 36.2296 72.9323C36.8223 73.1623 37.2631 73.8009 37.4802 74.3196C38.1423 75.9148 38.2552 77.6912 37.8007 79.3631L37.7557 79.5241C37.6608 79.79 37.6144 80.0709 37.6187 80.3533C37.6761 81.0087 38.4155 81.4188 39.0339 81.3773C39.7636 81.3276 40.4371 80.8442 40.9979 80.3804C44.037 77.8257 46.1128 74.2861 46.8721 70.3637C46.8886 70.2783 46.9378 70.203 47.009 70.1543C47.0442 70.1302 47.0837 70.1133 47.1253 70.1046C47.1669 70.096 47.2098 70.0957 47.2515 70.1038C47.2931 70.1119 47.3328 70.1283 47.3681 70.1519C47.4035 70.1756 47.4339 70.2061 47.4576 70.2417C47.4813 70.2773 47.4978 70.3173 47.5062 70.3595C47.5146 70.4016 47.5147 70.445 47.5066 70.4873C46.7154 74.5565 44.5601 78.228 41.4064 80.8785C40.7659 81.4096 39.9867 81.9589 39.0759 82.0213C38.1652 82.0837 37.0692 81.4533 36.9763 80.4068C36.9621 80.0437 37.0166 79.6809 37.1368 79.338L37.179 79.1843C37.5787 77.6631 37.4748 76.0527 36.8832 74.6007C36.6793 74.1101 36.3216 73.6963 35.9942 73.5688C35.9279 73.5397 35.8562 73.5252 35.7839 73.5263C35.7116 73.5274 35.6403 73.5441 35.5747 73.5753C35.3238 73.6944 35.1423 74.0291 35.0419 74.5751C34.9003 75.3366 34.8767 76.1153 34.9718 76.8833C34.9956 77.0758 35.0266 77.2693 35.0559 77.4626C35.2241 78.5624 35.4129 79.807 34.6486 80.703C34.3928 80.9789 34.0737 81.1864 33.72 81.307C33.3662 81.4276 32.9887 81.4576 32.6213 81.3943Z" fill="black"/>
<path d="M77.5735 67.9854C77.4995 67.9755 77.4313 67.9399 77.3805 67.8846C77.3297 67.8293 77.2995 67.7578 77.2949 67.6823C77.2172 66.5184 77.4444 65.3673 77.6649 64.2532C77.8854 63.1392 78.0891 62.0969 78.0249 61.0313C77.9617 60.0538 77.6645 59.1074 77.1589 58.2739C76.6534 57.4405 75.9548 56.745 75.1234 56.2476C75.0489 56.2048 74.9943 56.1337 74.9716 56.0499C74.949 55.9662 74.9601 55.8766 75.0026 55.8009C75.0451 55.7253 75.1154 55.6697 75.1982 55.6464C75.2809 55.6232 75.3693 55.6342 75.4438 55.6769C76.3663 56.2299 77.1414 57.0023 77.7024 57.9277C78.2634 58.8531 78.5934 59.9036 78.6639 60.9888C78.7328 62.1345 78.5084 63.2784 78.2917 64.3778C78.075 65.4771 77.8625 66.5581 77.9324 67.6377C77.9362 67.7227 77.9069 67.8061 77.8508 67.8697C77.7947 67.9333 77.7163 67.9722 77.6324 67.9779C77.613 67.982 77.5933 67.9845 77.5735 67.9854Z" fill="black"/>
<path d="M56.6347 66.3801C55.6676 66.2377 54.7374 65.9072 53.8953 65.4068C50.5669 63.5104 48.3138 59.6251 48.1553 55.5121C48.0008 51.5416 49.7058 47.5289 52.7186 44.7784C52.7501 44.7496 52.787 44.7274 52.827 44.7131C52.867 44.6987 52.9093 44.6924 52.9516 44.6946C52.994 44.6968 53.0354 44.7075 53.0736 44.7259C53.1118 44.7444 53.146 44.7703 53.1743 44.8022C53.2026 44.8341 53.2244 44.8713 53.2384 44.9118C53.2525 44.9523 53.2585 44.9952 53.2562 45.0381C53.2538 45.081 53.2432 45.123 53.2249 45.1618C53.2065 45.2006 53.1808 45.2354 53.1492 45.2641C50.3246 47.8457 48.66 51.7631 48.8037 55.484C48.9531 59.378 51.0789 63.0479 54.2157 64.8361C55.4339 65.5334 56.6125 65.8429 57.7071 65.7607C57.7493 65.7573 57.7917 65.7623 57.8318 65.7756C57.872 65.7889 57.9092 65.8101 57.9412 65.838C57.9732 65.8659 57.9994 65.9 58.0183 65.9382C58.0372 65.9765 58.0485 66.0182 58.0514 66.0609C58.0575 66.1473 58.0295 66.2328 57.9738 66.2987C57.918 66.3646 57.8389 66.4056 57.7537 66.4128C57.3804 66.4396 57.0056 66.4287 56.6347 66.3801Z" fill="black"/>
<path d="M39.5759 23.9083C39.1435 23.8534 38.718 23.7534 38.3062 23.6098C36.3748 22.9359 34.73 21.3593 33.795 19.2794C33.7775 19.2405 33.7677 19.1984 33.7662 19.1556C33.7648 19.1127 33.7717 19.07 33.7867 19.0298C33.8016 18.9897 33.8242 18.9529 33.8531 18.9215C33.8821 18.8902 33.9169 18.865 33.9555 18.8473C34.0334 18.8113 34.122 18.8079 34.2021 18.8378C34.2823 18.8676 34.3474 18.9284 34.3834 19.0068C35.2442 20.9236 36.7517 22.3764 38.5188 22.9911C40.3844 23.6394 42.5177 23.2707 43.956 22.0467C44.0217 21.9909 44.1065 21.9637 44.1917 21.9712C44.277 21.9786 44.3557 22.0201 44.4106 22.0865C44.4655 22.1529 44.492 22.2387 44.4843 22.3251C44.4767 22.4116 44.4355 22.4915 44.3698 22.5473C43.7032 23.0928 42.9342 23.4949 42.1098 23.729C41.2855 23.963 40.4232 24.024 39.5759 23.9083Z" fill="black"/>
<path d="M33.1048 34.7726C32.2007 34.4484 31.4403 33.8099 30.9584 32.9702C30.7997 32.7323 30.7198 32.4493 30.7301 32.1619C30.7589 31.9851 30.832 31.8185 30.9424 31.6781C31.0528 31.5378 31.1968 31.4284 31.3606 31.3604C31.6858 31.233 32.0348 31.1816 32.3818 31.21C32.9613 31.239 33.5384 31.3028 34.1102 31.401C34.472 31.4327 34.8248 31.5316 35.1509 31.6926C35.315 31.7777 35.4541 31.9051 35.5542 32.062C35.6543 32.2189 35.712 32.3998 35.7213 32.5867C35.7161 33.018 35.3873 33.364 35.0819 33.6599L34.4862 34.2348C34.3111 34.4212 34.1098 34.5803 33.8888 34.7071C33.769 34.7708 33.6378 34.8094 33.5031 34.8206C33.3684 34.8319 33.2329 34.8155 33.1048 34.7726Z" fill="black"/>
<path d="M34.0273 45.1725C33.4154 44.1737 32.6981 43.2456 31.8878 42.4046C31.3344 41.8273 30.6869 41.2699 29.907 41.173C29.6607 41.1412 29.166 41.2668 28.888 41.8997C28.2703 43.3111 28.1673 44.5863 28.058 46.1277C28.0058 46.6379 28.0333 47.153 28.1393 47.654C28.2238 47.9984 28.3949 48.3521 28.7071 48.4966C29.1059 48.6788 29.5641 48.4595 29.9528 48.2425C31.1471 47.5763 32.5227 46.8521 33.717 46.1859C34.7474 47.5126 35.852 48.974 37.0493 50.1366C37.6421 50.7134 38.3002 49.8718 38.4122 49.5831C39.1262 47.7446 39.6369 45.6714 39.2836 43.7329C39.1028 42.7452 38.3177 42.8617 37.8613 43.0964C37.1719 43.4564 35.3466 44.3633 34.0273 45.1725Z" fill="black"/>
<path d="M41.725 34.7565C41.6456 34.7472 41.5727 34.7083 41.5202 34.6475C41.4676 34.5867 41.4393 34.5082 41.4407 34.4273C41.4421 34.3463 41.4731 34.2687 41.5276 34.2093C41.5822 34.15 41.6565 34.1132 41.7361 34.1061C43.0518 33.972 44.3772 33.9755 45.6912 34.1167C45.7333 34.1212 45.7741 34.1342 45.8112 34.1547C45.8484 34.1753 45.8811 34.2031 45.9076 34.2365C45.9341 34.2699 45.9538 34.3083 45.9656 34.3495C45.9774 34.3907 45.9811 34.4339 45.9765 34.4766C45.9718 34.5193 45.9589 34.5606 45.9385 34.5983C45.9181 34.636 45.8905 34.6693 45.8575 34.6963C45.8244 34.7232 45.7864 34.7433 45.7458 34.7554C45.7051 34.7676 45.6624 34.7714 45.6203 34.7669C44.3528 34.6305 43.0743 34.6274 41.8052 34.7574C41.7785 34.7605 41.7516 34.7602 41.725 34.7565Z" fill="black"/>
<path d="M43.292 38.6233C43.2206 38.6142 43.1544 38.581 43.1042 38.5289C42.4749 37.8873 41.7895 37.3048 41.0564 36.7885C41.021 36.7643 40.9907 36.7333 40.9672 36.6972C40.9438 36.661 40.9277 36.6205 40.9198 36.578C40.912 36.5354 40.9126 36.4917 40.9216 36.4493C40.9306 36.407 40.9478 36.3668 40.9722 36.3312C40.9966 36.2955 41.0277 36.2651 41.0638 36.2418C41.0998 36.2184 41.1401 36.2025 41.1822 36.195C41.2243 36.1875 41.2675 36.1885 41.3091 36.1981C41.3508 36.2076 41.3901 36.2255 41.4249 36.2506C42.1904 36.7897 42.9063 37.3977 43.5638 38.0672C43.6233 38.1293 43.6563 38.2128 43.6556 38.2995C43.6548 38.3863 43.6205 38.4694 43.56 38.5309C43.5253 38.5661 43.483 38.5928 43.4365 38.6088C43.3901 38.6248 43.3406 38.6298 43.292 38.6233Z" fill="black"/>
<path d="M25.2033 31.0297C25.1618 31.0236 25.1218 31.0101 25.0851 30.9898C23.8258 30.2655 22.466 29.7367 21.0508 29.421C20.9672 29.4024 20.8944 29.3509 20.8485 29.2778C20.8026 29.2047 20.7872 29.116 20.8059 29.0313C20.8245 28.9465 20.8756 28.8726 20.9479 28.8257C21.0201 28.7789 21.1077 28.7631 21.1913 28.7817C22.6695 29.1112 24.0899 29.6632 25.4055 30.4191C25.4695 30.4572 25.5187 30.5164 25.5447 30.587C25.5707 30.6575 25.5719 30.735 25.5482 30.8066C25.5246 30.8781 25.4774 30.9393 25.4146 30.9799C25.3517 31.0205 25.2772 31.0381 25.2033 31.0297Z" fill="black"/>
<path d="M20.4751 33.9982C20.4006 33.9894 20.3315 33.9546 20.2797 33.8997C20.2279 33.8448 20.1967 33.7733 20.1915 33.6975C20.1862 33.6216 20.2072 33.5462 20.2509 33.4841C20.2946 33.4221 20.3582 33.3774 20.4308 33.3577C21.7947 32.9724 23.2108 32.8148 24.6232 32.8911C24.6659 32.8928 24.7077 32.9031 24.7464 32.9213C24.7851 32.9396 24.8197 32.9654 24.8484 32.9974C24.8771 33.0293 24.8992 33.0668 24.9134 33.1075C24.9277 33.1483 24.9338 33.1915 24.9315 33.2347C24.9291 33.2779 24.9183 33.3203 24.8997 33.3593C24.8811 33.3983 24.855 33.4332 24.823 33.4619C24.791 33.4907 24.7537 33.5128 24.7133 33.5268C24.6728 33.5409 24.6301 33.5467 24.5875 33.544C23.2458 33.4723 21.9009 33.6224 20.6053 33.9885C20.563 34.0004 20.5187 34.0037 20.4751 33.9982Z" fill="black"/>
<path d="M59.1801 29.4124C61.3182 28.5289 62.9371 26.3695 63.2232 23.9945C63.1305 25.2046 63.0409 26.4341 63.307 27.6148C63.5732 28.7955 64.2568 29.9278 65.3227 30.4008C64.325 30.4709 63.4328 31.142 62.8283 31.9734C62.2238 32.8048 61.8596 33.8018 61.5051 34.781C61.867 32.8762 60.9138 30.7921 59.1801 29.4124Z" fill="white"/>
<path d="M61.4629 35.1095L61.4188 35.1038C61.3405 35.0823 61.2732 35.0315 61.2305 34.9617C61.1879 34.8918 61.173 34.8081 61.1889 34.7273C61.5181 32.9888 60.6511 31.0048 58.98 29.6749C58.9354 29.6397 58.9007 29.593 58.8797 29.5397C58.8587 29.4864 58.852 29.4284 58.8604 29.3715C58.8679 29.3148 58.8901 29.2611 58.9249 29.216C58.9596 29.1709 59.0056 29.1359 59.058 29.1147C61.0816 28.279 62.6257 26.2066 62.901 23.959C62.9114 23.8742 62.9541 23.7967 63.0201 23.7433C63.086 23.6898 63.1699 23.6646 63.2537 23.6729C63.2956 23.6763 63.3363 23.6881 63.3736 23.7075C63.4109 23.727 63.4439 23.7538 63.4708 23.7864C63.4977 23.8189 63.518 23.8566 63.5304 23.8972C63.5428 23.9378 63.5471 23.9806 63.5431 24.0229C63.4536 25.1937 63.3624 26.4059 63.619 27.5456C63.8937 28.7615 64.5776 29.7176 65.4508 30.1051C65.5162 30.1347 65.57 30.1856 65.6035 30.2498C65.6371 30.3139 65.6485 30.3877 65.6361 30.4593C65.6236 30.531 65.5879 30.5965 65.5347 30.6454C65.4814 30.6943 65.4137 30.724 65.3421 30.7296C64.5309 30.7878 63.7079 31.3143 63.0848 32.1736C62.5023 32.9795 62.1493 33.9476 61.7985 34.8989C61.7732 34.9666 61.7266 35.0239 61.6659 35.062C61.6052 35.1001 61.5338 35.1168 61.4629 35.1095ZM59.7769 29.4955C60.8284 30.4347 61.5474 31.6971 61.8245 33.0909C62.0275 32.6312 62.2763 32.1935 62.5669 31.7847C63.0428 31.0973 63.7066 30.5658 64.4763 30.2559C63.7152 29.5907 63.1931 28.6887 62.991 27.69C62.896 27.2572 62.8384 26.8168 62.819 26.3736C62.1478 27.7076 61.0848 28.7986 59.7769 29.4955Z" fill="black"/>
<path d="M13.9113 46.205C13.0595 45.6516 12.5815 44.7069 12.4184 43.7707C12.2552 42.8345 12.3723 41.87 12.4871 40.9375C12.2355 41.8762 11.8165 42.761 11.251 43.548C10.6535 44.3253 9.79396 44.9608 8.47353 45.2868C9.33513 45.9367 9.94196 46.8745 10.1873 47.9352C10.4489 48.9486 10.454 49.9951 10.4584 51.0321C10.6805 50.1513 10.9119 49.2566 11.4117 48.4836C11.9114 47.7107 12.7308 47.0681 13.9113 46.205Z" fill="white"/>
<path d="M10.411 51.3557C10.3335 51.3456 10.2623 51.3073 10.2105 51.2481C10.1587 51.1888 10.1299 51.1125 10.1293 51.0333C10.1259 50.0324 10.1233 48.9956 9.87026 48.0175C9.67702 47.2707 9.24677 46.2317 8.28738 45.5565C8.2371 45.5198 8.19822 45.4694 8.1753 45.4111C8.15238 45.3527 8.14637 45.2889 8.15797 45.2271C8.16917 45.1635 8.19881 45.1047 8.24311 45.0581C8.28741 45.0115 8.34435 44.9793 8.40667 44.9656C9.52837 44.6879 10.3799 44.1574 11.0046 43.3438C11.6292 42.5301 11.961 41.582 12.1871 40.8439C12.2118 40.7669 12.2637 40.7018 12.3329 40.6613C12.402 40.6207 12.4835 40.6074 12.5615 40.6241C12.6395 40.6408 12.7085 40.6862 12.7553 40.7515C12.802 40.8169 12.8231 40.8975 12.8146 40.978C12.6978 41.8818 12.5883 42.8169 12.7434 43.7142C12.8064 44.1581 12.9586 44.5838 13.1907 44.9651C13.4227 45.3464 13.7296 45.6751 14.0925 45.931C14.1377 45.959 14.1753 45.9979 14.2019 46.0444C14.2285 46.0908 14.2433 46.1432 14.245 46.197C14.246 46.2502 14.2343 46.303 14.2109 46.3508C14.1875 46.3986 14.1531 46.4399 14.1105 46.4714C12.9961 47.2862 12.1696 47.926 11.6873 48.6652C11.205 49.4044 10.9905 50.2691 10.7769 51.1131C10.757 51.1901 10.7103 51.2573 10.6454 51.3022C10.5805 51.3471 10.5018 51.3667 10.4239 51.3574L10.411 51.3557ZM9.14883 45.4271C9.80796 46.0943 10.2737 46.9322 10.4955 47.85C10.5984 48.2664 10.6687 48.6904 10.7056 49.1182C10.8247 48.8347 10.968 48.5622 11.134 48.3039C11.6217 47.5521 12.3703 46.9364 13.3643 46.2007C12.6882 45.5805 12.2435 44.7432 12.1044 43.8288C12.0586 43.5424 12.0336 43.2529 12.0294 42.9626C11.8788 43.2378 11.7074 43.5007 11.5167 43.7491C10.9101 44.5354 10.0852 45.12 9.14883 45.4271Z" fill="black"/>
<path d="M12.8653 73.6347C11.8212 73.4999 10.8814 72.687 10.463 71.5567C10.021 70.3628 10.2154 69.1317 10.4563 68.3083C10.6023 67.7896 10.8242 67.2958 11.1146 66.8434L11.0604 66.7853C10.27 65.9158 9.9722 64.5605 10.2804 63.274C10.6133 61.8827 11.5118 60.8732 12.2081 60.2716C12.2734 60.2152 12.358 60.1873 12.4433 60.1941C12.5287 60.2008 12.6078 60.2417 12.6632 60.3076C12.7186 60.3736 12.7458 60.4592 12.7389 60.5457C12.7319 60.6323 12.6913 60.7125 12.626 60.7689C11.9959 61.3071 11.1994 62.2066 10.9075 63.4251C10.6542 64.4894 10.896 65.6272 11.5248 66.3299C11.5809 66.2714 11.6386 66.2157 11.6978 66.1627C12.3924 65.5305 13.3075 65.2754 14.097 65.5006C14.2688 65.5488 14.4293 65.6312 14.5691 65.743C14.709 65.8547 14.8255 65.9936 14.9119 66.1515C14.9663 66.2554 14.9979 66.37 15.0047 66.4876C15.0114 66.6052 14.9931 66.723 14.951 66.8329C14.8557 67.0521 14.6924 67.234 14.486 67.3508C13.6452 67.8845 12.4947 67.8212 11.6197 67.2592C11.3811 67.6425 11.1984 68.0586 11.0771 68.4946C10.8631 69.2248 10.6884 70.3031 11.0672 71.3354C11.4014 72.235 12.1732 72.9012 12.9681 72.9981C13.0529 73.0091 13.1298 73.0537 13.182 73.1223C13.2341 73.1909 13.2572 73.2777 13.2461 73.3637C13.2349 73.4497 13.1906 73.5278 13.1228 73.5809C13.0549 73.634 12.9691 73.6576 12.8843 73.6467L12.8653 73.6347ZM12.0246 66.743C12.3394 66.945 12.7027 67.0565 13.0757 67.0656C13.4487 67.0747 13.8175 66.9812 14.1429 66.7949C14.2328 66.7517 14.3073 66.6812 14.3559 66.5931C14.3641 66.5683 14.3671 66.5419 14.3646 66.5158C14.3622 66.4897 14.3544 66.4645 14.3418 66.4416C14.2472 66.2864 14.0984 66.1732 13.9249 66.1244C13.3516 65.9613 12.6661 66.1608 12.1337 66.651L12.0246 66.743Z" fill="black"/>
<path d="M63.5841 53.025C63.5226 53.0166 63.4618 53.0037 63.4022 52.9863C63.192 52.9249 62.9969 52.8201 62.829 52.6784C62.661 52.5367 62.524 52.3613 62.4264 52.1631C62.116 51.5129 62.2066 50.7534 62.3217 50.1658C62.4664 49.4098 62.6822 48.6693 62.9661 47.9545C62.1346 46.6979 60.9791 45.697 59.6245 45.0598C59.5501 45.0223 59.493 44.9571 59.465 44.8778C59.4371 44.7985 59.4405 44.7112 59.4746 44.6341C59.5087 44.5571 59.5707 44.4963 59.6479 44.4644C59.725 44.4325 59.8112 44.432 59.8885 44.4629C61.2289 45.0894 62.3906 46.0487 63.2661 47.2524C64.0965 45.4831 65.3369 43.9426 66.881 42.7626C66.9151 42.7369 66.9539 42.7182 66.9951 42.7077C67.0363 42.6971 67.0791 42.6949 67.121 42.7011C67.163 42.7073 67.2033 42.7218 67.2397 42.7439C67.2761 42.7659 67.3078 42.795 67.3331 42.8295C67.3583 42.8639 67.3766 42.9032 67.3868 42.9449C67.3971 42.9866 67.3992 43.0299 67.3929 43.0725C67.3866 43.115 67.3721 43.156 67.3503 43.1929C67.3284 43.2298 67.2996 43.2621 67.2655 43.2878C65.7005 44.4804 64.4659 46.0627 63.6821 47.8802C64.2328 48.7677 64.6275 49.7456 64.8489 50.7707C65.0576 51.745 64.8749 52.4793 64.3324 52.845C64.1113 52.9922 63.8463 53.0559 63.5841 53.025ZM63.4003 48.6585C63.2133 49.1905 63.0654 49.7357 62.958 50.2896C62.8573 50.809 62.786 51.4043 63.0112 51.8748C63.0684 51.9902 63.1482 52.0925 63.2457 52.1754C63.3433 52.2584 63.4566 52.3203 63.5787 52.3574C63.6484 52.3796 63.7221 52.3864 63.7948 52.3775C63.8675 52.3686 63.9375 52.3441 64.0003 52.3057C64.4335 52.0187 64.2905 51.1722 64.2373 50.919C64.0661 50.1274 63.7831 49.3652 63.3969 48.6562L63.4003 48.6585Z" fill="black"/>
<path d="M51.9178 51.4678C51.8401 51.4581 51.7686 51.4201 51.7167 51.3608C51.6648 51.3015 51.636 51.225 51.6358 51.1457C51.6355 51.0663 51.6637 50.9894 51.7152 50.9294C51.7667 50.8694 51.8379 50.8303 51.9155 50.8195C53.0509 50.6544 54.1531 50.3047 55.1797 49.784C55.2563 49.7452 55.345 49.7387 55.4261 49.7661C55.5072 49.7934 55.5741 49.8523 55.6122 49.9299C55.6503 50.0074 55.6563 50.0972 55.6291 50.1795C55.6018 50.2618 55.5434 50.3298 55.4668 50.3687C54.3783 50.9213 53.2096 51.2924 52.0056 51.4678C51.9764 51.4715 51.9469 51.4715 51.9178 51.4678Z" fill="white"/>
<path d="M50.5109 55.4486C50.4337 55.4391 50.3625 55.4017 50.3106 55.3432C50.2586 55.2847 50.2293 55.209 50.2281 55.1302C50.2269 55.0514 50.2539 54.9746 50.304 54.9142C50.3542 54.8537 50.4242 54.8136 50.5011 54.8012C52.4693 54.4661 54.5027 54.1186 56.3325 53.2351C56.4099 53.1976 56.4988 53.1928 56.5795 53.2217C56.6603 53.2506 56.7263 53.3108 56.763 53.3892C56.7997 53.4675 56.8042 53.5576 56.7754 53.6395C56.7465 53.7214 56.6869 53.7885 56.6094 53.826C54.698 54.7482 52.617 55.1028 50.6066 55.4458C50.575 55.4513 50.5428 55.4523 50.5109 55.4486Z" fill="white"/>
<path d="M51.759 59.3087C51.6824 59.2979 51.6123 59.2597 51.5614 59.2009C51.5105 59.142 51.4822 59.0666 51.4816 58.9882C51.4811 58.9098 51.5084 58.8338 51.5585 58.7739C51.6086 58.714 51.6782 58.6743 51.7547 58.662C53.649 58.3741 55.4958 57.8219 57.2425 57.0212C57.2816 57.0036 57.3237 56.994 57.3664 56.9929C57.4091 56.9917 57.4516 56.9991 57.4914 57.0147C57.5312 57.0302 57.5676 57.0535 57.5985 57.0833C57.6293 57.1131 57.6541 57.1488 57.6713 57.1884C57.6886 57.2279 57.6979 57.2705 57.6989 57.3138C57.6998 57.3571 57.6924 57.4002 57.6769 57.4406C57.6615 57.481 57.6383 57.5179 57.6088 57.5493C57.5793 57.5807 57.544 57.6059 57.5049 57.6235C55.7035 58.4481 53.7993 59.017 51.8461 59.3142C51.8169 59.3162 51.7877 59.3143 51.759 59.3087Z" fill="white"/>
<path d="M54.5024 62.8438C54.4259 62.8331 54.3557 62.7949 54.3048 62.736C54.2539 62.6772 54.2256 62.6017 54.2251 62.5234C54.2246 62.445 54.2518 62.3689 54.302 62.3091C54.3521 62.2492 54.4217 62.2095 54.4981 62.1972C55.4768 62.0439 56.414 61.6862 57.2502 61.1467C57.286 61.1222 57.3262 61.1052 57.3685 61.0966C57.4108 61.0881 57.4543 61.0883 57.4965 61.0971C57.5386 61.1059 57.5786 61.1231 57.614 61.1479C57.6494 61.1726 57.6796 61.2043 57.7027 61.2411C57.7258 61.2779 57.7413 61.319 57.7485 61.362C57.7556 61.4051 57.7542 61.4491 57.7442 61.4916C57.7342 61.5342 57.716 61.5743 57.6905 61.6096C57.6651 61.6449 57.6329 61.6747 57.5959 61.6972C56.6823 62.2856 55.6589 62.676 54.5903 62.8438C54.5611 62.8473 54.5316 62.8474 54.5024 62.8438Z" fill="white"/>
</g>
<defs>
<clipPath id="clip0_1_1562">
<rect width="84.3837" height="80.034" fill="white" transform="translate(11.2178 0.573242) rotate(7.3582)"/>
</clipPath>
</defs>
</svg>
