<svg width="116" height="109" viewBox="0 0 116 109" fill="none" xmlns="http://www.w3.org/2000/svg">
<g clip-path="url(#clip0_1_1621)">
<path d="M49.3086 28.9337C49.2596 28.9337 49.2111 28.924 49.166 28.9051C49.1208 28.8862 49.0798 28.8586 49.0454 28.8237C49.0109 28.7889 48.9837 28.7475 48.9654 28.7021C48.9471 28.6567 48.9379 28.6081 48.9385 28.5591C48.9385 27.1247 49.2059 25.7095 49.4562 24.3394L51.1676 14.943C51.1763 14.8948 51.1944 14.8487 51.2209 14.8075C51.2474 14.7663 51.2817 14.7307 51.3219 14.7028C51.3621 14.6749 51.4074 14.6551 51.4553 14.6447C51.5031 14.6343 51.5526 14.6335 51.6007 14.6422C51.6489 14.6509 51.6949 14.669 51.7361 14.6955C51.7773 14.722 51.8129 14.7564 51.8408 14.7967C51.8687 14.8369 51.8884 14.8823 51.8988 14.9301C51.9091 14.978 51.91 15.0275 51.9013 15.0757L50.1899 24.4721C49.9461 25.8102 49.6958 27.1953 49.6851 28.5633C49.6851 28.6125 49.6753 28.6612 49.6563 28.7066C49.6373 28.7519 49.6095 28.7931 49.5744 28.8275C49.5394 28.862 49.4978 28.8892 49.4522 28.9074C49.4065 28.9256 49.3577 28.9346 49.3086 28.9337Z" fill="black"/>
<path d="M111.134 66.6776C107.926 69.7155 103.005 70.619 100.261 74.083C97.5161 77.5469 97.8391 82.5181 96.4443 86.7421C93.7917 94.764 85.1064 99.3112 76.7634 100.581C69.1798 101.733 60.5052 100.431 55.6427 94.4921C53.5462 91.923 51.9889 88.4376 48.7864 87.5941C45.7616 86.7999 42.6982 88.8658 40.7258 91.2936C38.7534 93.7214 37.333 96.6458 34.9242 98.639C31.7603 101.262 27.2444 101.874 23.2568 100.887C19.2693 99.9 15.7567 97.4851 12.796 94.6355C3.65073 85.8322 -0.706884 72.321 1.56712 59.8289C2.2966 55.819 3.71919 51.8327 6.38254 48.7519C12.3253 41.8775 22.5338 41.1689 30.7934 37.388C33.6728 36.0714 36.5115 34.1767 37.7844 31.2715C38.7427 29.0878 38.6914 26.6172 39.0679 24.2622C40.1247 17.5805 44.9529 11.631 51.2616 9.21604C57.5702 6.80111 65.1409 8.02998 70.3778 12.3096C73.6722 15.005 76.926 19.0813 81.1103 18.3041C82.4259 18.0601 83.5939 17.3343 84.8454 16.8633C89.233 15.2127 94.3265 16.9018 97.8947 19.9569C101.463 23.012 108.816 29.4346 112.358 40.8028C116.707 54.7186 115.379 62.6399 111.134 66.6776Z" fill="#EBEBEB"/>
<path d="M56.8042 39.5844C57.9483 43.6053 57.5744 47.9069 55.7538 51.6697C55.2532 52.6952 54.6393 53.6971 54.4703 54.8254C54.3013 55.9536 54.727 57.2788 55.7795 57.7199C56.832 58.1609 57.9615 57.6085 58.9134 57.0348C61.8004 55.2958 64.4319 53.1638 66.7324 50.6999C67.1966 50.201 67.6629 49.6573 67.802 48.9872C67.8672 48.5751 67.8672 48.1554 67.802 47.7433L67.0404 40.3272C70.5916 37.7772 73.0731 34.0011 74.0058 29.7277C75.6102 31.1385 78.4981 30.5733 79.4587 28.6572C80.4192 26.7411 79.1378 24.0907 77.0477 23.6475C77.7794 22.3095 77.7238 20.6396 77.1718 19.218C76.6199 17.7965 75.6251 16.589 74.532 15.5229C71.012 12.1095 66.4634 9.95612 61.5939 9.39776C59.4247 9.15584 57.1379 9.25861 55.1955 10.2541C52.2455 11.7677 50.5597 15.403 51.3106 18.6357C50.3758 22.6927 49.3126 25.3067 49.5543 26.784C48.782 32.0891 51.9118 37.7175 56.8042 39.5844Z" fill="white"/>
<path d="M78.2749 81.4264C78.1893 81.3579 78.4097 81.2765 78.4289 81.3836C78.4653 81.5827 77.7123 81.1481 77.6567 81.2444C76.632 83.0256 74.8971 84.687 72.8413 84.7062C71.8915 84.7062 70.9566 84.4921 70.0324 84.278C65.6406 83.2461 61.2316 82.2057 57.0473 80.5165C52.8629 78.8273 48.8861 76.4488 45.8719 73.0962C44.244 71.2807 42.9091 69.1955 41.0864 67.5769C39.2638 65.9584 36.7459 64.8345 34.397 65.4831C33.6845 65.6788 33.026 66.0347 32.4717 66.5236C34.8249 67.7289 37.2465 68.9878 38.913 71.0366C35.3875 71.6189 31.8535 72.0964 28.3559 72.7493C27.9665 72.8221 27.5237 72.9356 27.3504 73.2931C27.2646 73.4965 27.251 73.7232 27.3119 73.9354C27.4064 74.3237 27.617 74.6739 27.9155 74.9394C28.214 75.2048 28.5863 75.3729 28.9827 75.4212C29.5047 75.5325 29.9731 75.6353 30.4395 75.7209C29.8234 75.7016 29.3399 76.3846 29.434 77.0054C29.5282 77.6263 30.0587 78.093 30.647 78.2771C31.2483 78.4305 31.8774 78.4386 32.4824 78.3007C32.3274 78.4943 32.2309 78.7282 32.2043 78.9749C32.1777 79.2216 32.2221 79.4707 32.3322 79.693C32.4424 79.9153 32.6137 80.1014 32.826 80.2295C33.0384 80.3575 33.2829 80.4222 33.5307 80.4159C33.8323 80.4159 34.1382 80.2981 34.4313 80.3709C34.8998 80.4865 35.1244 81.0003 35.4453 81.3622C36.0657 82.0622 37.0968 82.2078 38.0337 82.2185C39.2867 82.2442 40.5384 82.1264 41.7646 81.8674C44.0536 83.7685 46.5287 85.6868 49.0037 87.6071C50.9847 89.1443 52.972 90.6836 55.1241 91.9681C57.9779 93.6808 61.0862 94.9033 64.1752 96.1257C66.6332 97.0956 69.1168 98.0761 71.731 98.455C74.3451 98.834 77.1411 98.5642 79.3894 97.1705C81.5158 95.856 82.9534 93.6916 84.237 91.5442C86.4297 87.8705 88.4341 83.7407 87.9849 79.4867C85.6788 80.4587 83.2978 81.4478 80.7949 81.4671C79.9585 81.4671 79.1263 81.3643 78.2749 81.4264Z" fill="white"/>
<path d="M41.5 86.3247L41.4101 86.2948C40.9871 86.2036 40.5905 86.0169 40.2506 85.7488C40.1429 85.7085 40.0372 85.6628 39.934 85.6118C39.6484 85.4685 39.3967 85.2655 39.196 85.0167C39.1789 84.9974 39.1596 84.9803 39.1425 84.9631C39.0292 84.8925 38.9136 84.824 38.8024 84.7491C37.8376 84.1282 37.1295 83.2247 36.3979 82.3598C36.3037 82.2515 36.2382 82.1212 36.2075 81.9809C35.7946 81.8289 35.048 80.3388 34.541 80.7177C33.6725 87.5172 32.4938 95.8753 28.6816 102.054C30.515 103.06 32.3654 104.075 34.4276 104.775C36.4899 105.475 38.8067 105.845 41.0144 105.152C40.8775 102.743 41.5449 100.358 41.9727 97.9712C42.8284 93.2484 42.6145 89.1935 41.9021 86.3483C41.7676 86.3596 41.6322 86.3517 41.5 86.3247Z" fill="white"/>
<path d="M43.5201 65.6371C44.1383 63.0252 44.6946 60.379 45.1866 57.7415C45.4305 56.4419 45.7385 55.1553 45.9824 53.8557C46.0765 53.3548 46.1535 52.8388 46.2433 52.3271C45.9053 52.5712 45.5695 52.8217 45.2465 53.085C41.813 55.8832 38.5999 60.8715 37.2051 65.2881C39.4042 65.2539 41.3894 68.4138 43.103 69.8996C43.1415 69.6812 43.4645 65.8811 43.5201 65.6371Z" fill="#31C781"/>
<path d="M68.1425 47.8676C67.3018 49.8544 66.2321 51.5072 64.6897 52.7917C63.1428 54.095 61.5237 55.3101 59.8401 56.4312C58.7962 57.127 57.5233 57.8099 56.3489 57.3753C55.4932 57.0542 54.9199 56.1743 54.7573 55.2666C54.5947 54.3588 54.7573 53.4275 55.0097 52.5369C55.4675 50.852 56.1756 49.2121 57.2773 47.8569C55.2835 48.1358 53.3324 48.663 51.4693 49.4262C51.3067 50.7236 50.8746 52.036 50.6008 53.2798C50.2521 54.8555 49.959 56.4462 49.668 58.0326C49.2659 60.2463 48.8252 62.475 48.6797 64.7229C51.3409 64.937 54.0043 65.1511 56.674 65.271L57.1489 65.2902C58.3127 65.3074 59.4786 65.3266 60.6423 65.3545C61.7622 65.2906 62.8852 65.3049 64.0031 65.3973C65.5969 59.883 67.613 54.4998 70.0335 49.2956C70.1049 49.1572 70.2084 49.0379 70.3353 48.9477C70.4622 48.8576 70.6089 48.7992 70.7631 48.7775C70.0357 48.5377 68.8677 48.0817 68.1425 47.8676Z" fill="#31C781"/>
<path d="M88.5732 67.3497C88.2395 65.5706 87.5036 63.8921 86.7271 62.2586C85.5933 59.8886 84.3269 57.5486 82.5642 55.6004C80.5811 53.4082 78.2429 51.1945 75.5496 49.957C74.5142 53.1256 73.3355 57.0027 72.6167 60.2869C72.529 61.8711 72.4798 63.4597 72.4263 65.0482C72.3835 66.2835 72.3514 67.5274 72.3942 68.7669C72.559 69.7817 72.7408 70.7965 72.9675 71.8027C73.2543 73.0917 73.6998 74.3401 74.2938 75.5193C74.7217 76.3757 75.479 77.0179 75.9689 77.8272C76.1358 77.8736 76.2834 77.9726 76.3897 78.1095C76.4961 78.2464 76.5555 78.4139 76.5593 78.5872C76.5502 79.2217 76.4915 79.8545 76.3839 80.4798C78.2193 81.3618 80.3479 81.5138 82.3737 81.2334C84.4937 80.9379 86.526 80.2079 88.5412 79.48C88.708 77.1914 88.7551 74.7422 88.8128 72.2909C88.8449 70.6424 88.8791 68.9767 88.5732 67.3497Z" fill="#31C781"/>
<path d="M80.1235 101.953C80.0572 100.159 80.1963 98.3565 80.0037 96.571C76.0312 98.8789 70.9633 98.8061 66.5094 97.4274C62.0555 96.0486 58.0723 93.4881 54.1532 90.9597L46.8669 86.2498C46.1933 86.0146 45.5527 85.6937 44.9609 85.2949C44.9416 85.3228 44.9224 85.3506 44.901 85.3763C44.7178 85.5447 44.4981 85.6686 44.2592 85.7381C44.1351 85.7895 44.0089 85.8344 43.8827 85.8772C43.626 85.9607 42.1179 86.0913 41.8569 86.1513C41.7841 86.1705 43.0227 90.7071 43.0227 90.7414C43.0548 93.1349 42.5949 95.5048 42.12 97.8534C41.6437 100.265 41.1652 102.678 40.6846 105.092C54.3971 106.969 67.9641 107.297 81.5033 106.847C80.4872 105.591 80.1919 103.745 80.1235 101.953Z" fill="#C7E3E5"/>
<path d="M57.1598 48.3625C57.137 48.3646 57.1141 48.3646 57.0913 48.3625C56.9955 48.3442 56.9106 48.2893 56.8547 48.2093C56.7987 48.1293 56.7762 48.0307 56.7918 47.9343C57.3267 45.0248 57.1855 43.1044 56.6913 40.1479C56.6795 40.0525 56.705 39.9562 56.7624 39.8791C56.8199 39.8021 56.9049 39.7503 56.9997 39.7345C57.0944 39.7188 57.1916 39.7403 57.2709 39.7946C57.3502 39.8489 57.4054 39.9317 57.425 40.0258C57.9235 43.006 58.0668 45.0676 57.5256 48.0692C57.5071 48.1524 57.4607 48.2269 57.3942 48.2802C57.3277 48.3336 57.245 48.3626 57.1598 48.3625Z" fill="black"/>
<path d="M75.3746 28.9998C75.2898 29.0008 75.2072 28.9728 75.1405 28.9204C75.0738 28.868 75.0269 28.7944 75.0077 28.7117C74.9885 28.6291 74.9981 28.5423 75.0348 28.4658C75.0716 28.3894 75.1333 28.3277 75.2098 28.2912C75.4103 28.1973 75.5837 28.0539 75.7135 27.8745C75.8434 27.6951 75.9255 27.4856 75.9521 27.2657C75.9692 27.0582 75.924 26.8503 75.8223 26.6688C75.7205 26.4872 75.5668 26.3402 75.381 26.2466C75.3362 26.2269 75.2957 26.1986 75.2618 26.1633C75.2279 26.1279 75.2014 26.0862 75.1836 26.0406C75.1477 25.9485 75.1498 25.8458 75.1895 25.7553C75.2292 25.6647 75.3033 25.5936 75.3954 25.5577C75.4874 25.5218 75.59 25.5239 75.6805 25.5637C76.0085 25.7205 76.2812 25.9734 76.4623 26.2888C76.6433 26.6042 76.7244 26.9673 76.6945 27.3299C76.6554 27.6779 76.5285 28.0103 76.3256 28.2957C76.1228 28.5811 75.8507 28.8101 75.535 28.9613C75.4852 28.9863 75.4303 28.9995 75.3746 28.9998Z" fill="black"/>
<path d="M58.8882 32.58H58.7748C58.4425 32.5614 58.1183 32.4704 57.8249 32.3132C57.5315 32.156 57.2759 31.9365 57.0762 31.6701C56.811 31.2419 56.8623 30.6767 57.1875 30.1715C57.3686 29.9127 57.5797 29.6762 57.8164 29.4671L58.0175 29.2723C58.5586 28.7238 58.9745 28.0645 59.2367 27.3398C59.4989 26.615 59.6011 25.8421 59.5364 25.074C59.528 24.9756 59.5589 24.8779 59.6222 24.8021C59.6855 24.7263 59.7761 24.6786 59.8744 24.6694C59.9232 24.6644 59.9726 24.6692 60.0196 24.6836C60.0665 24.698 60.1102 24.7217 60.1478 24.7532C60.1855 24.7847 60.2165 24.8235 60.239 24.8672C60.2615 24.9109 60.275 24.9586 60.2787 25.0076C60.3523 25.8841 60.2355 26.7661 59.9364 27.5931C59.6373 28.4202 59.163 29.1727 58.5459 29.799L58.332 30.0131C58.1372 30.1843 57.9622 30.3767 57.81 30.5868C57.6753 30.8009 57.5961 31.0771 57.6924 31.2526C57.8274 31.4228 57.997 31.5625 58.1898 31.6625C58.3826 31.7625 58.5944 31.8205 58.8112 31.8328C59.097 31.8418 59.3813 31.787 59.6433 31.6723C59.735 31.6348 59.8377 31.6353 59.929 31.6736C60.0203 31.7119 60.0926 31.785 60.13 31.8767C60.1675 31.9684 60.167 32.0712 60.1287 32.1626C60.0904 32.2539 60.0173 32.3263 59.9257 32.3638C59.5971 32.5022 59.2448 32.5757 58.8882 32.58Z" fill="black"/>
<path d="M72.6917 98.8212C71.8981 98.8207 71.1055 98.7664 70.3193 98.6585C66.0772 98.0783 62.2137 96.1686 58.6733 94.1926C52.6597 90.834 46.9599 86.9412 41.6428 82.5611C41.6051 82.53 41.5737 82.4918 41.5507 82.4487C41.5277 82.4055 41.5134 82.3582 41.5086 82.3095C41.5038 82.2608 41.5087 82.2116 41.5229 82.1648C41.5371 82.118 41.5605 82.0744 41.5915 82.0366C41.6225 81.9988 41.6607 81.9675 41.7038 81.9444C41.747 81.9214 41.7943 81.907 41.8429 81.9023C41.8916 81.8975 41.9407 81.9024 41.9875 81.9166C42.0343 81.9308 42.0778 81.9541 42.1156 81.9852C47.3998 86.3397 53.0653 90.209 59.0434 93.546C62.5218 95.4857 66.3168 97.3611 70.4284 97.9242C74.8266 98.5279 79.0323 97.3697 81.6807 94.8284C82.868 93.6873 83.8649 92.2016 84.8147 90.1506C86.3091 86.9353 87.1906 83.469 87.4139 79.93C87.4166 79.881 87.429 79.8331 87.4505 79.789C87.472 79.7449 87.502 79.7055 87.5389 79.6732C87.5757 79.6409 87.6187 79.6163 87.6652 79.6008C87.7117 79.5854 87.7608 79.5793 87.8097 79.5831C87.8586 79.5861 87.9064 79.5988 87.9504 79.6203C87.9944 79.6418 88.0338 79.6719 88.0662 79.7087C88.0986 79.7455 88.1234 79.7883 88.1392 79.8347C88.155 79.8812 88.1615 79.9302 88.1583 79.9792C87.9275 83.6114 87.0229 87.1688 85.4907 90.4696C84.5002 92.6105 83.452 94.1626 82.1963 95.3701C79.8624 97.5923 76.4246 98.8212 72.6917 98.8212Z" fill="black"/>
<path d="M74.4608 84.9245C74.268 84.9238 74.0763 84.8949 73.8918 84.8389C69.2625 84.37 65.0225 83.0812 60.5366 81.7196L58.7332 81.1737C52.5401 79.4845 47.4551 76.1511 44.4238 71.7923C43.133 69.8003 41.4475 68.0945 39.4715 66.7805C38.849 66.3694 38.1024 65.9241 37.2745 65.7828C36.6099 65.7001 35.9371 65.7073 35.2743 65.8042L33.6999 65.9626C33.5828 65.9646 33.4676 65.9916 33.3619 66.0419C33.3225 66.0939 33.2994 66.1565 33.2956 66.2216C33.2918 66.2868 33.3074 66.3517 33.3404 66.4079C33.47 66.6087 33.6453 66.776 33.8517 66.8961C34.3908 67.26 34.9748 67.5854 35.5417 67.898C36.0017 68.1528 36.4787 68.4161 36.9344 68.7051C38.3013 69.5615 39.0736 70.4178 39.3859 71.4005C39.4029 71.4537 39.4076 71.5102 39.3994 71.5655C39.3912 71.6208 39.3705 71.6734 39.3389 71.7195C39.3078 71.766 39.2667 71.805 39.2185 71.8335C39.1704 71.862 39.1165 71.8794 39.0608 71.8843L30.076 72.6144C29.1112 72.6936 28.0373 72.8285 27.5239 73.55C27.4592 73.6248 27.4209 73.7188 27.4148 73.8176C27.4297 73.9225 27.5987 74.0573 27.6608 74.1087C28.4148 74.7111 29.3103 75.1106 30.2621 75.2691C30.3153 75.2736 30.3682 75.2815 30.4204 75.2926C30.5109 75.3174 30.5888 75.3752 30.6387 75.4546C30.6886 75.5341 30.7069 75.6294 30.69 75.7217C30.673 75.8141 30.6221 75.8966 30.5472 75.9532C30.4723 76.0097 30.379 76.036 30.2856 76.027L30.1722 76.0098C29.9974 76.0107 29.8296 76.079 29.7037 76.2004C29.5965 76.2955 29.5129 76.4142 29.4595 76.5473C29.406 76.6803 29.3842 76.8239 29.3957 76.9668C29.4727 77.5748 30.0696 77.988 30.5937 78.1143C31.2483 78.2749 31.9735 78.1293 32.596 77.9666C32.689 77.9429 32.7876 77.956 32.8712 78.0033C32.9547 78.0506 33.0168 78.1284 33.0444 78.2204C33.072 78.3125 33.063 78.4116 33.0193 78.4971C32.9756 78.5827 32.9006 78.648 32.8099 78.6795C32.7205 78.7162 32.6433 78.7775 32.5872 78.8563C32.5312 78.9351 32.4986 79.0282 32.4933 79.1248C32.4681 79.2989 32.489 79.4766 32.5539 79.64C32.6189 79.8034 32.7256 79.9469 32.8634 80.0561C33.3298 80.3794 34.04 80.3965 34.9727 80.1096C35.0365 80.0907 35.1041 80.0891 35.1688 80.1049C35.2334 80.1207 35.2927 80.1534 35.3406 80.1996C35.3889 80.2458 35.4236 80.3043 35.4413 80.3687C35.459 80.4332 35.459 80.5012 35.4412 80.5656C35.3642 80.844 35.6102 81.163 35.8797 81.3021C36.2391 81.4841 36.7076 81.4905 37.1205 81.4948L41.7562 81.5612C41.805 81.5617 41.8532 81.5719 41.898 81.5912C41.9428 81.6105 41.9834 81.6384 42.0174 81.6734C42.0514 81.7084 42.0782 81.7498 42.0961 81.7952C42.1141 81.8406 42.1229 81.8891 42.122 81.938C42.1192 82.0362 42.0784 82.1296 42.0082 82.1983C41.9379 82.267 41.8437 82.3057 41.7455 82.3062L37.1098 82.242C36.6392 82.242 36.0551 82.227 35.5417 81.9658C35.3408 81.8639 35.1634 81.721 35.0212 81.5462C34.8789 81.3714 34.775 81.1686 34.716 80.951C33.7662 81.1651 33.0196 81.0709 32.4398 80.6705C32.1899 80.4818 31.9949 80.2297 31.8749 79.9402C31.755 79.6508 31.7144 79.3346 31.7574 79.0242C31.762 78.9794 31.7698 78.9351 31.7809 78.8915C31.3273 78.9566 30.8657 78.9392 30.4183 78.8401C29.6289 78.6495 28.7796 78.0244 28.6555 77.061C28.6311 76.8214 28.659 76.5794 28.7373 76.3517C28.8156 76.124 28.9424 75.916 29.109 75.7422C28.4156 75.5041 27.7686 75.1477 27.1966 74.6889C26.9321 74.5104 26.7467 74.2366 26.6789 73.9246C26.6637 73.7804 26.6772 73.6347 26.7187 73.4957C26.7602 73.3568 26.8288 73.2275 26.9206 73.1153C27.618 72.1434 28.8844 71.9635 30.0161 71.8715L38.4853 71.1821C38.1452 70.5527 37.5034 69.9447 36.5344 69.3345C36.1065 69.0584 35.6316 68.7993 35.1802 68.551C34.5983 68.2298 33.9972 67.8959 33.4325 67.5126C33.1147 67.3261 32.8519 67.0587 32.6709 66.7376C32.56 66.5283 32.5229 66.2876 32.5656 66.0545C32.6083 65.8214 32.7283 65.6095 32.9062 65.4531C33.1188 65.3089 33.3682 65.2286 33.625 65.2219L35.1973 65.0656C35.9276 64.9585 36.6692 64.9542 37.4007 65.0528C38.3698 65.2219 39.234 65.7357 39.8801 66.1617C41.9388 67.529 43.695 69.3048 45.0399 71.3791C47.9642 75.5838 52.9037 78.8123 58.9449 80.4586L60.7591 81.0088C65.2215 82.364 69.4379 83.6442 74.0223 84.1024C74.0493 84.105 74.0758 84.1108 74.1014 84.1195C74.2785 84.1747 74.4652 84.1921 74.6494 84.1708C74.8336 84.1494 75.0113 84.0896 75.1711 83.9954C76.0267 83.5393 76.9167 82.2484 77.3103 80.8568C77.3243 80.8099 77.3475 80.7661 77.3784 80.7281C77.4094 80.6901 77.4475 80.6586 77.4906 80.6354C77.5337 80.6121 77.5809 80.5976 77.6297 80.5926C77.6784 80.5876 77.7276 80.5923 77.7745 80.6063C77.8214 80.6204 77.8651 80.6436 77.9031 80.6745C77.941 80.7055 77.9725 80.7436 77.9958 80.7867C78.019 80.8299 78.0336 80.8772 78.0385 80.9259C78.0435 80.9747 78.0389 81.024 78.0248 81.0709C77.644 82.4004 76.7177 84.0275 75.5112 84.6633C75.1876 84.8348 74.827 84.9245 74.4608 84.9245Z" fill="black"/>
<path d="M28.7579 102.287C28.6933 102.288 28.6297 102.271 28.5739 102.238C28.488 102.189 28.4249 102.109 28.3984 102.014C28.3719 101.918 28.3843 101.817 28.4328 101.731C31.4277 96.4362 32.5615 90.3497 33.6525 84.4644C33.6597 84.4148 33.6769 84.3672 33.7029 84.3244C33.7289 84.2816 33.7633 84.2445 33.8039 84.2153C33.8446 84.1861 33.8908 84.1654 33.9396 84.1545C33.9885 84.1436 34.039 84.1426 34.0883 84.1517C34.1375 84.1607 34.1844 84.1797 34.2262 84.2073C34.2679 84.2349 34.3037 84.2707 34.3313 84.3125C34.3589 84.3543 34.3778 84.4012 34.3869 84.4505C34.396 84.4997 34.3951 84.5503 34.3841 84.5992C33.2824 90.5466 32.1422 96.6953 29.081 102.099C29.0484 102.156 29.0014 102.203 28.9447 102.236C28.888 102.269 28.8236 102.287 28.7579 102.287Z" fill="black"/>
<path d="M38.3852 62.3722C38.3248 62.3725 38.2652 62.3578 38.2119 62.3294C38.1249 62.283 38.0598 62.204 38.031 62.1097C38.0021 62.0154 38.0118 61.9134 38.0579 61.8262C40.103 57.9469 42.6081 54.7741 45.5025 52.3935C48.8333 49.6553 52.6347 48.0046 56.5003 47.6171C56.549 47.6122 56.5982 47.6169 56.6451 47.6311C56.6921 47.6452 56.7357 47.6684 56.7737 47.6994C56.8116 47.7304 56.8431 47.7686 56.8663 47.8118C56.8895 47.855 56.904 47.9023 56.9089 47.9511C56.9138 47.9999 56.9091 48.0492 56.8949 48.0961C56.8808 48.1431 56.8576 48.1868 56.8266 48.2247C56.7956 48.2627 56.7575 48.2942 56.7143 48.3174C56.6712 48.3406 56.6239 48.3551 56.5752 48.36C52.8572 48.7325 49.1905 50.3254 45.9752 52.9694C43.1579 55.2858 40.7149 58.3837 38.7168 62.1752C38.6846 62.2351 38.6367 62.285 38.5783 62.3197C38.5199 62.3544 38.4532 62.3725 38.3852 62.3722Z" fill="black"/>
<path d="M40.7275 105.469C40.7061 105.471 40.6846 105.471 40.6633 105.469C40.5664 105.452 40.4801 105.398 40.4232 105.317C40.3663 105.237 40.3434 105.138 40.3595 105.041C40.6077 103.58 40.9435 102.086 41.2687 100.643C42.1544 96.7125 43.0699 92.6469 42.3383 88.6541C42.3295 88.6059 42.3302 88.5564 42.3405 88.5085C42.3507 88.4605 42.3703 88.4151 42.3981 88.3748C42.4259 88.3344 42.4614 88.2999 42.5025 88.2733C42.5437 88.2466 42.5896 88.2284 42.6378 88.2195C42.686 88.2107 42.7355 88.2114 42.7834 88.2217C42.8313 88.2319 42.8766 88.2515 42.917 88.2794C42.9573 88.3072 42.9918 88.3427 43.0184 88.3839C43.045 88.425 43.0632 88.471 43.0721 88.5193C43.8229 92.6576 42.8903 96.7959 41.9897 100.799C41.6645 102.234 41.3307 103.717 41.0869 105.158C41.0724 105.244 41.0286 105.322 40.963 105.378C40.8974 105.435 40.8141 105.467 40.7275 105.469Z" fill="black"/>
<path d="M81.4164 107.26C81.3405 107.261 81.2664 107.238 81.204 107.194C81.1416 107.151 81.0941 107.09 81.0677 107.018C80.0676 104.313 79.6719 101.42 79.9083 98.5448C79.9165 98.4463 79.9635 98.3551 80.0389 98.2913C80.1143 98.2274 80.212 98.1962 80.3104 98.2044C80.4089 98.2127 80.5 98.2597 80.5638 98.3352C80.6276 98.4107 80.6588 98.5084 80.6506 98.6069C80.4218 101.373 80.8022 104.156 81.7651 106.759C81.7827 106.805 81.791 106.853 81.7897 106.902C81.7884 106.95 81.7775 106.998 81.7576 107.043C81.7377 107.087 81.7093 107.127 81.6738 107.16C81.6384 107.194 81.5967 107.22 81.5512 107.237C81.5083 107.253 81.4624 107.261 81.4164 107.26Z" fill="black"/>
<path d="M29.7633 46.8637C29.6782 46.8643 29.5955 46.8356 29.529 46.7826C29.4625 46.7296 29.4161 46.6553 29.3976 46.5722C29.3791 46.4891 29.3896 46.4022 29.4273 46.3259C29.465 46.2496 29.5277 46.1886 29.605 46.1529C31.6886 45.1745 33.3615 43.8343 34.4696 42.2586C34.1239 41.9201 33.8201 41.5414 33.5647 41.1304C32.6812 39.7195 32.3689 38.0689 32.1956 36.7908C32.0734 36.1419 32.0828 35.4749 32.2234 34.8297C32.3051 34.467 32.4817 34.1325 32.7351 33.8606C32.9884 33.5886 33.3094 33.3889 33.6652 33.2819C34.9188 32.9736 36.0184 34.1575 36.4163 35.4228C37.0773 37.5337 36.7158 40.0171 35.4472 42.1173C36.0265 42.5722 36.7248 42.8495 37.4581 42.9159C38.7695 43.0122 39.8926 42.3336 40.5664 41.7983C39.973 40.9025 39.7252 39.8213 39.869 38.7561C39.9931 37.872 40.5621 36.9021 41.5184 36.8593C41.8517 36.8592 42.177 36.9619 42.4499 37.1534C42.7229 37.345 42.9302 37.6161 43.0437 37.9298C43.2378 38.4994 43.2302 39.1184 43.0223 39.6831C42.7339 40.5236 42.2414 41.2791 41.589 41.8818C41.651 41.9461 41.7152 42.0082 41.7815 42.0702C42.2311 42.462 42.7679 42.7403 43.3471 42.8818C43.9262 43.0233 44.5307 43.024 45.1101 42.8838C45.1581 42.8698 45.2083 42.8656 45.2579 42.8715C45.3075 42.8773 45.3555 42.8931 45.3989 42.9179C45.4422 42.9426 45.4802 42.9759 45.5105 43.0157C45.5407 43.0554 45.5627 43.1009 45.575 43.1493C45.5874 43.1977 45.5899 43.2481 45.5823 43.2976C45.5748 43.347 45.5574 43.3944 45.5312 43.4369C45.505 43.4794 45.4705 43.5163 45.4298 43.5452C45.389 43.5741 45.3429 43.5946 45.2941 43.6053C44.5966 43.7797 43.867 43.7815 43.1686 43.6107C42.4701 43.4398 41.8238 43.1015 41.2852 42.6247C41.1954 42.5434 41.1098 42.4599 41.0285 42.3742C39.8797 43.2841 38.6005 43.7359 37.4046 43.6588C36.5447 43.5825 35.7242 43.2633 35.0386 42.7382C33.8556 44.3931 32.0972 45.7997 29.9216 46.8209C29.8726 46.8465 29.8185 46.8611 29.7633 46.8637ZM34.0696 33.9777C33.9974 33.9784 33.9256 33.9878 33.8557 34.0055C33.6297 34.0822 33.4276 34.2166 33.2693 34.3953C33.111 34.574 33.0019 34.7909 32.9529 35.0246C32.8426 35.5743 32.8426 36.1405 32.9529 36.6902C33.1176 37.8955 33.4086 39.4455 34.215 40.7365C34.4124 41.0532 34.6418 41.3488 34.8996 41.6185C36.0013 39.7238 36.3115 37.5208 35.7232 35.6518C35.4729 34.9132 34.8333 33.9777 34.0696 33.9777ZM41.5783 37.6172H41.5526C41.0499 37.6407 40.6969 38.2809 40.607 38.8717C40.4983 39.7199 40.6833 40.5798 41.1312 41.3081C41.6675 40.8025 42.0733 40.1744 42.3142 39.4776C42.4634 39.074 42.4763 38.6325 42.3506 38.2209C42.2942 38.0554 42.1914 37.9096 42.0545 37.801C41.9175 37.6924 41.7522 37.6256 41.5783 37.6086V37.6172Z" fill="black"/>
<path d="M94.6769 55.5281C94.6156 55.5283 94.5552 55.5133 94.5011 55.4846C94.447 55.4558 94.4008 55.4141 94.3667 55.3632C93.6705 54.295 93.1938 53.0988 92.9642 51.8443C92.7347 50.5898 92.7569 49.3022 93.0297 48.0564C90.5631 48.2105 87.9918 47.0865 86.6355 45.0013C86.5816 44.9184 86.5628 44.8175 86.5833 44.7207C86.6037 44.624 86.6618 44.5393 86.7446 44.4854C86.8274 44.4314 86.9283 44.4126 87.025 44.4331C87.1216 44.4536 87.2062 44.5116 87.2601 44.5945C88.5159 46.5213 90.9503 47.5361 93.2222 47.2985C93.5587 46.1573 94.1129 45.0922 94.8544 44.1621C95.0373 43.9168 95.2765 43.7193 95.5518 43.5862C95.7529 43.5006 95.9733 43.4709 96.1898 43.5003C96.4063 43.5297 96.6109 43.617 96.7819 43.7532C97.0112 43.9212 97.1938 44.1451 97.3121 44.4037C97.4304 44.6623 97.4806 44.9469 97.4579 45.2304C97.3509 46.1874 96.5551 46.8382 95.9069 47.215C95.269 47.5854 94.571 47.8405 93.8447 47.9686C93.28 50.3343 93.6522 52.9526 94.9956 54.9586C95.023 54.9993 95.0421 55.0451 95.0517 55.0932C95.0614 55.1413 95.0614 55.1909 95.0519 55.239C95.0424 55.2872 95.0234 55.3329 94.9961 55.3737C94.9688 55.4145 94.9338 55.4495 94.8929 55.4767C94.8281 55.5161 94.7525 55.5341 94.6769 55.5281ZM96.0032 44.222C95.948 44.2225 95.8934 44.2341 95.8428 44.2563C95.681 44.3491 95.542 44.4772 95.4363 44.6309C94.8358 45.3833 94.3724 46.2355 94.0672 47.1486C94.5772 47.0225 95.0669 46.825 95.5219 46.562C96.0225 46.2687 96.6343 45.7849 96.707 45.1362C96.7146 44.9833 96.6843 44.8309 96.6186 44.6926C96.5529 44.5544 96.4538 44.4346 96.3305 44.3441C96.2358 44.2729 96.1216 44.2325 96.0032 44.2285V44.222Z" fill="black"/>
<path d="M11.0219 85.6931C10.8914 85.6931 10.7609 85.6932 10.6282 85.6739C10.5333 85.6603 10.4473 85.6106 10.388 85.5351C10.3288 85.4596 10.301 85.3642 10.3104 85.2687C10.3198 85.1731 10.3656 85.0849 10.4384 85.0224C10.5112 84.9599 10.6052 84.9279 10.701 84.9331C12.9065 85.1472 14.8169 83.154 15.3923 81.1073C15.9999 78.945 15.5806 76.6436 15.0586 74.2757C15.0373 74.1792 15.0552 74.0782 15.1084 73.9949C15.1615 73.9116 15.2456 73.8528 15.342 73.8315C15.4385 73.8102 15.5394 73.8281 15.6227 73.8813C15.7059 73.9345 15.7646 74.0186 15.7859 74.1152C16.3293 76.5772 16.7635 78.9814 16.1089 81.3086C15.4843 83.533 13.4435 85.6931 11.0219 85.6931Z" fill="black"/>
<path d="M10.1524 81.0926C10.1146 81.0933 10.0769 81.0875 10.0411 81.0754C9.99431 81.061 9.95079 81.0375 9.91307 81.0062C9.87535 80.9749 9.84416 80.9365 9.8213 80.8932C9.79845 80.8498 9.78438 80.8024 9.77989 80.7536C9.77539 80.7047 9.78059 80.6555 9.79514 80.6087C10.3822 78.7256 10.7841 76.7896 10.9952 74.8283C11.0068 74.731 11.0563 74.6422 11.1329 74.5811C11.2095 74.5201 11.307 74.4917 11.4044 74.5021C11.5017 74.5125 11.5911 74.5609 11.653 74.6368C11.715 74.7127 11.7446 74.8099 11.7354 74.9075C11.5187 76.9193 11.1075 78.9054 10.5075 80.8378C10.4827 80.9123 10.435 80.977 10.3712 81.0228C10.3074 81.0686 10.2308 81.093 10.1524 81.0926Z" fill="black"/>
<path d="M56.7074 57.9686C56.434 57.9703 56.1625 57.9239 55.9052 57.8316C55.0709 57.5319 54.4398 56.7141 54.2558 55.6907C54.0933 54.7851 54.2815 53.8838 54.489 53.1216C54.9924 51.2685 55.7984 49.5115 56.8743 47.9214C56.9009 47.8791 56.9357 47.8426 56.9767 47.8141C57.0177 47.7855 57.064 47.7655 57.1128 47.7553C57.1617 47.745 57.2121 47.7447 57.2611 47.7543C57.3101 47.764 57.3567 47.7834 57.398 47.8114C57.4393 47.8394 57.4746 47.8754 57.5017 47.9174C57.5289 47.9593 57.5473 48.0063 57.5559 48.0555C57.5646 48.1047 57.5632 48.1552 57.5519 48.2039C57.5407 48.2525 57.5197 48.2985 57.4904 48.3389C56.4608 49.8617 55.6895 51.5442 55.2078 53.3186C55.0238 53.9994 54.8527 54.798 54.9939 55.558C55.1351 56.318 55.5843 56.9153 56.1598 57.1208C56.8829 57.3799 57.7236 57.0416 58.4488 56.6777C62.3227 54.7201 65.5496 51.6848 67.7416 47.9364C67.7644 47.8909 67.7963 47.8506 67.8353 47.8179C67.8743 47.7852 67.9195 47.7609 67.9682 47.7464C68.017 47.7319 68.0682 47.7275 68.1187 47.7336C68.1692 47.7397 68.2179 47.7561 68.2618 47.7817C68.3057 47.8073 68.344 47.8417 68.3741 47.8827C68.4042 47.9237 68.4256 47.9704 68.437 48.02C68.4484 48.0696 68.4495 48.1211 68.4403 48.1711C68.431 48.2212 68.4117 48.2688 68.3833 48.311C66.1172 52.1879 62.7814 55.3279 58.7761 57.3542C58.145 57.671 57.4326 57.9686 56.7074 57.9686Z" fill="black"/>
<path d="M76.5236 77.81C76.4294 77.8104 76.3385 77.7753 76.269 77.7115C72.0654 73.8215 71.7766 67.5937 71.9734 64.2239C72.2601 59.3662 73.4923 54.6455 74.7287 50.2288C74.7412 50.1809 74.7631 50.136 74.7931 50.0966C74.8232 50.0573 74.8607 50.0243 74.9036 49.9997C74.9465 49.975 74.9939 49.9592 75.043 49.953C75.0921 49.9469 75.1419 49.9507 75.1895 49.964C75.2372 49.9774 75.2817 50.0002 75.3204 50.0309C75.3592 50.0617 75.3914 50.0999 75.4152 50.1433C75.439 50.1867 75.4539 50.2344 75.4591 50.2837C75.4643 50.3329 75.4597 50.3827 75.4454 50.4301C74.2218 54.8082 73.0003 59.4839 72.7157 64.2688C72.5232 67.5037 72.7949 73.4747 76.7803 77.1635C76.8161 77.1968 76.845 77.2368 76.8654 77.2813C76.8858 77.3258 76.8971 77.3739 76.8989 77.4228C76.9007 77.4717 76.8929 77.5205 76.8758 77.5664C76.8587 77.6122 76.8328 77.6543 76.7995 77.6901C76.7646 77.7284 76.7219 77.7589 76.6744 77.7796C76.6268 77.8002 76.5754 77.8106 76.5236 77.81Z" fill="black"/>
<path d="M43.2799 66.8637C43.2564 66.8658 43.2328 66.8658 43.2093 66.8637C43.1121 66.8446 43.0264 66.7876 42.971 66.7053C42.9157 66.6231 42.8952 66.5222 42.9141 66.4248L45.5582 52.8901C45.5769 52.7947 45.6321 52.7105 45.712 52.6553C45.792 52.6001 45.8903 52.5783 45.986 52.5947C46.083 52.6143 46.1683 52.6714 46.2236 52.7535C46.2788 52.8357 46.2995 52.9362 46.2812 53.0335L43.6372 66.5683C43.6194 66.6505 43.5745 66.7244 43.5097 66.778C43.4449 66.8316 43.3639 66.8618 43.2799 66.8637Z" fill="black"/>
<path d="M61.3949 65.7765C60.199 65.7765 58.5689 65.7423 56.3355 65.6652C52.4229 65.5303 48.4931 65.3098 48.4525 65.3077C48.402 65.3051 48.3526 65.2922 48.3074 65.2698C48.2621 65.2473 48.2219 65.2157 48.1894 65.1771C48.1568 65.1382 48.1325 65.0931 48.1178 65.0445C48.1031 64.9959 48.0983 64.9449 48.1038 64.8945C48.6961 59.6498 49.6525 54.4527 50.9661 49.3409C50.9908 49.2452 51.0524 49.1633 51.1375 49.1131C51.2225 49.0629 51.324 49.0486 51.4196 49.0733C51.5152 49.098 51.5971 49.1597 51.6472 49.2448C51.6974 49.3299 51.7117 49.4315 51.687 49.5272C50.4149 54.4777 49.48 59.5089 48.8889 64.5862C54.391 64.888 62.8923 65.2156 64.0946 64.9073C65.613 59.4611 67.5792 54.1499 69.9732 49.0283C70.0177 48.9436 70.0931 48.8792 70.1838 48.8486C70.2744 48.818 70.3734 48.8236 70.4601 48.864C70.5468 48.9045 70.6146 48.9769 70.6494 49.0661C70.6842 49.1553 70.6834 49.2545 70.6471 49.343C68.2497 54.4765 66.2833 59.8007 64.7685 65.2606C64.6636 65.5389 64.5738 65.7765 61.3949 65.7765Z" fill="black"/>
<path d="M58.6444 76.5559C58.5484 76.5562 58.4561 76.5185 58.3878 76.451C58.3522 76.4172 58.3238 76.3768 58.304 76.332C58.2842 76.2872 58.2735 76.2389 58.2725 76.1899C58.2715 76.1409 58.2802 76.0922 58.2982 76.0466C58.3161 76.001 58.3429 75.9595 58.377 75.9243L69.6209 64.2543C69.6895 64.1831 69.7836 64.142 69.8825 64.1402C69.9814 64.1384 70.077 64.176 70.1482 64.2447C70.2194 64.3134 70.2604 64.4076 70.2622 64.5065C70.264 64.6055 70.2265 64.7011 70.1578 64.7724L58.914 76.4424C58.8789 76.4783 58.837 76.5069 58.7907 76.5264C58.7444 76.5459 58.6947 76.5559 58.6444 76.5559Z" fill="white"/>
<path d="M62.757 79.8315C62.663 79.8321 62.5724 79.796 62.5046 79.7309C62.4685 79.6978 62.4393 79.6578 62.4188 79.6133C62.3983 79.5687 62.3868 79.5206 62.385 79.4716C62.3832 79.4226 62.3911 79.3738 62.4084 79.3279C62.4256 79.282 62.4517 79.24 62.4853 79.2042L70.0047 71.1395C70.072 71.0671 70.1651 71.0244 70.2638 71.0208C70.3625 71.0171 70.4586 71.0529 70.531 71.1202C70.6033 71.1875 70.646 71.2808 70.6496 71.3795C70.6532 71.4783 70.6174 71.5745 70.5502 71.6469L63.0351 79.7138C62.9995 79.7518 62.9564 79.7819 62.9085 79.8021C62.8606 79.8224 62.809 79.8324 62.757 79.8315Z" fill="white"/>
<path d="M68.678 81.5823C68.6027 81.5845 68.5285 81.5637 68.4652 81.5228C68.4019 81.4819 68.3525 81.4228 68.3236 81.3532C68.2946 81.2836 68.2874 81.2068 68.3029 81.1331C68.3185 81.0593 68.356 80.992 68.4106 80.94L72.2912 76.9344C72.3253 76.8992 72.366 76.8712 72.411 76.8518C72.456 76.8324 72.5043 76.822 72.5533 76.8213C72.6023 76.8206 72.6508 76.8296 72.6964 76.8477C72.7419 76.8658 72.7834 76.8927 72.8185 76.9269C72.8536 76.961 72.8816 77.0018 72.901 77.0468C72.9204 77.0918 72.9307 77.1402 72.9314 77.1892C72.9321 77.2382 72.9232 77.2869 72.9051 77.3324C72.887 77.3779 72.8601 77.4195 72.826 77.4546L68.9454 81.4795C68.9099 81.5136 68.8679 81.5402 68.822 81.5578C68.7761 81.5755 68.7271 81.5838 68.678 81.5823Z" fill="white"/>
<path d="M45.0357 92.4456C44.9583 92.4455 44.8829 92.4212 44.8199 92.3762C44.7569 92.3311 44.7095 92.2676 44.6843 92.1943C44.6591 92.1211 44.6574 92.0418 44.6793 91.9675C44.7013 91.8932 44.7459 91.8276 44.8068 91.7798L47.4017 89.7374C47.4794 89.6761 47.5783 89.6482 47.6766 89.6598C47.7749 89.6715 47.8646 89.7217 47.9258 89.7995C47.9871 89.8773 48.015 89.9762 48.0034 90.0746C47.9917 90.173 47.9415 90.2627 47.8638 90.324L45.2667 92.3643C45.2009 92.4164 45.1197 92.445 45.0357 92.4456Z" fill="white"/>
<path d="M43.7602 100.639C43.7093 100.638 43.6591 100.628 43.6125 100.607C43.5658 100.587 43.5236 100.558 43.4885 100.521C43.4212 100.449 43.385 100.353 43.3878 100.255C43.3907 100.156 43.4322 100.063 43.5035 99.9944L51.8701 92.0988C51.9418 92.031 52.0376 91.9944 52.1363 91.9972C52.2349 92 52.3285 92.042 52.3963 92.1138C52.4641 92.1856 52.5006 92.2815 52.4978 92.3802C52.495 92.479 52.4531 92.5726 52.3813 92.6405L44.0169 100.534C43.9479 100.6 43.856 100.638 43.7602 100.639Z" fill="white"/>
<path d="M48.2444 104.002C48.194 104.002 48.1441 103.992 48.0977 103.972C48.0514 103.952 48.0096 103.923 47.9749 103.886C47.9073 103.814 47.8708 103.719 47.8732 103.62C47.8756 103.522 47.9167 103.428 47.9877 103.36L56.2922 95.4919C56.3278 95.4583 56.3696 95.432 56.4153 95.4146C56.461 95.3971 56.5096 95.3889 56.5585 95.3903C56.6074 95.3917 56.6555 95.4027 56.7001 95.4227C56.7447 95.4427 56.7849 95.4713 56.8185 95.5069C56.8521 95.5424 56.8783 95.5842 56.8957 95.63C56.9131 95.6757 56.9214 95.7244 56.92 95.7733C56.9186 95.8222 56.9076 95.8703 56.8876 95.915C56.8676 95.9596 56.8391 95.9999 56.8035 96.0335L48.5011 103.901C48.4316 103.966 48.3397 104.002 48.2444 104.002Z" fill="white"/>
<path d="M55.5479 105.149C55.499 105.149 55.4506 105.14 55.4055 105.121C55.3603 105.102 55.3193 105.075 55.2848 105.04C55.2156 104.97 55.1768 104.875 55.1768 104.777C55.1768 104.678 55.2156 104.584 55.2848 104.514L61.2618 98.519C61.3316 98.4489 61.4264 98.4094 61.5252 98.4092C61.6241 98.409 61.7191 98.4481 61.7891 98.5179C61.8592 98.5878 61.8987 98.6826 61.8989 98.7816C61.8991 98.8806 61.86 98.9755 61.7902 99.0457L55.8132 105.04C55.7784 105.075 55.737 105.103 55.6915 105.121C55.646 105.14 55.5972 105.15 55.5479 105.149Z" fill="white"/>
<path d="M64.0728 105.254C64.0015 105.253 63.9318 105.232 63.8721 105.193C63.8124 105.154 63.765 105.099 63.7355 105.034C63.7061 104.969 63.6958 104.897 63.7059 104.826C63.716 104.756 63.7461 104.689 63.7925 104.635L67.226 100.688C67.2579 100.65 67.297 100.619 67.3409 100.597C67.3849 100.575 67.4329 100.561 67.482 100.558C67.5311 100.554 67.5805 100.56 67.6272 100.576C67.674 100.591 67.7171 100.616 67.7542 100.649C67.7913 100.681 67.8216 100.721 67.8434 100.765C67.8651 100.809 67.8778 100.857 67.8808 100.907C67.8838 100.956 67.877 101.005 67.8608 101.052C67.8446 101.098 67.8193 101.141 67.7864 101.178L64.3637 105.126C64.3274 105.167 64.2826 105.2 64.2323 105.222C64.1821 105.244 64.1277 105.255 64.0728 105.254Z" fill="white"/>
<path d="M70.9729 105.358C70.9035 105.357 70.8356 105.337 70.7768 105.301C70.718 105.264 70.6705 105.212 70.6396 105.149C70.6088 105.087 70.5958 105.018 70.6021 104.949C70.6085 104.88 70.6339 104.814 70.6755 104.758L73.5143 101.033C73.5427 100.991 73.5793 100.955 73.6221 100.928C73.6648 100.9 73.7126 100.882 73.7627 100.874C73.8127 100.866 73.8639 100.868 73.9131 100.88C73.9623 100.893 74.0084 100.915 74.0487 100.946C74.0889 100.977 74.1225 101.015 74.1473 101.06C74.1721 101.104 74.1876 101.153 74.1928 101.203C74.1981 101.254 74.193 101.305 74.1778 101.353C74.1627 101.401 74.1378 101.446 74.1047 101.485L71.2681 105.212C71.2332 105.257 71.1884 105.294 71.1373 105.319C71.0861 105.344 71.0299 105.357 70.9729 105.358Z" fill="white"/>
<path d="M76.3895 105.605C76.3071 105.605 76.2273 105.577 76.1627 105.526C76.0848 105.465 76.034 105.376 76.0215 105.278C76.0091 105.18 76.036 105.082 76.0964 105.003L77.9084 102.649C77.9377 102.608 77.9748 102.574 78.0175 102.548C78.0602 102.523 78.1076 102.506 78.1569 102.499C78.2062 102.492 78.2564 102.495 78.3046 102.508C78.3528 102.52 78.3979 102.543 78.4373 102.573C78.4767 102.604 78.5096 102.642 78.5339 102.685C78.5583 102.729 78.5737 102.777 78.5793 102.826C78.5848 102.876 78.5804 102.926 78.5662 102.974C78.552 103.022 78.5283 103.066 78.4967 103.105L76.6869 105.46C76.6515 105.505 76.6064 105.541 76.5549 105.567C76.5034 105.592 76.4468 105.605 76.3895 105.605Z" fill="white"/>
<path d="M28.6672 72.4236C26.5919 69.9698 24.7108 67.3579 23.041 64.6115C22.4549 63.6481 21.8751 62.5434 22.1318 61.4473C22.3586 60.4882 23.1651 59.7967 23.9266 59.1737C24.9192 58.3644 26.0979 57.5016 27.3494 57.7478C28.2179 57.9191 28.8918 58.5871 29.5079 59.2229L35.3416 65.2431C34.8389 65.1617 34.3169 65.0804 33.8249 65.2153C33.3328 65.3501 32.8793 65.7633 32.8686 66.2729C32.8515 66.9451 33.5403 67.3861 34.135 67.6944C35.994 68.6578 37.9172 69.7732 38.9291 71.6058C35.9185 72.1025 32.8893 72.45 29.8416 72.6484C29.2769 72.6848 28.6437 72.702 28.6672 72.4236Z" fill="#C7E3E5"/>
<path d="M52.7948 75.1109C52.7032 75.1115 52.6147 75.0779 52.5466 75.0167C52.51 74.9841 52.4802 74.9446 52.4589 74.9005C52.4376 74.8564 52.4253 74.8085 52.4225 74.7596C52.4197 74.7106 52.4266 74.6617 52.4427 74.6154C52.4589 74.5691 52.484 74.5265 52.5167 74.49C54.626 72.135 56.87 69.8507 59.1847 67.7034C59.2572 67.6366 59.3532 67.6011 59.4518 67.6047C59.5503 67.6084 59.6434 67.6507 59.7109 67.7226C59.7445 67.7583 59.7706 67.8003 59.7878 67.8462C59.8051 67.8921 59.813 67.941 59.8112 67.99C59.8094 68.039 59.798 68.0871 59.7774 68.1316C59.7569 68.1762 59.7278 68.2161 59.6917 68.2493C57.3941 70.3902 55.1672 72.6488 53.0729 74.9867C53.038 75.026 52.9952 75.0573 52.9472 75.0787C52.8993 75.1002 52.8473 75.1111 52.7948 75.1109Z" fill="white"/>
<path d="M67.9083 60.6125C67.8352 60.6125 67.7637 60.5909 67.7028 60.5505C67.6418 60.5101 67.5941 60.4527 67.5656 60.3853C67.5371 60.318 67.529 60.2437 67.5424 60.1718C67.5558 60.0999 67.59 60.0335 67.6409 59.9809C68.7407 58.838 69.9359 57.7909 71.2134 56.851C71.2931 56.7925 71.3928 56.7681 71.4905 56.7832C71.5881 56.7982 71.6759 56.8515 71.7343 56.9313C71.7927 57.011 71.8171 57.1108 71.802 57.2085C71.787 57.3063 71.7338 57.3941 71.6541 57.4526C70.4076 58.3666 69.2418 59.3858 68.1693 60.499C68.1354 60.5343 68.0949 60.5624 68.0501 60.5819C68.0053 60.6014 67.9571 60.6118 67.9083 60.6125Z" fill="white"/>
<path d="M70.0939 54.0955C70.0203 54.0965 69.9482 54.0755 69.8866 54.0353C69.825 53.9951 69.7768 53.9374 69.7481 53.8696C69.7194 53.8019 69.7115 53.7271 69.7255 53.6548C69.7394 53.5826 69.7746 53.5161 69.8265 53.4639C70.5493 52.7195 71.3456 52.0503 72.2032 51.4665C72.2436 51.4383 72.2892 51.4185 72.3374 51.408C72.3855 51.3975 72.4352 51.3966 72.4836 51.4054C72.5321 51.4141 72.5784 51.4323 72.6198 51.459C72.6612 51.4856 72.697 51.5202 72.7251 51.5607C72.7532 51.6011 72.7731 51.6468 72.7835 51.6949C72.794 51.7431 72.7949 51.7929 72.7862 51.8414C72.7775 51.8899 72.7592 51.9362 72.7326 51.9776C72.706 52.0191 72.6715 52.0549 72.631 52.083C71.8151 52.6388 71.0569 53.275 70.3677 53.982C70.3323 54.0188 70.2898 54.0479 70.2426 54.0674C70.1955 54.0869 70.1449 54.0965 70.0939 54.0955Z" fill="white"/>
<path d="M47.9366 72.5437C47.8625 72.543 47.7903 72.5204 47.7291 72.4787C47.6678 72.4369 47.6203 72.3779 47.5926 72.3092C47.5649 72.2404 47.5582 72.1649 47.5733 72.0923C47.5885 72.0197 47.6249 71.9533 47.6778 71.9014C49.2886 70.3535 50.9615 68.8271 52.6515 67.3649C52.6879 67.3295 52.7311 67.302 52.7785 67.284C52.8259 67.266 52.8765 67.2579 52.9272 67.2601C52.9778 67.2624 53.0274 67.275 53.073 67.2971C53.1187 67.3192 53.1593 67.3505 53.1924 67.3889C53.2256 67.4273 53.2505 67.4721 53.2657 67.5205C53.2809 67.5689 53.2861 67.6199 53.2809 67.6703C53.2757 67.7208 53.2603 67.7697 53.2356 67.814C53.2109 67.8583 53.1774 67.897 53.1371 67.9279C51.4578 69.3816 49.7956 70.8995 48.1955 72.4388C48.1261 72.506 48.0333 72.5436 47.9366 72.5437Z" fill="white"/>
<path d="M46.3904 69.0218C46.2942 69.0217 46.2017 68.9849 46.1316 68.919C46.0617 68.8488 46.0225 68.7537 46.0225 68.6546C46.0225 68.5555 46.0617 68.4604 46.1316 68.3902C46.734 67.7663 47.3952 67.202 48.1061 66.7053C48.1869 66.6485 48.287 66.6262 48.3843 66.6433C48.4816 66.6604 48.5681 66.7154 48.6249 66.7963C48.6816 66.8772 48.7039 66.9774 48.6868 67.0747C48.6698 67.1721 48.6148 67.2587 48.5339 67.3155C47.863 67.7851 47.2391 68.3186 46.6707 68.9083C46.6346 68.9459 46.5909 68.9754 46.5426 68.995C46.4944 69.0145 46.4425 69.0237 46.3904 69.0218Z" fill="white"/>
<path d="M45.3787 63.8024C45.307 63.8031 45.2367 63.783 45.1762 63.7445C45.1158 63.7059 45.0678 63.6507 45.0381 63.5854C45.0084 63.5201 44.9983 63.4475 45.009 63.3766C45.0198 63.3057 45.0508 63.2394 45.0985 63.1858L46.6708 61.3853C46.7031 61.3485 46.7424 61.3184 46.7863 61.2967C46.8302 61.2751 46.878 61.2623 46.9268 61.2591C46.9757 61.2559 47.0247 61.2624 47.0711 61.2782C47.1175 61.2939 47.1603 61.3187 47.1971 61.351C47.2339 61.3834 47.264 61.4226 47.2856 61.4666C47.3072 61.5106 47.32 61.5584 47.3232 61.6073C47.3264 61.6562 47.3199 61.7052 47.3041 61.7516C47.2884 61.798 47.2636 61.8409 47.2313 61.8777L45.659 63.676C45.6238 63.7156 45.5806 63.7474 45.5323 63.7691C45.484 63.7909 45.4317 63.8022 45.3787 63.8024Z" fill="white"/>
<path d="M36.0049 81.6616C36.9547 82.9269 38.0051 84.1493 39.325 85.0207C40.6449 85.892 42.2793 86.3823 43.8302 86.0697C43.9427 86.0552 44.0503 86.0149 44.1447 85.952C44.2166 85.8917 44.2774 85.8192 44.3244 85.7379L44.703 85.1427C44.7633 85.066 44.801 84.9741 44.8121 84.8772C44.8026 84.8056 44.7788 84.7367 44.742 84.6745C44.7053 84.6124 44.6564 84.5583 44.5982 84.5154L42.4184 82.4366C42.2415 82.2442 42.0285 82.0885 41.7915 81.9785C41.4723 81.887 41.1364 81.8701 40.8096 81.9292C39.2908 82.0598 37.7398 81.925 36.0049 81.6616Z" fill="#C7E3E5"/>
<path d="M46.3342 58.2814C46.2522 58.2811 46.1726 58.2541 46.1075 58.2044C46.0687 58.1746 46.0361 58.1374 46.0117 58.095C45.9873 58.0526 45.9714 58.0059 45.9651 57.9574C45.9587 57.9088 45.962 57.8596 45.9746 57.8123C45.9873 57.7651 46.0092 57.7208 46.039 57.682C46.6748 56.8544 47.3524 56.0598 48.0691 55.3013C48.1369 55.2295 48.2305 55.1875 48.3292 55.1847C48.4279 55.1819 48.5236 55.2185 48.5954 55.2863C48.6671 55.3542 48.709 55.4478 48.7118 55.5465C48.7146 55.6453 48.6782 55.7411 48.6104 55.813C47.9117 56.5537 47.2506 57.3289 46.6294 58.1358C46.5949 58.1814 46.5502 58.2182 46.4989 58.2435C46.4477 58.2688 46.3913 58.2818 46.3342 58.2814Z" fill="white"/>
<path d="M46.058 53.8749C46.0965 53.588 45.8184 53.2134 45.9746 52.9693C46.1051 52.7659 46.2848 52.2457 46.4816 52.113C47.9427 51.1067 49.6006 50.2718 51.1451 49.4047C49.9107 54.4829 49.2198 60 48.7577 65.166C53.9539 65.2538 59.1458 65.4871 64.1602 65.7055C66.1069 60.0878 68.2326 54.53 70.5373 49.0322C71.7716 49.2463 73.7718 49.713 75.0147 50.2804C75.0254 53.5581 73.5536 56.6645 72.9931 59.8951C72.4326 63.1257 71.9919 66.4313 72.5011 69.6683C73.0102 72.9053 74.5911 76.106 76.9657 78.0178L76.3239 80.6404C76.6134 80.6039 76.9072 80.647 77.1741 80.7651C77.4409 80.8831 77.6706 81.0717 77.8385 81.3105C77.3265 82.0441 76.8166 82.7791 76.3089 83.5156C76.0429 83.9467 75.7075 84.3308 75.3163 84.6524C74.9077 84.95 74.3601 85.1063 73.6049 84.8665C69.7307 84.7894 65.955 83.6847 62.267 82.5115C58.7222 81.394 55.1733 80.2036 51.9345 78.3796C48.6957 76.5555 45.7564 74.0507 43.9509 70.8008C41.5592 68.2275 44.8878 62.8538 46.058 53.8749Z" fill="#C7E3E5"/>
<path d="M62.1149 41.4622C59.8152 41.4622 55.8084 40.6936 53.2905 37.857C48.2141 32.1301 49.3094 25.1208 49.4528 24.3394L51.1642 14.943C51.1817 14.8456 51.2373 14.7592 51.3185 14.7028C51.3997 14.6464 51.5 14.6246 51.5973 14.6422C51.6946 14.6598 51.781 14.7154 51.8374 14.7967C51.8937 14.878 51.9155 14.9783 51.8979 15.0757L50.1865 24.4721C50.0517 25.2171 49.0057 31.8989 53.8511 37.3603C56.816 40.7044 62.1599 40.972 63.3749 40.593C63.4229 40.574 63.4742 40.5651 63.5257 40.567C63.5772 40.5688 63.6278 40.5814 63.6742 40.6038C63.7206 40.6263 63.7619 40.6582 63.7954 40.6974C63.8288 40.7366 63.8538 40.7824 63.8687 40.8318C63.8836 40.8812 63.888 40.9332 63.8818 40.9844C63.8755 41.0356 63.8587 41.085 63.8324 41.1293C63.8061 41.1737 63.7709 41.2121 63.7289 41.2422C63.687 41.2722 63.6393 41.2932 63.5889 41.3038C63.1072 41.4243 62.6112 41.4776 62.1149 41.4622Z" fill="black"/>
<path d="M57.1598 48.3625C57.137 48.3646 57.1141 48.3646 57.0913 48.3625C56.9955 48.3442 56.9106 48.2893 56.8547 48.2093C56.7987 48.1293 56.7762 48.0307 56.7918 47.9343C57.3267 45.0248 57.1855 43.1044 56.6913 40.1479C56.6795 40.0525 56.705 39.9562 56.7624 39.8791C56.8199 39.8021 56.9049 39.7503 56.9997 39.7345C57.0944 39.7188 57.1916 39.7403 57.2709 39.7946C57.3502 39.8489 57.4054 39.9317 57.425 40.0258C57.9235 43.006 58.0668 45.0676 57.5256 48.0692C57.5071 48.1524 57.4607 48.2269 57.3942 48.2802C57.3277 48.3336 57.245 48.3626 57.1598 48.3625Z" fill="black"/>
<path d="M75.3746 28.9998C75.2898 29.0008 75.2072 28.9728 75.1405 28.9204C75.0738 28.868 75.0269 28.7944 75.0077 28.7117C74.9885 28.6291 74.9981 28.5423 75.0348 28.4658C75.0716 28.3894 75.1333 28.3277 75.2098 28.2912C75.4103 28.1973 75.5837 28.0539 75.7135 27.8745C75.8434 27.6951 75.9255 27.4856 75.9521 27.2657C75.9692 27.0582 75.924 26.8503 75.8223 26.6688C75.7205 26.4872 75.5668 26.3402 75.381 26.2466C75.3362 26.2269 75.2957 26.1986 75.2618 26.1633C75.2279 26.1279 75.2014 26.0862 75.1836 26.0406C75.1477 25.9485 75.1498 25.8458 75.1895 25.7553C75.2292 25.6647 75.3033 25.5936 75.3954 25.5577C75.4874 25.5218 75.59 25.5239 75.6805 25.5637C76.0085 25.7205 76.2812 25.9734 76.4623 26.2888C76.6433 26.6042 76.7244 26.9673 76.6945 27.3299C76.6554 27.6779 76.5285 28.0103 76.3256 28.2957C76.1228 28.5811 75.8507 28.8101 75.535 28.9613C75.4852 28.9863 75.4303 28.9995 75.3746 28.9998Z" fill="black"/>
<path d="M80.7422 81.6126C79.1252 81.6249 77.5231 81.3035 76.0359 80.6684C75.9559 80.6333 75.8907 80.5712 75.8517 80.493C75.8126 80.4148 75.8021 80.3254 75.8219 80.2403C77.0469 75.3246 76.824 70.1592 75.1802 65.3675C75.1642 65.3212 75.1574 65.2723 75.1603 65.2234C75.1632 65.1746 75.1757 65.1267 75.197 65.0827C75.2184 65.0387 75.2482 64.9993 75.2847 64.9668C75.3213 64.9343 75.3639 64.9093 75.4101 64.8933C75.4563 64.8772 75.5052 64.8705 75.5541 64.8734C75.6029 64.8763 75.6507 64.8888 75.6947 64.9101C75.7387 64.9315 75.778 64.9613 75.8105 64.9979C75.843 65.0345 75.868 65.0772 75.884 65.1234C77.5412 69.9483 77.7993 75.1441 76.6284 80.1097C80.8663 81.7881 84.9821 80.3965 88.6359 79.1056C89.3975 72.2933 88.5375 66.0461 86.1416 61.0536C83.2921 55.1083 78.1409 50.7773 72.3628 49.4735C72.0227 49.3986 71.6782 49.3301 71.3338 49.2594C70.0952 49.0153 68.8117 48.7627 67.6971 48.0798C67.6241 48.0349 67.5689 47.966 67.541 47.8849C66.7174 45.5428 66.5462 42.9823 66.3793 40.5053C66.3772 40.4715 66.3729 40.4379 66.3665 40.4047C66.3409 40.2334 66.2724 39.7817 66.6788 39.6297C68.5314 38.9424 70.7049 36.3562 71.8943 34.1554C71.9161 34.1101 71.9469 34.0697 71.9848 34.0366C72.0227 34.0035 72.0669 33.9785 72.1148 33.963C72.1626 33.9474 72.2131 33.9418 72.2632 33.9464C72.3133 33.9509 72.3619 33.9656 72.4062 33.9895C72.4504 34.0133 72.4894 34.0459 72.5207 34.0853C72.5521 34.1247 72.5751 34.17 72.5884 34.2185C72.6018 34.267 72.6051 34.3178 72.5984 34.3676C72.5916 34.4175 72.5747 34.4655 72.5489 34.5087C71.3638 36.7031 69.1732 39.4027 67.1003 40.2655C67.1003 40.2655 67.1003 40.2848 67.1003 40.2912C67.111 40.349 67.1174 40.4047 67.1217 40.4518C67.28 42.8367 67.4447 45.2966 68.1913 47.5167C69.1647 48.0819 70.2834 48.3003 71.4664 48.5336C71.8194 48.6021 72.1703 48.6707 72.5168 48.7477C78.5067 50.1008 83.8548 54.5817 86.8005 60.7367C89.2863 65.922 90.1634 72.3853 89.3376 79.431C89.3297 79.5001 89.3023 79.5655 89.2588 79.6197C89.2153 79.6738 89.1573 79.7146 89.0916 79.7371C86.6315 80.5978 83.7606 81.6126 80.7422 81.6126Z" fill="black"/>
<path d="M72.6917 98.8212C71.8981 98.8207 71.1055 98.7664 70.3193 98.6585C66.0772 98.0783 62.2137 96.1686 58.6733 94.1926C52.6597 90.834 46.9599 86.9412 41.6428 82.5611C41.6051 82.53 41.5737 82.4918 41.5507 82.4487C41.5277 82.4055 41.5134 82.3582 41.5086 82.3095C41.5038 82.2608 41.5087 82.2116 41.5229 82.1648C41.5371 82.118 41.5605 82.0744 41.5915 82.0366C41.6225 81.9988 41.6607 81.9675 41.7038 81.9444C41.747 81.9214 41.7943 81.907 41.8429 81.9023C41.8916 81.8975 41.9407 81.9024 41.9875 81.9166C42.0343 81.9308 42.0778 81.9541 42.1156 81.9852C47.3998 86.3397 53.0653 90.209 59.0434 93.546C62.5218 95.4857 66.3168 97.3611 70.4284 97.9242C74.8266 98.5279 79.0323 97.3697 81.6807 94.8284C82.868 93.6873 83.8649 92.2016 84.8147 90.1506C86.3091 86.9353 87.1906 83.469 87.4139 79.93C87.4166 79.881 87.429 79.8331 87.4505 79.789C87.472 79.7449 87.502 79.7055 87.5389 79.6732C87.5757 79.6409 87.6187 79.6163 87.6652 79.6008C87.7117 79.5854 87.7608 79.5793 87.8097 79.5831C87.8586 79.5861 87.9064 79.5988 87.9504 79.6203C87.9944 79.6418 88.0338 79.6719 88.0662 79.7087C88.0986 79.7455 88.1234 79.7883 88.1392 79.8347C88.155 79.8812 88.1615 79.9302 88.1583 79.9792C87.9275 83.6114 87.0229 87.1688 85.4907 90.4696C84.5002 92.6105 83.452 94.1626 82.1963 95.3701C79.8624 97.5923 76.4246 98.8212 72.6917 98.8212Z" fill="black"/>
<path d="M74.4608 84.9245C74.268 84.9238 74.0763 84.8949 73.8918 84.8389C69.2625 84.37 65.0225 83.0812 60.5366 81.7196L58.7332 81.1737C52.5401 79.4845 47.4551 76.1511 44.4238 71.7923C43.133 69.8003 41.4475 68.0945 39.4715 66.7805C38.849 66.3694 38.1024 65.9241 37.2745 65.7828C36.6099 65.7001 35.9371 65.7073 35.2743 65.8042L33.6999 65.9626C33.5828 65.9646 33.4676 65.9916 33.3619 66.0419C33.3225 66.0939 33.2994 66.1565 33.2956 66.2216C33.2918 66.2868 33.3074 66.3517 33.3404 66.4079C33.47 66.6087 33.6453 66.776 33.8517 66.8961C34.3908 67.26 34.9748 67.5854 35.5417 67.898C36.0017 68.1528 36.4787 68.4161 36.9344 68.7051C38.3013 69.5615 39.0736 70.4178 39.3859 71.4005C39.4029 71.4537 39.4076 71.5102 39.3994 71.5655C39.3912 71.6208 39.3705 71.6734 39.3389 71.7195C39.3078 71.766 39.2667 71.805 39.2185 71.8335C39.1704 71.862 39.1165 71.8794 39.0608 71.8843L30.076 72.6144C29.1112 72.6936 28.0373 72.8285 27.5239 73.55C27.4592 73.6248 27.4209 73.7188 27.4148 73.8176C27.4297 73.9225 27.5987 74.0573 27.6608 74.1087C28.4148 74.7111 29.3103 75.1106 30.2621 75.2691C30.3153 75.2736 30.3682 75.2815 30.4204 75.2926C30.5109 75.3174 30.5888 75.3752 30.6387 75.4546C30.6886 75.5341 30.7069 75.6294 30.69 75.7217C30.673 75.8141 30.6221 75.8966 30.5472 75.9532C30.4723 76.0097 30.379 76.036 30.2856 76.027L30.1722 76.0098C29.9974 76.0107 29.8296 76.079 29.7037 76.2004C29.5965 76.2955 29.5129 76.4142 29.4595 76.5473C29.406 76.6803 29.3842 76.8239 29.3957 76.9668C29.4727 77.5748 30.0696 77.988 30.5937 78.1143C31.2483 78.2749 31.9735 78.1293 32.596 77.9666C32.689 77.9429 32.7876 77.956 32.8712 78.0033C32.9547 78.0506 33.0168 78.1284 33.0444 78.2204C33.072 78.3125 33.063 78.4116 33.0193 78.4971C32.9756 78.5827 32.9006 78.648 32.8099 78.6795C32.7205 78.7162 32.6433 78.7775 32.5872 78.8563C32.5312 78.9351 32.4986 79.0282 32.4933 79.1248C32.4681 79.2989 32.489 79.4766 32.5539 79.64C32.6189 79.8034 32.7256 79.9469 32.8634 80.0561C33.3298 80.3794 34.04 80.3965 34.9727 80.1096C35.0365 80.0907 35.1041 80.0891 35.1688 80.1049C35.2334 80.1207 35.2927 80.1534 35.3406 80.1996C35.3889 80.2458 35.4236 80.3043 35.4413 80.3687C35.459 80.4332 35.459 80.5012 35.4412 80.5656C35.3642 80.844 35.6102 81.163 35.8797 81.3021C36.2391 81.4841 36.7076 81.4905 37.1205 81.4948L41.7562 81.5612C41.805 81.5617 41.8532 81.5719 41.898 81.5912C41.9428 81.6105 41.9834 81.6384 42.0174 81.6734C42.0514 81.7084 42.0782 81.7498 42.0961 81.7952C42.1141 81.8406 42.1229 81.8891 42.122 81.938C42.1192 82.0362 42.0784 82.1296 42.0082 82.1983C41.9379 82.267 41.8437 82.3057 41.7455 82.3062L37.1098 82.242C36.6392 82.242 36.0551 82.227 35.5417 81.9658C35.3408 81.8639 35.1634 81.721 35.0212 81.5462C34.8789 81.3714 34.775 81.1686 34.716 80.951C33.7662 81.1651 33.0196 81.0709 32.4398 80.6705C32.1899 80.4818 31.9949 80.2297 31.8749 79.9402C31.755 79.6508 31.7144 79.3346 31.7574 79.0242C31.762 78.9794 31.7698 78.9351 31.7809 78.8915C31.3273 78.9566 30.8657 78.9392 30.4183 78.8401C29.6289 78.6495 28.7796 78.0244 28.6555 77.061C28.6311 76.8214 28.659 76.5794 28.7373 76.3517C28.8156 76.124 28.9424 75.916 29.109 75.7422C28.4156 75.5041 27.7686 75.1477 27.1966 74.6889C26.9321 74.5104 26.7467 74.2366 26.6789 73.9246C26.6637 73.7804 26.6772 73.6347 26.7187 73.4957C26.7602 73.3568 26.8288 73.2275 26.9206 73.1153C27.618 72.1434 28.8844 71.9635 30.0161 71.8715L38.4853 71.1821C38.1452 70.5527 37.5034 69.9447 36.5344 69.3345C36.1065 69.0584 35.6316 68.7993 35.1802 68.551C34.5983 68.2298 33.9972 67.8959 33.4325 67.5126C33.1147 67.3261 32.8519 67.0587 32.6709 66.7376C32.56 66.5283 32.5229 66.2876 32.5656 66.0545C32.6083 65.8214 32.7283 65.6095 32.9062 65.4531C33.1188 65.3089 33.3682 65.2286 33.625 65.2219L35.1973 65.0656C35.9276 64.9585 36.6692 64.9542 37.4007 65.0528C38.3698 65.2219 39.234 65.7357 39.8801 66.1617C41.9388 67.529 43.695 69.3048 45.0399 71.3791C47.9642 75.5838 52.9037 78.8123 58.9449 80.4586L60.7591 81.0088C65.2215 82.364 69.4379 83.6442 74.0223 84.1024C74.0493 84.105 74.0758 84.1108 74.1014 84.1195C74.2785 84.1747 74.4652 84.1921 74.6494 84.1708C74.8336 84.1494 75.0113 84.0896 75.1711 83.9954C76.0267 83.5393 76.9167 82.2484 77.3103 80.8568C77.3243 80.8099 77.3475 80.7661 77.3784 80.7281C77.4094 80.6901 77.4475 80.6586 77.4906 80.6354C77.5337 80.6121 77.5809 80.5976 77.6297 80.5926C77.6784 80.5876 77.7276 80.5923 77.7745 80.6063C77.8214 80.6204 77.8651 80.6436 77.9031 80.6745C77.941 80.7055 77.9725 80.7436 77.9958 80.7867C78.019 80.8299 78.0336 80.8772 78.0385 80.9259C78.0435 80.9747 78.0389 81.024 78.0248 81.0709C77.644 82.4004 76.7177 84.0275 75.5112 84.6633C75.1876 84.8348 74.827 84.9245 74.4608 84.9245Z" fill="black"/>
<path d="M38.3852 62.3722C38.3248 62.3725 38.2652 62.3578 38.2119 62.3294C38.1249 62.283 38.0598 62.204 38.031 62.1097C38.0021 62.0154 38.0118 61.9134 38.0579 61.8262C40.103 57.9469 42.6081 54.7741 45.5025 52.3935C48.8333 49.6553 52.6347 48.0046 56.5003 47.6171C56.549 47.6122 56.5982 47.6169 56.6451 47.6311C56.6921 47.6452 56.7357 47.6684 56.7737 47.6994C56.8116 47.7304 56.8431 47.7686 56.8663 47.8118C56.8895 47.855 56.904 47.9023 56.9089 47.9511C56.9138 47.9999 56.9091 48.0492 56.8949 48.0961C56.8808 48.1431 56.8576 48.1868 56.8266 48.2247C56.7956 48.2627 56.7575 48.2942 56.7143 48.3174C56.6712 48.3406 56.6239 48.3551 56.5752 48.36C52.8572 48.7325 49.1905 50.3254 45.9752 52.9694C43.1579 55.2858 40.7149 58.3837 38.7168 62.1752C38.6846 62.2351 38.6367 62.285 38.5783 62.3197C38.5199 62.3544 38.4532 62.3725 38.3852 62.3722Z" fill="black"/>
<path d="M81.4164 107.26C81.3405 107.261 81.2664 107.238 81.204 107.194C81.1416 107.151 81.0941 107.09 81.0677 107.018C80.0676 104.313 79.6719 101.42 79.9083 98.5448C79.9165 98.4463 79.9635 98.3551 80.0389 98.2913C80.1143 98.2274 80.212 98.1962 80.3104 98.2044C80.4089 98.2127 80.5 98.2597 80.5638 98.3352C80.6276 98.4107 80.6588 98.5084 80.6506 98.6069C80.4218 101.373 80.8022 104.156 81.7651 106.759C81.7827 106.805 81.791 106.853 81.7897 106.902C81.7884 106.95 81.7775 106.998 81.7576 107.043C81.7377 107.087 81.7093 107.127 81.6738 107.16C81.6384 107.194 81.5967 107.22 81.5512 107.237C81.5083 107.253 81.4624 107.261 81.4164 107.26Z" fill="black"/>
<path d="M94.6769 55.5281C94.6156 55.5283 94.5552 55.5133 94.5011 55.4846C94.447 55.4558 94.4008 55.4141 94.3667 55.3632C93.6705 54.295 93.1938 53.0988 92.9642 51.8443C92.7347 50.5898 92.7569 49.3022 93.0297 48.0564C90.5631 48.2105 87.9918 47.0865 86.6355 45.0013C86.5816 44.9184 86.5628 44.8175 86.5833 44.7207C86.6037 44.624 86.6618 44.5393 86.7446 44.4854C86.8274 44.4314 86.9283 44.4126 87.025 44.4331C87.1216 44.4536 87.2062 44.5116 87.2601 44.5945C88.5159 46.5213 90.9503 47.5361 93.2222 47.2985C93.5587 46.1573 94.1129 45.0922 94.8544 44.1621C95.0373 43.9168 95.2765 43.7193 95.5518 43.5862C95.7529 43.5006 95.9733 43.4709 96.1898 43.5003C96.4063 43.5297 96.6109 43.617 96.7819 43.7532C97.0112 43.9212 97.1938 44.1451 97.3121 44.4037C97.4304 44.6623 97.4806 44.9469 97.4579 45.2304C97.3509 46.1874 96.5551 46.8382 95.9069 47.215C95.269 47.5854 94.571 47.8405 93.8447 47.9686C93.28 50.3343 93.6522 52.9526 94.9956 54.9586C95.023 54.9993 95.0421 55.0451 95.0517 55.0932C95.0614 55.1413 95.0614 55.1909 95.0519 55.239C95.0424 55.2872 95.0234 55.3329 94.9961 55.3737C94.9688 55.4145 94.9338 55.4495 94.8929 55.4767C94.8281 55.5161 94.7525 55.5341 94.6769 55.5281ZM96.0032 44.222C95.948 44.2225 95.8934 44.2341 95.8428 44.2563C95.681 44.3491 95.542 44.4772 95.4363 44.6309C94.8358 45.3833 94.3724 46.2355 94.0672 47.1486C94.5772 47.0225 95.0669 46.825 95.5219 46.562C96.0225 46.2687 96.6343 45.7849 96.707 45.1362C96.7146 44.9833 96.6843 44.8309 96.6186 44.6926C96.5529 44.5544 96.4538 44.4346 96.3305 44.3441C96.2358 44.2729 96.1216 44.2325 96.0032 44.2285V44.222Z" fill="black"/>
<path d="M11.0219 85.6931C10.8914 85.6931 10.7609 85.6932 10.6282 85.6739C10.5333 85.6603 10.4473 85.6106 10.388 85.5351C10.3288 85.4596 10.301 85.3642 10.3104 85.2687C10.3198 85.1731 10.3656 85.0849 10.4384 85.0224C10.5112 84.9599 10.6052 84.9279 10.701 84.9331C12.9065 85.1472 14.8169 83.154 15.3923 81.1073C15.9999 78.945 15.5806 76.6436 15.0586 74.2757C15.0373 74.1792 15.0552 74.0782 15.1084 73.9949C15.1615 73.9116 15.2456 73.8528 15.342 73.8315C15.4385 73.8102 15.5394 73.8281 15.6227 73.8813C15.7059 73.9345 15.7646 74.0186 15.7859 74.1152C16.3293 76.5772 16.7635 78.9814 16.1089 81.3086C15.4843 83.533 13.4435 85.6931 11.0219 85.6931Z" fill="black"/>
<path d="M10.1524 81.0926C10.1146 81.0933 10.0769 81.0875 10.0411 81.0754C9.99431 81.061 9.95079 81.0375 9.91307 81.0062C9.87535 80.9749 9.84416 80.9365 9.8213 80.8932C9.79845 80.8498 9.78438 80.8024 9.77989 80.7536C9.77539 80.7047 9.78059 80.6555 9.79514 80.6087C10.3822 78.7256 10.7841 76.7896 10.9952 74.8283C11.0068 74.731 11.0563 74.6422 11.1329 74.5811C11.2095 74.5201 11.307 74.4917 11.4044 74.5021C11.5017 74.5125 11.5911 74.5609 11.653 74.6368C11.715 74.7127 11.7446 74.8099 11.7354 74.9075C11.5187 76.9193 11.1075 78.9054 10.5075 80.8378C10.4827 80.9123 10.435 80.977 10.3712 81.0228C10.3074 81.0686 10.2308 81.093 10.1524 81.0926Z" fill="black"/>
<path d="M56.7074 57.9686C56.434 57.9703 56.1625 57.9239 55.9052 57.8316C55.0709 57.5319 54.4398 56.7141 54.2558 55.6907C54.0933 54.7851 54.2815 53.8838 54.489 53.1216C54.9924 51.2685 55.7984 49.5115 56.8743 47.9214C56.9009 47.8791 56.9357 47.8426 56.9767 47.8141C57.0177 47.7855 57.064 47.7655 57.1128 47.7553C57.1617 47.745 57.2121 47.7447 57.2611 47.7543C57.3101 47.764 57.3567 47.7834 57.398 47.8114C57.4393 47.8394 57.4746 47.8754 57.5017 47.9174C57.5289 47.9593 57.5473 48.0063 57.5559 48.0555C57.5646 48.1047 57.5632 48.1552 57.5519 48.2039C57.5407 48.2525 57.5197 48.2985 57.4904 48.3389C56.4608 49.8617 55.6895 51.5442 55.2078 53.3186C55.0238 53.9994 54.8527 54.798 54.9939 55.558C55.1351 56.318 55.5843 56.9153 56.1598 57.1208C56.8829 57.3799 57.7236 57.0416 58.4488 56.6777C62.3227 54.7201 65.5496 51.6848 67.7416 47.9364C67.7644 47.8909 67.7963 47.8506 67.8353 47.8179C67.8743 47.7852 67.9195 47.7609 67.9682 47.7464C68.017 47.7319 68.0682 47.7275 68.1187 47.7336C68.1692 47.7397 68.2179 47.7561 68.2618 47.7817C68.3057 47.8073 68.344 47.8417 68.3741 47.8827C68.4042 47.9237 68.4256 47.9704 68.437 48.02C68.4484 48.0696 68.4495 48.1211 68.4403 48.1711C68.431 48.2212 68.4117 48.2688 68.3833 48.311C66.1172 52.1879 62.7814 55.3279 58.7761 57.3542C58.145 57.671 57.4326 57.9686 56.7074 57.9686Z" fill="black"/>
<path d="M76.5236 77.81C76.4294 77.8104 76.3385 77.7753 76.269 77.7115C72.0654 73.8215 71.7766 67.5937 71.9734 64.2239C72.2601 59.3662 73.4923 54.6455 74.7287 50.2288C74.7412 50.1809 74.7631 50.136 74.7931 50.0966C74.8232 50.0573 74.8607 50.0243 74.9036 49.9997C74.9465 49.975 74.9939 49.9592 75.043 49.953C75.0921 49.9469 75.1419 49.9507 75.1895 49.964C75.2372 49.9774 75.2817 50.0002 75.3204 50.0309C75.3592 50.0617 75.3914 50.0999 75.4152 50.1433C75.439 50.1867 75.4539 50.2344 75.4591 50.2837C75.4643 50.3329 75.4597 50.3827 75.4454 50.4301C74.2218 54.8082 73.0003 59.4839 72.7157 64.2688C72.5232 67.5037 72.7949 73.4747 76.7803 77.1635C76.8161 77.1968 76.845 77.2368 76.8654 77.2813C76.8858 77.3258 76.8971 77.3739 76.8989 77.4228C76.9007 77.4717 76.8929 77.5205 76.8758 77.5664C76.8587 77.6122 76.8328 77.6543 76.7995 77.6901C76.7646 77.7284 76.7219 77.7589 76.6744 77.7796C76.6268 77.8002 76.5754 77.8106 76.5236 77.81Z" fill="black"/>
<path d="M43.2799 66.8637C43.2564 66.8658 43.2328 66.8658 43.2093 66.8637C43.1121 66.8446 43.0264 66.7876 42.971 66.7053C42.9157 66.6231 42.8952 66.5222 42.9141 66.4248L45.5582 52.8901C45.5769 52.7947 45.6321 52.7105 45.712 52.6553C45.792 52.6001 45.8903 52.5783 45.986 52.5947C46.083 52.6143 46.1683 52.6714 46.2236 52.7535C46.2788 52.8357 46.2995 52.9362 46.2812 53.0335L43.6372 66.5683C43.6194 66.6505 43.5745 66.7244 43.5097 66.778C43.4449 66.8316 43.3639 66.8618 43.2799 66.8637Z" fill="black"/>
<path d="M61.3949 65.7765C60.199 65.7765 58.5689 65.7423 56.3355 65.6652C52.4229 65.5303 48.4931 65.3098 48.4525 65.3077C48.402 65.3051 48.3526 65.2922 48.3074 65.2698C48.2621 65.2473 48.2219 65.2157 48.1894 65.1771C48.1568 65.1382 48.1325 65.0931 48.1178 65.0445C48.1031 64.9959 48.0983 64.9449 48.1038 64.8945C48.6961 59.6498 49.6525 54.4527 50.9661 49.3409C50.9908 49.2452 51.0524 49.1633 51.1375 49.1131C51.2225 49.0629 51.324 49.0486 51.4196 49.0733C51.5152 49.098 51.5971 49.1597 51.6472 49.2448C51.6974 49.3299 51.7117 49.4315 51.687 49.5272C50.4149 54.4777 49.48 59.5089 48.8889 64.5862C54.391 64.888 62.8923 65.2156 64.0946 64.9073C65.613 59.4611 67.5792 54.1499 69.9732 49.0283C70.0177 48.9436 70.0931 48.8792 70.1838 48.8486C70.2744 48.818 70.3734 48.8236 70.4601 48.864C70.5468 48.9045 70.6146 48.9769 70.6494 49.0661C70.6842 49.1553 70.6834 49.2545 70.6471 49.343C68.2497 54.4765 66.2833 59.8007 64.7685 65.2606C64.6636 65.5389 64.5738 65.7765 61.3949 65.7765Z" fill="black"/>
<path d="M58.6444 76.5559C58.5484 76.5562 58.4561 76.5185 58.3878 76.451C58.3522 76.4172 58.3238 76.3768 58.304 76.332C58.2842 76.2872 58.2735 76.2389 58.2725 76.1899C58.2715 76.1409 58.2802 76.0922 58.2982 76.0466C58.3161 76.001 58.3429 75.9595 58.377 75.9243L69.6209 64.2543C69.6895 64.1831 69.7836 64.142 69.8825 64.1402C69.9814 64.1384 70.077 64.176 70.1482 64.2447C70.2194 64.3134 70.2604 64.4076 70.2622 64.5065C70.264 64.6055 70.2265 64.7011 70.1578 64.7724L58.914 76.4424C58.8789 76.4783 58.837 76.5069 58.7907 76.5264C58.7444 76.5459 58.6947 76.5559 58.6444 76.5559Z" fill="white"/>
<path d="M62.757 79.8315C62.663 79.8321 62.5724 79.796 62.5046 79.7309C62.4685 79.6978 62.4393 79.6578 62.4188 79.6133C62.3983 79.5687 62.3868 79.5206 62.385 79.4716C62.3832 79.4226 62.3911 79.3738 62.4084 79.3279C62.4256 79.282 62.4517 79.24 62.4853 79.2042L70.0047 71.1395C70.072 71.0671 70.1651 71.0244 70.2638 71.0208C70.3625 71.0171 70.4586 71.0529 70.531 71.1202C70.6033 71.1875 70.646 71.2808 70.6496 71.3795C70.6532 71.4783 70.6174 71.5745 70.5502 71.6469L63.0351 79.7138C62.9995 79.7518 62.9564 79.7819 62.9085 79.8021C62.8606 79.8224 62.809 79.8324 62.757 79.8315Z" fill="white"/>
<path d="M68.678 81.5823C68.6027 81.5845 68.5285 81.5637 68.4652 81.5228C68.4019 81.4819 68.3525 81.4228 68.3236 81.3532C68.2946 81.2836 68.2874 81.2068 68.3029 81.1331C68.3185 81.0593 68.356 80.992 68.4106 80.94L72.2912 76.9344C72.3253 76.8992 72.366 76.8712 72.411 76.8518C72.456 76.8324 72.5043 76.822 72.5533 76.8213C72.6023 76.8206 72.6508 76.8296 72.6964 76.8477C72.7419 76.8658 72.7834 76.8927 72.8185 76.9269C72.8536 76.961 72.8816 77.0018 72.901 77.0468C72.9204 77.0918 72.9307 77.1402 72.9314 77.1892C72.9321 77.2382 72.9232 77.2869 72.9051 77.3324C72.887 77.3779 72.8601 77.4195 72.826 77.4546L68.9454 81.4795C68.9099 81.5136 68.8679 81.5402 68.822 81.5578C68.7761 81.5755 68.7271 81.5838 68.678 81.5823Z" fill="white"/>
<path d="M45.0357 92.4456C44.9583 92.4455 44.8829 92.4212 44.8199 92.3762C44.7569 92.3311 44.7095 92.2676 44.6843 92.1943C44.6591 92.1211 44.6574 92.0418 44.6793 91.9675C44.7013 91.8932 44.7459 91.8276 44.8068 91.7798L47.4017 89.7374C47.4794 89.6761 47.5783 89.6482 47.6766 89.6598C47.7749 89.6715 47.8646 89.7217 47.9258 89.7995C47.9871 89.8773 48.015 89.9762 48.0034 90.0746C47.9917 90.173 47.9415 90.2627 47.8638 90.324L45.2667 92.3643C45.2009 92.4164 45.1197 92.445 45.0357 92.4456Z" fill="white"/>
<path d="M43.7602 100.639C43.7093 100.638 43.6591 100.628 43.6125 100.607C43.5658 100.587 43.5236 100.558 43.4885 100.521C43.4212 100.449 43.385 100.353 43.3878 100.255C43.3907 100.156 43.4322 100.063 43.5035 99.9944L51.8701 92.0988C51.9418 92.031 52.0376 91.9944 52.1363 91.9972C52.2349 92 52.3285 92.042 52.3963 92.1138C52.4641 92.1856 52.5006 92.2815 52.4978 92.3802C52.495 92.479 52.4531 92.5726 52.3813 92.6405L44.0169 100.534C43.9479 100.6 43.856 100.638 43.7602 100.639Z" fill="white"/>
<path d="M48.2444 104.002C48.194 104.002 48.1441 103.992 48.0977 103.972C48.0514 103.952 48.0096 103.923 47.9749 103.886C47.9073 103.814 47.8708 103.719 47.8732 103.62C47.8756 103.522 47.9167 103.428 47.9877 103.36L56.2922 95.4919C56.3278 95.4583 56.3696 95.432 56.4153 95.4146C56.461 95.3971 56.5096 95.3889 56.5585 95.3903C56.6074 95.3917 56.6555 95.4027 56.7001 95.4227C56.7447 95.4427 56.7849 95.4713 56.8185 95.5069C56.8521 95.5424 56.8783 95.5842 56.8957 95.63C56.9131 95.6757 56.9214 95.7244 56.92 95.7733C56.9186 95.8222 56.9076 95.8703 56.8876 95.915C56.8676 95.9596 56.8391 95.9999 56.8035 96.0335L48.5011 103.901C48.4316 103.966 48.3397 104.002 48.2444 104.002Z" fill="white"/>
<path d="M55.5479 105.149C55.499 105.149 55.4506 105.14 55.4055 105.121C55.3603 105.102 55.3193 105.075 55.2848 105.04C55.2156 104.97 55.1768 104.875 55.1768 104.777C55.1768 104.678 55.2156 104.584 55.2848 104.514L61.2618 98.519C61.3316 98.4489 61.4264 98.4094 61.5252 98.4092C61.6241 98.409 61.7191 98.4481 61.7891 98.5179C61.8592 98.5878 61.8987 98.6826 61.8989 98.7816C61.8991 98.8806 61.86 98.9755 61.7902 99.0457L55.8132 105.04C55.7784 105.075 55.737 105.103 55.6915 105.121C55.646 105.14 55.5972 105.15 55.5479 105.149Z" fill="white"/>
<path d="M64.0728 105.254C64.0015 105.253 63.9318 105.232 63.8721 105.193C63.8124 105.154 63.765 105.099 63.7355 105.034C63.7061 104.969 63.6958 104.897 63.7059 104.826C63.716 104.756 63.7461 104.689 63.7925 104.635L67.226 100.688C67.2579 100.65 67.297 100.619 67.3409 100.597C67.3849 100.575 67.4329 100.561 67.482 100.558C67.5311 100.554 67.5805 100.56 67.6272 100.576C67.674 100.591 67.7171 100.616 67.7542 100.649C67.7913 100.681 67.8216 100.721 67.8434 100.765C67.8651 100.809 67.8778 100.857 67.8808 100.907C67.8838 100.956 67.877 101.005 67.8608 101.052C67.8446 101.098 67.8193 101.141 67.7864 101.178L64.3637 105.126C64.3274 105.167 64.2826 105.2 64.2323 105.222C64.1821 105.244 64.1277 105.255 64.0728 105.254Z" fill="white"/>
<path d="M70.9729 105.358C70.9035 105.357 70.8356 105.337 70.7768 105.301C70.718 105.264 70.6705 105.212 70.6396 105.149C70.6088 105.087 70.5958 105.018 70.6021 104.949C70.6085 104.88 70.6339 104.814 70.6755 104.758L73.5143 101.033C73.5427 100.991 73.5793 100.955 73.6221 100.928C73.6648 100.9 73.7126 100.882 73.7627 100.874C73.8127 100.866 73.8639 100.868 73.9131 100.88C73.9623 100.893 74.0084 100.915 74.0487 100.946C74.0889 100.977 74.1225 101.015 74.1473 101.06C74.1721 101.104 74.1876 101.153 74.1928 101.203C74.1981 101.254 74.193 101.305 74.1778 101.353C74.1627 101.401 74.1378 101.446 74.1047 101.485L71.2681 105.212C71.2332 105.257 71.1884 105.294 71.1373 105.319C71.0861 105.344 71.0299 105.357 70.9729 105.358Z" fill="white"/>
<path d="M76.3895 105.605C76.3071 105.605 76.2273 105.577 76.1627 105.526C76.0848 105.465 76.034 105.376 76.0215 105.278C76.0091 105.18 76.036 105.082 76.0964 105.003L77.9084 102.649C77.9377 102.608 77.9748 102.574 78.0175 102.548C78.0602 102.523 78.1076 102.506 78.1569 102.499C78.2062 102.492 78.2564 102.495 78.3046 102.508C78.3528 102.52 78.3979 102.543 78.4373 102.573C78.4767 102.604 78.5096 102.642 78.5339 102.685C78.5583 102.729 78.5737 102.777 78.5793 102.826C78.5848 102.876 78.5804 102.926 78.5662 102.974C78.552 103.022 78.5283 103.066 78.4967 103.105L76.6869 105.46C76.6515 105.505 76.6064 105.541 76.5549 105.567C76.5034 105.592 76.4468 105.605 76.3895 105.605Z" fill="white"/>
<path d="M52.7948 75.1109C52.7032 75.1115 52.6147 75.0779 52.5466 75.0167C52.51 74.9841 52.4802 74.9446 52.4589 74.9005C52.4376 74.8564 52.4253 74.8085 52.4225 74.7596C52.4197 74.7106 52.4266 74.6617 52.4427 74.6154C52.4589 74.5691 52.484 74.5265 52.5167 74.49C54.626 72.135 56.87 69.8507 59.1847 67.7034C59.2572 67.6366 59.3532 67.6011 59.4518 67.6047C59.5503 67.6084 59.6434 67.6507 59.7109 67.7226C59.7445 67.7583 59.7706 67.8003 59.7878 67.8462C59.8051 67.8921 59.813 67.941 59.8112 67.99C59.8094 68.039 59.798 68.0871 59.7774 68.1316C59.7569 68.1762 59.7278 68.2161 59.6917 68.2493C57.3941 70.3902 55.1672 72.6488 53.0729 74.9867C53.038 75.026 52.9952 75.0573 52.9472 75.0787C52.8993 75.1002 52.8473 75.1111 52.7948 75.1109Z" fill="white"/>
<path d="M67.9083 60.6125C67.8352 60.6125 67.7637 60.5909 67.7028 60.5505C67.6418 60.5101 67.5941 60.4527 67.5656 60.3853C67.5371 60.318 67.529 60.2437 67.5424 60.1718C67.5558 60.0999 67.59 60.0335 67.6409 59.9809C68.7407 58.838 69.9359 57.7909 71.2134 56.851C71.2931 56.7925 71.3928 56.7681 71.4905 56.7832C71.5881 56.7982 71.6759 56.8515 71.7343 56.9313C71.7927 57.011 71.8171 57.1108 71.802 57.2085C71.787 57.3063 71.7338 57.3941 71.6541 57.4526C70.4076 58.3666 69.2418 59.3858 68.1693 60.499C68.1354 60.5343 68.0949 60.5624 68.0501 60.5819C68.0053 60.6014 67.9571 60.6118 67.9083 60.6125Z" fill="white"/>
<path d="M70.0939 54.0955C70.0203 54.0965 69.9482 54.0755 69.8866 54.0353C69.825 53.9951 69.7768 53.9374 69.7481 53.8696C69.7194 53.8019 69.7115 53.7271 69.7255 53.6548C69.7394 53.5826 69.7746 53.5161 69.8265 53.4639C70.5493 52.7195 71.3456 52.0503 72.2032 51.4665C72.2436 51.4383 72.2892 51.4185 72.3374 51.408C72.3855 51.3975 72.4352 51.3966 72.4836 51.4054C72.5321 51.4141 72.5784 51.4323 72.6198 51.459C72.6612 51.4856 72.697 51.5202 72.7251 51.5607C72.7532 51.6011 72.7731 51.6468 72.7835 51.6949C72.794 51.7431 72.7949 51.7929 72.7862 51.8414C72.7775 51.8899 72.7592 51.9362 72.7326 51.9776C72.706 52.0191 72.6715 52.0549 72.631 52.083C71.8151 52.6388 71.0569 53.275 70.3677 53.982C70.3323 54.0188 70.2898 54.0479 70.2426 54.0674C70.1955 54.0869 70.1449 54.0965 70.0939 54.0955Z" fill="white"/>
<path d="M47.9366 72.5437C47.8625 72.543 47.7903 72.5204 47.7291 72.4787C47.6678 72.4369 47.6203 72.3779 47.5926 72.3092C47.5649 72.2404 47.5582 72.1649 47.5733 72.0923C47.5885 72.0197 47.6249 71.9533 47.6778 71.9014C49.2886 70.3535 50.9615 68.8271 52.6515 67.3649C52.6879 67.3295 52.7311 67.302 52.7785 67.284C52.8259 67.266 52.8765 67.2579 52.9272 67.2601C52.9778 67.2624 53.0274 67.275 53.073 67.2971C53.1187 67.3192 53.1593 67.3505 53.1924 67.3889C53.2256 67.4273 53.2505 67.4721 53.2657 67.5205C53.2809 67.5689 53.2861 67.6199 53.2809 67.6703C53.2757 67.7208 53.2603 67.7697 53.2356 67.814C53.2109 67.8583 53.1774 67.897 53.1371 67.9279C51.4578 69.3816 49.7956 70.8995 48.1955 72.4388C48.1261 72.506 48.0333 72.5436 47.9366 72.5437Z" fill="white"/>
<path d="M46.3904 69.0218C46.2942 69.0217 46.2017 68.9849 46.1316 68.919C46.0617 68.8488 46.0225 68.7537 46.0225 68.6546C46.0225 68.5555 46.0617 68.4604 46.1316 68.3902C46.734 67.7663 47.3952 67.202 48.1061 66.7053C48.1869 66.6485 48.287 66.6262 48.3843 66.6433C48.4816 66.6604 48.5681 66.7154 48.6249 66.7963C48.6816 66.8772 48.7039 66.9774 48.6868 67.0747C48.6698 67.1721 48.6148 67.2587 48.5339 67.3155C47.863 67.7851 47.2391 68.3186 46.6707 68.9083C46.6346 68.9459 46.5909 68.9754 46.5426 68.995C46.4944 69.0145 46.4425 69.0237 46.3904 69.0218Z" fill="white"/>
<path d="M45.3787 63.8024C45.307 63.8031 45.2367 63.783 45.1762 63.7445C45.1158 63.7059 45.0678 63.6507 45.0381 63.5854C45.0084 63.5201 44.9983 63.4475 45.009 63.3766C45.0198 63.3057 45.0508 63.2394 45.0985 63.1858L46.6708 61.3853C46.7031 61.3485 46.7424 61.3184 46.7863 61.2967C46.8302 61.2751 46.878 61.2623 46.9268 61.2591C46.9757 61.2559 47.0247 61.2624 47.0711 61.2782C47.1175 61.2939 47.1603 61.3187 47.1971 61.351C47.2339 61.3834 47.264 61.4226 47.2856 61.4666C47.3072 61.5106 47.32 61.5584 47.3232 61.6073C47.3264 61.6562 47.3199 61.7052 47.3041 61.7516C47.2884 61.798 47.2636 61.8409 47.2313 61.8777L45.659 63.676C45.6238 63.7156 45.5806 63.7474 45.5323 63.7691C45.484 63.7909 45.4317 63.8022 45.3787 63.8024Z" fill="white"/>
<path d="M46.3342 58.2814C46.2522 58.2811 46.1726 58.2541 46.1075 58.2044C46.0687 58.1746 46.0361 58.1374 46.0117 58.095C45.9873 58.0526 45.9714 58.0059 45.9651 57.9574C45.9587 57.9088 45.962 57.8596 45.9746 57.8123C45.9873 57.7651 46.0092 57.7208 46.039 57.682C46.6748 56.8544 47.3524 56.0598 48.0691 55.3013C48.1369 55.2295 48.2305 55.1875 48.3292 55.1847C48.4279 55.1819 48.5236 55.2185 48.5954 55.2863C48.6671 55.3542 48.709 55.4478 48.7118 55.5465C48.7146 55.6453 48.6782 55.7411 48.6104 55.813C47.9117 56.5537 47.2506 57.3289 46.6294 58.1358C46.5949 58.1814 46.5502 58.2182 46.4989 58.2435C46.4477 58.2688 46.3913 58.2818 46.3342 58.2814Z" fill="white"/>
<path d="M54.5127 23.4119C54.5127 23.245 54.5621 23.082 54.6548 22.9432C54.7474 22.8045 54.879 22.6964 55.033 22.6326C55.1871 22.5687 55.3565 22.552 55.52 22.5846C55.6835 22.6171 55.8337 22.6975 55.9516 22.8154C56.0694 22.9334 56.1497 23.0837 56.1823 23.2473C56.2148 23.4109 56.1981 23.5805 56.1343 23.7347C56.0705 23.8888 55.9625 24.0205 55.8239 24.1132C55.6853 24.2059 55.5223 24.2554 55.3556 24.2554C55.1321 24.2554 54.9176 24.1665 54.7596 24.0083C54.6015 23.8501 54.5127 23.6356 54.5127 23.4119Z" fill="black"/>
<path d="M65.6758 24.8533C65.6758 24.6864 65.7252 24.5234 65.8178 24.3847C65.9104 24.2459 66.0421 24.1378 66.1961 24.074C66.3501 24.0101 66.5196 23.9934 66.6831 24.026C66.8466 24.0585 66.9967 24.1389 67.1146 24.2568C67.2325 24.3748 67.3128 24.5251 67.3453 24.6887C67.3778 24.8523 67.3612 25.022 67.2974 25.1761C67.2336 25.3302 67.1255 25.462 66.9869 25.5546C66.8483 25.6473 66.6853 25.6968 66.5186 25.6968C66.4079 25.6971 66.2982 25.6755 66.1958 25.6332C66.0934 25.5909 66.0003 25.5288 65.922 25.4504C65.8437 25.372 65.7816 25.2789 65.7393 25.1764C65.6971 25.0739 65.6755 24.9641 65.6758 24.8533Z" fill="black"/>
<path d="M61.4592 36.5448C60.928 36.5464 60.4005 36.4566 59.8997 36.2793C59.8536 36.2628 59.8112 36.2375 59.7749 36.2046C59.7386 36.1718 59.7092 36.1321 59.6883 36.0879C59.6673 36.0437 59.6553 35.9957 59.6528 35.9468C59.6504 35.8979 59.6575 35.849 59.674 35.8029C59.6904 35.7568 59.7158 35.7144 59.7486 35.6781C59.7814 35.6418 59.821 35.6123 59.8652 35.5913C59.9094 35.5704 59.9573 35.5583 60.0062 35.5559C60.055 35.5534 60.1039 35.5606 60.15 35.5771C60.9681 35.8466 61.8492 35.8585 62.6743 35.6112C63.4994 35.3639 64.2289 34.8693 64.7643 34.1941C64.7938 34.155 64.8307 34.1221 64.8729 34.0973C64.9151 34.0725 64.9617 34.0562 65.0102 34.0495C65.0587 34.0427 65.108 34.0456 65.1554 34.0579C65.2028 34.0702 65.2472 34.0917 65.2863 34.1213C65.3253 34.1508 65.3582 34.1877 65.3829 34.2299C65.4077 34.2722 65.424 34.3189 65.4307 34.3674C65.4375 34.4159 65.4346 34.4652 65.4223 34.5126C65.41 34.56 65.3885 34.6046 65.359 34.6436C64.8974 35.2377 64.3058 35.718 63.6297 36.0475C62.9537 36.3771 62.2111 36.5472 61.4592 36.5448Z" fill="black"/>
<path d="M79.0793 6.25465C76.4138 3.58496 72.6616 0.788951 67.2301 2.80353C61.4798 -2.5487 51.2265 2.80353 49.3118 7.55846C47.8529 11.1766 46.7747 17.3231 50.1141 22.7952C51.5473 18.6376 51.6307 17.3295 51.6307 17.3295C51.6307 17.3295 59.332 17.0919 64.8277 11.5919C67.8611 20.0848 70.3277 23.8635 74.4136 25.0474C77.4256 22.9279 78.906 25.3107 78.6921 26.8736C78.4781 28.4364 77.4214 30.4981 75.8426 30.4981C74.1847 30.4981 74.0029 29.7317 74.0029 29.7317L71.1834 35.161C71.1834 35.161 78.4247 35.4543 81.4945 29.28C83.1438 25.9573 87.0822 14.2659 79.0793 6.25465Z" fill="black"/>
<path d="M28.5356 72.5395C28.4816 72.5393 28.4283 72.5275 28.3792 72.505C28.3302 72.4825 28.2864 72.4497 28.2511 72.4089C25.5877 69.2737 23.3202 65.8223 21.4997 62.1326C21.4769 62.0886 21.4632 62.0405 21.4592 61.9912C21.4552 61.9418 21.4612 61.8922 21.4766 61.8451C21.492 61.7981 21.5167 61.7546 21.5491 61.7172C21.5816 61.6798 21.6211 61.6493 21.6655 61.6273C21.7099 61.6054 21.7581 61.5926 21.8075 61.5896C21.8569 61.5865 21.9064 61.5934 21.9531 61.6097C21.9998 61.6261 22.0428 61.6516 22.0796 61.6848C22.1163 61.7179 22.146 61.7581 22.1671 61.8029C23.9589 65.4388 26.1936 68.8387 28.8201 71.925C28.884 72.0007 28.9153 72.0985 28.9073 72.1972C28.8993 72.2959 28.8526 72.3874 28.7774 72.4517C28.7099 72.5089 28.6241 72.5401 28.5356 72.5395Z" fill="black"/>
<path d="M17.0615 59.5098C17.7247 60.2163 18.4071 60.9357 19.2735 61.3681C20.1399 61.8006 21.2395 61.8948 22.0417 61.3531C22.7412 60.8821 23.0792 60.0429 23.5968 59.375C24.0008 58.8645 24.5149 58.4521 25.1006 58.1685C25.6862 57.8849 26.3284 57.7374 26.979 57.7372C27.1806 56.8129 27.1897 55.8571 27.0056 54.9292C26.8216 54.0013 26.4484 53.1213 25.9094 52.3442L21.5047 55.911L18.9783 57.9555L17.0615 59.5098Z" fill="white"/>
<path d="M35.4229 65.4484C35.3691 65.4489 35.3159 65.4375 35.2671 65.4149C35.2182 65.3923 35.1751 65.3592 35.1406 65.3178C32.7986 62.6309 30.1999 60.1794 27.3816 57.9981C24.9856 57.9125 22.9833 59.9463 22.2346 62.0337C22.1971 62.1207 22.128 62.1901 22.0412 62.2279C21.9544 62.2656 21.8564 62.2689 21.7673 62.237C21.6782 62.2051 21.6046 62.1404 21.5615 62.0561C21.5183 61.9718 21.5089 61.8742 21.535 61.7832C22.3907 59.3983 24.7439 57.0733 27.5463 57.2595C27.6242 57.2624 27.6992 57.2902 27.7602 57.3387C30.6516 59.5689 33.3164 62.0787 35.716 64.8319C35.7622 64.8859 35.7919 64.9521 35.8017 65.0226C35.8114 65.093 35.8008 65.1648 35.7711 65.2294C35.7414 65.2941 35.6939 65.3488 35.6341 65.3872C35.5743 65.4257 35.5047 65.4462 35.4336 65.4463L35.4229 65.4484Z" fill="black"/>
<path d="M20.1056 61.7255C18.7002 61.7255 17.0914 60.4409 16.5459 59.4946C16.5017 59.4167 16.4868 59.3254 16.5041 59.2374C16.5214 59.1494 16.5696 59.0705 16.6401 59.0151C25.5628 52.0315 25.6826 51.9994 25.7789 51.9737C25.8486 51.9558 25.922 51.9584 25.9903 51.9811C26.0586 52.0039 26.1189 52.0459 26.1639 52.1021C27.0303 53.1876 27.364 54.9709 27.2464 56.1698C27.2421 56.2187 27.2281 56.2663 27.2053 56.3098C27.1825 56.3533 27.1513 56.3917 27.1135 56.423C27.0756 56.4543 27.032 56.4777 26.985 56.492C26.9381 56.5062 26.8887 56.511 26.8399 56.506C26.742 56.4957 26.6521 56.4472 26.5897 56.3711C26.5272 56.295 26.4972 56.1973 26.5062 56.0992C26.5944 54.9693 26.3426 53.8389 25.7832 52.8536C24.6537 53.7099 20.4094 57.0112 17.3695 59.3897C18.0113 60.2354 19.3419 61.0725 20.2639 60.9697C20.362 60.9595 20.4601 60.9884 20.537 61.0501C20.6139 61.1118 20.6634 61.2014 20.6747 61.2994C20.6803 61.3481 20.6762 61.3974 20.6627 61.4445C20.6491 61.4916 20.6264 61.5356 20.5957 61.5738C20.5651 61.6121 20.5272 61.6438 20.4842 61.6673C20.4412 61.6907 20.3939 61.7054 20.3452 61.7105C20.2657 61.7198 20.1857 61.7248 20.1056 61.7255Z" fill="black"/>
<path d="M16.1859 57.776C16.1263 57.7756 16.0676 57.7611 16.0148 57.7336C15.962 57.706 15.9165 57.6662 15.8821 57.6175L15.1355 56.5642C15.0857 56.4834 15.0686 56.3867 15.0877 56.2938C15.1067 56.2008 15.1605 56.1187 15.238 56.064C15.3155 56.0094 15.4109 55.9864 15.5048 55.9998C15.5986 56.0132 15.6838 56.0619 15.743 56.136L16.4896 57.1915C16.5183 57.2317 16.5388 57.2773 16.5499 57.3255C16.5609 57.3738 16.5623 57.4237 16.5539 57.4725C16.5455 57.5212 16.5277 57.5679 16.5012 57.6097C16.4747 57.6515 16.4403 57.6876 16.3998 57.716C16.3359 57.7566 16.2615 57.7774 16.1859 57.776Z" fill="black"/>
<path d="M18.1776 56.2344C18.1181 56.2341 18.0594 56.2196 18.0066 56.192C17.9538 56.1645 17.9082 56.1247 17.8738 56.076L17.1272 55.0227C17.0936 54.9833 17.0686 54.9373 17.0538 54.8877C17.0389 54.8381 17.0345 54.7859 17.041 54.7345C17.0474 54.6831 17.0644 54.6336 17.091 54.5892C17.1177 54.5448 17.1532 54.5064 17.1954 54.4765C17.2377 54.4466 17.2858 54.4259 17.3365 54.4156C17.3872 54.4053 17.4395 54.4058 17.4901 54.4169C17.5406 54.428 17.5883 54.4495 17.6301 54.4801C17.6719 54.5107 17.7068 54.5496 17.7327 54.5945L18.4814 55.6499C18.5383 55.7307 18.561 55.8307 18.5445 55.9281C18.5281 56.0256 18.4739 56.1126 18.3937 56.1702C18.3297 56.2127 18.2544 56.235 18.1776 56.2344Z" fill="black"/>
<path d="M20.1347 54.6671C20.0732 54.6684 20.0123 54.6542 19.9577 54.6258C19.9031 54.5973 19.8566 54.5556 19.8224 54.5044L19.0737 53.4489C19.042 53.4092 19.0187 53.3634 19.0053 53.3144C18.9919 53.2653 18.9888 53.2141 18.9959 53.1638C19.0031 53.1134 19.0204 53.0651 19.0469 53.0218C19.0735 52.9784 19.1086 52.941 19.1501 52.9117C19.1916 52.8824 19.2387 52.862 19.2884 52.8516C19.3381 52.8412 19.3895 52.8411 19.4392 52.8513C19.489 52.8616 19.5361 52.8818 19.5777 52.911C19.6194 52.9401 19.6546 52.9774 19.6812 53.0207L20.43 54.074C20.4583 54.1141 20.4784 54.1593 20.4893 54.2071C20.5001 54.255 20.5014 54.3045 20.493 54.3528C20.4847 54.4012 20.4669 54.4474 20.4406 54.4888C20.4144 54.5302 20.3802 54.5661 20.3401 54.5943C20.2808 54.6392 20.2091 54.6646 20.1347 54.6671Z" fill="black"/>
<path d="M22.0902 53.2349C22.0308 53.2347 21.9724 53.2204 21.9196 53.1932C21.8668 53.166 21.8211 53.1268 21.7864 53.0786L21.0398 52.0232C20.99 51.9424 20.9729 51.8457 20.992 51.7528C21.011 51.6598 21.0648 51.5776 21.1423 51.523C21.2198 51.4684 21.3152 51.4454 21.4091 51.4588C21.503 51.4722 21.5882 51.5209 21.6474 51.595L22.394 52.6504C22.4508 52.7312 22.4735 52.8312 22.4571 52.9286C22.4407 53.0261 22.3865 53.1131 22.3063 53.1707C22.2423 53.2132 22.167 53.2355 22.0902 53.2349Z" fill="black"/>
<path d="M24.1793 51.668C24.1197 51.6687 24.0609 51.6548 24.008 51.6275C23.9551 51.6003 23.9096 51.5605 23.8754 51.5117L23.1267 50.4563C23.0769 50.3755 23.0598 50.2788 23.0789 50.1859C23.0979 50.0929 23.1517 50.0108 23.2292 49.9561C23.3067 49.9015 23.4022 49.8785 23.496 49.8919C23.5899 49.9053 23.6751 49.954 23.7343 50.0281L24.4809 51.0835C24.5095 51.1232 24.53 51.1681 24.5411 51.2158C24.5523 51.2634 24.5538 51.3128 24.5456 51.361C24.5375 51.4092 24.5197 51.4554 24.4936 51.4967C24.4674 51.538 24.4333 51.5737 24.3932 51.6016C24.3306 51.6457 24.2558 51.669 24.1793 51.668Z" fill="black"/>
<path d="M41.9897 86.4312C41.4857 86.4375 40.9846 86.3549 40.5093 86.1871C39.5958 85.851 38.9027 85.1873 38.231 84.5451C37.8475 84.1556 37.4333 83.7976 36.9924 83.4746C36.9112 83.4179 36.856 83.3311 36.8387 83.2336C36.8215 83.136 36.8437 83.0356 36.9004 82.9544C36.9571 82.8732 37.0438 82.8179 37.1413 82.8006C37.2388 82.7834 37.3391 82.8056 37.4202 82.8624C37.8934 83.2082 38.3383 83.5912 38.7508 84.0077C39.3926 84.6243 40.0023 85.2045 40.7702 85.4871C41.7971 85.8617 42.9438 85.6455 44.1289 85.3693C44.2251 85.3469 44.3262 85.3636 44.41 85.4158C44.4939 85.468 44.5535 85.5514 44.576 85.6476C44.5984 85.7439 44.5817 85.8451 44.5295 85.929C44.4774 86.0129 44.394 86.0727 44.2978 86.0951C43.5436 86.2941 42.7693 86.4069 41.9897 86.4312Z" fill="black"/>
<path d="M67.3395 108.56C67.2805 108.56 67.2224 108.546 67.17 108.519C67.1175 108.493 67.0722 108.454 67.0378 108.406C65.1488 105.781 61.8651 104.085 57.0005 103.218L56.5513 103.139C53.8023 102.657 50.6855 102.109 49.1538 99.6752C48.2767 98.2815 48.1805 96.633 48.0842 95.0381C48.0531 94.3025 47.9817 93.5692 47.8703 92.8415C47.5173 90.7734 45.4209 87.3544 43.9512 86.0078C43.8783 85.941 43.8349 85.8481 43.8305 85.7493C43.826 85.6505 43.861 85.5541 43.9276 85.4811C43.9943 85.4081 44.0872 85.3647 44.1859 85.3602C44.2846 85.3558 44.381 85.3908 44.4539 85.4575C46.0177 86.8919 48.2168 90.4501 48.604 92.7173C48.7178 93.472 48.7892 94.2325 48.818 94.9952C48.9121 96.5645 48.9998 98.046 49.7742 99.277C51.1305 101.433 54.074 101.949 56.6689 102.405L57.1203 102.484C62.186 103.388 65.6238 105.179 67.6304 107.969C67.659 108.009 67.6796 108.054 67.6909 108.101C67.7023 108.149 67.7041 108.198 67.6963 108.246C67.6886 108.295 67.6714 108.341 67.6458 108.383C67.6201 108.424 67.5866 108.461 67.547 108.489C67.4863 108.533 67.4141 108.557 67.3395 108.56Z" fill="black"/>
<path d="M56.1172 19.6703H56.0638C55.3221 19.562 54.5701 19.5433 53.824 19.6147C53.7752 19.6197 53.7259 19.6149 53.6789 19.6007C53.6319 19.5865 53.5883 19.563 53.5505 19.5317C53.5127 19.5005 53.4814 19.462 53.4586 19.4185C53.4358 19.375 53.4218 19.3275 53.4176 19.2786C53.4086 19.1801 53.4389 19.0821 53.5018 19.006C53.5647 18.9298 53.6552 18.8815 53.7534 18.8718C54.5588 18.7964 55.3701 18.8165 56.1707 18.9317C56.2675 18.9411 56.3567 18.9879 56.4194 19.0621C56.4821 19.1364 56.5133 19.2323 56.5063 19.3293C56.4994 19.4263 56.4547 19.5167 56.382 19.5812C56.3093 19.6458 56.2143 19.6793 56.1172 19.6746V19.6703Z" fill="black"/>
<path d="M69.1649 21.0077H69.12L66.9187 20.7337C66.8206 20.7218 66.7312 20.6713 66.6702 20.5934C66.6092 20.5155 66.5816 20.4166 66.5935 20.3184C66.6055 20.2201 66.6559 20.1307 66.7337 20.0696C66.8115 20.0086 66.9104 19.981 67.0086 19.993L69.2099 20.267C69.3051 20.2772 69.3927 20.3237 69.4546 20.3968C69.5164 20.47 69.5477 20.5642 69.5419 20.6599C69.5362 20.7556 69.4938 20.8453 69.4235 20.9105C69.3533 20.9757 69.2607 21.0113 69.1649 21.0099V21.0077Z" fill="black"/>
<path d="M77.5823 32.004C76.9106 33.5326 77.1801 35.3309 77.8198 36.8745C78.4594 38.4181 79.437 39.7947 80.2306 41.2655C80.6221 41.9934 80.9666 42.9011 80.5451 43.6205C80.0146 44.5197 78.6198 44.4233 77.7791 43.7939C76.9384 43.1645 76.4506 42.1882 75.734 41.4261C75.6399 42.4623 76.0292 43.477 76.1126 44.5132C76.196 45.5494 75.8131 46.7847 74.8291 47.0823C73.9092 47.3649 72.9444 46.6841 72.4438 45.862C71.9433 45.0399 71.7422 44.0658 71.2865 43.218C71.1218 43.7147 71.1304 44.2478 71.0191 44.7573C70.9079 45.2668 70.6233 45.7956 70.1249 45.9519C69.6264 46.1082 69.0339 45.7999 68.7344 45.346C68.4349 44.8922 68.3494 44.3334 68.2916 43.7939C68.1308 42.3176 68.1122 40.8292 68.236 39.3494C68.2427 39.1603 68.278 38.9734 68.3408 38.7949C68.4722 38.5287 68.6598 38.2942 68.8906 38.1077C70.2867 36.775 71.4609 35.2276 72.3689 33.524C72.4611 33.2452 72.64 33.0031 72.8794 32.8333C73.1188 32.6634 73.4062 32.5746 73.6996 32.5799C75.0152 32.3658 76.3116 31.9869 77.5823 32.004Z" fill="black"/>
</g>
<defs>
<clipPath id="clip0_1_1621">
<rect width="114.07" height="107.987" fill="white" transform="translate(0.967773 0.573242)"/>
</clipPath>
</defs>
</svg>
