<svg width="53" height="53" viewBox="0 0 53 53" fill="none" xmlns="http://www.w3.org/2000/svg">
<path d="M26.7731 52.4069C41.2577 52.4069 52.9997 40.8283 52.9997 26.5453C52.9997 12.2623 41.2577 0.683594 26.7731 0.683594C12.2885 0.683594 0.546387 12.2623 0.546387 26.5453C0.546387 40.8283 12.2885 52.4069 26.7731 52.4069Z" fill="url(#paint0_linear_1_3089)"/>
<path d="M41.4847 14.8057C41.4847 14.6373 41.4847 14.4449 41.4359 14.2765C41.3139 13.675 40.7772 12.9774 39.8989 13.0976C39.6793 13.1217 39.4841 13.1939 39.2889 13.266L24.3336 18.9676C20.3082 20.5073 16.2827 22.0229 12.2572 23.5626C11.5009 23.8513 10.7446 24.0919 10.0371 24.4527C9.7199 24.573 9.47594 24.7895 9.28076 25.0542C9.20757 25.1504 9.15878 25.2466 9.13438 25.3669C9.10998 25.4872 9.13438 25.5834 9.13438 25.7037C9.15878 25.824 9.20757 25.9202 9.30516 25.9924C9.37835 26.0886 9.47593 26.1367 9.59792 26.1848C9.81749 26.2811 10.0615 26.3773 10.3054 26.4254C12.6719 27.1471 15.0384 27.8448 17.4049 28.5665C17.4781 28.5906 17.5757 28.6146 17.6489 28.5906C17.7221 28.5906 17.8197 28.5425 17.8685 28.4944L34.4096 18.2219C34.5803 18.1256 34.7511 18.0053 34.8975 17.9091C35.0927 17.7888 35.361 17.7167 35.5806 17.7648C35.8002 17.8129 35.8734 17.9572 35.727 18.1497C35.6538 18.2459 35.5806 18.3181 35.483 18.3903L25.6511 27.2434L21.8696 30.6595C21.8696 30.6595 21.8208 30.7076 21.7964 30.7317C21.7964 30.7557 21.772 30.8039 21.772 30.8279C21.7232 31.4775 21.6744 32.127 21.6256 32.8006L21.2108 38.0692C21.2108 38.2616 21.2108 38.2857 21.406 38.2616H21.4792C21.9915 38.1414 22.4551 37.8767 22.821 37.5159C23.9433 36.4573 25.0656 35.3748 26.1878 34.3162C26.2854 34.22 26.3586 34.196 26.4806 34.3162L33.5069 39.4645C33.824 39.681 34.1656 39.8494 34.556 39.9457C34.8731 40.066 35.2147 40.0419 35.5074 39.8975C35.8002 39.7532 36.0442 39.5126 36.1661 39.2239C36.2881 39.0074 36.3613 38.7669 36.4101 38.5503C36.6297 37.5399 36.8493 36.5295 37.0688 35.5432C37.7763 32.2473 38.4838 28.9274 39.2158 25.6315C39.8745 22.5281 40.5576 19.4007 41.2163 16.2973C41.3627 15.8161 41.4359 15.335 41.4603 14.8298L41.4847 14.8057Z" fill="white"/>
<defs>
<linearGradient id="paint0_linear_1_3089" x1="26.7731" y1="49.7606" x2="26.7731" y2="-6.8223" gradientUnits="userSpaceOnUse">
<stop stop-color="#FF7A00"/>
<stop offset="1" stop-color="#DE0000"/>
</linearGradient>
</defs>
</svg>
