<svg width="30" height="30" viewBox="0 0 30 30" fill="none" xmlns="http://www.w3.org/2000/svg">
<circle cx="14.6357" cy="14.6357" r="14.6357" fill="#2BB473"/>
<path d="M20.9512 9.76294L15.0282 22.6857C14.9786 22.7939 14.8946 22.8827 14.7892 22.9381C14.6839 22.9935 14.5631 23.0125 14.4458 22.9919C14.3285 22.9714 14.2214 22.9126 14.1411 22.8247C14.0608 22.7368 14.0119 22.6248 14.002 22.5061L13.5013 16.4988L7.49388 15.9981C7.37523 15.9882 7.2632 15.9393 7.17529 15.859C7.08739 15.7787 7.02858 15.6715 7.00806 15.5543C6.98754 15.437 7.00646 15.3162 7.06187 15.2109C7.11728 15.1055 7.20605 15.0214 7.3143 14.9719L20.2372 9.04896C20.3371 9.00317 20.4486 8.98905 20.5568 9.00849C20.665 9.02793 20.7646 9.08 20.8423 9.15771C20.92 9.23541 20.9721 9.33504 20.9915 9.4432C21.0109 9.55136 20.9968 9.66287 20.951 9.76278L20.9512 9.76294Z" fill="white"/>
</svg>
