<svg width="26" height="18" viewBox="0 0 26 18" fill="none" xmlns="http://www.w3.org/2000/svg">
<path fill-rule="evenodd" clip-rule="evenodd" d="M0 1.58166V16.5248C0 17.3377 0.591594 17.9966 1.40663 17.9966H24.5934C25.4076 17.9966 26 17.3301 26 16.5248V1.58166C26 0.689538 25.4702 -0.00341797 24.5934 -0.00341797H1.40663C0.495955 -0.00341797 0 0.706566 0 1.58166ZM2.13788 2.88327C2.13788 2.52318 2.35457 2.31712 2.70072 2.31712C2.91485 2.31712 11.3403 7.68694 11.8506 8.0019L13.1693 8.82675C13.5874 8.54498 14.0072 8.30408 14.4405 8.0121C15.3249 7.44346 23.1943 2.31712 23.411 2.31712C23.758 2.31712 23.9738 2.52318 23.9738 2.88327C23.9738 3.26463 23.2434 3.64341 22.7678 3.9354C19.7793 5.76733 16.7917 7.76436 13.8328 9.66439C13.6602 9.78186 13.3258 10.0331 13.0753 9.99475C12.796 9.95134 4.22246 4.41121 2.66263 3.48843C2.42819 3.34968 2.13788 3.22292 2.13788 2.88327Z" fill="#2BB473"/>
</svg>
