<svg width="116" height="89" viewBox="0 0 116 89" fill="none" xmlns="http://www.w3.org/2000/svg">
<g clip-path="url(#clip0_1_1529)">
<path d="M45.2571 5.43092C37.8312 5.86402 31.0307 9.44973 27.6832 16.0827C24.3356 22.7157 23.0224 30.3728 18.7095 36.4245C15.6297 40.7476 11.0179 44.2962 9.85512 49.4719C9.34507 51.7466 9.57176 54.1228 10.0017 56.4151C12.5226 69.8761 22.4049 81.7413 35.2107 86.6653C39.635 88.3665 44.5732 89.2736 49.1167 87.9197C55.2645 86.0898 60.1246 80.3308 66.5382 80.2157C71.9396 80.1182 76.5222 84.0999 81.7672 85.3875C88.9665 87.155 96.7656 83.4054 101.207 77.4806C105.649 71.5558 107.156 63.8694 107.019 56.4697C106.869 48.4321 104.061 39.3586 96.6855 36.1299C92.1909 34.1634 86.6293 34.696 82.7951 31.6429C79.6352 29.1223 78.5741 24.8909 76.8994 21.2252C71.072 8.48794 55.9993 4.80664 45.2571 5.43092Z" fill="#EBEBEB"/>
<path d="M0.98929 82.777L0.967773 82.4376L0.987334 82.0962L5.77705 82.0864C5.86723 82.0864 5.95371 82.1222 6.01748 82.1859C6.08125 82.2495 6.11708 82.3358 6.11708 82.4259C6.11708 82.5159 6.08125 82.6023 6.01748 82.6659C5.95371 82.7296 5.86723 82.7653 5.77705 82.7653L0.98929 82.777Z" fill="black"/>
<path d="M10.6252 82.7652C10.535 82.7652 10.4485 82.7295 10.3848 82.6658C10.321 82.6021 10.2852 82.5158 10.2852 82.4258C10.2852 82.3357 10.321 82.2494 10.3848 82.1857C10.4485 82.1221 10.535 82.0863 10.6252 82.0863C25.905 81.7859 41.6362 81.6961 56.8515 81.6025C72.0668 81.5088 87.7941 81.4191 103.068 81.1187C103.158 81.1187 103.245 81.1544 103.308 81.2181C103.372 81.2817 103.408 81.3681 103.408 81.4581C103.408 81.5481 103.372 81.6345 103.308 81.6981C103.245 81.7618 103.158 81.7976 103.068 81.7976C87.7882 82.098 72.057 82.1877 56.8417 82.2814C41.6264 82.375 25.8991 82.4648 10.6252 82.7652Z" fill="black"/>
<path d="M109.651 81.8214C109.114 81.8214 108.579 81.8214 108.051 81.798C107.961 81.798 107.874 81.7622 107.811 81.6986C107.747 81.6349 107.711 81.5486 107.711 81.4585C107.711 81.3685 107.747 81.2821 107.811 81.2185C107.874 81.1548 107.961 81.1191 108.051 81.1191H108.063C109.298 81.16 110.584 81.1386 111.828 81.1191C113.073 81.0995 114.369 81.0781 115.627 81.1191C115.672 81.1206 115.716 81.1309 115.757 81.1493C115.797 81.1678 115.834 81.1941 115.864 81.2267C115.895 81.2593 115.919 81.2976 115.934 81.3394C115.95 81.3812 115.957 81.4257 115.956 81.4702C115.952 81.5596 115.913 81.6438 115.847 81.705C115.782 81.7663 115.695 81.7996 115.606 81.798C114.371 81.757 113.085 81.7785 111.84 81.798C111.125 81.8097 110.386 81.8214 109.651 81.8214Z" fill="black"/>
<path d="M16.0106 80.2957C15.9245 80.2954 15.8416 80.2627 15.7785 80.2042C15.7155 80.1456 15.677 80.0654 15.6706 79.9797C14.5 62.9004 14.3799 45.7656 15.311 28.6717C15.5591 24.1652 15.8972 19.7737 17.1792 15.5872C18.211 12.2512 20.3352 7.65882 24.6051 4.73251C29.6274 1.28922 36.2266 1.15656 41.5303 1.05121L64.9493 0.579102C65.0388 0.580447 65.1245 0.615618 65.189 0.677526C65.2536 0.739435 65.2922 0.823474 65.2971 0.912699C65.2982 0.957184 65.2904 1.00144 65.2742 1.04291C65.2581 1.08438 65.2339 1.12225 65.203 1.15434C65.1721 1.18643 65.1352 1.21211 65.0943 1.2299C65.0535 1.24769 65.0095 1.25725 64.9649 1.258L41.544 1.73012C36.3302 1.83351 29.8443 1.96422 24.9901 5.29241C20.8863 8.10752 18.8324 12.5536 17.8338 15.7881C16.5636 19.9006 16.2392 24.2451 15.9949 28.7087C15.0644 45.7779 15.1845 62.8881 16.3545 79.9426C16.3604 80.0323 16.3304 80.1208 16.271 80.1884C16.2117 80.2561 16.1278 80.2975 16.0379 80.3035L16.0106 80.2957Z" fill="black"/>
<path d="M59.9801 5.54998C59.2101 5.54998 58.4402 5.0213 57.9731 4.14731C57.4592 3.19333 57.3869 2.06573 57.426 1.28928C57.4315 1.19958 57.4717 1.11552 57.538 1.05477C57.6043 0.994013 57.6916 0.961293 57.7816 0.963482C57.8717 0.968034 57.9563 1.00789 58.017 1.07438C58.0778 1.14087 58.1097 1.22862 58.106 1.31854C58.0767 2.0111 58.1314 3.008 58.5711 3.82736C58.9463 4.52382 59.5658 4.93936 60.1169 4.86133C60.5761 4.79695 61.0529 4.40677 61.4614 3.76298C61.927 3.0596 62.1519 2.22457 62.1023 1.38292C62.0991 1.29617 62.1292 1.21148 62.1866 1.14625C62.244 1.08103 62.3242 1.04022 62.4108 1.03223C62.4974 1.02423 62.5838 1.04966 62.6521 1.10327C62.7205 1.15689 62.7657 1.23462 62.7785 1.32049C62.8455 2.31157 62.5846 3.29719 62.0359 4.12585C61.6704 4.71111 61.0588 5.41537 60.2126 5.53243C60.1357 5.54405 60.0579 5.54992 59.9801 5.54998Z" fill="black"/>
<path d="M56.011 31.0284C55.9645 31.0287 55.9184 31.0193 55.8757 31.0008C55.8329 30.9823 55.7945 30.9552 55.7628 30.9212C55.7323 30.8886 55.7085 30.8504 55.6927 30.8087C55.677 30.7669 55.6696 30.7225 55.6711 30.678C55.6725 30.6334 55.6828 30.5896 55.7012 30.5489C55.7196 30.5083 55.7459 30.4717 55.7785 30.4412C57.6135 28.7206 59.3312 25.6421 59.7748 23.2815C60.2321 20.8546 60.1656 18.3322 60.0953 15.8936L59.7435 3.13681C59.7422 3.09232 59.7498 3.04802 59.7657 3.00645C59.7816 2.96488 59.8056 2.92686 59.8363 2.89458C59.867 2.86231 59.9038 2.83641 59.9445 2.81838C59.9853 2.80036 60.0292 2.79056 60.0738 2.78955C60.1623 2.78951 60.2474 2.82393 60.3108 2.8855C60.3743 2.94706 60.4113 3.03092 60.4138 3.11925L60.7656 15.8741C60.834 18.3497 60.9043 20.9073 60.4334 23.4083C59.9624 25.9094 58.1606 29.1283 56.2338 30.9368C56.1733 30.9934 56.094 31.0261 56.011 31.0284Z" fill="black"/>
<path d="M31.3051 68.922C31.2454 68.9227 31.1866 68.9072 31.135 68.8772C29.7339 68.0636 28.7548 66.5107 28.5164 64.7237C28.4008 63.8696 28.4674 63.0006 28.7118 62.1739C27.7992 61.417 27.1485 60.2504 26.9042 58.8575C26.6365 57.3748 26.828 55.8473 27.0488 54.4114C27.055 54.3668 27.0701 54.3238 27.0932 54.2851C27.1164 54.2464 27.1471 54.2127 27.1836 54.1861C27.2201 54.1595 27.2616 54.1406 27.3056 54.1303C27.3496 54.1201 27.3952 54.1188 27.4397 54.1266C27.5291 54.141 27.6093 54.1901 27.6627 54.2631C27.7161 54.3362 27.7385 54.4273 27.725 54.5168C27.5139 55.896 27.3341 57.3592 27.5784 58.7385C27.7445 59.7752 28.231 60.7342 28.9698 61.4814C29.2101 60.941 29.5457 60.448 29.9606 60.026C30.6602 59.3159 31.4868 58.9257 32.2391 58.9414C33.1518 58.955 34.1347 59.6495 34.1464 60.662C34.1382 61.0744 34.0016 61.4739 33.7556 61.8052C32.8586 63.0772 30.9005 63.4459 29.3919 62.6246L29.3098 62.5797C29.1441 63.2495 29.1077 63.9447 29.2023 64.6282C29.4134 66.2084 30.2674 67.574 31.4887 68.2841C31.553 68.3218 31.6031 68.3796 31.6313 68.4486C31.6595 68.5175 31.6641 68.5938 31.6446 68.6657C31.625 68.7376 31.5823 68.801 31.5231 68.8463C31.4639 68.8915 31.3914 68.9161 31.3168 68.9162L31.3051 68.922ZM29.515 61.9223C29.5775 61.9613 29.6401 62.0003 29.7104 62.0335C30.7755 62.6188 32.4287 62.5036 33.1928 61.4209C33.3566 61.2057 33.4507 60.9457 33.4625 60.6757C33.4625 60.0904 32.8059 59.6339 32.2274 59.6261C31.4458 59.6066 30.7716 60.1743 30.4413 60.5079C30.0436 60.9149 29.729 61.3953 29.515 61.9223Z" fill="black"/>
<path d="M104.893 52.7769C104.604 52.7846 104.318 52.7174 104.063 52.5818C103.338 52.1702 103.195 51.2006 103.477 50.5373C103.721 49.9676 104.243 49.4955 104.985 49.1717C105.766 48.842 106.613 48.6952 107.459 48.7425C107.42 47.9373 107.184 47.1539 106.771 46.4609C106.359 45.7678 105.782 45.1861 105.093 44.7666C104.658 45.4932 104.005 46.0645 103.227 46.3995C102.474 46.7019 101.468 46.6414 101.003 45.9391C100.538 45.2368 100.891 44.2769 101.524 43.838C102.038 43.481 102.748 43.36 103.578 43.4907C104.01 43.5592 104.43 43.6845 104.829 43.8634C105.14 43.2344 105.401 42.5821 105.611 41.9125C105.624 41.869 105.646 41.8286 105.675 41.7936C105.704 41.7587 105.739 41.7299 105.78 41.709C105.82 41.6881 105.864 41.6755 105.91 41.6719C105.955 41.6684 106.001 41.674 106.044 41.6883C106.087 41.7027 106.127 41.7255 106.161 41.7555C106.195 41.7856 106.223 41.8221 106.243 41.863C106.262 41.9039 106.274 41.9484 106.276 41.9937C106.278 42.0391 106.271 42.0844 106.256 42.1271C106.033 42.8343 105.756 43.5231 105.427 44.1872C107.016 45.1626 108.118 46.9477 108.137 48.8147C108.691 48.8978 109.233 49.0444 109.754 49.2517C111.366 49.8896 112.685 51.0075 113.662 51.901C113.728 51.962 113.768 52.0469 113.771 52.1369C113.775 52.2269 113.743 52.3146 113.681 52.3809C113.62 52.4471 113.535 52.4864 113.445 52.49C113.355 52.4937 113.267 52.4614 113.201 52.4004C112.269 51.542 111.004 50.4807 109.488 49.8838C109.034 49.7022 108.561 49.5714 108.079 49.4936C107.85 51.0796 106.711 52.6716 105.036 52.7828L104.893 52.7769ZM107.178 49.4077C106.52 49.4009 105.868 49.5304 105.263 49.7882C104.856 49.9657 104.327 50.2876 104.106 50.8046C103.936 51.1947 104.012 51.7703 104.397 51.9887C104.587 52.0828 104.8 52.1194 105.011 52.0941C106.308 52.0083 107.225 50.6914 107.422 49.4136L107.178 49.4077ZM102.953 44.1131C102.585 44.1013 102.223 44.2013 101.913 44.3999C101.552 44.6496 101.327 45.2036 101.569 45.5704C101.812 45.9371 102.488 45.9703 102.973 45.7752C103.599 45.5006 104.127 45.0411 104.485 44.4584C104.161 44.3206 103.821 44.223 103.473 44.1677C103.301 44.1358 103.127 44.1175 102.953 44.1131Z" fill="black"/>
<path d="M74.9018 20.2865C74.6939 20.2929 74.4874 20.252 74.2977 20.1668C74.1081 20.0817 73.9404 19.9544 73.8074 19.7948C73.3482 19.2213 73.4322 18.3531 74.038 17.4148C74.6699 16.4461 75.463 15.5923 76.3831 14.8903C76.0674 13.3314 75.2352 11.924 74.0204 10.895C73.9859 10.8666 73.9573 10.8318 73.9363 10.7925C73.9153 10.7531 73.9022 10.7101 73.8978 10.6657C73.8935 10.6213 73.8979 10.5765 73.9109 10.5338C73.9239 10.4911 73.9452 10.4514 73.9735 10.417C74.0019 10.3825 74.0368 10.354 74.0762 10.333C74.1156 10.312 74.1588 10.2989 74.2032 10.2946C74.2477 10.2902 74.2926 10.2947 74.3353 10.3076C74.378 10.3206 74.4178 10.3419 74.4523 10.3702C75.7098 11.4326 76.595 12.8678 76.9791 14.467C78.4135 13.5053 80.0661 12.9171 81.7864 12.7561C81.8323 12.7492 81.8792 12.7517 81.9241 12.7636C81.9691 12.7754 82.0111 12.7964 82.0476 12.8251C82.0841 12.8538 82.1143 12.8896 82.1364 12.9305C82.1585 12.9713 82.1719 13.0162 82.176 13.0624C82.18 13.1086 82.1744 13.1552 82.1597 13.1992C82.145 13.2432 82.1215 13.2837 82.0904 13.3183C82.0594 13.3528 82.0216 13.3806 81.9794 13.4001C81.9372 13.4195 81.8915 13.43 81.845 13.4311C80.1442 13.5927 78.5159 14.1983 77.1237 15.1869C77.2841 16.1934 77.2349 17.2221 76.9791 18.2088C76.7602 19.034 76.4202 19.6056 75.9414 19.9646C75.6367 20.1769 75.2734 20.2894 74.9018 20.2865ZM76.5003 15.6629C75.7668 16.2705 75.1297 16.9855 74.6106 17.7835C74.4484 18.0332 73.9521 18.8877 74.339 19.3715C74.6028 19.7012 75.1891 19.6622 75.5369 19.4066C75.8847 19.1511 76.1427 18.7024 76.3186 18.041C76.5241 17.2661 76.5883 16.4605 76.5081 15.6629H76.5003Z" fill="black"/>
<path d="M37.9643 37.2363C36.4228 37.8769 34.7577 38.1664 33.0901 38.0837C31.4225 38.0009 29.7944 37.548 28.3242 36.758C26.854 35.9679 25.5788 34.8605 24.5914 33.5163C23.6039 32.1722 22.9291 30.6252 22.6161 28.988C22.5418 28.5978 22.493 28.1667 22.6786 27.8174C22.9424 27.3141 23.5639 27.1424 24.1169 27.0137C26.6476 26.4284 29.272 25.5817 31.0152 23.6582C31.9805 22.593 32.6274 21.2411 33.7334 20.3183C35.3828 18.9527 37.7102 18.7927 39.8149 18.902C40.9874 19.8384 41.3001 21.4381 41.6049 22.9032C42.3866 26.6411 43.5415 30.2892 44.4326 33.8866C42.4315 35.5683 39.9321 36.4188 37.9643 37.2363Z" fill="white"/>
<path d="M42.2524 56.5752C41.9952 56.9447 41.6621 57.2553 41.2753 57.4862C41.0796 57.5989 40.8571 57.6569 40.6312 57.6542C40.4053 57.6514 40.1843 57.588 39.9914 57.4706C39.6728 57.2463 39.5263 56.8561 39.4051 56.4952C37.4864 50.8781 36.571 44.9682 36.7005 39.0349C39.7017 37.9191 42.5183 36.3606 45.0566 34.4113C45.4475 35.5233 46.7509 36.2198 47.6713 35.9271C47.7339 40.7321 48.2908 45.6698 50.5538 49.911C51.013 50.7713 51.5719 51.6316 52.42 52.1174C53.2681 52.6032 54.466 52.6012 55.1168 51.8716C55.2907 51.6765 55.4177 51.4424 55.6092 51.2629C56.0274 50.8728 56.7427 50.8415 57.3915 51.1673C58.5737 52.6832 59.9456 54.3121 61.8509 54.5872C63.2013 54.7823 64.5555 54.2341 65.6948 53.4869C66.4257 53.009 67.1077 52.4413 67.9128 52.1018C68.757 51.7487 69.6853 51.6687 70.5822 51.499C72.3035 51.181 73.9355 50.4948 75.3661 49.4876C76.8258 48.0498 77.8948 46.2492 78.6589 44.349C79.423 42.4489 79.8881 40.4473 80.3473 38.1648C81.1751 37.5821 81.8159 36.7723 82.192 35.8335C82.5645 34.8984 82.8122 33.9185 82.9288 32.9189C83.1691 31.2372 83.2395 29.4307 82.4324 27.9344C82.237 27.5832 82.0084 27.2574 81.8462 26.8965C81.6957 26.5844 81.5941 26.2527 81.4553 25.9328C80.9708 24.8063 80.1612 23.8494 79.1298 23.184C81.6861 22.6598 84.3372 22.844 86.7961 23.7166C88.2578 24.2375 89.7274 25.0822 90.382 26.401C91.4857 28.5505 91.7897 31.0212 91.2399 33.3734C90.6537 35.8081 89.2056 37.9307 87.7224 39.9518C87.1889 40.6794 86.6495 41.4032 86.159 42.1816C88.3712 45.5703 87.7634 49.273 88.0292 53.3016C88.1836 55.6661 87.951 58.1515 88.3204 60.5881C89.5749 68.9066 87.3687 77.0691 86.5616 77.1939C85.7975 77.311 83.3372 79.4004 82.6376 79.0726C81.938 78.7449 81.2071 78.1499 81.555 77.4593C82.1119 76.357 83.8257 74.771 82.5946 67.3401C82.0767 64.2187 81.4221 62.5039 79.8079 60.1394C79.294 59.8858 78.6804 60.0731 78.1449 60.276C75.9426 61.107 73.7949 62.1176 71.5007 62.6794C69.2065 63.2413 66.7129 63.3193 64.4304 62.3712C63.6774 63.126 62.6707 63.5751 61.6051 63.6317C60.5395 63.6883 59.4907 63.3483 58.6617 62.6775C58.1985 62.301 57.8175 61.8347 57.368 61.4406C56.9186 61.0466 56.3714 60.7208 55.789 60.8846C56.7173 65.3268 55.4822 69.1485 54.5735 73.5946C54.2159 75.3504 53.7469 77.588 50.587 78.9517C47.2121 80.407 47.6557 78.4366 47.6557 78.4366C47.6557 78.4366 49.5141 72.6699 49.4868 70.4615C49.4438 67.2113 49.4614 63.7953 47.3548 61.228C47.0774 61.4957 46.7299 61.6797 46.3523 61.7588C45.9748 61.8378 45.5825 61.8087 45.2208 61.6747C44.6228 61.4445 44.1733 60.9432 43.8177 60.4106C43.036 59.2557 42.6197 57.9057 42.2524 56.5752Z" fill="white"/>
<path d="M41.5876 18.7965C41.0014 18.6716 40.4151 19.1418 40.2548 19.7114C40.0946 20.2811 40.2548 20.8995 40.546 21.4204C40.8372 21.9413 41.2163 22.3958 41.5231 22.9069C42.639 24.7388 42.6292 27.0038 43.0865 29.1088C43.3601 30.2642 43.7067 31.4013 44.1241 32.513C44.3437 33.227 44.6494 33.9116 45.0348 34.5517C45.4266 35.1952 46.0402 35.6738 46.7603 35.8978C47.4541 36.0792 48.1889 35.929 48.8826 35.7437C50.36 35.3535 51.8334 34.7858 52.9864 33.7792C54.1394 32.7725 54.9191 31.243 54.7276 29.735C54.6839 29.3128 54.5391 28.9073 54.3055 28.5528C54.0092 28.1776 53.6486 27.858 53.2404 27.6085C52.2633 26.9335 51.2863 26.2585 50.4538 25.4275C49.4884 24.4735 48.7263 23.3361 47.9133 22.2495C47.1004 21.1629 46.2132 20.1035 45.0719 19.3622C43.9307 18.6209 42.4807 18.258 41.5876 18.7965Z" fill="#31C781"/>
<path d="M47.3916 36.2449C47.7277 41.6235 48.2221 47.4098 51.7103 51.5222C52.4021 52.3357 53.5512 53.1102 54.4462 52.5425C54.9934 52.1992 55.2142 51.4715 55.779 51.1593C56.3828 50.8277 57.1625 51.1086 57.6687 51.5749C58.1748 52.0411 58.5031 52.6674 58.9389 53.198C60.7543 55.4103 64.5963 55.4883 66.4977 53.3502C66.9354 52.8605 67.3106 52.2557 67.9301 52.0333C68.4206 51.8578 68.9619 51.9631 69.4817 52.008C72.6338 52.285 75.6081 50.1722 77.2789 47.4897C78.9497 44.8073 79.579 41.6371 80.175 38.5255C72.6729 39.7467 63.5254 39.3234 55.9255 36.7463C54.4853 36.2566 52.9278 35.6792 52.1364 34.3799C50.96 35.765 49.125 36.5727 47.3916 36.2449Z" fill="#C7E3E5"/>
<path d="M36.8699 26.4286C36.7068 26.3482 36.5217 26.3237 36.3433 26.359C36.1649 26.3943 36.0031 26.4873 35.883 26.6237C35.764 26.7717 35.7031 26.9579 35.7117 27.1475C35.7204 27.3371 35.7979 27.5171 35.9299 27.6537C36.0191 27.7263 36.1237 27.7777 36.2358 27.8041C36.3478 27.8305 36.4644 27.8311 36.5767 27.8059C36.7331 27.7803 36.8794 27.7122 36.9994 27.6089C37.1194 27.5056 37.2085 27.3713 37.2568 27.2206C37.2873 27.0646 37.266 26.9028 37.1962 26.7599C37.1264 26.617 37.0118 26.5007 36.8699 26.4286Z" fill="black"/>
<path d="M34.0249 38.5176C32.0594 38.5215 30.1226 38.0461 28.3831 37.1325C26.8415 36.2902 25.4913 35.1382 24.4177 33.7492C23.3441 32.3601 22.5704 30.7641 22.1454 29.0617C22.0439 28.727 22.014 28.3747 22.0574 28.0277C22.2978 26.6446 24.0116 26.428 25.0356 26.2973C27.0402 26.0339 28.9039 25.1242 30.3432 23.7066C30.8551 23.1813 31.3385 22.6291 31.7913 22.0522C32.6159 21.0397 33.466 19.9941 34.6072 19.3015C36.194 18.3378 38.3202 18.1115 40.4248 18.6753C41.4837 18.3502 42.6088 18.304 43.6909 18.5412C44.7729 18.7785 45.7751 19.291 46.6001 20.0292C47.3348 20.6944 47.9016 21.5177 48.4507 22.3136C48.6461 22.6043 48.8533 22.8989 49.0624 23.1798C50.142 24.6508 51.4635 25.9285 52.9707 26.9587L53.1662 27.0874C53.6645 27.423 54.1823 27.7722 54.5517 28.297C55.5933 29.7757 54.9093 31.8866 53.8345 33.2229C53.0666 34.1777 52.1 34.9544 51.0017 35.4994C49.9034 36.0445 48.6996 36.3447 47.4736 36.3794C46.9948 36.3794 46.3773 36.358 45.8399 36.04C45.3025 35.722 44.982 35.2148 44.726 34.7524C43.659 32.8249 43.2232 30.6166 42.8011 28.4804C42.3927 26.4144 41.9706 24.2801 40.974 22.4541C40.931 22.3749 40.9212 22.282 40.9469 22.1956C40.9725 22.1093 41.0315 22.0366 41.1108 21.9937C41.1901 21.9508 41.2832 21.941 41.3697 21.9666C41.4562 21.9922 41.5289 22.0511 41.5719 22.1303C42.6174 24.046 43.0493 26.2271 43.4695 28.3496C43.8799 30.4332 44.3059 32.5889 45.322 34.4227C45.5331 34.8129 45.8028 35.2284 46.1877 35.4567C46.5825 35.6515 47.0229 35.7358 47.4619 35.7005C48.5882 35.6677 49.6941 35.3912 50.7029 34.89C51.7117 34.3888 52.5995 33.6749 53.3049 32.7976C54.2253 31.6525 54.8331 29.8713 53.9947 28.6871C53.6977 28.2638 53.2541 27.9653 52.7851 27.6512L52.5897 27.5186C51.0175 26.4461 49.6385 25.1157 48.5113 23.5837C48.2983 23.293 48.0931 22.9984 47.8879 22.698C47.3368 21.9001 46.817 21.1373 46.1408 20.5305C45.3919 19.8632 44.4807 19.4039 43.4981 19.1985C42.5156 18.9931 41.4963 19.0488 40.5421 19.36C40.4782 19.3783 40.4105 19.3783 40.3467 19.36C38.3768 18.8138 36.4168 19.005 34.9649 19.8848C33.9252 20.5169 33.1475 21.4728 32.3228 22.4834C31.8551 23.0808 31.3547 23.652 30.8239 24.1943C29.275 25.7173 27.2697 26.6928 25.1138 26.9723C23.9804 27.1147 22.8626 27.3235 22.7199 28.1429C22.6952 28.3972 22.7217 28.6539 22.7981 28.8978C23.199 30.5082 23.9301 32.018 24.9453 33.332C25.9604 34.6459 27.2375 35.7354 28.6958 36.5316C30.1446 37.2897 31.7393 37.7291 33.3724 37.8203C35.0056 37.9115 36.6394 37.6523 38.1639 37.0603C38.2058 37.0409 38.2513 37.0302 38.2976 37.0289C38.3439 37.0277 38.3899 37.0359 38.4329 37.053C38.4759 37.0701 38.5149 37.0958 38.5476 37.1285C38.5803 37.1612 38.6059 37.2002 38.623 37.2432C38.64 37.2861 38.6481 37.3321 38.6468 37.3783C38.6454 37.4245 38.6346 37.4699 38.615 37.5118C38.5955 37.5536 38.5675 37.5911 38.533 37.6218C38.4984 37.6525 38.4579 37.6759 38.414 37.6904C37.0158 38.2384 35.5269 38.519 34.0249 38.5176Z" fill="black"/>
<path d="M49.0665 79.6499C48.8165 79.6508 48.5673 79.6227 48.3239 79.566C48.0855 79.5095 47.8569 79.3027 47.6439 78.9515C47.4719 78.6628 47.21 78.0697 47.3175 77.6698C47.5129 76.9577 47.7494 76.2671 47.9819 75.598C49.0841 72.42 50.2234 69.1367 47.2491 61.5926C47.0992 61.7269 46.9274 61.8344 46.741 61.9106C46.4257 62.0356 46.0872 62.0916 45.7484 62.0747C45.4096 62.0579 45.0784 61.9687 44.7771 61.8131C43.7452 61.2571 43.243 60.1334 42.9558 59.3355C42.8796 59.1248 42.8092 58.9102 42.7388 58.6975C42.5804 58.1604 42.3751 57.6382 42.1252 57.1368C41.7539 57.568 41.2029 58.0713 40.4798 58.0264C39.6415 57.9816 39.0122 57.2812 38.6097 55.9429C37.344 51.7282 36.5824 47.3787 36.3408 42.9852C36.3406 42.8983 36.3739 42.8146 36.4337 42.7514C36.4935 42.6882 36.5753 42.6503 36.6623 42.6455C36.7492 42.6408 36.8347 42.6695 36.9011 42.7258C36.9674 42.7821 37.0096 42.8617 37.0189 42.9481C37.2579 47.2882 38.011 51.5846 39.2623 55.7478C39.5731 56.7818 39.9952 57.3202 40.515 57.3475C41.0348 57.3748 41.4921 56.8813 41.8829 56.3448C41.9144 56.301 41.9561 56.2656 42.0045 56.2418C42.0529 56.218 42.1065 56.2065 42.1604 56.2082C42.2141 56.2093 42.2669 56.2229 42.3144 56.248C42.3619 56.273 42.4029 56.3089 42.434 56.3526C42.8932 57.0022 43.1414 57.7514 43.3798 58.4751C43.4502 58.6819 43.5186 58.8907 43.5928 59.0955C43.9837 60.1958 44.4663 60.8669 45.0975 61.2064C45.3081 61.3126 45.5386 61.3736 45.7743 61.3854C46.0099 61.3971 46.2454 61.3594 46.4655 61.2746C46.5845 61.2327 46.6926 61.1646 46.7819 61.0755C46.8712 60.9864 46.9393 60.8784 46.9814 60.7596C47.0014 60.6922 47.0418 60.6325 47.0971 60.5889C47.1524 60.5452 47.2198 60.5197 47.2901 60.5157C47.3608 60.5106 47.4313 60.5284 47.4911 60.5663C47.5509 60.6042 47.597 60.6604 47.6224 60.7264C50.9972 68.9357 49.7837 72.4317 48.6112 75.8106C48.3708 76.4973 48.1461 77.147 47.9604 77.8376C47.9057 78.06 48.2692 78.813 48.4724 78.8969C50.1081 79.2871 51.861 77.9214 52.7931 76.4993C55.0522 73.0599 56.2051 66.1752 55.4176 60.824C55.4107 60.7795 55.4126 60.7341 55.4233 60.6904C55.434 60.6467 55.4533 60.6055 55.48 60.5693C55.5067 60.533 55.5403 60.5024 55.5789 60.4791C55.6175 60.4559 55.6603 60.4405 55.7049 60.4338C55.7495 60.4266 55.795 60.4284 55.8389 60.4389C55.8828 60.4495 55.9242 60.4687 55.9605 60.4954C55.9969 60.5221 56.0276 60.5558 56.0508 60.5944C56.074 60.6331 56.0893 60.676 56.0957 60.7206C56.9165 66.3059 55.742 73.2491 53.3599 76.868C52.4199 78.3448 50.7803 79.6499 49.0665 79.6499Z" fill="black"/>
<path d="M82.9124 79.4389C82.7013 79.4418 82.4915 79.4068 82.2929 79.3355C81.7223 79.1151 81.1517 78.4849 81.6676 76.7369L81.6812 76.6901C82.3906 74.2984 83.1918 71.5886 82.1698 67.4196C81.6539 65.3165 80.9484 62.4351 79.6899 60.2131C79.6581 60.1367 79.6554 60.0513 79.6822 59.973C79.709 59.8947 79.7636 59.8289 79.8356 59.7879C79.9076 59.747 79.9921 59.7336 80.0732 59.7505C80.1543 59.7674 80.2265 59.8132 80.2762 59.8795C81.5777 62.1815 82.2968 65.1156 82.8166 67.2577C83.8836 71.6042 83.0531 74.4096 82.3202 76.8833L82.3066 76.9281C82.1112 77.6207 81.9744 78.4888 82.5254 78.7015C83.6002 79.1151 86.2912 77.4685 87.0201 75.9488C88.8472 72.1641 88.0812 62.2498 87.7548 58.0164C87.6865 57.1248 87.6356 56.481 87.6337 56.1826C87.6337 55.4549 87.6337 54.6979 87.6454 53.8961C87.6943 49.8695 87.7509 45.3123 85.6912 42.347C85.6508 42.2899 85.629 42.2218 85.629 42.1519C85.629 42.082 85.6508 42.0138 85.6912 41.9568C86.1641 41.2486 86.6468 40.5639 87.1139 39.9025C88.6108 37.7839 90.0237 35.7823 90.7272 33.5154C91.5362 30.9031 91.2685 27.1711 88.773 25.152C87.9678 24.5023 86.9243 24.0146 85.5837 23.6654C83.6389 23.1608 81.6114 23.0579 79.6254 23.363C83.0863 26.4844 84.3155 31.4026 82.6232 35.5618C82.1151 36.8026 81.4389 37.7214 80.6123 38.293C79.4769 39.0734 78.0328 39.2431 76.7664 39.3348C69.1374 39.8723 61.4778 38.8773 54.2406 36.4085C54.1553 36.379 54.0853 36.3169 54.0459 36.2359C54.0065 36.1548 54.0009 36.0615 54.0305 35.9764C54.06 35.8913 54.1222 35.8214 54.2034 35.782C54.2846 35.7427 54.3781 35.7372 54.4633 35.7667C61.6132 38.2058 69.1804 39.1896 76.7176 38.6598C77.9468 38.572 79.2307 38.4277 80.2234 37.739C80.9406 37.2415 81.5366 36.4241 81.992 35.3082C83.6686 31.2114 82.2909 26.3225 78.6444 23.4235C78.5934 23.3835 78.555 23.3298 78.5337 23.2686C78.5124 23.2075 78.5092 23.1415 78.5244 23.0786C78.5397 23.0157 78.5727 22.9584 78.6197 22.9138C78.6666 22.8691 78.7254 22.8388 78.789 22.8265C81.0948 22.3552 83.478 22.418 85.7557 23.0099C87.192 23.3845 88.3176 23.9132 89.2009 24.6252C91.9641 26.857 92.2866 30.7997 91.3818 33.7183C90.647 36.0886 89.2048 38.1311 87.6689 40.2966C87.2448 40.8955 86.809 41.512 86.3811 42.148C88.4251 45.283 88.3704 49.8559 88.3196 53.9C88.3196 54.696 88.3001 55.449 88.3079 56.1708C88.3079 56.4459 88.3587 57.08 88.4271 57.9578C88.7573 62.2498 89.5332 72.289 87.6278 76.2375C86.9243 77.7592 84.5207 79.4389 82.9124 79.4389Z" fill="black"/>
<path d="M61.0859 64.1289C60.8898 64.1287 60.6939 64.115 60.4997 64.0879C59.8934 64.0074 59.3165 63.7787 58.8201 63.422C58.3237 63.0653 57.9233 62.5918 57.6544 62.0434C57.6357 62.0029 57.6251 61.9592 57.6233 61.9146C57.6215 61.8701 57.6285 61.8256 57.644 61.7837C57.6594 61.7419 57.6829 61.7035 57.7132 61.6707C57.7435 61.6379 57.78 61.6115 57.8205 61.5928C57.8611 61.5741 57.9049 61.5635 57.9495 61.5617C57.9941 61.5599 58.0387 61.5669 58.0806 61.5823C58.1225 61.5977 58.161 61.6212 58.1938 61.6515C58.2267 61.6817 58.2532 61.7181 58.2719 61.7586C58.4962 62.202 58.825 62.5845 59.2301 62.873C59.6352 63.1615 60.1044 63.3475 60.5974 63.4149C61.6209 63.538 62.653 63.2674 63.4837 62.6579L63.5639 62.5994C63.7784 62.3879 64.0546 62.2497 64.3527 62.2048C64.6508 62.16 64.9555 62.2107 65.223 62.3497L65.266 62.3653C67.1283 63.054 69.3854 63.0988 71.7949 62.4941C73.9797 61.9439 76.057 60.9509 78.0659 59.9891C78.1472 59.9501 78.2408 59.9449 78.326 59.9747C78.4112 60.0045 78.4811 60.0669 78.5202 60.1481C78.5594 60.2294 78.5646 60.3228 78.5347 60.4079C78.5048 60.4929 78.4423 60.5626 78.361 60.6017C76.3208 61.5771 74.2122 62.5858 71.961 63.1515C69.4206 63.7914 67.0208 63.7368 65.0295 63.0013L64.9865 62.9857C64.8352 62.9149 64.6709 62.8757 64.5038 62.8706C64.3023 62.918 64.1156 63.0145 63.9606 63.1515L63.8765 63.212C63.0633 63.7976 62.0886 64.1178 61.0859 64.1289Z" fill="black"/>
<path d="M62.5584 55.0882C61.9064 55.0952 61.2599 54.9693 60.6583 54.718C60.0568 54.4667 59.5131 54.0955 59.0604 53.627C58.8153 53.3506 58.59 53.0572 58.3862 52.7491C58.1869 52.4478 57.9648 52.1621 57.7218 51.8946C57.3075 51.4654 56.6548 51.1299 56.1233 51.3444C55.8727 51.4723 55.6486 51.6464 55.4628 51.8575C55.3181 52.0077 55.1634 52.1478 54.9997 52.277C54.5195 52.6165 53.9387 52.7845 53.3511 52.7537C52.7635 52.7229 52.2034 52.4951 51.7616 52.1072L51.7303 52.076C50.2236 50.3788 49.1039 48.1392 48.4082 45.4177C47.7848 43.0142 47.5464 40.5171 47.3158 38.1019C47.3118 38.0149 47.3415 37.9297 47.3987 37.8639C47.456 37.7982 47.5363 37.7569 47.6232 37.7486C47.71 37.7403 47.7968 37.7657 47.8654 37.8195C47.934 37.8733 47.9793 37.9513 47.9919 38.0375C48.2206 40.4274 48.457 42.8972 49.0667 45.2558C49.7409 47.8641 50.806 50.0022 52.2325 51.6156C52.5584 51.8922 52.9662 52.0544 53.3934 52.0773C53.8205 52.1002 54.2434 51.9826 54.5971 51.7424C54.7354 51.6318 54.866 51.5119 54.9879 51.3835C55.2339 51.1063 55.5337 50.882 55.8693 50.7241C56.7525 50.3651 57.6847 50.8821 58.2143 51.4322C58.4821 51.7248 58.7264 52.0379 58.9451 52.3687C59.1322 52.6511 59.3385 52.9203 59.5627 53.1744C59.9656 53.5867 60.4506 53.9102 60.9865 54.1239C61.5223 54.3376 62.0971 54.4368 62.6737 54.4151C63.8584 54.357 64.9944 53.9269 65.9196 53.1861C66.0818 53.0593 66.2382 52.9266 66.3965 52.7959C66.755 52.4677 67.1481 52.1792 67.569 51.9356C68.3702 51.5083 69.2652 51.4186 70.1309 51.3308C70.4827 51.2937 70.8481 51.2567 71.194 51.1981C73.455 50.808 75.6026 49.2902 77.0878 47.033C78.2857 45.2129 79.083 42.9674 79.5989 39.967C79.6147 39.8789 79.6645 39.8005 79.7376 39.7486C79.8107 39.6968 79.9013 39.6757 79.9898 39.6899C80.0337 39.6973 80.0758 39.7132 80.1135 39.7368C80.1513 39.7604 80.184 39.7912 80.2098 39.8274C80.2355 39.8637 80.2539 39.9047 80.2638 39.948C80.2737 39.9914 80.2748 40.0363 80.2673 40.0801C79.7357 43.1761 78.8993 45.5035 77.6545 47.4056C76.0658 49.8169 73.7462 51.442 71.3073 51.8653C70.938 51.9297 70.5628 51.9668 70.1973 52.0038C69.3609 52.0897 68.5715 52.1697 67.8855 52.5325C67.506 52.7548 67.151 53.0164 66.8264 53.3129C66.6622 53.4533 66.4961 53.5918 66.3261 53.7245C65.2863 54.5514 64.0115 55.0293 62.6835 55.0901L62.5584 55.0882Z" fill="black"/>
<path d="M53.8575 48.9787C53.7922 48.9794 53.728 48.9614 53.6726 48.9268C53.6172 48.8923 53.5728 48.8426 53.5448 48.7836C52.0626 45.4236 51.1386 41.845 50.809 38.1884C50.805 38.144 50.8098 38.0992 50.8232 38.0566C50.8365 38.014 50.8582 37.9745 50.8869 37.9402C50.9155 37.906 50.9507 37.8777 50.9903 37.857C51.0299 37.8364 51.0732 37.8237 51.1177 37.8197C51.1622 37.8157 51.2071 37.8206 51.2498 37.8339C51.2924 37.8472 51.3321 37.8688 51.3664 37.8975C51.4007 37.9261 51.4289 37.9612 51.4497 38.0007C51.4704 38.0403 51.4831 38.0835 51.4871 38.1279C51.8108 41.7067 52.7164 45.2088 54.1682 48.4968C54.2044 48.5791 54.2063 48.6723 54.1737 48.7561C54.1411 48.8398 54.0766 48.9073 53.9943 48.9436C53.9516 48.9646 53.905 48.9766 53.8575 48.9787Z" fill="white"/>
<path d="M55.9158 44.1535C55.8455 44.1532 55.7771 44.1314 55.7197 44.0909C55.6624 44.0504 55.6189 43.9932 55.5953 43.9272C54.9637 42.1273 54.45 40.2883 54.0573 38.4219C54.0455 38.3774 54.0428 38.3309 54.0495 38.2854C54.0562 38.2398 54.0721 38.1961 54.0962 38.1569C54.1204 38.1176 54.1523 38.0837 54.19 38.0572C54.2277 38.0306 54.2704 38.012 54.3155 38.0025C54.3606 37.9929 54.4072 37.9927 54.4524 38.0017C54.4977 38.0107 54.5406 38.0288 54.5786 38.0549C54.6166 38.081 54.6489 38.1145 54.6735 38.1535C54.6981 38.1924 54.7145 38.2359 54.7218 38.2814C55.11 40.1186 55.6165 41.9289 56.2382 43.7009C56.2676 43.7861 56.2621 43.8793 56.223 43.9605C56.1838 44.0416 56.1141 44.104 56.0291 44.134C55.9928 44.1473 55.9544 44.1539 55.9158 44.1535Z" fill="white"/>
<path d="M57.655 48.8726C57.5988 48.8729 57.5434 48.8591 57.4939 48.8325C57.4444 48.806 57.4024 48.7674 57.3717 48.7204C56.8531 47.9413 56.4766 47.0767 56.2597 46.1667C56.2436 46.0811 56.2611 45.9926 56.3086 45.9195C56.3561 45.8464 56.4298 45.7943 56.5147 45.774C56.5996 45.7537 56.689 45.7667 56.7645 45.8104C56.84 45.8541 56.8957 45.9251 56.9203 46.0087C57.1198 46.8425 57.4644 47.6349 57.9384 48.3497C57.9881 48.4248 58.0059 48.5164 57.988 48.6046C57.97 48.6928 57.9177 48.7702 57.8426 48.8199C57.7868 48.8559 57.7215 48.8743 57.655 48.8726Z" fill="white"/>
<path d="M63.1808 51.6764C63.1236 51.6766 63.0673 51.6624 63.0171 51.6351C62.9669 51.6078 62.9244 51.5683 62.8935 51.5203C60.591 47.9067 58.8509 43.9653 57.7325 39.8307C57.709 39.7437 57.7209 39.651 57.7658 39.5729C57.8107 39.4948 57.8848 39.4377 57.9719 39.4142C58.059 39.3906 58.1519 39.4026 58.2301 39.4474C58.3083 39.4922 58.3656 39.5662 58.3891 39.6531C59.4889 43.7246 61.2021 47.6057 63.47 51.1633C63.4942 51.2008 63.5107 51.2426 63.5186 51.2865C63.5265 51.3304 63.5256 51.3754 63.516 51.4189C63.5064 51.4625 63.4882 51.5037 63.4625 51.5402C63.4369 51.5766 63.4042 51.6077 63.3664 51.6315C63.3099 51.6634 63.2457 51.6789 63.1808 51.6764Z" fill="white"/>
<path d="M67.0678 49.7999C67.0208 49.7998 66.9744 49.7901 66.9313 49.7713C66.8883 49.7525 66.8496 49.725 66.8177 49.6906C64.2844 46.9617 62.4071 43.6926 61.3283 40.1314C61.3133 40.0881 61.3072 40.0423 61.3104 39.9966C61.3136 39.9509 61.326 39.9064 61.3468 39.8656C61.3677 39.8248 61.3966 39.7887 61.4319 39.7594C61.4671 39.7301 61.5079 39.7082 61.5518 39.695C61.5957 39.6818 61.6418 39.6777 61.6874 39.6828C61.733 39.6879 61.7771 39.7021 61.817 39.7246C61.8569 39.7472 61.8918 39.7776 61.9197 39.8139C61.9475 39.8503 61.9678 39.8919 61.9791 39.9363C63.0304 43.3987 64.8582 46.5765 67.3238 49.2283C67.3683 49.2769 67.3977 49.3373 67.4086 49.4023C67.4194 49.4672 67.4113 49.5339 67.385 49.5943C67.3588 49.6547 67.3156 49.7062 67.2607 49.7427C67.2058 49.7792 67.1415 49.7991 67.0756 49.7999H67.0678Z" fill="white"/>
<path d="M70.7125 48.8868C70.6683 48.8871 70.6245 48.8786 70.5835 48.8619C70.5426 48.8451 70.5054 48.8204 70.4741 48.7892C68.2296 46.5645 66.5116 43.867 65.446 40.894C65.4299 40.8518 65.4224 40.8067 65.424 40.7615C65.4257 40.7163 65.4363 40.6718 65.4554 40.6308C65.4744 40.5898 65.5015 40.5529 65.535 40.5225C65.5685 40.492 65.6078 40.4686 65.6505 40.4535C65.6932 40.4384 65.7385 40.432 65.7837 40.4347C65.829 40.4373 65.8732 40.449 65.9139 40.4689C65.9546 40.4889 65.9908 40.5167 66.0205 40.5509C66.0503 40.585 66.0728 40.6248 66.087 40.6677C67.1194 43.544 68.7817 46.154 70.9529 48.3074C71.0025 48.3545 71.0367 48.4155 71.051 48.4823C71.0653 48.5492 71.059 48.6188 71.0331 48.682C71.0071 48.7452 70.9626 48.7992 70.9054 48.8368C70.8482 48.8743 70.781 48.8938 70.7125 48.8926V48.8868Z" fill="white"/>
<path d="M71.4279 44.0599C71.3716 44.0598 71.3161 44.0457 71.2666 44.0188C71.2171 43.9919 71.1752 43.953 71.1446 43.9058L69.5108 41.4204C69.4613 41.3451 69.4439 41.2533 69.4622 41.1651C69.4805 41.0769 69.5331 40.9996 69.6085 40.9502C69.684 40.9008 69.7759 40.8833 69.8643 40.9016C69.9526 40.9199 70.03 40.9725 70.0795 41.0478L71.7132 43.5332C71.7622 43.6086 71.7795 43.7003 71.7612 43.7883C71.7429 43.8763 71.6905 43.9536 71.6155 44.0033C71.56 44.0405 71.4947 44.0602 71.4279 44.0599Z" fill="white"/>
<path d="M74.5545 48.2389C74.507 48.2393 74.46 48.2295 74.4165 48.2103C74.3731 48.1912 74.3342 48.163 74.3024 48.1277L72.5788 46.2257C72.5465 46.193 72.5211 46.1542 72.5042 46.1116C72.4873 46.0689 72.4793 46.0232 72.4806 45.9774C72.4819 45.9315 72.4925 45.8864 72.5117 45.8447C72.531 45.8031 72.5585 45.7657 72.5926 45.735C72.6267 45.7042 72.6667 45.6807 72.7102 45.6658C72.7537 45.6509 72.7997 45.645 72.8455 45.6484C72.8913 45.6518 72.936 45.6644 72.9768 45.6855C73.0176 45.7066 73.0537 45.7357 73.083 45.7711L74.8066 47.6712C74.85 47.7202 74.8784 47.7806 74.8885 47.8453C74.8985 47.91 74.8897 47.9761 74.8632 48.0359C74.8366 48.0957 74.7934 48.1467 74.7387 48.1827C74.6839 48.2187 74.62 48.2382 74.5545 48.2389Z" fill="white"/>
<path d="M76.5901 44.864C76.5155 44.8644 76.4427 44.8405 76.383 44.7957C75.2427 43.9264 74.2677 42.8599 73.5045 41.647C73.4793 41.6094 73.4619 41.5671 73.4534 41.5226C73.4448 41.4781 73.4453 41.4324 73.4547 41.3881C73.4641 41.3438 73.4823 41.3019 73.5082 41.2647C73.5341 41.2276 73.5672 41.1959 73.6055 41.1717C73.6438 41.1475 73.6866 41.1312 73.7313 41.1238C73.7761 41.1163 73.8219 41.1179 73.866 41.1284C73.9101 41.1388 73.9517 41.158 73.9883 41.1848C74.0248 41.2115 74.0557 41.2453 74.079 41.2842C74.8 42.4287 75.7206 43.435 76.7972 44.2553C76.8536 44.2985 76.895 44.3583 76.9156 44.4261C76.9362 44.494 76.935 44.5666 76.9121 44.6338C76.8893 44.7009 76.8459 44.7592 76.7882 44.8005C76.7304 44.8418 76.6612 44.864 76.5901 44.864Z" fill="white"/>
<path d="M23.4836 30.1291C23.7728 29.9476 24.7499 30.2851 25.684 29.2043C26.4247 28.344 26.6338 27.0467 26.325 26.4224C26.1589 26.083 23.1983 26.9394 22.7078 27.6358C22.2173 28.3323 22.9638 30.451 23.4836 30.1291Z" fill="black"/>
<path d="M36.3069 40.8688C38.1399 40.7068 39.8948 40.0123 41.4698 39.0623C43.0449 38.1122 44.4539 36.9163 45.8101 35.6755C45.1067 35.2312 44.5808 34.5557 44.323 33.7656C41.7083 35.578 38.9822 37.4391 35.8828 38.1707C35.9903 39.033 36.0978 39.8953 36.3069 40.8688Z" fill="black"/>
</g>
<defs>
<clipPath id="clip0_1_1529">
<rect width="115" height="88" fill="white" transform="translate(0.967773 0.573242)"/>
</clipPath>
</defs>
</svg>
