<svg width="89" height="86" viewBox="0 0 89 86" fill="none" xmlns="http://www.w3.org/2000/svg">
<g clip-path="url(#clip0_1_829)">
<path d="M84.5053 41.8402C84.5053 21.1266 66.6141 4.33203 44.548 4.33203C22.474 4.33203 4.59082 21.1266 4.59082 41.8402C4.59082 54.2353 11.0051 65.2265 20.8824 72.0584H13.6524C9.70144 72.0584 6.46232 75.0915 6.46232 78.8078V78.8453C6.46232 82.5541 9.69344 85.5947 13.6524 85.5947H75.4437C79.3946 85.5947 82.6338 82.5616 82.6338 78.8453V78.8078C82.6338 75.099 79.4026 72.0584 75.4437 72.0584H68.2137C78.091 65.2265 84.5053 54.2428 84.5053 41.8402Z" fill="url(#paint0_linear_1_829)"/>
<path d="M75.5558 86.0001H11.9089C9.85349 86.0001 8.42188 84.2959 8.42188 82.7718C8.42188 80.8274 10.0614 79.6637 11.645 79.6637C11.8849 79.6637 12.0769 79.8439 12.0769 80.0691C12.0769 80.2943 11.8849 80.4745 11.645 80.4745C10.4853 80.4745 9.28564 81.3379 9.28564 82.7718C9.28564 83.7854 10.2854 85.1893 11.9089 85.1893H75.5558C79.5227 85.1893 82.4019 82.4866 82.4019 78.7628C82.4019 75.039 79.3308 72.3362 75.5558 72.3362H34.8308C32.4394 72.3362 30.4959 70.5119 30.4959 68.2671V67.1935C30.4959 66.9683 30.6879 66.7881 30.9278 66.7881C31.1677 66.7881 31.3597 66.9683 31.3597 67.1935V68.2671C31.3597 70.0614 32.9193 71.5254 34.8308 71.5254H75.5638C79.8186 71.5254 83.2737 74.7762 83.2737 78.7628C83.2737 82.9595 80.0346 86.0001 75.5638 86.0001H75.5558Z" fill="white"/>
<path d="M13.7403 78.9503C14.1482 79.1531 14.3561 79.4759 14.3561 79.9038C14.3561 80.2642 14.2121 80.557 13.9162 80.7822C13.6283 81.0074 13.2524 81.1201 12.7885 81.1201C11.9887 81.1201 11.4529 80.8047 11.189 80.1666L11.9168 79.7837C12.0447 80.1741 12.3407 80.3693 12.7885 80.3693C13.0205 80.3693 13.1964 80.3242 13.3244 80.2341C13.4444 80.1441 13.5083 80.0164 13.5083 79.8588C13.5083 79.7011 13.4444 79.5735 13.3244 79.4834C13.2044 79.3933 13.0285 79.3482 12.8045 79.3482H12.2687V78.6425H12.6766C12.8925 78.6425 13.0525 78.5975 13.1724 78.5149C13.2924 78.4248 13.3484 78.3122 13.3484 78.162C13.3484 78.0119 13.3004 77.8918 13.1964 77.8092C13.0925 77.7191 12.9405 77.6816 12.7405 77.6816C12.3726 77.6816 12.1167 77.8542 11.9648 78.1921L11.245 77.8017C11.5329 77.2311 12.0367 76.9458 12.7405 76.9458C13.1644 76.9458 13.5163 77.0509 13.7883 77.2686C14.0602 77.4864 14.1962 77.7716 14.1962 78.1245C14.1962 78.4774 14.0442 78.7702 13.7323 78.9804L13.7403 78.9503Z" fill="white"/>
<path d="M18.9707 80.5042C18.5388 80.9096 18.011 81.1123 17.3872 81.1123C16.7633 81.1123 16.2355 80.9096 15.8036 80.5042C15.3717 80.0988 15.1558 79.6033 15.1558 79.0177C15.1558 78.4321 15.3717 77.9366 15.8036 77.5236C16.2355 77.1107 16.7633 76.9155 17.3872 76.9155C18.011 76.9155 18.5388 77.1182 18.9707 77.5236C19.4026 77.9291 19.6186 78.4246 19.6186 79.0177C19.6186 79.6108 19.4026 80.0988 18.9707 80.5042ZM16.3954 79.9636C16.6594 80.2114 16.9873 80.339 17.3872 80.339C17.7871 80.339 18.107 80.2114 18.3789 79.9636C18.6428 79.7159 18.7788 79.4006 18.7788 79.0177C18.7788 78.6348 18.6428 78.3195 18.3789 78.0642C18.115 77.8164 17.7871 77.6888 17.3872 77.6888C16.9873 77.6888 16.6674 77.8164 16.3954 78.0642C16.1315 78.312 15.9955 78.6348 15.9955 79.0177C15.9955 79.4006 16.1315 79.7159 16.3954 79.9636Z" fill="white"/>
<path d="M24.2735 80.5042C23.8416 80.9096 23.3137 81.1123 22.6899 81.1123C22.0661 81.1123 21.5382 80.9096 21.1063 80.5042C20.6744 80.0988 20.4585 79.6033 20.4585 79.0177C20.4585 78.4321 20.6744 77.9366 21.1063 77.5236C21.5382 77.1107 22.0661 76.9155 22.6899 76.9155C23.3137 76.9155 23.8416 77.1182 24.2735 77.5236C24.7054 77.9291 24.9213 78.4246 24.9213 79.0177C24.9213 79.6108 24.7054 80.0988 24.2735 80.5042ZM21.6982 79.9636C21.9621 80.2114 22.29 80.339 22.6899 80.339C23.0898 80.339 23.4097 80.2114 23.6816 79.9636C23.9456 79.7159 24.0815 79.4006 24.0815 79.0177C24.0815 78.6348 23.9456 78.3195 23.6816 78.0642C23.4177 77.8164 23.0898 77.6888 22.6899 77.6888C22.298 77.6888 21.9701 77.8164 21.6982 78.0642C21.4342 78.312 21.2983 78.6348 21.2983 79.0177C21.2983 79.4006 21.4342 79.7159 21.6982 79.9636Z" fill="white"/>
<path d="M29.1761 76.998V81.0372H28.3283V77.7638H26.8087V81.0372H25.9609V76.998H29.1761Z" fill="white"/>
<path d="M32.0234 76.9982C32.4393 76.9982 32.7832 77.1259 33.0711 77.3886C33.351 77.6514 33.495 77.9742 33.495 78.3496C33.495 78.725 33.351 79.0478 33.0711 79.3106C32.7912 79.5733 32.4393 79.701 32.0234 79.701H31.2716V81.0298H30.4238V76.9907H32.0234V76.9982ZM32.0234 78.9652C32.2073 78.9652 32.3513 78.9052 32.4713 78.7926C32.5912 78.6724 32.6472 78.5298 32.6472 78.3571C32.6472 78.1844 32.5912 78.0343 32.4713 77.9217C32.3513 77.8091 32.1993 77.749 32.0234 77.749H31.2716V78.9727H32.0234V78.9652Z" fill="white"/>
<path d="M38.0699 80.5042C37.638 80.9096 37.1101 81.1123 36.4863 81.1123C35.8624 81.1123 35.3346 80.9096 34.9027 80.5042C34.4708 80.0988 34.2549 79.6033 34.2549 79.0177C34.2549 78.4321 34.4708 77.9366 34.9027 77.5236C35.3346 77.1107 35.8624 76.9155 36.4863 76.9155C37.1101 76.9155 37.638 77.1182 38.0699 77.5236C38.5017 77.9291 38.7177 78.4246 38.7177 79.0177C38.7177 79.6108 38.5017 80.0988 38.0699 80.5042ZM35.4945 79.9636C35.7585 80.2114 36.0864 80.339 36.4863 80.339C36.8862 80.339 37.2061 80.2114 37.478 79.9636C37.7419 79.7159 37.8779 79.4006 37.8779 79.0177C37.8779 78.6348 37.7419 78.3195 37.478 78.0642C37.2141 77.8164 36.8862 77.6888 36.4863 77.6888C36.0864 77.6888 35.7665 77.8164 35.4945 78.0642C35.2306 78.312 35.0947 78.6348 35.0947 79.0177C35.0947 79.4006 35.2306 79.7159 35.4945 79.9636Z" fill="white"/>
<path d="M41.7968 81.1123C41.149 81.1123 40.6131 80.9096 40.1973 80.5042C39.7734 80.0988 39.5654 79.6033 39.5654 79.0102C39.5654 78.4171 39.7734 77.914 40.1973 77.5161C40.6211 77.1182 41.157 76.9155 41.7968 76.9155C42.1887 76.9155 42.5486 76.9981 42.8765 77.1708C43.2044 77.3435 43.4604 77.5762 43.6443 77.869L42.9165 78.2669C42.8126 78.0867 42.6606 77.9441 42.4606 77.8465C42.2607 77.7414 42.0448 77.6963 41.7968 77.6963C41.3809 77.6963 41.045 77.8164 40.7891 78.0642C40.5332 78.312 40.4052 78.6273 40.4052 79.0177C40.4052 79.4081 40.5332 79.7234 40.7891 79.9711C41.045 80.2189 41.3809 80.339 41.7968 80.339C42.0448 80.339 42.2607 80.2865 42.4606 80.1889C42.6606 80.0838 42.8126 79.9486 42.9085 79.7684L43.6363 80.1663C43.4524 80.4591 43.1964 80.6919 42.8685 80.8645C42.5406 81.0372 42.1807 81.1198 41.7888 81.1198L41.7968 81.1123Z" fill="white"/>
<path d="M47.435 76.998V77.7563H46.2753V81.0297H45.4276V77.7563H44.2759V76.998H47.435Z" fill="white"/>
<path d="M49.9545 76.9982C50.3704 76.9982 50.7143 77.1259 51.0023 77.3886C51.2822 77.6514 51.4262 77.9742 51.4262 78.3496C51.4262 78.725 51.2822 79.0478 51.0023 79.3106C50.7223 79.5733 50.3704 79.701 49.9545 79.701H49.2028V81.0298H48.355V76.9907H49.9545V76.9982ZM49.9545 78.9652C50.1385 78.9652 50.2825 78.9052 50.4024 78.7926C50.5224 78.6724 50.5784 78.5298 50.5784 78.3571C50.5784 78.1844 50.5224 78.0343 50.4024 77.9217C50.2825 77.8091 50.1305 77.749 49.9545 77.749H49.2028V78.9727H49.9545V78.9652Z" fill="white"/>
<path d="M54.745 81.0372L54.4891 80.3089H52.7775L52.5216 81.0372H51.6099L53.1135 76.998H54.1612L55.6728 81.0372H54.753H54.745ZM53.0415 79.5657H54.2172L53.6253 77.914L53.0335 79.5657H53.0415Z" fill="white"/>
<path d="M58.9679 76.998H59.8076V81.0372H58.9679V79.363H57.3683V81.0372H56.5205V76.998H57.3683V78.5972H58.9679V76.998Z" fill="white"/>
<path d="M63.0869 81.1123C62.439 81.1123 61.9032 80.9096 61.4873 80.5042C61.0634 80.0988 60.8555 79.6033 60.8555 79.0102C60.8555 78.4171 61.0634 77.914 61.4873 77.5161C61.9112 77.1182 62.447 76.9155 63.0869 76.9155C63.4788 76.9155 63.8387 76.9981 64.1666 77.1708C64.4945 77.3435 64.7504 77.5762 64.9344 77.869L64.2066 78.2669C64.1026 78.0867 63.9506 77.9441 63.7507 77.8465C63.5507 77.7414 63.3348 77.6963 63.0869 77.6963C62.671 77.6963 62.3351 77.8164 62.0791 78.0642C61.8232 78.312 61.6952 78.6273 61.6952 79.0177C61.6952 79.4081 61.8232 79.7234 62.0791 79.9711C62.3351 80.2189 62.671 80.339 63.0869 80.339C63.3348 80.339 63.5507 80.2865 63.7507 80.1889C63.9506 80.0838 64.1026 79.9486 64.1986 79.7684L64.9264 80.1663C64.7424 80.4591 64.4865 80.6919 64.1586 80.8645C63.8307 81.0372 63.4708 81.1198 63.0789 81.1198L63.0869 81.1123Z" fill="white"/>
<path d="M68.7256 76.998V77.7563H67.5659V81.0297H66.7181V77.7563H65.5664V76.998H68.7256Z" fill="white"/>
<path d="M72.2446 78.9425C72.6205 79.1452 72.8125 79.453 72.8125 79.866C72.8125 80.2113 72.6845 80.4891 72.4286 80.7068C72.1726 80.9245 71.8527 81.0372 71.4768 81.0372H69.6533V76.998H71.3489C71.7168 76.998 72.0287 77.1032 72.2766 77.3209C72.5246 77.5386 72.6525 77.8089 72.6525 78.1392C72.6525 78.4695 72.5166 78.7398 72.2446 78.95V78.9425ZM71.3409 77.7413H70.4931V78.6272H71.3409C71.4688 78.6272 71.5808 78.5822 71.6688 78.4996C71.7568 78.417 71.8047 78.3119 71.8047 78.1843C71.8047 78.0566 71.7648 77.9515 71.6768 77.8689C71.5888 77.7864 71.4768 77.7413 71.3489 77.7413H71.3409ZM71.4688 80.2864C71.6128 80.2864 71.7328 80.2414 71.8287 80.1513C71.9247 80.0612 71.9727 79.9486 71.9727 79.8059C71.9727 79.6633 71.9247 79.5582 71.8287 79.4681C71.7328 79.378 71.6128 79.3329 71.4688 79.3329H70.4931V80.2864H71.4688Z" fill="white"/>
<path d="M77.419 80.5042C76.9871 80.9096 76.4592 81.1123 75.8354 81.1123C75.2116 81.1123 74.6837 80.9096 74.2518 80.5042C73.8199 80.0988 73.604 79.6033 73.604 79.0177C73.604 78.4321 73.8199 77.9366 74.2518 77.5236C74.6837 77.1107 75.2116 76.9155 75.8354 76.9155C76.4592 76.9155 76.9871 77.1182 77.419 77.5236C77.8509 77.9291 78.0668 78.4246 78.0668 79.0177C78.0668 79.6033 77.8509 80.0988 77.419 80.5042ZM74.8437 79.9636C75.1076 80.2114 75.4355 80.339 75.8354 80.339C76.2353 80.339 76.5552 80.2114 76.8271 79.9636C77.0911 79.7159 77.227 79.4006 77.227 79.0177C77.227 78.6348 77.0911 78.3195 76.8271 78.0642C76.5632 77.8164 76.2353 77.6888 75.8354 77.6888C75.4355 77.6888 75.1156 77.8164 74.8437 78.0642C74.5797 78.312 74.4438 78.6348 74.4438 79.0177C74.4438 79.4006 74.5797 79.7159 74.8437 79.9636Z" fill="white"/>
<path d="M29.4883 34.9256C29.0244 35.2784 28.3446 35.4586 27.4728 35.4586C25.8253 35.4586 24.7856 34.7604 24.3777 33.379C24.3777 33.364 24.3617 33.3565 24.3457 33.349C24.3297 33.349 24.3137 33.349 24.3057 33.349L22.2982 34.4376C22.2982 34.4376 22.2662 34.4751 22.2742 34.4976C23.114 36.5622 24.8655 37.6133 27.4728 37.6133C28.9924 37.6133 30.2401 37.2379 31.1838 36.5097C32.1276 35.7739 32.6154 34.8055 32.6154 33.6268C32.6154 32.1402 31.9036 31.0591 30.496 30.406C31.5517 29.7528 32.0876 28.7918 32.0876 27.5531C32.0876 26.4119 31.6477 25.4735 30.7759 24.7677C29.9042 24.062 28.7525 23.7017 27.3529 23.7017C25.0415 23.7017 23.4019 24.6476 22.4822 26.5095C22.4742 26.532 22.4822 26.5546 22.4982 26.5696L24.4896 27.6582C24.4896 27.6582 24.5136 27.6657 24.5296 27.6582C24.5456 27.6582 24.5536 27.6432 24.5616 27.6282C25.0415 26.4495 25.9772 25.8488 27.3529 25.8488C28.0967 25.8488 28.6725 26.014 29.0644 26.3443C29.4563 26.6672 29.6562 27.1176 29.6562 27.6732C29.6562 28.2288 29.4403 28.6792 29.0084 29.0096C28.5765 29.3474 27.9527 29.5126 27.1769 29.5126H25.9212C25.9212 29.5126 25.8733 29.5351 25.8733 29.5576V31.5396C25.8733 31.5396 25.8973 31.5847 25.9212 31.5847H27.6488C28.4566 31.5847 29.0884 31.7649 29.5363 32.1177C29.9762 32.4706 30.2001 32.9436 30.2001 33.5217C30.2001 34.0997 29.9682 34.5952 29.5043 34.9406L29.4883 34.9256Z" fill="white"/>
<path d="M44.2919 28.9572C43.2522 27.9887 41.9565 27.4932 40.4529 27.4932C38.9493 27.4932 37.6697 27.9812 36.622 28.9572C35.5742 29.9256 35.0464 31.1344 35.0464 32.5533C35.0464 33.9723 35.5742 35.181 36.622 36.1495C37.6697 37.118 38.9573 37.6135 40.4529 37.6135C41.9485 37.6135 43.2522 37.1255 44.2919 36.1495C45.3316 35.181 45.8595 33.9723 45.8595 32.5533C45.8595 31.1344 45.3316 29.9256 44.2919 28.9572ZM42.6683 34.6705C42.0685 35.2335 41.3247 35.5113 40.4529 35.5113C39.5812 35.5113 38.8294 35.226 38.2375 34.6705C37.6377 34.1074 37.3418 33.3942 37.3418 32.5533C37.3418 31.7125 37.6457 30.9917 38.2375 30.4362C38.8374 29.8731 39.5812 29.5953 40.4529 29.5953C41.3247 29.5953 42.0765 29.8806 42.6683 30.4362C43.2682 30.9992 43.5641 31.7125 43.5641 32.5533C43.5641 33.3942 43.2602 34.1149 42.6683 34.6705Z" fill="white"/>
<path d="M59.2081 32.5533C59.2081 31.1344 58.6802 29.9256 57.6405 28.9572C56.6008 27.9887 55.3052 27.4932 53.8016 27.4932C52.298 27.4932 51.0183 27.9812 49.9706 28.9572C48.9229 29.9256 48.395 31.1344 48.395 32.5533C48.395 33.9723 48.9229 35.181 49.9706 36.1495C51.0183 37.118 52.306 37.6135 53.8016 37.6135C55.2972 37.6135 56.6008 37.1255 57.6405 36.1495C58.6802 35.181 59.2081 33.9723 59.2081 32.5533ZM56.017 34.6705C55.4171 35.2335 54.6733 35.5113 53.8016 35.5113C52.9298 35.5113 52.178 35.226 51.5862 34.6705C50.9863 34.1074 50.6904 33.3942 50.6904 32.5533C50.6904 31.7125 50.9943 30.9917 51.5862 30.4362C52.186 29.8731 52.9298 29.5953 53.8016 29.5953C54.6733 29.5953 55.4251 29.8806 56.017 30.4362C56.6168 30.9992 56.9127 31.7125 56.9127 32.5533C56.9127 33.3942 56.6088 34.1149 56.017 34.6705Z" fill="white"/>
<path d="M36.4381 42.6059C36.782 42.6059 37.1019 42.681 37.3818 42.8236C37.6617 42.9663 37.8777 43.169 38.0216 43.4242C38.0216 43.4317 38.0376 43.4467 38.0536 43.4467C38.0696 43.4467 38.0776 43.4467 38.0936 43.4467L39.1573 42.8687C39.1573 42.8687 39.1733 42.8536 39.1813 42.8386C39.1813 42.8236 39.1813 42.8161 39.1813 42.8011C38.9094 42.3731 38.5255 42.0203 38.0376 41.7725C37.5498 41.5173 37.0139 41.3896 36.4381 41.3896C35.4863 41.3896 34.6865 41.69 34.0627 42.2831C33.4389 42.8762 33.127 43.6194 33.127 44.4978C33.127 45.3762 33.4389 46.112 34.0627 46.7051C34.6865 47.2982 35.4863 47.5985 36.4381 47.5985C37.0139 47.5985 37.5578 47.4708 38.0376 47.2156C38.5175 46.9603 38.9014 46.615 39.1733 46.187C39.1733 46.1795 39.1813 46.1645 39.1733 46.1495C39.1733 46.1345 39.1653 46.127 39.1493 46.1195L38.0856 45.5414C38.0856 45.5414 38.0616 45.5339 38.0456 45.5414C38.0296 45.5414 38.0216 45.5564 38.0136 45.5639C37.8697 45.8116 37.6537 46.0144 37.3738 46.157C37.0939 46.2996 36.774 46.3747 36.4221 46.3747C35.8302 46.3747 35.3424 46.202 34.9825 45.8492C34.6226 45.5038 34.4386 45.0459 34.4386 44.4978C34.4386 43.9498 34.6226 43.4843 34.9825 43.1314C35.3424 42.7861 35.8302 42.6059 36.4221 42.6059H36.4381Z" fill="white"/>
<path d="M41.6286 47.4858H42.8683C42.8683 47.4858 42.9162 47.4633 42.9162 47.4408V42.711H44.5558C44.5558 42.711 44.6038 42.6885 44.6038 42.6659V41.5548C44.6038 41.5548 44.5798 41.5098 44.5558 41.5098H39.9411C39.9411 41.5098 39.8931 41.5323 39.8931 41.5548V42.6659C39.8931 42.6659 39.9171 42.711 39.9411 42.711H41.5726V47.4408C41.5726 47.4408 41.5966 47.4858 41.6206 47.4858H41.6286Z" fill="white"/>
<path d="M46.9152 46.1794C46.7152 46.292 46.4593 46.3295 46.1314 46.307C46.1154 46.307 46.1074 46.307 46.0914 46.322C46.0834 46.3295 46.0754 46.3446 46.0754 46.3596V47.4407C46.0754 47.4407 46.0994 47.4857 46.1234 47.4857C46.1794 47.4857 46.2434 47.4857 46.2994 47.4857C47.3711 47.4857 48.1629 46.9302 48.6427 45.8265L50.5222 41.5622C50.5222 41.5622 50.5222 41.5322 50.5222 41.5172C50.5222 41.5021 50.4982 41.4946 50.4822 41.4946H49.2426C49.2426 41.4946 49.2026 41.5096 49.1946 41.5247L48.0029 44.2649L46.6832 41.5247C46.6832 41.5247 46.6593 41.4946 46.6353 41.4946H45.3956C45.3956 41.4946 45.3636 41.5021 45.3556 41.5172C45.3476 41.5322 45.3476 41.5472 45.3556 41.5622L47.3951 45.6539C47.2671 45.8941 47.0991 46.0668 46.9072 46.1719L46.9152 46.1794Z" fill="white"/>
<path d="M55.3531 48.612H56.5927C56.5927 48.612 56.6407 48.5895 56.6407 48.5669V46.3297C56.6407 46.3297 56.6167 46.2846 56.5927 46.2846H55.9689V41.5548C55.9689 41.5548 55.9449 41.5098 55.9209 41.5098H51.786C51.786 41.5098 51.7381 41.5323 51.7381 41.5548V44.3401C51.7381 45.1885 51.5701 45.8417 51.2422 46.2846H50.6583C50.6583 46.2846 50.6104 46.3071 50.6104 46.3297V48.5669C50.6104 48.5669 50.6343 48.612 50.6583 48.612H51.898C51.898 48.612 51.946 48.5895 51.946 48.5669V47.4858H55.3131V48.5669C55.3131 48.5669 55.3371 48.612 55.3611 48.612H55.3531ZM54.6333 42.681V46.2771H52.6738C52.9377 45.8116 53.0657 45.166 53.0657 44.3477V42.681H54.6333Z" fill="white"/>
<path d="M62.8152 41.5024H61.8714C61.8714 41.5024 61.8394 41.5024 61.8314 41.525L59.2321 45.001V41.5475C59.2321 41.5475 59.2081 41.5024 59.1841 41.5024H57.9445C57.9445 41.5024 57.8965 41.525 57.8965 41.5475V47.4335C57.8965 47.4335 57.9205 47.4785 57.9445 47.4785H58.8882C58.8882 47.4785 58.9202 47.4785 58.9282 47.456L61.5275 43.9875V47.4335C61.5275 47.4335 61.5515 47.4785 61.5755 47.4785H62.8152C62.8152 47.4785 62.8631 47.456 62.8631 47.4335V41.5475C62.8631 41.5475 62.8392 41.5024 62.8152 41.5024Z" fill="white"/>
<path d="M68.9413 41.5021H66.43C65.8381 41.5021 65.3343 41.6973 64.9184 42.0877C64.5025 42.4781 64.2946 42.9511 64.2946 43.4992C64.2946 43.8971 64.4225 44.2725 64.6785 44.6028C64.9184 44.9181 65.2383 45.1508 65.6222 45.286L64.1266 47.4031C64.1266 47.4031 64.1186 47.4332 64.1266 47.4482C64.1346 47.4632 64.1506 47.4707 64.1666 47.4707H65.5582C65.5582 47.4707 65.5902 47.4632 65.5982 47.4482L67.0218 45.4286H67.6536V47.4257C67.6536 47.4257 67.6776 47.4707 67.7016 47.4707H68.9413C68.9413 47.4707 68.9893 47.4482 68.9893 47.4257V41.5397C68.9893 41.5397 68.9653 41.4946 68.9413 41.4946V41.5021ZM65.8701 42.9136C66.0301 42.7559 66.214 42.6733 66.438 42.6733H67.6616V44.3175H66.438C66.214 44.3175 66.0301 44.2349 65.8781 44.0773C65.7182 43.9196 65.6382 43.7169 65.6382 43.4917C65.6382 43.2664 65.7182 43.0712 65.8781 42.9061L65.8701 42.9136Z" fill="white"/>
<path d="M73.0043 30.5713C71.4527 27.1253 69.2293 24.0246 66.3901 21.3669C63.5589 18.7092 60.2558 16.6221 56.5847 15.1581C52.7778 13.6491 48.7389 12.8833 44.572 12.8833C40.4051 12.8833 36.3662 13.6491 32.5592 15.1581C28.8882 16.6146 25.5851 18.7017 22.7539 21.3669C19.9226 24.0246 17.6992 27.1253 16.1397 30.5713C14.5321 34.1449 13.7163 37.9363 13.7163 41.8478C13.7163 47.2983 15.3399 52.6137 18.411 57.2084C21.3782 61.6529 25.5771 65.2641 30.5438 67.6515C30.6317 67.7491 30.7597 67.8092 30.9037 67.8092C31.1596 67.8092 31.3675 67.614 31.3675 67.3737V61.6004L32.8232 61.285C33.0951 61.225 33.263 60.9697 33.2071 60.7145C33.1431 60.4592 32.8711 60.3015 32.5992 60.3541L31.3675 60.6244V59.5057L32.5912 59.5958C32.8711 59.6183 33.1111 59.4156 33.1351 59.1529C33.1591 58.8901 32.9431 58.6649 32.6632 58.6424L31.3596 58.5523C31.3596 57.0808 31.4395 55.1738 31.8634 53.8825C32.3673 54.2729 33.1831 54.9411 33.8869 55.6618C34.0228 55.8045 34.2388 55.842 34.4227 55.7594C34.4547 55.7444 37.3099 54.4981 39.8693 55.797C40.0692 55.8946 40.3171 55.8495 40.4531 55.6768C40.4691 55.6618 41.6128 54.2729 42.9004 53.4095C43.1004 53.5221 43.4043 53.7023 43.7722 53.9576C42.7725 55.339 42.0927 56.9757 41.8367 58.7024C41.5168 60.8271 41.9007 62.7115 42.8844 63.8827C43.8522 65.0389 45.3958 65.3242 46.8034 64.6109C47.7151 64.1455 48.4189 63.3346 48.7868 62.3286C49.2027 61.195 49.1628 59.8886 48.6749 58.5373C47.9311 56.4726 46.4515 54.9486 45.3478 54.0327C45.2438 53.9501 45.1478 53.8675 45.0519 53.7924C45.5637 53.2068 46.1396 52.6888 46.7634 52.2609C48.411 51.1422 50.0185 50.6993 51.5301 50.947C53.4896 51.2699 54.6013 52.6212 54.8972 53.0341C55.2011 53.4546 55.4331 53.89 55.665 54.318C56.2168 55.354 56.7847 56.4201 58.2003 56.4651C58.2483 56.6603 58.3443 56.9006 58.4962 57.1483C58.7682 57.5763 59.296 58.0793 60.2798 58.2369C59.9358 59.0853 59.248 60.1739 58.0723 60.7445C57.7604 60.8946 57.4245 61.0148 57.0726 61.0974C57.0566 61.0974 57.0406 61.0974 57.0246 61.1049C56.0329 61.3376 54.9372 61.2926 54.0574 60.9697C53.1457 60.6319 52.5218 60.0238 52.2099 59.1679C52.1299 58.9427 51.866 58.8225 51.6261 58.8976C51.3862 58.9727 51.2582 59.2204 51.3382 59.4457C51.7381 60.5343 52.5618 61.3376 53.7135 61.7655C54.6973 62.1334 55.8729 62.2085 56.9766 61.9983C57.3205 62.3812 58.0564 63.0794 58.9041 63.0794C58.9281 63.0794 58.9521 63.0794 58.9841 63.0794C59.52 63.0493 59.9358 62.7866 60.0958 62.3661C60.2798 61.8782 60.1118 61.2926 59.6319 60.7445C60.1838 60.249 60.5677 59.6934 60.8156 59.2355C61.2475 58.4472 61.4634 57.6438 61.4794 57.2084C61.4954 56.8105 61.5194 56.2024 61.0076 55.797C60.5597 55.4366 59.8399 55.354 58.7602 55.5417C58.6882 55.5567 58.6162 55.5642 58.5442 55.5717H58.5282C57.4805 55.6843 57.1286 55.1138 56.4888 53.9125C56.2568 53.4846 56.0009 52.9966 55.665 52.5311C55.3211 52.0507 54.0094 50.459 51.6981 50.0836C49.9305 49.7909 48.091 50.2864 46.2355 51.5476C45.5317 52.0206 44.8999 52.5987 44.3321 53.2519C43.6282 52.7714 43.1324 52.5236 43.1004 52.5086C42.9484 52.4335 42.7725 52.441 42.6365 52.5311C41.4848 53.2444 40.4291 54.348 39.9732 54.866C37.6059 53.845 35.1985 54.5357 34.3507 54.8435C33.231 53.7474 32.0074 52.8615 31.9514 52.8239C31.8394 52.7414 31.6955 52.7188 31.5595 52.7489C31.4235 52.7789 31.3116 52.869 31.2476 52.9891C30.5678 54.3555 30.4558 56.6003 30.4398 58.4847L28.1044 58.3195C27.8245 58.297 27.5846 58.4997 27.5606 58.7625C27.5366 59.0252 27.7525 59.2505 28.0324 59.273L30.4398 59.4457V60.8346L28.1444 61.3376C27.8725 61.3977 27.7045 61.6529 27.7605 61.9082C27.8245 62.1634 28.0964 62.3211 28.3684 62.2685L30.4398 61.8181V66.7206C20.6344 61.8031 14.5641 52.3359 14.5641 41.8703C14.5641 26.337 28.0245 13.7016 44.572 13.7016C61.1195 13.7016 74.348 26.1268 74.5799 41.4724H71.6047C71.3728 41.4724 71.1808 41.6526 71.1808 41.8703C71.1808 42.088 71.3728 42.2682 71.6047 42.2682H75.0118C75.1238 42.2682 75.2277 42.2232 75.3077 42.1556C75.3877 42.088 75.4277 41.9829 75.4277 41.8778C75.4277 37.9663 74.6119 34.175 73.0043 30.6013V30.5713ZM59.232 62.0583C59.2 62.1484 59.1041 62.1935 58.9441 62.201H58.9121C58.6002 62.201 58.2563 61.9607 57.9764 61.713C58.1523 61.6454 58.3283 61.5703 58.4962 61.4953C58.6402 61.4277 58.7762 61.3526 58.9041 61.27C59.2 61.6079 59.288 61.9007 59.224 62.0583H59.232ZM60.4077 56.4426C60.5677 56.5702 60.5677 56.833 60.5517 57.1709C60.5517 57.2309 60.5437 57.2985 60.5277 57.3736C59.5999 57.2459 59.256 56.7204 59.1281 56.3525C59.9758 56.2249 60.2957 56.3525 60.4077 56.4426ZM44.5 54.4756C45.6757 55.4066 47.1073 56.8555 47.8031 58.7925C48.219 59.9562 48.259 61.0748 47.9151 62.0283C47.6192 62.8316 47.0753 63.4698 46.3635 63.8301C45.5717 64.2355 44.428 64.3106 43.6043 63.3271C42.7885 62.3586 42.4686 60.6619 42.7485 58.8C42.9804 57.2234 43.5963 55.7294 44.5 54.4681V54.4756Z" fill="white"/>
<path d="M39.2453 57.4033H39.1093C38.8664 57.4033 38.6694 57.5882 38.6694 57.8162V58.7922C38.6694 59.0203 38.8664 59.2052 39.1093 59.2052H39.2453C39.4882 59.2052 39.6852 59.0203 39.6852 58.7922V57.8162C39.6852 57.5882 39.4882 57.4033 39.2453 57.4033Z" fill="white"/>
<path d="M35.1667 57.4033H35.0307C34.7878 57.4033 34.5908 57.5882 34.5908 57.8162V58.7922C34.5908 59.0203 34.7878 59.2052 35.0307 59.2052H35.1667C35.4096 59.2052 35.6065 59.0203 35.6065 58.7922V57.8162C35.6065 57.5882 35.4096 57.4033 35.1667 57.4033Z" fill="white"/>
<path d="M52.4257 55.4065C52.4257 55.4065 53.1375 55.0686 53.7933 55.5041C53.8733 55.5566 53.9692 55.5791 54.0572 55.5791C54.2012 55.5791 54.3451 55.5116 54.4331 55.3914C54.5771 55.1962 54.5291 54.926 54.3211 54.7908C53.1935 54.0476 52.0418 54.6107 51.9938 54.6332C51.7698 54.7458 51.6819 55.0086 51.8018 55.2188C51.9218 55.429 52.2017 55.5116 52.4257 55.3914V55.4065Z" fill="white"/>
<g opacity="0.1">
<path d="M6.87015 64.0852C6.87015 64.0852 6.80616 64.0702 6.78217 64.0402C2.34337 57.3959 0 49.7156 0 41.8476C0 40.8566 0.0399892 39.8581 0.11197 38.8821C0.11197 38.8295 0.167955 38.7995 0.215942 38.792C0.271927 38.792 0.311916 38.837 0.311916 38.8896C0.239935 39.8656 0.199946 40.8566 0.199946 41.8401C0.199946 49.678 2.53532 57.3208 6.95812 63.9426C6.99012 63.9876 6.97412 64.0477 6.92613 64.0702C6.91014 64.0777 6.89414 64.0852 6.87015 64.0852ZM88.896 38.5142C88.848 38.5142 88.8001 38.4766 88.8001 38.4241C88.4801 34.6778 87.6164 30.9915 86.2327 27.4704C86.2168 27.4254 86.2327 27.3653 86.2887 27.3503C86.3447 27.3278 86.4007 27.3503 86.4167 27.4029C87.8003 30.939 88.6721 34.6402 89 38.4091C89 38.4616 88.96 38.5067 88.912 38.5067H88.904L88.896 38.5142ZM1.4796 31.5696C1.4796 31.5696 1.46361 31.5696 1.45561 31.5696C1.39962 31.5546 1.36763 31.5096 1.38363 31.457C1.51959 30.969 1.66355 30.481 1.80751 30.008C1.82351 29.9555 1.87949 29.933 1.93548 29.948C1.99146 29.963 2.01546 30.0155 1.99946 30.0681C1.8475 30.5411 1.70354 31.0291 1.57558 31.5171C1.56758 31.5621 1.51959 31.5846 1.4796 31.5846V31.5696ZM3.21513 26.5695C3.21513 26.5695 3.19114 26.5695 3.17514 26.5695C3.12716 26.547 3.09517 26.4945 3.11916 26.4494C3.24712 26.1566 3.37509 25.8563 3.50306 25.5635C4.94267 22.3728 6.79017 19.3697 8.99757 16.6294C9.02957 16.5844 9.09355 16.5769 9.14154 16.6144C9.18952 16.6444 9.19752 16.7045 9.15753 16.742C6.95812 19.4673 5.11862 22.4629 3.68701 25.6386C3.55904 25.9314 3.43108 26.2242 3.30311 26.517C3.28711 26.5545 3.24712 26.577 3.20714 26.577L3.21513 26.5695ZM84.7771 24.0695C84.7771 24.0695 84.7052 24.047 84.6892 24.0169C84.4652 23.5665 84.2253 23.116 83.9774 22.6731C83.9534 22.628 83.9774 22.568 84.0173 22.5454C84.0653 22.5229 84.1293 22.5454 84.1533 22.583C84.4012 23.0259 84.6412 23.4839 84.8651 23.9343C84.8891 23.9794 84.8651 24.0395 84.8171 24.062C84.8011 24.062 84.7851 24.0695 84.7771 24.0695ZM79.7625 16.3967C79.7625 16.3967 79.7065 16.3817 79.6825 16.3591C78.5388 14.9777 77.2832 13.6414 75.9555 12.3876C71.8846 8.56621 67.1419 5.56316 61.8553 3.46853C60.2558 2.83038 58.6002 2.28232 56.9446 1.83186C56.8887 1.81685 56.8647 1.76429 56.8807 1.71174C56.8967 1.65919 56.9526 1.62916 57.0086 1.65168C58.6722 2.10214 60.3277 2.6577 61.9353 3.29585C67.2459 5.4055 72.0046 8.41606 76.0995 12.2525C77.4431 13.5137 78.6988 14.8501 79.8505 16.2465C79.8825 16.2841 79.8745 16.3441 79.8345 16.3742C79.8185 16.3892 79.7945 16.3967 79.7705 16.3967H79.7625ZM31.6955 1.967C31.6555 1.967 31.6155 1.94448 31.5995 1.89943C31.5835 1.84688 31.6155 1.79433 31.6635 1.77931C34.2148 1.05107 36.8621 0.54055 39.5093 0.262767C39.5653 0.247752 39.6133 0.292798 39.6213 0.345351C39.6213 0.397905 39.5893 0.442951 39.5333 0.450458C36.8941 0.728241 34.2628 1.23876 31.7194 1.95949C31.7115 1.95949 31.7035 1.95949 31.6875 1.95949L31.6955 1.967ZM41.1249 0.315321C41.0769 0.315321 41.0289 0.277783 41.0289 0.225229C41.0289 0.172676 41.0689 0.12763 41.1249 0.12763C42.2526 0.0450458 43.4043 0 44.54 0C44.7319 0 44.9319 0 45.1238 0C45.1798 0 45.2198 0.0450458 45.2198 0.0975993C45.2198 0.150153 45.1718 0.187691 45.1238 0.187691C44.9319 0.187691 44.7399 0.187691 44.54 0.187691C43.4043 0.187691 42.2606 0.225229 41.1249 0.307813V0.315321Z" fill="white"/>
</g>
<g opacity="0.3">
<path d="M25.7212 75.084C25.7212 75.084 25.6572 75.084 25.6252 75.0615C19.4669 71.9609 14.2523 67.3887 10.5413 61.8331C9.25367 59.9036 8.14197 57.854 7.2542 55.7368C7.21422 55.6392 7.2622 55.5341 7.36617 55.4966C7.47015 55.4591 7.58212 55.5041 7.6301 55.6017C8.51786 57.6963 9.61357 59.7309 10.8852 61.6379C14.5562 67.141 19.7228 71.6681 25.8172 74.7387C25.9132 74.7912 25.9532 74.9039 25.8972 74.9939C25.8572 75.054 25.7932 75.0915 25.7212 75.0915V75.084ZM5.26274 48.6346C5.16677 48.6346 5.08679 48.5746 5.0628 48.477C4.64691 46.2922 4.43896 44.0625 4.43896 41.8477C4.43896 40.2861 4.54294 38.7245 4.74288 37.193C4.75888 37.0879 4.85485 37.0128 4.96682 37.0278C5.07879 37.0428 5.15077 37.1329 5.14277 37.238C4.94283 38.7546 4.84685 40.3011 4.84685 41.8477C4.84685 44.0475 5.0548 46.2547 5.46269 48.4169C5.47868 48.522 5.4067 48.6196 5.30273 48.6346C5.29473 48.6346 5.27874 48.6346 5.27074 48.6346H5.26274ZM84.5054 42.0354C84.3934 42.0354 84.3054 41.9528 84.3054 41.8477C84.3054 40.4738 84.2254 39.0849 84.0655 37.7335C84.0575 37.6284 84.1295 37.5383 84.2414 37.5233C84.3454 37.5233 84.4494 37.5834 84.4654 37.6885C84.6253 39.0549 84.7053 40.4588 84.7053 41.8477C84.7053 41.9528 84.6173 42.0354 84.5054 42.0354ZM5.63064 33.7019C5.63064 33.7019 5.59865 33.7019 5.58266 33.7019C5.47868 33.6794 5.4067 33.5743 5.4307 33.4767C5.95056 31.337 6.67836 29.2199 7.59811 27.1853C8.25394 25.7363 9.00573 24.3174 9.83751 22.9735C9.89349 22.8834 10.0135 22.8534 10.1094 22.9059C10.2054 22.9585 10.2374 23.0711 10.1814 23.1612C9.35764 24.4976 8.61384 25.9015 7.96601 27.3279C7.05426 29.3475 6.33445 31.4421 5.82259 33.5593C5.7986 33.6494 5.71862 33.7019 5.63064 33.7019ZM82.6019 30.5562C82.5139 30.5562 82.4419 30.5037 82.4099 30.4286C82.05 29.385 81.6421 28.3415 81.1783 27.3279C79.1788 22.8834 76.3156 18.8969 72.6686 15.4734C70.5251 13.4613 68.1498 11.6895 65.6145 10.203C65.5185 10.1505 65.4945 10.0303 65.5505 9.94776C65.6065 9.86518 65.7344 9.83515 65.8304 9.8877C68.3897 11.3892 70.7891 13.1836 72.9565 15.2106C76.6435 18.6716 79.5307 22.6957 81.5542 27.1853C82.018 28.2138 82.4339 29.2649 82.7938 30.316C82.8258 30.4136 82.7698 30.5187 82.6659 30.5562C82.6419 30.5562 82.6259 30.5637 82.6019 30.5637V30.5562ZM31.0958 6.73449C31.0158 6.73449 30.9358 6.68945 30.9038 6.60686C30.8638 6.50926 30.9198 6.40416 31.0238 6.36662C33.5511 5.51825 36.1744 4.90263 38.8217 4.54977C38.9257 4.53475 39.0296 4.60983 39.0456 4.70743C39.0616 4.81254 38.9816 4.90263 38.8777 4.91764C36.2544 5.2705 33.6551 5.87862 31.1598 6.71948C31.1358 6.72698 31.1118 6.72698 31.0958 6.72698V6.73449ZM54.7374 5.76601C54.7374 5.76601 54.7054 5.76601 54.6894 5.76601C53.4098 5.45069 52.1061 5.19543 50.7945 5.00023C50.6825 4.98521 50.6105 4.88761 50.6265 4.78251C50.6425 4.6774 50.7465 4.60983 50.8584 4.62485C52.1781 4.82004 53.5057 5.08281 54.7934 5.39813C54.8974 5.42816 54.9613 5.52576 54.9373 5.63087C54.9133 5.71345 54.8334 5.77351 54.7454 5.77351L54.7374 5.76601Z" fill="white"/>
</g>
<g opacity="0.5">
<path d="M79.9623 42.4107C79.6344 42.4107 79.3624 42.1555 79.3624 41.8477C79.3624 37.4782 78.4587 33.2439 76.6752 29.2498C76.5472 28.9645 76.6911 28.6342 76.9951 28.5141C77.299 28.394 77.6509 28.5291 77.7789 28.8144C79.6264 32.9511 80.5541 37.3356 80.5541 41.8477C80.5541 42.163 80.2822 42.4107 79.9543 42.4107H79.9623Z" fill="white"/>
<path d="M75.3557 25.9916C75.1477 25.9916 74.9398 25.8865 74.8358 25.7063C73.8041 24.0021 72.5964 22.3729 71.2528 20.8639C71.0368 20.6237 71.0688 20.2708 71.3248 20.0681C71.5807 19.8654 71.9566 19.8954 72.1725 20.1357C73.5642 21.6972 74.8118 23.379 75.8835 25.1433C76.0515 25.4135 75.9475 25.7589 75.6596 25.909C75.5636 25.9616 75.4677 25.9841 75.3637 25.9841L75.3557 25.9916ZM70.285 19.5726C70.1251 19.5726 69.9651 19.5125 69.8452 19.3924C69.6212 19.1747 69.3973 18.957 69.1733 18.7392C67.9177 17.5605 66.5581 16.4644 65.1424 15.4884C64.8785 15.3007 64.8145 14.9479 65.0145 14.7001C65.2144 14.4524 65.5903 14.3923 65.8542 14.58C67.3178 15.5935 68.7255 16.7197 70.0211 17.9434C70.2611 18.1611 70.493 18.3864 70.7169 18.6191C70.9489 18.8443 70.9329 19.2047 70.6929 19.4149C70.573 19.52 70.429 19.5726 70.2771 19.5726H70.285ZM36.1103 10.1355C35.8383 10.1355 35.5984 9.96281 35.5264 9.70755C35.4464 9.40724 35.6464 9.09943 35.9663 9.02435C37.7178 8.61894 39.5253 8.34116 41.3249 8.191C41.6528 8.16848 41.9487 8.39371 41.9727 8.70152C41.9967 9.00934 41.7567 9.28712 41.4288 9.30964C39.6853 9.45229 37.9418 9.73007 36.2462 10.1205C36.1982 10.128 36.1503 10.1355 36.1023 10.1355H36.1103ZM51.986 9.91025C51.946 9.91025 51.906 9.91025 51.858 9.89524C50.4984 9.62496 49.1068 9.42976 47.7151 9.30964C47.3872 9.27961 47.1393 9.00934 47.1713 8.70152C47.2033 8.39371 47.4912 8.16848 47.8191 8.191C49.2587 8.31113 50.6983 8.51383 52.106 8.79912C52.4339 8.86669 52.6338 9.167 52.5698 9.4673C52.5058 9.73007 52.2579 9.91025 51.986 9.91025Z" fill="white"/>
<path d="M14.7399 60.2864C14.54 60.2864 14.348 60.1963 14.236 60.0311L14.0601 59.7684C11.4048 55.7968 9.69326 51.4199 8.96546 46.7801C8.91747 46.4723 9.14141 46.187 9.46932 46.142C9.79723 46.1045 10.1011 46.3072 10.1491 46.615C10.8529 51.1045 12.5085 55.3313 15.0678 59.1753L15.2358 59.423C15.4117 59.6858 15.3317 60.0311 15.0518 60.2038C14.9478 60.2639 14.8359 60.2939 14.7239 60.2939L14.7399 60.2864ZM10.509 33.379C10.4531 33.379 10.3971 33.379 10.3491 33.3565C10.0292 33.2739 9.84522 32.9586 9.93319 32.6583C10.3411 31.3144 10.837 29.978 11.4208 28.6867C11.6847 28.1011 11.9646 27.523 12.2606 26.96C12.4045 26.6822 12.7644 26.5621 13.0604 26.7047C13.3563 26.8399 13.4842 27.1777 13.3323 27.4555C13.0524 27.996 12.7724 28.5591 12.5245 29.1222C11.9646 30.3684 11.4768 31.6598 11.0849 32.9586C11.0129 33.2063 10.773 33.3715 10.509 33.3715V33.379ZM13.7882 26.0065C13.6842 26.0065 13.5882 25.984 13.4922 25.9314C13.2043 25.7738 13.1003 25.4359 13.2683 25.1656C14.332 23.4014 15.5797 21.7196 16.9793 20.1581C17.1952 19.9178 17.5711 19.8878 17.8271 20.0905C18.083 20.2932 18.115 20.646 17.899 20.8863C16.5474 22.3953 15.3477 24.0245 14.316 25.7287C14.204 25.9089 14.0041 26.014 13.7962 26.014L13.7882 26.0065ZM20.3624 18.176C20.2024 18.176 20.0425 18.116 19.9225 17.9959C19.6986 17.7706 19.7066 17.4103 19.9465 17.2C23.0577 14.4522 26.6327 12.275 30.5596 10.7134C31.3114 10.4131 32.0792 10.1354 32.847 9.8876C33.1589 9.79001 33.5028 9.94016 33.6148 10.233C33.7268 10.5258 33.5588 10.8486 33.2469 10.9537C32.5111 11.1939 31.7673 11.4567 31.0395 11.7495C27.2405 13.2585 23.7855 15.3682 20.7783 18.0184C20.6583 18.1235 20.5143 18.1685 20.3704 18.1685L20.3624 18.176Z" fill="white"/>
<path d="M28.0562 71.7959C27.9602 71.7959 27.8642 71.7734 27.7762 71.7283C23.5454 69.6262 19.8504 66.8033 16.7952 63.3273C16.5872 63.087 16.6192 62.7342 16.8752 62.5314C17.1311 62.3363 17.507 62.3663 17.7229 62.6065C20.6741 65.9624 24.2412 68.6952 28.3361 70.7223C28.632 70.8649 28.744 71.2103 28.584 71.4806C28.48 71.6682 28.2641 71.7809 28.0562 71.7809V71.7959Z" fill="white"/>
</g>
<path d="M39.2856 60.0913C39.0297 60.0913 38.8217 60.2865 38.8217 60.5268C38.8217 60.8346 38.5578 61.0898 38.2219 61.0898C37.886 61.0898 37.6221 60.8421 37.6221 60.5268C37.6221 60.2865 37.4141 60.0913 37.1582 60.0913C36.9023 60.0913 36.6943 60.2865 36.6943 60.5268C36.6943 60.8346 36.4304 61.0898 36.0945 61.0898C35.7586 61.0898 35.4946 60.8421 35.4946 60.5268C35.4946 60.2865 35.2867 60.0913 35.0308 60.0913C34.7748 60.0913 34.5669 60.2865 34.5669 60.5268C34.5669 61.3151 35.2467 61.9532 36.0865 61.9532C36.4944 61.9532 36.8703 61.7955 37.1422 61.5478C37.4141 61.7955 37.79 61.9532 38.1979 61.9532C39.0377 61.9532 39.7175 61.3151 39.7175 60.5268C39.7175 60.2865 39.5096 60.0913 39.2536 60.0913H39.2856Z" fill="white"/>
</g>
<defs>
<linearGradient id="paint0_linear_1_829" x1="44.548" y1="4.33203" x2="44.548" y2="85.5947" gradientUnits="userSpaceOnUse">
<stop stop-color="#1DD6A4"/>
<stop offset="1" stop-color="#006B6A"/>
</linearGradient>
<clipPath id="clip0_1_829">
<rect width="89" height="86" fill="white"/>
</clipPath>
</defs>
</svg>
