<svg width="115" height="100" viewBox="0 0 115 100" fill="none" xmlns="http://www.w3.org/2000/svg">
<g clip-path="url(#clip0_1_1489)">
<path d="M69.9171 3.27028C78.0384 3.19482 85.7053 6.65161 89.8475 13.7156C93.9897 20.7795 95.985 29.1162 101.13 35.4694C104.807 40.0042 110.103 43.5738 111.742 49.1919C112.468 51.6609 112.398 54.2972 112.1 56.8542C110.356 71.8673 100.471 85.6734 86.8948 92.0398C82.206 94.2478 76.8953 95.5994 71.8437 94.4439C65.0114 92.8789 59.2917 86.8909 52.298 87.2354C46.4102 87.5265 41.7158 92.2506 36.101 94.0554C28.3923 96.5312 19.6232 92.9738 14.3435 86.7764C9.06378 80.5789 6.85374 72.2165 6.45472 64.0534C6.01751 55.1859 8.40163 44.9812 16.1927 40.8826C20.9392 38.3846 27.0365 38.5617 30.9824 34.919C34.2341 31.9142 35.0823 27.1779 36.6359 23.0111C42.0342 8.53624 58.1721 3.37052 69.9171 3.27028Z" fill="#EBEBEB"/>
<path d="M61.8701 71.0482C64.8541 72.2455 68.0014 72.9747 71.2026 73.2104C72.5234 75.2657 73.8796 77.3611 75.7969 78.8583C77.7143 80.3555 80.3366 81.1667 82.608 80.3159C82.6988 79.7896 82.3795 79.2887 82.0984 78.8348C79.3738 74.4296 79.0779 68.4181 82.0263 63.9018C82.5287 64.8706 82.9124 65.8975 83.169 66.9597C85.6569 64.0391 87.5068 60.6208 88.5981 56.9277C89.1405 57.5192 89.6044 58.1794 89.9782 58.8916C91.6996 53.1763 91.8121 47.0879 90.303 41.3073C91.5279 42.4635 92.7201 43.6551 93.847 44.851C94.081 43.2203 93.7957 41.5609 93.4576 39.95C92.883 37.1941 92.1516 34.4725 91.359 31.7456C92.2092 31.8584 93.0593 31.9712 94.0393 32.1344C91.9021 27.6982 88.7042 23.8688 84.7348 20.9929C83.9102 17.3869 82.5099 13.9398 80.5888 10.787C79.4605 11.79 78.9817 13.3308 78.1351 14.589C77.8415 15.0073 77.5266 15.4097 77.1914 15.7947C76.7429 16.3631 76.2487 16.8931 75.7139 17.3793C71.8038 16.354 67.6861 16.4819 63.8488 17.7477C62.3724 15.4665 60.6536 13.2348 58.2643 11.9231C54.1305 21.396 52.306 31.7347 52.9436 42.073C53.6067 52.3793 56.7387 62.5071 61.8701 71.0482Z" fill="white"/>
<path d="M104.099 18.5675C102.994 18.2439 102.015 17.5813 101.299 16.6714C100.582 15.7616 100.163 14.6495 100.1 13.4894C99.9739 14.5689 99.8141 15.6697 99.3222 16.6344C98.8303 17.5992 97.9405 18.4253 96.8772 18.5539C97.8344 19.1815 98.6308 20.0294 99.2007 21.028C99.7706 22.0265 100.098 23.1472 100.156 24.2977C100.67 23.147 100.687 21.7746 101.421 20.7533C101.691 20.408 101.998 20.0939 102.336 19.8167C102.882 19.333 103.429 18.8468 104.099 18.5675Z" fill="white"/>
<path d="M41.8687 26.5778C40.0293 26.0258 38.6018 24.0534 38.5141 21.9574C38.414 22.9359 38.2893 23.9326 37.8848 24.804C37.4802 25.6754 36.7485 26.4176 35.862 26.5294C37.4595 27.6581 38.5192 29.6601 38.6112 31.751C39.0327 30.713 39.04 29.4689 39.6425 28.5487C39.8621 28.2392 40.1154 27.9556 40.3976 27.7033C40.8217 27.2471 41.3191 26.8667 41.8687 26.5778Z" fill="white"/>
<path d="M48.327 25.7612C46.6491 30.8964 46.2509 36.4038 46.7087 41.7967C47.1664 47.1896 48.4643 52.4761 50.1019 57.6309C50.5468 59.0195 51.0149 60.4064 51.483 61.7934L52.6519 65.2398C53.1931 66.8417 53.7369 68.4482 54.4306 69.9878C55.034 71.3083 55.7232 72.5871 56.4936 73.8159C57.8426 75.986 59.3504 78.0513 61.0044 79.9944C58.3248 79.3886 55.5265 79.6353 52.9936 80.7007C51.7376 81.2324 50.5537 81.9673 49.2337 82.3141C46.9619 82.9167 44.5715 82.3168 42.2535 81.9224C38.3822 81.2617 34.3167 81.1933 30.6223 82.5304C29.5554 82.9169 28.5312 83.4163 27.4609 83.7865C25.4844 84.4809 23.3776 84.7153 21.2977 84.4722C20.7164 84.3973 20.1457 84.2533 19.5976 84.0431C18.8919 78.998 18.2235 73.6406 20.2636 68.9823C20.9345 67.4451 21.8879 66.0354 22.3975 64.4311C23.3954 61.29 22.5654 57.8351 23.151 54.5847C23.7701 51.1359 25.9192 48.1962 28.057 45.4369C28.4551 44.8812 28.9157 44.3741 29.4295 43.9256C30.0192 43.503 30.6401 43.1267 31.2868 42.8001C32.5868 42.0527 33.745 41.076 34.9084 40.3851C37.6548 38.3531 40.4237 36.2747 42.4693 33.5358C44.3401 31.0168 45.6216 27.9489 48.327 25.7612Z" fill="#C7E3E5"/>
<path d="M83.3889 66.9144C82.9741 66.0628 82.5592 65.2098 82.1441 64.3551C80.4954 66.6559 79.7795 69.5069 80.1428 72.3256C80.1964 72.7736 80.2734 73.22 80.2991 73.6699C80.3372 74.2347 80.287 74.8079 80.413 75.3574C80.6341 76.3095 81.3452 77.0653 82.1047 77.6713C83.5491 78.7988 85.2407 79.5585 87.0362 79.8863C88.8318 80.214 90.6785 80.1002 92.4201 79.5544C92.9753 72.1758 92.2461 64.7542 90.2655 57.6264L89.8528 58.6544C89.4376 57.9825 89.0029 57.3215 88.5486 56.6713C87.7754 60.4944 85.9925 64.0337 83.3889 66.9144Z" fill="#C7E3E5"/>
<path d="M93.8172 44.3329C93.5482 50.2974 95.3881 56.1242 96.8347 61.9161C98.2814 67.708 99.3399 73.8878 97.5902 79.6567C95.8083 79.2349 93.9606 79.1827 92.1591 79.5032C92.9831 72.894 92.5174 66.1839 90.7881 59.7519C90.4615 58.8453 90.4081 57.8616 90.6347 56.9251C91.4467 51.9452 91.4687 46.8654 90.7 41.8764C91.7656 42.684 92.832 43.5033 93.8172 44.3329Z" fill="#31C781"/>
<path d="M69.2209 81.1158C58.1575 68.606 52.1788 51.6388 52.808 34.8899C53.366 28.3808 54.6445 21.9564 56.6195 15.7368C55.4971 16.0301 54.5565 16.7958 53.7268 17.6108C51.0668 20.228 49.1504 23.5635 47.9795 27.1252C46.8087 30.6869 46.3687 34.4664 46.3376 38.443C46.5722 44.1031 47.4895 49.7142 49.069 55.1518C49.8147 57.7022 50.7071 60.2427 51.6106 62.74C53.8002 68.8245 56.1878 75.0683 60.7011 79.5159C63.5814 80.0236 66.4432 80.6035 69.2209 81.1158Z" fill="#31C781"/>
<path d="M78.123 13.8901C76.4855 13.0029 74.6393 12.5932 72.7978 12.3582C68.6983 11.8193 64.355 12.1078 60.708 14.0422C61.8001 15.1617 62.8229 16.3481 63.7705 17.5947C67.66 16.8592 71.712 16.2428 75.5344 17.2875C75.6295 17.3254 75.7342 17.3308 75.8326 17.3028C75.8956 17.2697 75.9508 17.2232 75.9943 17.1666C76.7227 16.3082 77.3655 15.3794 77.9136 14.3936C78.0055 14.2361 78.0759 14.0667 78.123 13.8901Z" fill="#31C781"/>
<path d="M79.7236 31.5902C79.9502 31.4947 80.2013 31.4758 80.4396 31.5364C80.6778 31.597 80.8903 31.7339 81.0453 31.9266C81.1954 32.1304 81.2654 32.3831 81.2419 32.6357C81.2183 32.8884 81.1028 33.1232 80.9177 33.2947C80.7908 33.3853 80.6455 33.4463 80.4924 33.4734C80.3392 33.5005 80.1819 33.493 80.0319 33.4514C79.8252 33.4089 79.6337 33.3107 79.4778 33.1672C79.3218 33.0237 79.2072 32.8403 79.146 32.6364C79.1117 32.4217 79.15 32.2016 79.2548 32.0118C79.3597 31.822 79.5248 31.6734 79.7236 31.5902Z" fill="black"/>
<path d="M65.0915 32.5781C65.318 32.4826 65.5691 32.4637 65.8074 32.5243C66.0456 32.5849 66.2581 32.7218 66.4131 32.9145C66.5612 33.1202 66.6287 33.374 66.6026 33.6268C66.5764 33.8796 66.4585 34.1136 66.2715 34.2835C66.1446 34.3741 65.9993 34.4352 65.8462 34.4623C65.693 34.4894 65.5357 34.4818 65.3857 34.4403C65.1795 34.3974 64.9885 34.299 64.8329 34.1555C64.6774 34.012 64.5631 33.8287 64.5021 33.6251C64.4676 33.4087 64.5071 33.1871 64.6143 32.9967C64.7215 32.8063 64.8898 32.6586 65.0915 32.5781Z" fill="black"/>
<path d="M69.8613 82.2548C69.938 82.2497 70.0118 82.2227 70.0739 82.177C70.1359 82.1312 70.1839 82.0686 70.2121 81.9964C70.2403 81.9241 70.2476 81.8453 70.2332 81.7689C70.2188 81.6926 70.1833 81.622 70.1307 81.5652C55.2272 65.3567 49.5399 41.3714 55.625 20.4641C56.2493 18.8946 56.7802 17.225 57.2937 15.6086C57.6102 14.6108 57.9386 13.5814 58.2895 12.5741C60.2188 14.0995 61.9645 15.848 63.4908 17.7839C63.5392 17.8444 63.6037 17.8898 63.6767 17.9146C63.7497 17.9394 63.8282 17.9426 63.9029 17.9239C68.3332 16.8446 72.1962 16.7918 75.7068 17.7606C75.7804 17.781 75.8581 17.7801 75.9311 17.7581C76.0041 17.736 76.0695 17.6936 76.1197 17.6358C77.7736 15.6751 79.276 13.5889 80.6135 11.3955C82.5363 14.3768 83.8098 17.7362 84.3496 21.2508C84.3589 21.3052 84.3788 21.3573 84.4081 21.404C84.4374 21.4507 84.4754 21.4912 84.5202 21.523C88.215 24.1054 91.2374 27.5517 93.3294 31.5677C92.642 31.4747 91.9389 31.3921 91.2085 31.3539C91.1402 31.3503 91.0722 31.3643 91.0108 31.3945C90.9494 31.4247 90.8966 31.4701 90.8573 31.5266C90.8172 31.5823 90.7919 31.6475 90.7838 31.7159C90.7757 31.7843 90.7851 31.8537 90.8111 31.9175C92.3426 35.7478 93.2872 39.7907 93.6124 43.907L90.4734 41.1281C90.4341 41.0882 90.3872 41.0568 90.3354 41.036C90.2836 41.0152 90.2281 41.0053 90.1725 41.007C90.1168 41.0088 90.0621 41.022 90.0118 41.046C89.9614 41.07 89.9165 41.1042 89.8798 41.1464C89.8431 41.1887 89.8154 41.2381 89.7984 41.2917C89.7815 41.3453 89.7756 41.4018 89.7811 41.4578C89.7867 41.5137 89.8036 41.568 89.8308 41.6171C89.858 41.6663 89.8949 41.7093 89.9392 41.7434L93.8154 45.1795C93.876 45.2323 93.9506 45.266 94.0299 45.2766C94.1092 45.2872 94.1898 45.2742 94.2618 45.2392C94.3339 45.2041 94.394 45.1482 94.4347 45.0785C94.4754 45.0089 94.4948 44.9286 94.4905 44.8478C94.2531 40.5233 93.3463 36.2621 91.8029 32.2193C92.5446 32.2851 93.2725 32.3897 93.9814 32.4884C94.055 32.5004 94.1305 32.4917 94.1996 32.4633C94.2687 32.4349 94.3287 32.3877 94.3729 32.3271C94.4172 32.2665 94.444 32.1947 94.4505 32.1196C94.457 32.0445 94.443 31.969 94.4098 31.9015C92.2782 27.5181 89.0851 23.7485 85.127 20.943C84.5222 17.1628 83.0894 13.5656 80.9334 10.414C80.895 10.3587 80.8437 10.3139 80.784 10.2834C80.7244 10.2529 80.6583 10.2377 80.5915 10.2392C80.5247 10.2406 80.4594 10.2587 80.4012 10.2918C80.343 10.3249 80.2938 10.372 80.258 10.4289C78.9126 12.5838 77.4299 14.8543 75.6748 16.9045C72.2035 15.9993 68.2658 16.0547 63.9645 17.0686C62.3188 15.0135 60.4297 13.1702 58.3394 11.5801C58.2888 11.5412 58.2297 11.5149 58.1671 11.5035C58.1044 11.4921 58.0401 11.4959 57.9792 11.5146C57.9183 11.5331 57.8626 11.5658 57.8164 11.6099C57.7702 11.6541 57.7349 11.7085 57.7132 11.769C57.2857 12.9587 56.8982 14.1883 56.5209 15.3605C56.0135 16.9623 55.4865 18.6199 54.8607 20.2013C48.8304 40.9157 54.1837 64.5641 68.4838 80.9529C64.3932 79.6522 60.1001 79.13 55.8228 79.4126L55.5898 79.4284C54.1733 79.524 52.7379 80.1742 51.3518 80.7903C49.6636 81.5426 48.0709 82.2531 46.5355 82.0801C45.2857 81.9423 42.7871 81.5766 40.7804 81.2865L38.7665 80.9946C35.2693 80.5025 32.2797 81.5649 29.3883 82.5924C26.2912 83.6929 23.3631 84.7323 19.8854 83.9741C19.2788 80.2581 19.0052 72.4293 20.5824 69.0955C20.8281 68.5753 21.1329 68.063 21.4295 67.5677C21.8629 66.8848 22.238 66.1658 22.5506 65.4185C23.2287 63.6751 23.216 61.7892 23.203 59.9672C23.1969 59.3221 23.1916 58.6534 23.2206 58.0083C23.4056 53.6847 25.0595 49.5595 27.904 46.3267C29.9496 44.004 32.6183 42.1404 35.1999 40.3371C39.1785 37.5599 43.2911 34.6861 45.1209 30.1035C45.1419 30.0533 45.1528 29.9995 45.153 29.945C45.1532 29.8906 45.1426 29.8366 45.122 29.7863C45.1013 29.736 45.0709 29.6903 45.0326 29.6519C44.9943 29.6135 44.9489 29.5832 44.8989 29.5628C44.8489 29.5423 44.7954 29.5321 44.7415 29.5327C44.6876 29.5333 44.6343 29.5448 44.5849 29.5664C44.5354 29.588 44.4907 29.6193 44.4534 29.6586C44.4161 29.6978 44.3869 29.7442 44.3675 29.7949C42.6278 34.1517 38.7944 36.8268 34.7357 39.6662C32.1139 41.4982 29.405 43.3905 27.2939 45.7839C24.3257 49.1591 22.5998 53.4652 22.4063 57.9782C22.3763 58.6422 22.3823 59.3204 22.3868 59.9774C22.4 61.8017 22.4109 63.5222 21.798 65.1217C21.5004 65.826 21.1454 66.504 20.7365 67.1487C20.4153 67.6655 20.1201 68.1984 19.8519 68.7452C18.078 72.4919 18.5182 80.9194 19.1323 84.3985C19.1473 84.4769 19.1842 84.5494 19.2387 84.6073C19.2933 84.6652 19.3631 84.7062 19.4399 84.7253C23.2659 85.6491 26.5186 84.4956 29.666 83.3775C32.4661 82.3846 35.3621 81.3568 38.6611 81.8245L40.6703 82.1167C42.6843 82.4111 45.1899 82.7762 46.4533 82.9084C48.2056 83.1046 49.9733 82.3161 51.6843 81.5552C53.009 80.9645 54.3791 80.3542 55.6553 80.2586C60.4199 79.9066 65.2054 80.5855 69.6924 82.2497C69.7478 82.2631 69.8053 82.2648 69.8613 82.2548Z" fill="black"/>
<path d="M40.0407 71.2312L40.7258 71.1849C40.8333 71.1745 40.9323 71.1216 41.0012 71.0376C41.0701 70.9537 41.1033 70.8455 41.0934 70.7369C41.0895 70.6829 41.0748 70.6303 41.0503 70.5822C41.0257 70.5341 40.9918 70.4915 40.9506 70.4569C40.9093 70.4224 40.8616 70.3966 40.8102 70.3812C40.7589 70.3658 40.705 70.361 40.6518 70.3671C35.1576 70.8574 29.6392 69.7137 24.7762 67.0768C24.6817 67.028 24.5722 67.0184 24.4709 67.0501C24.3696 67.0818 24.2847 67.1522 24.2342 67.2464C24.1837 67.3405 24.1717 67.4509 24.2007 67.554C24.2298 67.6571 24.2975 67.7446 24.3896 67.798C29.188 70.3982 34.6104 71.5876 40.0407 71.2312Z" fill="black"/>
<path d="M100.41 27.203C100.511 27.1966 100.606 27.1524 100.676 27.0789C100.746 27.0055 100.786 26.9082 100.788 26.8063C100.836 25.1882 100.882 23.5159 101.459 22.0063C101.92 20.793 102.923 19.4273 104.412 19.0454C104.501 19.033 104.589 19.0136 104.675 18.9874C104.779 18.9619 104.87 18.8953 104.926 18.8024C104.982 18.7095 104.999 18.5978 104.974 18.492C104.948 18.3862 104.882 18.2949 104.79 18.2381C104.698 18.1814 104.587 18.1639 104.483 18.1894L104.273 18.2343C103.575 18.3051 102.782 17.6446 102.25 16.9027C101.265 15.534 100.657 13.764 100.461 11.7368C100.454 11.3464 100.432 10.9538 100.396 10.559C100.386 10.4532 100.336 10.3554 100.256 10.286C100.176 10.2165 100.073 10.1807 99.9681 10.186C99.8624 10.1905 99.7628 10.237 99.691 10.3154C99.6192 10.3937 99.5809 10.4976 99.5844 10.6044C99.5901 11.0012 99.614 11.3897 99.6499 11.7821C99.6663 12.6472 99.612 13.512 99.4874 14.3678C99.3152 15.5616 99.0399 16.3723 98.5951 17.0289C98.0492 17.8176 97.2262 18.2822 96.442 18.2453C96.3484 18.2424 96.2567 18.2724 96.1825 18.33C96.1083 18.3877 96.0561 18.4695 96.0348 18.5616C96.0134 18.6537 96.0243 18.7505 96.0655 18.8355C96.1067 18.9206 96.1757 18.9887 96.2608 19.0283C96.9626 19.351 97.5893 19.8193 98.1002 20.4028C98.611 20.9863 98.9945 21.6719 99.2256 22.4148C99.5195 23.4178 99.7129 24.4479 99.803 25.4897C99.8604 25.9587 99.9167 26.4112 99.9896 26.8673C100.006 26.9682 100.059 27.0595 100.138 27.1232C100.217 27.187 100.317 27.2186 100.418 27.2119L100.41 27.203ZM103.055 18.7492C101.97 19.4485 101.143 20.4887 100.702 21.7099C100.516 22.2016 100.373 22.7089 100.275 23.2258C100.2 22.8614 100.105 22.5015 99.9893 22.1481C99.5632 20.8164 98.7213 19.6595 97.59 18.8511C98.2669 18.5724 98.8478 18.0991 99.2605 17.4899C99.7877 16.6549 100.124 15.7114 100.244 14.7281C100.554 15.6767 101.005 16.5726 101.58 17.3853C101.969 17.9413 102.473 18.4065 103.055 18.7492Z" fill="black"/>
<path d="M38.5543 34.1715C38.6471 34.1651 38.735 34.1267 38.8031 34.0627C38.8712 33.9988 38.9154 33.9131 38.9284 33.82C38.9843 33.3378 39.0133 32.8527 39.0153 32.3672C39.0441 31.131 39.0714 29.7319 39.8435 28.7222C40.2141 28.2959 40.6535 27.936 41.1431 27.658C41.6725 27.2826 42.2427 26.9696 42.8426 26.7251C42.9383 26.6913 43.0179 26.6225 43.0659 26.5323C43.1139 26.4421 43.1267 26.3369 43.1018 26.2375C43.0769 26.1382 43.0161 26.0518 42.9314 25.9953C42.8466 25.9388 42.7442 25.9163 42.644 25.9323C41.6576 26.0911 40.7222 25.2015 40.1782 24.3208C39.2994 22.9034 38.8618 21.2526 38.9221 19.5824C38.9319 19.3807 38.944 19.179 38.9656 18.9789C38.9766 18.8706 38.9445 18.7623 38.8765 18.6778C38.8085 18.5932 38.71 18.5394 38.6028 18.5282C38.4956 18.5169 38.3884 18.5491 38.3048 18.6177C38.2212 18.6863 38.1681 18.7857 38.1571 18.894C38.1318 19.1085 38.116 19.3247 38.1094 19.5403C38.09 19.9105 38.0843 20.2773 38.0782 20.6371C38.0691 21.0917 38.0611 21.5627 38.0285 22.0165C37.9402 23.2046 37.7005 24.0909 37.2486 24.7811C37.0024 25.174 36.6712 25.5054 36.28 25.7504C35.8887 25.9955 35.4476 26.1479 34.9895 26.1961C34.896 26.2047 34.8083 26.2455 34.7411 26.3117C34.6739 26.378 34.6314 26.4656 34.6208 26.5598C34.6101 26.6541 34.6319 26.7492 34.6825 26.8292C34.7331 26.9092 34.8094 26.9692 34.8986 26.9991C36.042 27.364 36.9863 28.454 37.4351 29.9015C37.8541 31.1472 38.0894 32.4481 38.1335 33.7625C38.1367 33.865 38.1777 33.9626 38.2485 34.0362C38.3193 34.1097 38.4148 34.1539 38.5161 34.1599L38.5543 34.1715ZM41.3767 26.5404C41.1519 26.6785 40.9277 26.8237 40.7033 26.9665C40.1339 27.2943 39.6249 27.719 39.1988 28.2219C38.7651 28.8158 38.4794 29.5065 38.3658 30.2358C38.314 30.0573 38.2592 29.8695 38.2015 29.6747C37.8722 28.4944 37.1593 27.4599 36.1776 26.7378C36.8943 26.4205 37.5033 25.8987 37.9299 25.2363C38.3223 24.6069 38.5853 23.9041 38.7032 23.1697C38.9133 23.7282 39.1768 24.2647 39.4901 24.7716C39.9348 25.5343 40.5906 26.1492 41.3767 26.5404Z" fill="black"/>
<path d="M76.5742 13.6165C76.6695 13.6107 76.7596 13.5711 76.8289 13.5049C76.8981 13.4386 76.942 13.3497 76.9528 13.254C76.9637 13.1582 76.9408 13.0615 76.8882 12.981C76.8356 12.9005 76.7566 12.8412 76.6651 12.8135C72.0625 11.4101 67.152 11.4248 62.5615 12.8555C62.5105 12.8715 62.4632 12.8975 62.4221 12.9321C62.3811 12.9666 62.3472 13.009 62.3224 13.0568C62.2976 13.1045 62.2823 13.1568 62.2775 13.2106C62.2727 13.2643 62.2784 13.3185 62.2943 13.3701C62.3103 13.4216 62.3361 13.4695 62.3704 13.511C62.4046 13.5525 62.4466 13.5868 62.4939 13.6119C62.5412 13.6371 62.593 13.6525 62.6462 13.6574C62.6995 13.6624 62.7531 13.6567 62.8041 13.6406C67.2383 12.2577 71.9821 12.2437 76.428 13.6003C76.4755 13.614 76.5249 13.6194 76.5742 13.6165Z" fill="black"/>
<path d="M50.6106 60.4409C50.6395 60.4412 50.6683 60.4393 50.6969 60.435C50.8005 60.4043 50.8878 60.3333 50.9397 60.2377C50.9915 60.142 51.0038 60.0294 50.9737 59.9246C48.8973 52.7093 46.7503 45.2458 46.7475 37.6116C46.744 29.1711 49.6391 21.7502 54.6861 17.2553C54.7669 17.1834 54.816 17.0819 54.8227 16.9733C54.8294 16.8647 54.7932 16.7577 54.7219 16.676C54.6505 16.5943 54.55 16.5445 54.4425 16.5375C54.3349 16.5306 54.229 16.5671 54.1482 16.6391C48.9246 21.2901 45.9321 28.9327 45.9352 37.6096C45.9367 45.3622 48.1014 52.8813 50.1934 60.1546C50.2214 60.2425 50.2776 60.3185 50.3533 60.3704C50.4289 60.4222 50.5195 60.4471 50.6106 60.4409Z" fill="black"/>
<path d="M61.1573 80.2868C61.2386 80.2818 61.3164 80.2522 61.3808 80.202C61.4451 80.1517 61.4931 80.083 61.5183 80.0049C61.5436 79.9268 61.545 79.8427 61.5224 79.7637C61.4998 79.6847 61.4542 79.6143 61.3915 79.5617C56.8811 75.7097 54.6856 70.0582 52.9825 64.5248C52.9668 64.4732 52.9411 64.4253 52.907 64.3837C52.8729 64.3422 52.831 64.3078 52.7838 64.2825C52.7366 64.2573 52.6849 64.2417 52.6317 64.2366C52.5785 64.2315 52.5249 64.2371 52.4739 64.253C52.4228 64.2688 52.3754 64.2947 52.3343 64.3291C52.2932 64.3635 52.2592 64.4057 52.2343 64.4534C52.2094 64.5011 52.194 64.5533 52.1891 64.607C52.1841 64.6607 52.1897 64.7149 52.2054 64.7664C53.9445 70.418 56.1979 76.198 60.8673 80.1858C60.9066 80.2212 60.9525 80.2484 61.0023 80.2657C61.0521 80.283 61.1048 80.2902 61.1573 80.2868Z" fill="black"/>
<path d="M97.7501 80.0174C97.8347 80.0112 97.9153 79.9786 97.9808 79.9242C98.0462 79.8699 98.0934 79.7963 98.1159 79.7137C99.7142 73.6784 98.7121 67.7454 97.5355 62.7297C97.2072 61.3333 96.834 59.8973 96.4765 58.5194C95.4669 54.6249 94.4227 50.598 94.1046 46.5458C94.0961 46.438 94.0459 46.338 93.9649 46.2673C93.8839 46.1967 93.7786 46.1611 93.6719 46.1683C93.6186 46.1722 93.5666 46.1868 93.5189 46.2111C93.4712 46.2355 93.4288 46.2691 93.3942 46.3102C93.3595 46.3512 93.3333 46.3989 93.3169 46.4503C93.3006 46.5016 93.2946 46.5558 93.2991 46.6096C93.6221 50.7349 94.6754 54.7919 95.6947 58.7259C96.0496 60.0992 96.4166 61.5143 96.7473 62.9106C97.8838 67.7139 98.8441 73.3755 97.431 79.1027C95.5748 78.7197 93.6785 78.9896 91.8233 79.2449L90.9282 79.3691C88.8405 79.6472 86.4478 79.7757 84.5767 78.6158C84.5311 78.5838 84.4795 78.5616 84.4252 78.5505C84.3708 78.5394 84.3148 78.5396 84.2606 78.5512C84.2063 78.5628 84.155 78.5855 84.1098 78.6178C84.0646 78.6502 84.0265 78.6916 83.9977 78.7394C83.9689 78.7872 83.9502 78.8405 83.9426 78.896C83.935 78.9514 83.9387 79.0079 83.9535 79.0619C83.9683 79.1159 83.9939 79.1663 84.0287 79.2099C84.0634 79.2536 84.1067 79.2896 84.1558 79.3157C86.2432 80.5934 88.8069 80.4676 91.0361 80.1705L91.9405 80.0456C93.8415 79.7754 95.8051 79.4962 97.6322 79.9687C97.6686 79.9912 97.7085 80.0077 97.7501 80.0174Z" fill="black"/>
<path d="M92.3984 79.7944C92.4954 79.7878 92.5869 79.7463 92.6561 79.6774C92.7253 79.6086 92.7678 79.5169 92.7757 79.419C93.276 73.3246 92.9034 67.1879 91.6695 61.1985C91.6587 61.1456 91.6377 61.0954 91.6078 61.0508C91.5778 61.0061 91.5394 60.9678 91.4948 60.9381C91.4502 60.9084 91.4002 60.8879 91.3478 60.8777C91.2953 60.8674 91.2415 60.8678 91.1892 60.8786C91.1369 60.8894 91.0873 60.9106 91.0431 60.9408C90.9989 60.971 90.961 61.0097 90.9317 61.0547C90.9023 61.0997 90.8821 61.1502 90.8721 61.2031C90.862 61.2561 90.8624 61.3105 90.8732 61.3633C92.091 67.2762 92.459 73.3342 91.9659 79.3507C91.9612 79.4048 91.9671 79.4592 91.9833 79.511C91.9995 79.5627 92.0256 79.6108 92.0602 79.6524C92.0947 79.6939 92.137 79.7282 92.1846 79.7533C92.2323 79.7784 92.2844 79.7938 92.3379 79.7985L92.3984 79.7944Z" fill="black"/>
<path d="M80.8191 81.0919C81.0148 81.0787 81.2081 81.0656 81.3998 81.0267C81.8116 80.9981 82.196 80.8085 82.4712 80.498C83.028 79.7677 82.4251 78.8106 82.1971 78.4501C79.6835 74.4657 79.5885 69.0365 81.8788 64.931C82.1215 65.6476 82.4612 66.4498 82.7926 67.2337C82.8188 67.2965 82.86 67.3517 82.9126 67.3945C82.9651 67.4372 83.0274 67.4661 83.0937 67.4785C83.16 67.4909 83.2283 67.4865 83.2925 67.4656C83.3566 67.4447 83.4146 67.408 83.4611 67.3587C85.9855 64.6787 87.7609 61.3699 88.6065 57.7692L89.6319 59.0902C89.6779 59.1502 89.7396 59.196 89.8101 59.2226C89.8805 59.2492 89.9569 59.2554 90.0305 59.2406C90.104 59.2256 90.1719 59.1906 90.2271 59.1393C90.2822 59.0881 90.3224 59.0226 90.3433 58.9499C91.6025 54.4258 91.9451 49.6904 91.3505 45.0269C91.3349 44.9199 91.2788 44.8231 91.194 44.7569C91.1092 44.6908 91.0024 44.6604 90.896 44.6722C90.7892 44.6861 90.6924 44.7422 90.6267 44.8282C90.5609 44.9142 90.5317 45.023 90.5454 45.1309C91.0927 49.4161 90.8305 53.7662 89.7726 57.9505L88.7089 56.5824C88.6605 56.521 88.5958 56.4748 88.5223 56.4492C88.4489 56.4236 88.3698 56.4196 88.2942 56.4378C88.218 56.4561 88.1488 56.4964 88.0949 56.5538C88.041 56.6111 88.0048 56.6831 87.9907 56.7609C87.3109 60.3249 85.6889 63.6354 83.2965 66.3414C82.9346 65.5373 82.6381 64.705 82.4099 63.8525C82.3932 63.7737 82.3539 63.7016 82.2968 63.6452C82.2396 63.5889 82.1673 63.5509 82.0889 63.536C82.0105 63.5214 81.9296 63.5301 81.8561 63.5611C81.7825 63.5921 81.7195 63.644 81.6747 63.7106C78.7374 68.1482 78.67 74.3946 81.5115 78.903C81.8653 79.4631 81.9689 79.8179 81.8203 80.01C81.6661 80.1434 81.4716 80.2199 81.2685 80.2269C79.2719 80.5367 77.0569 79.8304 75.2071 78.2931C73.7191 77.053 72.4536 75.3321 71.2376 72.8867C71.2042 72.819 71.1529 72.7619 71.0895 72.7215C71.0261 72.6812 70.953 72.6592 70.8781 72.658C69.4183 72.6435 67.9641 72.469 66.5411 72.1375C66.4358 72.1133 66.3253 72.1323 66.234 72.1903C66.1427 72.2483 66.078 72.3407 66.0541 72.447C66.0302 72.5534 66.0492 72.6649 66.1068 72.7573C66.1644 72.8496 66.2559 72.9151 66.3612 72.9393C67.7609 73.2633 69.1892 73.4433 70.6244 73.4766C71.8591 75.9208 73.1562 77.6608 74.6936 78.9378C76.5514 80.4556 78.7524 81.2314 80.8191 81.0919Z" fill="black"/>
<path d="M102.119 82.8479L109.509 82.3489C109.617 82.3416 109.717 82.2915 109.788 82.2096C109.859 82.1276 109.894 82.0206 109.887 81.912C109.88 81.8034 109.83 81.7021 109.749 81.6304C109.668 81.5587 109.561 81.5226 109.454 81.5298L102.064 82.0288C101.956 82.0361 101.856 82.0862 101.785 82.1681C101.714 82.25 101.678 82.3571 101.686 82.4657C101.693 82.5743 101.743 82.6756 101.824 82.7473C101.905 82.8189 102.011 82.8551 102.119 82.8479Z" fill="black"/>
<path d="M36.2602 87.2002L96.4185 83.1384C96.526 83.1312 96.6261 83.081 96.697 82.9991C96.7678 82.9172 96.8035 82.8101 96.7962 82.7015C96.7889 82.5929 96.7391 82.4916 96.6579 82.42C96.5767 82.3483 96.4707 82.3121 96.3632 82.3194L36.2049 86.3811C36.0974 86.3884 35.9972 86.4385 35.9264 86.5204C35.8555 86.6024 35.8198 86.7094 35.8271 86.818C35.8345 86.9266 35.8843 87.0279 35.9655 87.0996C36.0467 87.1712 36.1527 87.2074 36.2602 87.2002Z" fill="black"/>
<path d="M6.87706 89.2783L30.4487 87.6868C30.5562 87.6795 30.6565 87.6294 30.7273 87.5474C30.7982 87.4655 30.8338 87.3585 30.8265 87.2499C30.8191 87.1412 30.7694 87.04 30.6882 86.9683C30.607 86.8966 30.5009 86.8604 30.3934 86.8677L6.82176 88.4592C6.71424 88.4665 6.61401 88.5166 6.54317 88.5985C6.47233 88.6805 6.43668 88.7875 6.44401 88.8961C6.45134 89.0047 6.50106 89.106 6.58227 89.1777C6.66349 89.2493 6.76954 89.2855 6.87706 89.2783Z" fill="black"/>
<path d="M73.4324 43.9761C73.5371 43.9697 73.6352 43.9221 73.7055 43.8436C73.7759 43.765 73.813 43.6618 73.8089 43.5558L73.6964 39.2202C73.695 39.1662 73.683 39.1131 73.6612 39.0638C73.6394 39.0145 73.6082 38.97 73.5694 38.9329C73.5306 38.8958 73.4849 38.8667 73.435 38.8474C73.3851 38.8281 73.332 38.8189 73.2786 38.8204C73.1711 38.8244 73.0696 38.8708 72.9957 38.9496C72.9218 39.0284 72.8815 39.1334 72.8834 39.2419L72.9982 43.5775C72.9993 43.6313 73.011 43.6844 73.0325 43.7337C73.0541 43.783 73.085 43.8275 73.1237 43.8647C73.1623 43.9019 73.2078 43.931 73.2576 43.9503C73.3074 43.9696 73.3605 43.9788 73.4138 43.9774L73.4324 43.9761Z" fill="black"/>
<path d="M73.4553 39.4163C74.0057 39.0593 74.4928 38.6117 74.8966 38.0919C75.0711 37.8851 75.1992 37.6426 75.2722 37.3809C75.3074 37.25 75.3085 37.1121 75.2755 36.9805C75.2424 36.849 75.1763 36.7282 75.0835 36.63C74.8463 36.4558 74.5521 36.38 74.2616 36.4183C73.5692 36.4426 72.8789 36.5082 72.1942 36.6146C71.9465 36.6354 71.7039 36.6973 71.4763 36.7979C71.3629 36.849 71.2629 36.9263 71.1845 37.0236C71.1062 37.1208 71.0515 37.2354 71.025 37.358C70.9713 37.7068 71.2218 38.0209 71.4659 38.2739C71.7101 38.527 71.9171 38.7163 72.1574 38.9129C72.5439 39.2296 73.0875 39.654 73.4553 39.4163Z" fill="black"/>
<path d="M81.5917 19.8126C81.4608 18.8015 81.166 17.8189 80.719 16.9043C80.6272 16.6576 80.4462 16.4552 80.2126 16.3379C79.8334 16.198 79.4469 16.5054 79.1794 16.8072C78.7963 17.2348 78.4561 17.6997 78.1637 18.1951C78.1079 18.2595 78.0705 18.3381 78.0555 18.4224C78.0406 18.5068 78.0487 18.5936 78.079 18.6737C78.1375 18.7556 78.2192 18.8176 78.3133 18.8518L80.9482 20.0925C81.0561 20.1573 81.1823 20.1837 81.3067 20.1676C81.4352 20.1281 81.5224 19.9638 81.5917 19.8126Z" fill="black"/>
<path d="M61.7854 18.5515C61.2842 17.9471 60.7116 17.4069 60.0805 16.943C59.7897 16.7262 59.4127 16.5152 59.0685 16.6519C58.9347 16.7225 58.8187 16.823 58.7292 16.9458C58.6398 17.0687 58.5792 17.2105 58.5523 17.3606C58.3407 18.0628 58.268 18.8004 58.3384 19.5313C58.3345 19.6271 58.3556 19.7222 58.3996 19.8072C58.4435 19.8922 58.5087 19.9641 58.5888 20.0157C58.7173 20.0548 58.8547 20.0521 58.9815 20.0081C59.7642 19.8261 60.5304 19.5782 61.272 19.2671C61.449 19.2073 61.6109 19.1092 61.7464 18.9797C61.8043 18.9259 61.8403 18.8524 61.8475 18.7732C61.8547 18.6941 61.8326 18.6151 61.7854 18.5515Z" fill="black"/>
<path d="M46.3474 69.0987C46.3809 69.1001 46.4145 69.0978 46.4475 69.0919C46.5499 69.0577 46.6347 68.984 46.6834 68.8868C46.7321 68.7896 46.7407 68.6769 46.7074 68.5732C43.8617 59.7792 41.9164 50.7148 40.9021 41.5222C40.8882 41.4149 40.8339 41.317 40.7503 41.2491C40.6668 41.1812 40.5606 41.1484 40.4539 41.1576C40.4009 41.1633 40.3495 41.1796 40.3028 41.2054C40.256 41.2313 40.2148 41.2663 40.1815 41.3083C40.1483 41.3503 40.1236 41.3986 40.1088 41.4503C40.0941 41.5021 40.0897 41.5563 40.0958 41.6098C41.1136 50.8597 43.0706 59.9807 45.9359 68.8286C45.9664 68.9125 46.023 68.9841 46.0971 69.0329C46.1713 69.0816 46.2591 69.1047 46.3474 69.0987Z" fill="white"/>
<path d="M50.4268 78.4887C50.4796 78.4854 50.5312 78.4715 50.5785 78.4477C50.6749 78.3988 50.7484 78.3136 50.783 78.2104C50.8176 78.1072 50.8107 77.9943 50.7636 77.8961L48.3595 73.0035C48.3114 72.9058 48.2268 72.8314 48.1243 72.7966C48.0219 72.7619 47.91 72.7696 47.8134 72.8181C47.7167 72.8667 47.6432 72.952 47.6089 73.0554C47.5746 73.1588 47.5824 73.2718 47.6306 73.3695L50.0345 78.2598C50.0704 78.3327 50.1267 78.3934 50.1965 78.4341C50.2663 78.4748 50.3464 78.4938 50.4268 78.4887Z" fill="white"/>
<path d="M39.4316 65.9079C39.4643 65.9092 39.4971 65.907 39.5294 65.9013C39.6317 65.8676 39.7167 65.7944 39.7659 65.6977C39.815 65.601 39.8243 65.4885 39.7918 65.3847C37.688 58.7767 36.2029 51.9847 35.3559 45.0979C35.3502 45.044 35.3338 44.9917 35.3077 44.9442C35.2815 44.8968 35.2461 44.8551 35.2037 44.8218C35.1612 44.7884 35.1125 44.7641 35.0606 44.7502C35.0086 44.7363 34.9544 44.7331 34.9012 44.7409C34.7943 44.7548 34.6972 44.8109 34.6311 44.8968C34.565 44.9828 34.5352 45.0916 34.5483 45.1998C35.4019 52.1371 36.8982 58.9791 39.0176 65.6356C39.0478 65.7204 39.1046 65.7928 39.1793 65.842C39.2541 65.8911 39.3427 65.9143 39.4316 65.9079Z" fill="white"/>
<path d="M33.5011 67.3389C33.5307 67.3405 33.5604 67.3385 33.5896 67.3329C33.6409 67.3177 33.6886 67.2925 33.7302 67.2586C33.7717 67.2247 33.8063 67.1828 33.8318 67.1354C33.8573 67.088 33.8732 67.036 33.8788 66.9823C33.8843 66.9286 33.8794 66.8744 33.8641 66.8226C32.1185 60.8612 30.9857 54.7348 30.4835 48.5405C30.475 48.4328 30.4248 48.3327 30.3437 48.2621C30.2627 48.1914 30.1575 48.1558 30.0508 48.163C29.9434 48.1727 29.8441 48.2247 29.7744 48.3077C29.7047 48.3907 29.6701 48.498 29.6781 48.6067C30.1843 54.8573 31.328 61.0394 33.091 67.0545C33.1182 67.1413 33.1734 67.2164 33.2477 67.2679C33.322 67.3194 33.4112 67.3444 33.5011 67.3389Z" fill="white"/>
<path d="M28.6806 65.9383C28.7175 65.9355 28.754 65.9283 28.7892 65.9168C28.8907 65.8807 28.9738 65.8054 29.0203 65.7074C29.0667 65.6094 29.0728 65.4967 29.0371 65.3941C28.168 62.8846 27.6128 60.2755 27.3846 57.6277C27.3755 57.5204 27.3251 57.421 27.2442 57.3509C27.1633 57.2807 27.0583 57.2454 26.952 57.2526C26.8445 57.2624 26.7452 57.3147 26.6758 57.3983C26.6064 57.4818 26.5727 57.5898 26.5819 57.6985C26.8165 60.4139 27.3863 63.0894 28.2782 65.6629C28.307 65.7464 28.3617 65.8183 28.4343 65.868C28.5068 65.9176 28.5932 65.9423 28.6806 65.9383Z" fill="white"/>
<path d="M44.2389 79.7104C44.2961 79.7067 44.3519 79.69 44.4018 79.6615C44.449 79.6363 44.4908 79.602 44.5248 79.5604C44.5588 79.5189 44.5844 79.471 44.6 79.4194C44.6157 79.3678 44.6211 79.3136 44.616 79.2599C44.6109 79.2062 44.5953 79.154 44.5703 79.1064L41.8226 73.9083C41.7986 73.8587 41.7649 73.8145 41.7236 73.7783C41.6824 73.7421 41.6343 73.7147 41.5823 73.6976C41.5303 73.6806 41.4755 73.6744 41.4211 73.6793C41.3667 73.6841 41.3138 73.7 41.2657 73.726C41.2175 73.752 41.1751 73.7876 41.1408 73.8305C41.1066 73.8735 41.0813 73.923 41.0665 73.9761C41.0517 74.0292 41.0476 74.0848 41.0545 74.1395C41.0614 74.1943 41.0792 74.247 41.1067 74.2947L43.8521 79.493C43.8894 79.5627 43.9456 79.6202 44.0141 79.6587C44.0827 79.6972 44.1606 79.7151 44.2389 79.7104Z" fill="white"/>
<path d="M38.3152 78.9493C38.3869 78.9436 38.4558 78.9189 38.515 78.8776C38.5741 78.8364 38.6214 78.7802 38.6521 78.7145C38.6828 78.6489 38.6958 78.5762 38.6898 78.5038C38.6838 78.4314 38.659 78.3619 38.618 78.3023C37.5485 76.7798 36.6147 75.1647 35.8275 73.4759C35.7817 73.3771 35.699 73.3007 35.5975 73.2634C35.496 73.2261 35.3841 73.2311 35.2863 73.2772C35.1886 73.3233 35.113 73.4068 35.0762 73.5093C35.0395 73.6117 35.0445 73.7248 35.0903 73.8236C35.8981 75.5564 36.8567 77.2133 37.9547 78.775C37.9949 78.8329 38.0492 78.8794 38.1124 78.9099C38.1755 78.9405 38.2454 78.954 38.3152 78.9493Z" fill="white"/>
<path d="M32.6566 79.6268C32.7313 79.6217 32.8032 79.5959 32.8643 79.5522C32.9253 79.5085 32.9732 79.4487 33.0026 79.3792C33.0321 79.3097 33.0419 79.2333 33.0311 79.1584C33.0203 79.0836 32.9892 79.0132 32.9413 78.955C31.1021 76.7223 29.602 74.2258 28.4904 71.5478C28.4485 71.4471 28.3688 71.3674 28.2688 71.326C28.1687 71.2846 28.0567 71.2851 27.9571 71.3272C27.8575 71.3694 27.7786 71.4498 27.7378 71.5507C27.697 71.6517 27.6976 71.765 27.7394 71.8656C28.8841 74.6178 30.4267 77.1837 32.3167 79.4795C32.3577 79.5296 32.4099 79.5691 32.469 79.5947C32.5282 79.6203 32.5925 79.6313 32.6566 79.6268Z" fill="white"/>
<path d="M27.6148 81.4188C27.6961 81.4138 27.7739 81.3842 27.8383 81.334C27.9027 81.2837 27.9505 81.2151 27.9758 81.1369C28.001 81.0588 28.0024 80.9747 27.9798 80.8957C27.9572 80.8167 27.9117 80.7463 27.8491 80.6937C25.7905 78.9384 24.2676 76.6288 23.458 74.0343C23.4448 73.9798 23.4208 73.9286 23.3874 73.8839C23.354 73.8391 23.3118 73.8017 23.2635 73.774C23.2153 73.7463 23.1619 73.7289 23.1068 73.7228C23.0516 73.7167 22.9958 73.7221 22.9429 73.7386C22.8899 73.7551 22.8408 73.7824 22.7987 73.8188C22.7566 73.8552 22.7223 73.9 22.698 73.9503C22.6736 74.0006 22.6598 74.0554 22.6572 74.1114C22.6547 74.1674 22.6635 74.2233 22.6832 74.2757C23.5375 77.0212 25.1475 79.4653 27.3251 81.3225C27.406 81.3907 27.5097 81.4251 27.6148 81.4188Z" fill="white"/>
</g>
<defs>
<clipPath id="clip0_1_1489">
<rect width="108.057" height="91.8912" fill="white" transform="matrix(-0.997728 0.0673644 0.0673644 0.997728 108.779 0.573242)"/>
</clipPath>
</defs>
</svg>
