<svg width="185" height="187" viewBox="0 0 185 187" fill="none" xmlns="http://www.w3.org/2000/svg">
<path d="M157.054 187H24.7542C20.4817 187 17.5059 183.294 17.5059 179.98C17.5059 175.752 20.9139 173.222 24.2056 173.222C24.7044 173.222 25.1034 173.614 25.1034 174.104C25.1034 174.593 24.7044 174.985 24.2056 174.985C21.795 174.985 19.3013 176.862 19.3013 179.98C19.3013 182.184 21.3794 185.237 24.7542 185.237H157.054C165.3 185.237 171.285 179.36 171.285 171.263C171.285 163.166 164.901 157.289 157.054 157.289H72.4007C67.4299 157.289 63.3901 153.322 63.3901 148.441V146.107C63.3901 145.617 63.7891 145.225 64.2878 145.225C64.7866 145.225 65.1856 145.617 65.1856 146.107V148.441C65.1856 152.343 68.4274 155.526 72.4007 155.526H157.07C165.915 155.526 173.097 162.595 173.097 171.263C173.097 180.389 166.364 187 157.07 187H157.054Z" fill="white"/>
<path d="M28.5611 171.671C29.409 172.112 29.8412 172.814 29.8412 173.744C29.8412 174.528 29.542 175.165 28.9268 175.654C28.3284 176.144 27.547 176.389 26.5828 176.389C24.9203 176.389 23.8064 175.703 23.2578 174.316L24.7707 173.483C25.0367 174.332 25.6518 174.757 26.5828 174.757C27.0649 174.757 27.4306 174.659 27.6966 174.463C27.946 174.267 28.079 173.989 28.079 173.647C28.079 173.304 27.946 173.026 27.6966 172.83C27.4472 172.634 27.0815 172.536 26.616 172.536H25.5022V171.002H26.35C26.7989 171.002 27.1314 170.904 27.3807 170.724C27.6301 170.528 27.7465 170.284 27.7465 169.957C27.7465 169.631 27.6467 169.369 27.4306 169.19C27.2145 168.994 26.8986 168.912 26.483 168.912C25.7183 168.912 25.1863 169.288 24.8704 170.022L23.3742 169.174C23.9727 167.933 25.02 167.312 26.483 167.312C27.3641 167.312 28.0956 167.541 28.6609 168.014C29.2261 168.488 29.5087 169.108 29.5087 169.875C29.5087 170.643 29.1928 171.279 28.5445 171.737L28.5611 171.671Z" fill="white"/>
<path d="M39.4339 175.05C38.5362 175.932 37.4389 176.373 36.1422 176.373C34.8455 176.373 33.7482 175.932 32.8505 175.05C31.9528 174.169 31.5039 173.091 31.5039 171.818C31.5039 170.545 31.9528 169.467 32.8505 168.569C33.7482 167.672 34.8455 167.247 36.1422 167.247C37.4389 167.247 38.5362 167.688 39.4339 168.569C40.3316 169.451 40.7805 170.528 40.7805 171.818C40.7805 173.108 40.3316 174.169 39.4339 175.05ZM34.0807 173.875C34.6294 174.414 35.311 174.691 36.1422 174.691C36.9734 174.691 37.6384 174.414 38.2037 173.875C38.7523 173.336 39.0349 172.651 39.0349 171.818C39.0349 170.985 38.7523 170.3 38.2037 169.745C37.6551 169.206 36.9734 168.929 36.1422 168.929C35.311 168.929 34.646 169.206 34.0807 169.745C33.5321 170.283 33.2495 170.985 33.2495 171.818C33.2495 172.651 33.5321 173.336 34.0807 173.875Z" fill="white"/>
<path d="M50.4559 175.05C49.5581 175.932 48.4609 176.373 47.1642 176.373C45.8675 176.373 44.7702 175.932 43.8725 175.05C42.9747 174.169 42.5259 173.091 42.5259 171.818C42.5259 170.545 42.9747 169.467 43.8725 168.569C44.7702 167.672 45.8675 167.247 47.1642 167.247C48.4609 167.247 49.5581 167.688 50.4559 168.569C51.3536 169.451 51.8025 170.528 51.8025 171.818C51.8025 173.108 51.3536 174.169 50.4559 175.05ZM45.1027 173.875C45.6513 174.414 46.3329 174.691 47.1642 174.691C47.9954 174.691 48.6604 174.414 49.2256 173.875C49.7743 173.336 50.0569 172.651 50.0569 171.818C50.0569 170.985 49.7743 170.3 49.2256 169.745C48.677 169.206 47.9954 168.929 47.1642 168.929C46.3496 168.929 45.668 169.206 45.1027 169.745C44.5541 170.283 44.2715 170.985 44.2715 171.818C44.2715 172.651 44.5541 173.336 45.1027 173.875Z" fill="white"/>
<path d="M60.647 167.427V176.209H58.8848V169.092H55.7261V176.209H53.9639V167.427H60.647Z" fill="white"/>
<path d="M66.5652 167.426C67.4297 167.426 68.1445 167.704 68.743 168.275C69.3249 168.847 69.6241 169.549 69.6241 170.365C69.6241 171.181 69.3249 171.883 68.743 172.454C68.1612 173.026 67.4297 173.303 66.5652 173.303H65.0025V176.193H63.2402V167.41H66.5652V167.426ZM66.5652 171.704C66.9475 171.704 67.2468 171.573 67.4962 171.328C67.7455 171.067 67.8619 170.757 67.8619 170.381C67.8619 170.006 67.7455 169.679 67.4962 169.434C67.2468 169.19 66.9309 169.059 66.5652 169.059H65.0025V171.72H66.5652V171.704Z" fill="white"/>
<path d="M79.1336 175.05C78.2359 175.932 77.1386 176.373 75.8419 176.373C74.5452 176.373 73.4479 175.932 72.5502 175.05C71.6525 174.169 71.2036 173.091 71.2036 171.818C71.2036 170.545 71.6525 169.467 72.5502 168.569C73.4479 167.672 74.5452 167.247 75.8419 167.247C77.1386 167.247 78.2359 167.688 79.1336 168.569C80.0313 169.451 80.4802 170.528 80.4802 171.818C80.4802 173.108 80.0313 174.169 79.1336 175.05ZM73.7804 173.875C74.3291 174.414 75.0107 174.691 75.8419 174.691C76.6731 174.691 77.3381 174.414 77.9034 173.875C78.452 173.336 78.7346 172.651 78.7346 171.818C78.7346 170.985 78.452 170.3 77.9034 169.745C77.3548 169.206 76.6731 168.929 75.8419 168.929C75.0107 168.929 74.3457 169.206 73.7804 169.745C73.2318 170.283 72.9492 170.985 72.9492 171.818C72.9492 172.651 73.2318 173.336 73.7804 173.875Z" fill="white"/>
<path d="M86.8805 176.373C85.5339 176.373 84.42 175.932 83.5555 175.05C82.6744 174.169 82.2422 173.091 82.2422 171.802C82.2422 170.512 82.6744 169.418 83.5555 168.553C84.4366 167.688 85.5505 167.247 86.8805 167.247C87.6951 167.247 88.4432 167.427 89.1248 167.802C89.8064 168.178 90.3384 168.684 90.7208 169.32L89.2079 170.186C88.9918 169.794 88.676 169.484 88.2603 169.271C87.8447 169.043 87.3958 168.945 86.8805 168.945C86.016 168.945 85.3178 169.206 84.7858 169.745C84.2538 170.283 83.9878 170.969 83.9878 171.818C83.9878 172.667 84.2538 173.353 84.7858 173.891C85.3178 174.43 86.016 174.691 86.8805 174.691C87.3958 174.691 87.8447 174.577 88.2603 174.365C88.676 174.136 88.9918 173.842 89.1913 173.45L90.7042 174.316C90.3218 174.952 89.7898 175.458 89.1082 175.834C88.4266 176.209 87.6785 176.389 86.8639 176.389L86.8805 176.373Z" fill="white"/>
<path d="M98.6009 167.427V169.076H96.1904V176.193H94.4281V169.076H92.0342V167.427H98.6009Z" fill="white"/>
<path d="M103.838 167.426C104.702 167.426 105.417 167.704 106.015 168.275C106.597 168.847 106.897 169.549 106.897 170.365C106.897 171.181 106.597 171.883 106.015 172.454C105.434 173.026 104.702 173.303 103.838 173.303H102.275V176.193H100.513V167.41H103.838V167.426ZM103.838 171.704C104.22 171.704 104.519 171.573 104.769 171.328C105.018 171.067 105.134 170.757 105.134 170.381C105.134 170.006 105.018 169.679 104.769 169.434C104.519 169.19 104.203 169.059 103.838 169.059H102.275V171.72H103.838V171.704Z" fill="white"/>
<path d="M113.796 176.209L113.264 174.626H109.707L109.175 176.209H107.279L110.405 167.427H112.583L115.725 176.209H113.813H113.796ZM110.255 173.01H112.699L111.469 169.418L110.238 173.01H110.255Z" fill="white"/>
<path d="M122.574 167.427H124.32V176.209H122.574V172.569H119.249V176.209H117.487V167.427H119.249V170.904H122.574V167.427Z" fill="white"/>
<path d="M131.136 176.373C129.789 176.373 128.675 175.932 127.811 175.05C126.93 174.169 126.498 173.091 126.498 171.802C126.498 170.512 126.93 169.418 127.811 168.553C128.692 167.688 129.806 167.247 131.136 167.247C131.95 167.247 132.699 167.427 133.38 167.802C134.062 168.178 134.594 168.684 134.976 169.32L133.463 170.186C133.247 169.794 132.931 169.484 132.516 169.271C132.1 169.043 131.651 168.945 131.136 168.945C130.271 168.945 129.573 169.206 129.041 169.745C128.509 170.283 128.243 170.969 128.243 171.818C128.243 172.667 128.509 173.353 129.041 173.891C129.573 174.43 130.271 174.691 131.136 174.691C131.651 174.691 132.1 174.577 132.516 174.365C132.931 174.136 133.247 173.842 133.447 173.45L134.96 174.316C134.577 174.952 134.045 175.458 133.364 175.834C132.682 176.209 131.934 176.389 131.119 176.389L131.136 176.373Z" fill="white"/>
<path d="M142.856 167.427V169.076H140.446V176.193H138.684V169.076H136.29V167.427H142.856Z" fill="white"/>
<path d="M150.171 171.655C150.952 172.096 151.351 172.765 151.351 173.663C151.351 174.414 151.085 175.018 150.553 175.491C150.021 175.965 149.356 176.209 148.575 176.209H144.785V167.427H148.309C149.074 167.427 149.722 167.655 150.238 168.129C150.753 168.602 151.019 169.19 151.019 169.908C151.019 170.626 150.736 171.214 150.171 171.671V171.655ZM148.292 169.043H146.53V170.969H148.292C148.558 170.969 148.791 170.871 148.974 170.692C149.157 170.512 149.257 170.284 149.257 170.006C149.257 169.729 149.174 169.5 148.991 169.32C148.808 169.141 148.575 169.043 148.309 169.043H148.292ZM148.558 174.577C148.858 174.577 149.107 174.479 149.307 174.283C149.506 174.087 149.606 173.842 149.606 173.532C149.606 173.222 149.506 172.993 149.307 172.798C149.107 172.602 148.858 172.504 148.558 172.504H146.53V174.577H148.558Z" fill="white"/>
<path d="M160.927 175.05C160.029 175.932 158.932 176.373 157.635 176.373C156.339 176.373 155.241 175.932 154.344 175.05C153.446 174.169 152.997 173.091 152.997 171.818C152.997 170.545 153.446 169.467 154.344 168.569C155.241 167.672 156.339 167.247 157.635 167.247C158.932 167.247 160.029 167.688 160.927 168.569C161.825 169.451 162.274 170.528 162.274 171.818C162.274 173.091 161.825 174.169 160.927 175.05ZM155.574 173.875C156.123 174.414 156.804 174.691 157.635 174.691C158.467 174.691 159.132 174.414 159.697 173.875C160.245 173.336 160.528 172.651 160.528 171.818C160.528 170.985 160.245 170.3 159.697 169.745C159.148 169.206 158.467 168.929 157.635 168.929C156.804 168.929 156.139 169.206 155.574 169.745C155.025 170.283 154.743 170.985 154.743 171.818C154.743 172.651 155.025 173.336 155.574 173.875Z" fill="white"/>
<path d="M61.2955 75.9426C60.3313 76.7099 58.9182 77.1017 57.1061 77.1017C53.6814 77.1017 51.5202 75.5835 50.6723 72.5797C50.6723 72.5471 50.6391 72.5307 50.6058 72.5144C50.5726 72.5144 50.5393 72.5144 50.5227 72.5144L46.3499 74.8815C46.3499 74.8815 46.2834 74.9631 46.3 75.0121C48.0456 79.5014 51.6864 81.7869 57.1061 81.7869C60.2648 81.7869 62.8583 80.9706 64.82 79.3871C66.7817 77.7873 67.7958 75.6814 67.7958 73.1184C67.7958 69.8861 66.3162 67.5354 63.3903 66.1151C65.5847 64.6949 66.6986 62.6053 66.6986 59.9117C66.6986 57.4303 65.7842 55.3898 63.9721 53.8552C62.16 52.3207 59.7661 51.5371 56.8567 51.5371C52.0522 51.5371 48.6441 53.594 46.7323 57.6426C46.7157 57.6915 46.7323 57.7405 46.7655 57.7732L50.9051 60.1403C50.9051 60.1403 50.955 60.1566 50.9882 60.1403C51.0215 60.1403 51.0381 60.1076 51.0547 60.075C52.0522 57.512 53.9973 56.206 56.8567 56.206C58.4028 56.206 59.5998 56.5651 60.4144 57.2834C61.229 57.9854 61.6447 58.9649 61.6447 60.1729C61.6447 61.3809 61.1958 62.3604 60.2981 63.0787C59.4003 63.8133 58.1036 64.1725 56.491 64.1725H53.8809C53.8809 64.1725 53.7812 64.2214 53.7812 64.2704V68.5801C53.7812 68.5801 53.831 68.6781 53.8809 68.6781H57.4718C59.1509 68.6781 60.4643 69.0699 61.3953 69.8372C62.3096 70.6044 62.7751 71.6329 62.7751 72.8899C62.7751 74.1469 62.293 75.2243 61.3288 75.9753L61.2955 75.9426Z" fill="white"/>
<path d="M92.0678 62.9646C89.9066 60.8587 87.2134 59.7812 84.0879 59.7812C80.9625 59.7812 78.3025 60.8424 76.1247 62.9646C73.9468 65.0705 72.8496 67.6988 72.8496 70.7841C72.8496 73.8695 73.9468 76.4978 76.1247 78.6037C78.3025 80.7096 80.9791 81.787 84.0879 81.787C87.1968 81.787 89.9066 80.7259 92.0678 78.6037C94.229 76.4978 95.3262 73.8695 95.3262 70.7841C95.3262 67.6988 94.229 65.0705 92.0678 62.9646ZM88.693 75.3877C87.4461 76.6121 85.9 77.2161 84.0879 77.2161C82.2758 77.2161 80.7131 76.5957 79.4829 75.3877C78.236 74.1634 77.6209 72.6125 77.6209 70.7841C77.6209 68.9558 78.2526 67.3886 79.4829 66.1806C80.7297 64.9562 82.2758 64.3522 84.0879 64.3522C85.9 64.3522 87.4627 64.9725 88.693 66.1806C89.9398 67.4049 90.555 68.9558 90.555 70.7841C90.555 72.6125 89.9232 74.1797 88.693 75.3877Z" fill="white"/>
<path d="M123.073 70.7841C123.073 67.6988 121.976 65.0705 119.814 62.9646C117.653 60.8587 114.96 59.7812 111.835 59.7812C108.709 59.7812 106.049 60.8424 103.871 62.9646C101.693 65.0705 100.596 67.6988 100.596 70.7841C100.596 73.8695 101.693 76.4978 103.871 78.6037C106.049 80.7096 108.726 81.787 111.835 81.787C114.943 81.787 117.653 80.7259 119.814 78.6037C121.976 76.4978 123.073 73.8695 123.073 70.7841ZM116.44 75.3877C115.193 76.6121 113.647 77.2161 111.835 77.2161C110.022 77.2161 108.46 76.5957 107.229 75.3877C105.983 74.1634 105.367 72.6125 105.367 70.7841C105.367 68.9558 105.999 67.3886 107.229 66.1806C108.476 64.9562 110.022 64.3522 111.835 64.3522C113.647 64.3522 115.209 64.9725 116.44 66.1806C117.686 67.4049 118.302 68.9558 118.302 70.7841C118.302 72.6125 117.67 74.1797 116.44 75.3877Z" fill="white"/>
<path d="M75.7425 92.6431C76.4574 92.6431 77.1224 92.8064 77.7042 93.1166C78.2861 93.4267 78.735 93.8675 79.0342 94.4225C79.0342 94.4389 79.0675 94.4715 79.1007 94.4715C79.134 94.4715 79.1506 94.4715 79.1838 94.4715L81.3949 93.2145C81.3949 93.2145 81.4282 93.1819 81.4448 93.1492C81.4448 93.1166 81.4448 93.1002 81.4448 93.0676C80.8795 92.1371 80.0816 91.3698 79.0675 90.8311C78.0533 90.2761 76.9395 89.9985 75.7425 89.9985C73.7642 89.9985 72.1017 90.6515 70.805 91.9412C69.5082 93.2308 68.8599 94.847 68.8599 96.757C68.8599 98.667 69.5082 100.267 70.805 101.556C72.1017 102.846 73.7642 103.499 75.7425 103.499C76.9395 103.499 78.07 103.222 79.0675 102.667C80.0649 102.111 80.8629 101.361 81.4282 100.43C81.4282 100.414 81.4448 100.381 81.4282 100.348C81.4282 100.316 81.4115 100.299 81.3783 100.283L79.1672 99.0261C79.1672 99.0261 79.1173 99.0098 79.0841 99.0261C79.0508 99.0261 79.0342 99.0588 79.0176 99.0751C78.7183 99.6138 78.2695 100.055 77.6876 100.365C77.1057 100.675 76.4407 100.838 75.7093 100.838C74.479 100.838 73.4649 100.463 72.7168 99.6954C71.9687 98.9445 71.5863 97.9487 71.5863 96.757C71.5863 95.5653 71.9687 94.5531 72.7168 93.7859C73.4649 93.0349 74.479 92.6431 75.7093 92.6431H75.7425Z" fill="white"/>
<path d="M86.5319 103.254H89.1087C89.1087 103.254 89.2085 103.205 89.2085 103.156V92.8717H92.6165C92.6165 92.8717 92.7163 92.8228 92.7163 92.7738V90.3577C92.7163 90.3577 92.6664 90.2598 92.6165 90.2598H83.0241C83.0241 90.2598 82.9243 90.3087 82.9243 90.3577V92.7738C82.9243 92.7738 82.9742 92.8717 83.0241 92.8717H86.4155V103.156C86.4155 103.156 86.4654 103.254 86.5153 103.254H86.5319Z" fill="white"/>
<path d="M97.5209 100.414C97.1053 100.659 96.5733 100.74 95.8917 100.691C95.8584 100.691 95.8418 100.691 95.8085 100.724C95.7919 100.74 95.7753 100.773 95.7753 100.805V103.156C95.7753 103.156 95.8252 103.254 95.875 103.254C95.9914 103.254 96.1244 103.254 96.2408 103.254C98.4685 103.254 100.114 102.046 101.112 99.6464L105.019 90.374C105.019 90.374 105.019 90.3087 105.019 90.276C105.019 90.2434 104.969 90.2271 104.936 90.2271H102.359C102.359 90.2271 102.276 90.2597 102.259 90.2924L99.7819 96.2509L97.0388 90.2924C97.0388 90.2924 96.9889 90.2271 96.939 90.2271H94.3622C94.3622 90.2271 94.2957 90.2434 94.2791 90.276C94.2624 90.3087 94.2624 90.3413 94.2791 90.374L98.5184 99.271C98.2524 99.7934 97.9033 100.169 97.5043 100.397L97.5209 100.414Z" fill="white"/>
<path d="M115.06 105.703H117.636C117.636 105.703 117.736 105.654 117.736 105.605V100.74C117.736 100.74 117.686 100.642 117.636 100.642H116.34V90.3577C116.34 90.3577 116.29 90.2598 116.24 90.2598H107.645C107.645 90.2598 107.545 90.3087 107.545 90.3577V96.4142C107.545 98.2589 107.196 99.6791 106.515 100.642H105.301C105.301 100.642 105.201 100.691 105.201 100.74V105.605C105.201 105.605 105.251 105.703 105.301 105.703H107.878C107.878 105.703 107.977 105.654 107.977 105.605V103.254H114.977V105.605C114.977 105.605 115.026 105.703 115.076 105.703H115.06ZM113.563 92.8064V100.626H109.49C110.039 99.6138 110.305 98.2099 110.305 96.4305V92.8064H113.563Z" fill="white"/>
<path d="M130.57 90.2432H128.609C128.609 90.2432 128.542 90.2432 128.526 90.2921L123.123 97.8505V90.3411C123.123 90.3411 123.073 90.2432 123.023 90.2432H120.446C120.446 90.2432 120.346 90.2921 120.346 90.3411V103.14C120.346 103.14 120.396 103.238 120.446 103.238H122.408C122.408 103.238 122.474 103.238 122.491 103.189L127.894 95.6467V103.14C127.894 103.14 127.944 103.238 127.994 103.238H130.57C130.57 103.238 130.67 103.189 130.67 103.14V90.3411C130.67 90.3411 130.62 90.2432 130.57 90.2432Z" fill="white"/>
<path d="M143.305 90.2434H138.085C136.855 90.2434 135.807 90.6678 134.943 91.5167C134.078 92.3656 133.646 93.394 133.646 94.5858C133.646 95.451 133.912 96.2672 134.444 96.9855C134.943 97.6711 135.608 98.1772 136.406 98.471L133.297 103.075C133.297 103.075 133.28 103.14 133.297 103.173C133.314 103.205 133.347 103.222 133.38 103.222H136.273C136.273 103.222 136.339 103.205 136.356 103.173L139.315 98.7812H140.628V103.124C140.628 103.124 140.678 103.222 140.728 103.222H143.305C143.305 103.222 143.405 103.173 143.405 103.124V90.325C143.405 90.325 143.355 90.2271 143.305 90.2271V90.2434ZM136.921 93.3124C137.254 92.9696 137.636 92.79 138.101 92.79H140.645V96.3652H138.101C137.636 96.3652 137.254 96.1856 136.938 95.8428C136.605 95.4999 136.439 95.0592 136.439 94.5694C136.439 94.0797 136.605 93.6552 136.938 93.2961L136.921 93.3124Z" fill="white"/>
<path d="M151.75 66.4743C148.525 58.9812 143.903 52.2391 138.002 46.4601C132.117 40.6812 125.251 36.1429 117.62 32.9596C109.706 29.6783 101.311 28.0132 92.6494 28.0132C83.988 28.0132 75.5925 29.6783 67.6791 32.9596C60.0483 36.1266 53.1823 40.6649 47.2972 46.4601C41.412 52.2391 36.7903 58.9812 33.5485 66.4743C30.207 74.2449 28.5112 82.4889 28.5112 90.9941C28.5112 102.846 31.8861 114.404 38.2699 124.394C44.4377 134.059 53.1657 141.911 63.4897 147.102C63.6725 147.314 63.9385 147.445 64.2378 147.445C64.7698 147.445 65.202 147.021 65.202 146.498V133.944L68.2277 133.259C68.793 133.128 69.1421 132.573 69.0257 132.018C68.8927 131.463 68.3275 131.12 67.7622 131.235L65.202 131.822V129.39L67.7456 129.586C68.3275 129.635 68.8262 129.194 68.8761 128.623C68.926 128.051 68.4771 127.562 67.8952 127.513L65.1854 127.317C65.1854 124.117 65.3516 119.97 66.2327 117.163C67.2801 118.012 68.9758 119.464 70.4388 121.032C70.7214 121.342 71.1703 121.423 71.5527 121.244C71.6192 121.211 77.5542 118.501 82.8741 121.325C83.2897 121.538 83.8051 121.44 84.0877 121.064C84.121 121.032 86.4983 118.012 89.1749 116.134C89.5905 116.379 90.2222 116.771 90.987 117.326C88.9089 120.33 87.4958 123.888 86.9638 127.643C86.2988 132.263 87.0968 136.361 89.1416 138.907C91.1532 141.421 94.3618 142.042 97.2878 140.491C99.183 139.479 100.646 137.715 101.411 135.528C102.275 133.063 102.192 130.222 101.178 127.284C99.6318 122.795 96.5563 119.481 94.262 117.489C94.0459 117.31 93.8464 117.13 93.6469 116.967C94.7109 115.693 95.9079 114.567 97.2046 113.636C100.629 111.204 103.971 110.241 107.113 110.78C111.186 111.482 113.497 114.42 114.112 115.318C114.744 116.232 115.226 117.179 115.708 118.109C116.855 120.362 118.035 122.68 120.978 122.778C121.078 123.203 121.277 123.725 121.593 124.264C122.158 125.194 123.256 126.288 125.3 126.631C124.586 128.476 123.156 130.843 120.712 132.083C120.064 132.41 119.365 132.671 118.634 132.851C118.601 132.851 118.567 132.851 118.534 132.867C116.473 133.373 114.195 133.275 112.366 132.573C110.471 131.839 109.174 130.516 108.526 128.655C108.36 128.166 107.811 127.904 107.312 128.068C106.814 128.231 106.548 128.77 106.714 129.259C107.545 131.626 109.258 133.373 111.652 134.304C113.696 135.104 116.14 135.267 118.434 134.81C119.149 135.642 120.679 137.16 122.441 137.16C122.491 137.16 122.541 137.16 122.607 137.16C123.721 137.095 124.586 136.524 124.918 135.61C125.3 134.548 124.951 133.275 123.954 132.083C125.101 131.006 125.899 129.798 126.414 128.802C127.312 127.088 127.761 125.341 127.794 124.394C127.827 123.529 127.877 122.207 126.813 121.325C125.882 120.542 124.386 120.362 122.142 120.77C121.992 120.803 121.842 120.819 121.693 120.836H121.66C119.482 121.081 118.75 119.84 117.42 117.228C116.938 116.297 116.406 115.236 115.708 114.224C114.993 113.179 112.267 109.719 107.462 108.902C103.788 108.266 99.9643 109.343 96.1074 112.086C94.6444 113.114 93.3311 114.371 92.1507 115.791C90.6877 114.747 89.657 114.208 89.5905 114.175C89.2746 114.012 88.9089 114.028 88.6263 114.224C86.2323 115.775 84.0378 118.175 83.0902 119.301C78.1693 117.081 73.1653 118.583 71.403 119.252C69.0756 116.869 66.532 114.942 66.4156 114.861C66.1829 114.681 65.8836 114.632 65.601 114.698C65.3184 114.763 65.0856 114.959 64.9526 115.22C63.5395 118.191 63.3068 123.072 63.2735 127.17L58.4191 126.811C57.8373 126.762 57.3385 127.202 57.2886 127.774C57.2388 128.345 57.6876 128.835 58.2695 128.884L63.2735 129.259V132.279L58.5022 133.373C57.937 133.504 57.5879 134.059 57.7043 134.614C57.8373 135.169 58.4025 135.512 58.9677 135.397L63.2735 134.418V145.078C42.8916 134.385 30.2735 113.8 30.2735 91.043C30.2735 57.2671 58.2529 29.7926 92.6494 29.7926C127.046 29.7926 154.543 56.81 155.025 90.1778H148.841C148.359 90.1778 147.96 90.5696 147.96 91.043C147.96 91.5165 148.359 91.9082 148.841 91.9082H155.923C156.156 91.9082 156.372 91.8103 156.538 91.6634C156.705 91.5165 156.788 91.2879 156.788 91.0594C156.788 82.5542 155.092 74.3102 151.75 66.5396V66.4743ZM123.123 134.94C123.056 135.136 122.857 135.234 122.524 135.25H122.458C121.809 135.25 121.094 134.728 120.512 134.189C120.878 134.042 121.244 133.879 121.593 133.716C121.892 133.569 122.175 133.406 122.441 133.226C123.056 133.961 123.239 134.597 123.106 134.94H123.123ZM125.566 122.729C125.899 123.007 125.899 123.578 125.866 124.313C125.866 124.443 125.849 124.59 125.816 124.754C123.887 124.476 123.172 123.333 122.906 122.533C124.669 122.256 125.334 122.533 125.566 122.729ZM92.4998 118.452C94.9436 120.477 97.9195 123.627 99.3658 127.839C100.23 130.369 100.313 132.802 99.5986 134.875C98.9835 136.622 97.853 138.009 96.3734 138.793C94.7275 139.674 92.3502 139.838 90.6379 137.699C88.9421 135.593 88.2771 131.904 88.859 127.855C89.3411 124.427 90.6212 121.179 92.4998 118.436V118.452Z" fill="white"/>
<path d="M81.5774 124.819H81.2947C80.7897 124.819 80.3804 125.221 80.3804 125.717V127.839C80.3804 128.335 80.7897 128.737 81.2947 128.737H81.5774C82.0823 128.737 82.4917 128.335 82.4917 127.839V125.717C82.4917 125.221 82.0823 124.819 81.5774 124.819Z" fill="white"/>
<path d="M73.0988 124.819H72.8162C72.3112 124.819 71.9019 125.221 71.9019 125.717V127.839C71.9019 128.335 72.3112 128.737 72.8162 128.737H73.0988C73.6038 128.737 74.0132 128.335 74.0132 127.839V125.717C74.0132 125.221 73.6038 124.819 73.0988 124.819Z" fill="white"/>
<path d="M108.975 120.477C108.975 120.477 110.455 119.742 111.818 120.689C111.984 120.803 112.183 120.852 112.366 120.852C112.666 120.852 112.965 120.705 113.148 120.444C113.447 120.02 113.347 119.432 112.915 119.138C110.571 117.522 108.177 118.746 108.077 118.795C107.612 119.04 107.429 119.612 107.678 120.069C107.928 120.526 108.509 120.705 108.975 120.444V120.477Z" fill="white"/>
<g opacity="0.1">
<path d="M14.2806 139.348C14.2806 139.348 14.1476 139.315 14.0978 139.25C4.87105 124.803 0 108.102 0 90.9941C0 88.8393 0.0831236 86.6681 0.232746 84.5459C0.232746 84.4316 0.349119 84.3663 0.448868 84.35C0.565241 84.35 0.648364 84.4479 0.648364 84.5622C0.498742 86.6844 0.415618 88.8393 0.415618 90.9778C0.415618 108.021 5.27004 124.639 14.4635 139.038C14.53 139.136 14.4968 139.266 14.397 139.315C14.3638 139.332 14.3305 139.348 14.2806 139.348ZM184.784 83.746C184.684 83.746 184.584 83.6643 184.584 83.5501C183.919 75.404 182.124 67.3886 179.248 59.7323C179.215 59.6343 179.248 59.5037 179.364 59.4711C179.481 59.4221 179.597 59.4711 179.63 59.5853C182.506 67.2743 184.318 75.3224 185 83.5174C185 83.6317 184.917 83.7296 184.817 83.7296H184.801L184.784 83.746ZM3.07558 68.6456C3.07558 68.6456 3.04233 68.6456 3.0257 68.6456C2.90933 68.6129 2.84283 68.515 2.87608 68.4007C3.1587 67.3396 3.45794 66.2785 3.75719 65.25C3.79044 65.1357 3.90681 65.0868 4.02318 65.1194C4.13956 65.1521 4.18943 65.2663 4.15618 65.3806C3.84031 66.4091 3.54107 67.4702 3.27507 68.5313C3.25845 68.6292 3.1587 68.6782 3.07558 68.6782V68.6456ZM6.68314 57.7733C6.68314 57.7733 6.63327 57.7733 6.60002 57.7733C6.50027 57.7243 6.43377 57.61 6.48364 57.5121C6.74964 56.8754 7.01564 56.2224 7.28163 55.5858C10.2741 48.6477 14.1144 42.1178 18.7028 36.1593C18.7693 36.0614 18.9023 36.045 19.0021 36.1267C19.1018 36.192 19.1184 36.3226 19.0353 36.4042C14.4635 42.3301 10.6398 48.8436 7.664 55.749C7.39801 56.3857 7.13201 57.0223 6.86601 57.659C6.83276 57.7406 6.74964 57.7896 6.66652 57.7896L6.68314 57.7733ZM176.222 52.3371C176.222 52.3371 176.073 52.2882 176.039 52.2229C175.574 51.2434 175.075 50.2639 174.56 49.3007C174.51 49.2028 174.56 49.0722 174.643 49.0232C174.743 48.9742 174.876 49.0232 174.925 49.1048C175.441 50.068 175.94 51.0638 176.405 52.0433C176.455 52.1412 176.405 52.2718 176.305 52.3208C176.272 52.3208 176.239 52.3371 176.222 52.3371ZM165.798 35.6532C165.798 35.6532 165.682 35.6206 165.632 35.5716C163.255 32.5679 160.645 29.6621 157.885 26.9358C149.423 18.6265 139.565 12.0966 128.576 7.54203C125.251 6.15443 121.809 4.96272 118.368 3.98324C118.252 3.95059 118.202 3.83632 118.235 3.72204C118.268 3.60777 118.385 3.54247 118.501 3.59144C121.959 4.57093 125.4 5.77896 128.742 7.16656C139.781 11.7538 149.672 18.3 158.184 26.642C160.977 29.3845 163.587 32.2904 165.981 35.3268C166.048 35.4084 166.031 35.539 165.948 35.6043C165.915 35.6369 165.865 35.6532 165.815 35.6532H165.798ZM65.8838 4.27708C65.8007 4.27708 65.7176 4.22811 65.6843 4.13016C65.6511 4.01589 65.7176 3.90161 65.8173 3.86897C71.1206 2.28546 76.6234 1.17538 82.1262 0.571366C82.2425 0.538717 82.3423 0.636665 82.3589 0.750938C82.3589 0.865212 82.2924 0.96316 82.176 0.979485C76.6899 1.5835 71.2203 2.69358 65.9337 4.26076C65.9171 4.26076 65.9004 4.26076 65.8672 4.26076L65.8838 4.27708ZM85.4844 0.685639C85.3846 0.685639 85.2849 0.604016 85.2849 0.489742C85.2849 0.375469 85.368 0.277521 85.4844 0.277521C87.8285 0.0979485 90.2224 0 92.5831 0C92.9821 0 93.3977 0 93.7967 0C93.9131 0 93.9962 0.0979485 93.9962 0.212222C93.9962 0.326495 93.8965 0.408119 93.7967 0.408119C93.3977 0.408119 92.9987 0.408119 92.5831 0.408119C90.2224 0.408119 87.8451 0.489742 85.4844 0.669315V0.685639Z" fill="white"/>
</g>
<g opacity="0.3">
<path d="M53.465 163.264C53.465 163.264 53.332 163.264 53.2655 163.215C40.4644 156.473 29.6251 146.531 21.9112 134.451C19.2346 130.255 16.9238 125.799 15.0785 121.195C14.9953 120.983 15.0951 120.754 15.3112 120.673C15.5273 120.591 15.7601 120.689 15.8598 120.901C17.7052 125.456 19.9828 129.88 22.6261 134.026C30.2568 145.992 40.9964 155.836 53.6645 162.513C53.864 162.627 53.9471 162.872 53.8307 163.068C53.7476 163.199 53.6146 163.28 53.465 163.28V163.264ZM10.9389 105.752C10.7394 105.752 10.5732 105.621 10.5233 105.409C9.65881 100.658 9.22656 95.81 9.22656 90.9942C9.22656 87.5986 9.44268 84.2031 9.8583 80.8728C9.89155 80.6443 10.091 80.4811 10.3238 80.5137C10.5565 80.5464 10.7062 80.7422 10.6895 80.9708C10.2739 84.2684 10.0744 87.6313 10.0744 90.9942C10.0744 95.7774 10.5067 100.577 11.3545 105.278C11.3878 105.507 11.2382 105.719 11.022 105.752C11.0054 105.752 10.9722 105.752 10.9555 105.752H10.9389ZM175.657 91.4023C175.424 91.4023 175.241 91.2227 175.241 90.9942C175.241 88.0068 175.075 84.9867 174.742 82.0482C174.726 81.8197 174.875 81.6238 175.108 81.5911C175.324 81.5911 175.54 81.7217 175.574 81.9503C175.906 84.9214 176.072 87.9741 176.072 90.9942C176.072 91.2227 175.889 91.4023 175.657 91.4023ZM11.7036 73.2818C11.7036 73.2818 11.6371 73.2818 11.6039 73.2818C11.3878 73.2329 11.2382 73.0043 11.288 72.7921C12.3686 68.1395 13.8815 63.536 15.7933 59.112C17.1566 55.9613 18.7193 52.8759 20.4483 49.9538C20.5646 49.7579 20.814 49.6926 21.0135 49.8069C21.213 49.9211 21.2795 50.166 21.1631 50.3619C19.4508 53.2677 17.9047 56.3204 16.5581 59.4221C14.6628 63.8135 13.1666 68.3681 12.1026 72.9717C12.0528 73.1676 11.8865 73.2818 11.7036 73.2818ZM171.7 66.4418C171.517 66.4418 171.368 66.3275 171.301 66.1642C170.553 63.8951 169.705 61.626 168.741 59.4221C164.585 49.7579 158.633 41.0894 151.052 33.6454C146.597 29.2703 141.659 25.4177 136.389 22.1854C136.19 22.0711 136.14 21.8099 136.256 21.6303C136.372 21.4508 136.638 21.3855 136.838 21.4997C142.158 24.7647 147.145 28.6663 151.651 33.074C159.315 40.5997 165.316 49.3498 169.522 59.112C170.486 61.3484 171.351 63.6339 172.099 65.9194C172.166 66.1316 172.049 66.3601 171.833 66.4418C171.783 66.4418 171.75 66.4581 171.7 66.4581V66.4418ZM64.6368 14.6433C64.4705 14.6433 64.3043 14.5454 64.2378 14.3658C64.1547 14.1536 64.271 13.9251 64.4872 13.8434C69.7406 11.9987 75.1935 10.6601 80.6963 9.89284C80.9124 9.86019 81.1285 10.0234 81.1618 10.2357C81.195 10.4642 81.0288 10.6601 80.8126 10.6928C75.3597 11.46 69.9567 12.7823 64.7698 14.6107C64.7199 14.627 64.67 14.627 64.6368 14.627V14.6433ZM113.779 12.5375C113.779 12.5375 113.713 12.5375 113.68 12.5375C111.02 11.8518 108.31 11.2968 105.583 10.8723C105.351 10.8397 105.201 10.6275 105.234 10.3989C105.268 10.1704 105.484 10.0234 105.716 10.0561C108.46 10.4805 111.219 11.0519 113.896 11.7375C114.112 11.8028 114.245 12.0151 114.195 12.2436C114.145 12.4232 113.979 12.5538 113.796 12.5538L113.779 12.5375Z" fill="white"/>
</g>
<g opacity="0.5">
<path d="M166.214 92.2188C165.532 92.2188 164.967 91.6637 164.967 90.9944C164.967 81.4934 163.089 72.2862 159.381 63.6015C159.115 62.9811 159.415 62.2628 160.046 62.0017C160.678 61.7405 161.41 62.0343 161.676 62.6546C165.516 71.6496 167.444 81.1832 167.444 90.9944C167.444 91.6801 166.879 92.2188 166.197 92.2188H166.214Z" fill="white"/>
<path d="M156.638 56.5165C156.206 56.5165 155.774 56.2879 155.558 55.8961C153.413 52.1904 150.903 48.648 148.11 45.3667C147.661 44.8443 147.728 44.077 148.259 43.6363C148.791 43.1955 149.573 43.2608 150.022 43.7832C152.914 47.1787 155.508 50.8355 157.736 54.6718C158.085 55.2595 157.869 56.0104 157.27 56.3369C157.071 56.4512 156.871 56.5002 156.655 56.5002L156.638 56.5165ZM146.098 42.5588C145.766 42.5588 145.433 42.4282 145.184 42.167C144.718 41.6936 144.253 41.2202 143.787 40.7468C141.177 38.1838 138.351 35.8004 135.409 33.6782C134.86 33.27 134.727 32.5028 135.143 31.9641C135.558 31.4253 136.34 31.2947 136.888 31.7029C139.93 33.9067 142.856 36.3554 145.55 39.0164C146.048 39.4898 146.531 39.9795 146.996 40.4856C147.478 40.9753 147.445 41.7589 146.946 42.216C146.697 42.4445 146.398 42.5588 146.082 42.5588H146.098ZM75.0608 22.0386C74.4956 22.0386 73.9968 21.6631 73.8472 21.1081C73.681 20.4551 74.0966 19.7858 74.7616 19.6226C78.4024 18.741 82.1596 18.137 85.9001 17.8105C86.5817 17.7615 87.1969 18.2513 87.2467 18.9206C87.2966 19.5899 86.7979 20.1939 86.1163 20.2429C82.4921 20.5531 78.8679 21.1571 75.3434 22.006C75.2437 22.0223 75.1439 22.0386 75.0442 22.0386H75.0608ZM108.061 21.5489C107.978 21.5489 107.895 21.5489 107.795 21.5162C104.969 20.9285 102.076 20.5041 99.1833 20.2429C98.5017 20.1776 97.9863 19.5899 98.0528 18.9206C98.1193 18.2513 98.7178 17.7615 99.3994 17.8105C102.392 18.0717 105.384 18.5125 108.31 19.1328C108.992 19.2797 109.408 19.9327 109.275 20.5857C109.142 21.1571 108.626 21.5489 108.061 21.5489Z" fill="white"/>
<path d="M30.6396 131.088C30.2239 131.088 29.8249 130.892 29.5922 130.533L29.2265 129.962C23.707 121.326 20.1493 111.809 18.6365 101.72C18.5368 101.051 19.0022 100.43 19.6839 100.332C20.3655 100.251 20.9972 100.691 21.097 101.361C22.5599 111.123 26.0013 120.314 31.3212 128.672L31.6703 129.211C32.036 129.782 31.8698 130.533 31.2879 130.909C31.0718 131.039 30.8391 131.104 30.6063 131.104L30.6396 131.088ZM21.8451 72.5803C21.7287 72.5803 21.6123 72.5803 21.5126 72.5313C20.8476 72.3517 20.4652 71.6661 20.6481 71.0131C21.496 68.091 22.5267 65.1851 23.7403 62.3773C24.2889 61.104 24.8708 59.847 25.4859 58.6226C25.7851 58.0186 26.5332 57.7574 27.1484 58.0676C27.7635 58.3614 28.0295 59.096 27.7136 59.7C27.1317 60.8754 26.5499 62.0998 26.0345 63.3241C24.8708 66.034 23.8567 68.8419 23.0421 71.6661C22.8924 72.2048 22.3937 72.5639 21.8451 72.5639V72.5803ZM28.6612 56.5494C28.4451 56.5494 28.2456 56.5004 28.0461 56.3861C27.4476 56.0433 27.2315 55.3087 27.5806 54.721C29.7917 50.8847 32.3852 47.2279 35.2945 43.8324C35.7433 43.31 36.5247 43.2447 37.0567 43.6854C37.5887 44.1262 37.6552 44.8935 37.2063 45.4159C34.3967 48.6971 31.903 52.2396 29.7584 55.9453C29.5257 56.3371 29.1101 56.5657 28.6778 56.5657L28.6612 56.5494ZM42.3267 39.5226C41.9942 39.5226 41.6618 39.392 41.4124 39.1308C40.9469 38.6411 40.9635 37.8575 41.4623 37.4004C47.9293 31.4256 55.3605 26.6914 63.5233 23.2958C65.086 22.6428 66.682 22.0388 68.2779 21.5001C68.9263 21.2879 69.6412 21.6144 69.8739 22.2511C70.1067 22.8877 69.7575 23.5897 69.1092 23.8182C67.5797 24.3406 66.0336 24.912 64.5208 25.5487C56.624 28.8299 49.4421 33.4172 43.1912 39.1798C42.9419 39.4084 42.6426 39.5063 42.3434 39.5063L42.3267 39.5226Z" fill="white"/>
<path d="M58.3198 156.114C58.1203 156.114 57.9208 156.065 57.7379 155.967C48.9434 151.396 41.2628 145.258 34.9121 137.699C34.4799 137.177 34.5464 136.41 35.0784 135.969C35.6104 135.545 36.3917 135.61 36.8406 136.132C42.9751 143.429 50.3898 149.372 58.9016 153.779C59.5167 154.09 59.7495 154.84 59.417 155.428C59.2009 155.836 58.752 156.081 58.3198 156.081V156.114Z" fill="white"/>
</g>
<path d="M81.6606 130.663C81.1286 130.663 80.6964 131.088 80.6964 131.61C80.6964 132.279 80.1478 132.834 79.4496 132.834C78.7513 132.834 78.2027 132.296 78.2027 131.61C78.2027 131.088 77.7705 130.663 77.2385 130.663C76.7065 130.663 76.2742 131.088 76.2742 131.61C76.2742 132.279 75.7256 132.834 75.0274 132.834C74.3291 132.834 73.7805 132.296 73.7805 131.61C73.7805 131.088 73.3483 130.663 72.8163 130.663C72.2843 130.663 71.8521 131.088 71.8521 131.61C71.8521 133.324 73.2651 134.712 75.0107 134.712C75.8586 134.712 76.64 134.369 77.2052 133.83C77.7705 134.369 78.5518 134.712 79.3997 134.712C81.1453 134.712 82.5584 133.324 82.5584 131.61C82.5584 131.088 82.1261 130.663 81.5941 130.663H81.6606Z" fill="white"/>
</svg>
