<svg width="30" height="30" viewBox="0 0 30 30" fill="none" xmlns="http://www.w3.org/2000/svg">
<circle cx="14.6357" cy="14.6357" r="14.6357" fill="#008AD8"/>
<path d="M19.4522 17.084C18.6652 16.4109 17.8666 16.0032 17.0893 16.6753L16.6251 17.0815C16.2855 17.3763 15.6541 18.754 13.2129 15.9458C10.7722 13.1411 12.2246 12.7044 12.5647 12.4121L13.0314 12.0054C13.8046 11.3318 13.5128 10.4838 12.9552 9.61092L12.6186 9.08221C12.0584 8.21136 11.4483 7.63944 10.6731 8.31202L10.2542 8.67805C9.91152 8.92766 8.95374 9.73903 8.72141 11.2804C8.44181 13.1299 9.32384 15.2478 11.3446 17.5715C13.3629 19.8963 15.3389 21.0641 17.2108 21.0437C18.7664 21.027 19.7059 20.1922 19.9997 19.8887L20.4201 19.5222C21.1934 18.8501 20.7129 18.1658 19.9255 17.4912L19.4522 17.084Z" fill="white"/>
</svg>
