<svg width="54" height="53" viewBox="0 0 54 53" fill="none" xmlns="http://www.w3.org/2000/svg">
<path d="M27.0001 52.4069C41.4847 52.4069 53.2268 40.8283 53.2268 26.5453C53.2268 12.2623 41.4847 0.683594 27.0001 0.683594C12.5155 0.683594 0.773438 12.2623 0.773438 26.5453C0.773438 40.8283 12.5155 52.4069 27.0001 52.4069Z" fill="url(#paint0_linear_1_3084)"/>
<path d="M13.4838 41.7735C12.3616 42.1343 11.3125 41.0758 11.7029 39.9932C12.3128 38.1889 13.1179 35.8554 13.6058 34.3879V34.3398C13.6546 34.2676 13.6058 34.2195 13.6058 34.1473C12.7763 32.8001 12.1908 31.3566 11.8248 29.817C11.6541 29.0712 11.5321 28.3254 11.4589 27.5556C11.3857 26.8098 11.3857 26.04 11.4101 25.2942C11.5321 23.2493 12.02 21.3007 12.9227 19.4482C14.8501 15.4547 18.3632 12.4716 22.6327 11.1725C23.4622 10.9079 24.3405 10.7395 25.1944 10.6192C26.1458 10.4989 27.0729 10.4508 28.0244 10.4989C31.5131 10.6914 34.636 11.8461 37.344 14.0594C39.8325 16.0802 41.5403 18.6303 42.4918 21.6856C42.7601 22.5516 42.9309 23.4658 43.0529 24.356C43.1505 25.1739 43.1749 25.9919 43.1505 26.8339C42.9797 30.2981 41.8086 33.4015 39.5641 36.0959C37.3684 38.7182 34.6115 40.4503 31.2692 41.3405C30.4885 41.5329 29.7078 41.6773 28.9271 41.7494C28.122 41.8216 27.2925 41.8457 26.463 41.8216C24.0965 41.7013 21.852 41.0999 19.7538 39.9692C19.6562 39.9211 19.5343 39.897 19.4367 39.9451C17.8753 40.4503 15.3868 41.2202 13.4838 41.8216V41.7735ZM14.9233 38.622C14.9233 38.622 18.29 37.5634 19.9002 37.0582C19.9978 37.0342 20.0466 37.0582 20.1198 37.0823C22.1447 38.3814 24.3649 39.055 26.7801 39.1512C27.9024 39.1993 29.0003 39.1031 30.0981 38.8625C33.1477 38.1889 35.6606 36.6493 37.6124 34.2676C39.4177 32.0784 40.3692 29.5523 40.5156 26.7376C40.5644 25.5348 40.4668 24.356 40.1984 23.2012C39.3933 19.9294 37.588 17.3071 34.7823 15.3826C32.8306 14.0353 30.6349 13.2896 28.244 13.1212C27.4877 13.073 26.707 13.073 25.9506 13.1693C25.1943 13.2414 24.4624 13.3858 23.7305 13.5783C18.3388 15.0698 14.4353 19.8091 14.1182 25.3423C14.045 26.4489 14.1182 27.5315 14.3377 28.6141C14.7037 30.4425 15.4356 32.1265 16.5334 33.6662C16.5822 33.7383 16.6066 33.8105 16.5578 33.9067C16.1431 35.1337 14.9477 38.622 14.9477 38.622H14.9233Z" fill="white"/>
<path d="M19.3388 22.4076C19.3388 21.0844 19.778 20.0018 20.6807 19.1117C20.7539 19.0395 20.827 18.9674 20.9002 18.9192C21.2662 18.5824 21.6809 18.414 22.1933 18.4862C22.4372 18.5103 22.6812 18.5343 22.9252 18.5343C23.1204 18.5343 23.2911 18.6306 23.4131 18.7749C23.5351 18.9192 23.6083 19.0877 23.6571 19.2561C23.9742 20.1221 24.2914 20.9641 24.633 21.8302C24.6818 21.9745 24.755 22.1189 24.8037 22.2632C24.9013 22.5038 24.9013 22.7444 24.7793 22.9849C24.5842 23.3699 24.3158 23.6586 24.023 23.9713C23.9011 24.1156 23.7547 24.2359 23.6327 24.3562C23.4131 24.5968 23.3643 24.7892 23.5351 25.0779C24.0718 26.0643 24.7306 26.9785 25.5357 27.7964C26.3895 28.6384 27.3654 29.3361 28.4633 29.8413C28.6097 29.9135 28.7804 29.9856 28.9268 30.0578C28.9756 30.0578 29 30.1059 29.0488 30.1059C29.3172 30.2022 29.5367 30.1781 29.7319 29.9616C30.1955 29.4564 30.6834 28.9512 31.0981 28.3979C31.1469 28.3497 31.1957 28.3016 31.2445 28.2535C31.3665 28.1573 31.5129 28.1092 31.6593 28.1573C31.83 28.2054 32.0008 28.2535 32.1472 28.3497C32.7571 28.6625 33.3671 28.9752 33.977 29.288C34.3429 29.4804 34.7089 29.6729 35.0748 29.8894C35.1724 29.9375 35.2456 30.0097 35.3432 30.0578C35.4164 30.1059 35.4652 30.2022 35.4896 30.2984C35.514 30.539 35.4896 30.8036 35.4408 31.0442C35.392 31.3569 35.2944 31.6456 35.1968 31.9343C35.0992 32.1989 34.9529 32.4395 34.7333 32.656C34.3185 33.065 33.8062 33.3777 33.2695 33.6183C32.9523 33.7626 32.6107 33.8589 32.2692 33.8829C32.0984 33.8829 31.9276 33.931 31.7325 33.9551C31.3909 34.0032 31.0737 33.9551 30.7322 33.8589C30.1223 33.7145 29.5367 33.498 28.9512 33.2815C28.3169 33.0169 27.6826 32.7763 27.0726 32.4876C25.9748 31.9824 25.0233 31.2607 24.1206 30.4668C22.852 29.312 21.8029 27.9889 20.9002 26.5695C20.6319 26.1605 20.3635 25.7756 20.1439 25.3426C19.8268 24.7171 19.5584 24.0675 19.412 23.3699C19.3388 23.0331 19.3144 22.6963 19.29 22.4316L19.3388 22.4076Z" fill="white"/>
<defs>
<linearGradient id="paint0_linear_1_3084" x1="27.0001" y1="49.7606" x2="27.0001" y2="-6.8223" gradientUnits="userSpaceOnUse">
<stop stop-color="#FF7A00"/>
<stop offset="1" stop-color="#DE0000"/>
</linearGradient>
</defs>
</svg>
