<svg width="26" height="26" viewBox="0 0 26 26" fill="none" xmlns="http://www.w3.org/2000/svg">
<path d="M21.5212 0.428711H4.49716C3.36839 0.428711 2.28588 0.876992 1.48767 1.67517C0.689448 2.47334 0.241211 3.55589 0.241211 4.68466V21.7087C0.241211 22.8374 0.689491 23.9199 1.48767 24.7182C2.28584 25.5164 3.36839 25.9646 4.49716 25.9646H21.5212C22.6499 25.9646 23.7324 25.5163 24.5307 24.7182C25.3289 23.92 25.7771 22.8374 25.7771 21.7087V4.68466C25.7771 3.55589 25.3288 2.47338 24.5307 1.67517C23.7325 0.876948 22.6499 0.428711 21.5212 0.428711ZM13.0092 21.1007C12.6733 21.1007 12.4012 20.8284 12.4012 20.4926V13.4517L9.84767 10.886C9.7198 10.7749 9.6441 10.6155 9.63879 10.4462C9.63349 10.2768 9.69902 10.1131 9.81967 9.99414C9.94012 9.87518 10.1049 9.81199 10.2741 9.81984C10.4433 9.82747 10.6017 9.90529 10.7109 10.0349L13.4227 12.7707C13.5306 12.8863 13.5913 13.0381 13.5929 13.1963V20.4923C13.5932 20.8189 13.3355 21.0874 13.0092 21.1005V21.1007Z" fill="#2BB473"/>
</svg>
