<svg width="24" height="26" viewBox="0 0 24 26" fill="none" xmlns="http://www.w3.org/2000/svg">
<path d="M21.3207 18.0964C19.7651 16.753 18.1864 15.9392 16.6498 17.2806L15.7323 18.0913C15.061 18.6798 13.8129 21.4295 8.98722 15.8246C4.16254 10.2268 7.03363 9.3552 7.70593 8.77178L8.62846 7.96006C10.157 6.61565 9.58013 4.92322 8.47772 3.18107L7.81245 2.12583C6.70502 0.387743 5.4991 -0.753736 3.96658 0.588643L3.13852 1.31919C2.46119 1.81738 0.5679 3.43676 0.108647 6.51317C-0.444066 10.2045 1.29949 14.4315 5.2941 19.0694C9.28368 23.7094 13.1898 26.0401 16.89 25.9995C19.9651 25.966 21.8222 24.2999 22.4031 23.6942L23.2341 22.9626C24.7626 21.6213 23.813 20.2556 22.2563 18.9091L21.3207 18.0964Z" fill="#2BB473"/>
</svg>
