<svg width="18" height="20" viewBox="0 0 18 20" fill="none" xmlns="http://www.w3.org/2000/svg">
<path d="M15.984 13.9203C14.8172 12.8869 13.6332 12.261 12.4808 13.2928L11.7927 13.9164C11.2892 14.3691 10.3531 16.4842 6.73382 12.1728C3.11531 7.86675 5.26863 7.19631 5.77286 6.74752L6.46475 6.12312C7.61113 5.08896 7.17851 3.78709 6.3517 2.44698L5.85275 1.63526C5.02217 0.298264 4.11773 -0.579797 2.96834 0.452802L2.3473 1.01476C1.8393 1.39799 0.419334 2.64366 0.0748931 5.01013C-0.339641 7.84958 0.968027 11.1011 3.96398 14.6688C6.95617 18.238 9.88579 20.0308 12.6609 19.9996C14.9672 19.9738 16.3601 18.6923 16.7957 18.2263L17.419 17.6636C18.5654 16.6317 17.8531 15.5812 16.6857 14.5455L15.984 13.9203Z" fill="#15C171"/>
</svg>
